<?xml version="1.0" encoding="utf-8"?>
<!-- Generator: Adobe Illustrator 15.1.0, SVG Export Plug-In  -->
<!DOCTYPE svg PUBLIC "-//W3C//DTD SVG 1.1//EN" "http://www.w3.org/Graphics/SVG/1.1/DTD/svg11.dtd" [
	<!ENTITY ns_flows "http://ns.adobe.com/Flows/1.0/">
]>
<svg version="1.1"
	 xmlns="http://www.w3.org/2000/svg" xmlns:xlink="http://www.w3.org/1999/xlink" xmlns:a="http://ns.adobe.com/AdobeSVGViewerExtensions/3.0/"
	 x="0px" y="0px" width="90px" height="90px" viewBox="-0.0058594 -0.0058594 90 90"
	 enable-background="new -0.0058594 -0.0058594 90 90" xml:space="preserve">
<defs>
</defs>
<circle fill="#FFFFFF" cx="44.9941406" cy="44.9941406" r="44.9941406"/>
<circle fill="#B44137" cx="75.9941406" cy="23.2753906" r="3.625"/>
<path fill="#B44137" d="M62.4931641,24.3276367c-3.3808594,0-6.4091797,1.4726563-8.5068359,3.8012695
	c-0.0019531-0.0024414-0.0048828-0.0068359-0.0078125-0.0097656c-1.875-1.96875-6.25-4.5625-9.96875-5.5625
	c-3.671875-1.09375-7.671875-1.0625-7.671875-1.0625h-15.84375h-1.2192383h-8.9018555v45.390625h10.1210938h16.15625
	c1.03125-0.015625,3.75-0.40625,5.828125-1s6.28125-1.921875,10.59375-5.390625s5.78125-6.96875,6.59375-8.984375
	c0.7070313-1.7529297,1.0351563-3.8828125,1.1083984-4.4082031c0.5625,0.0849609,1.1328125,0.1425781,1.71875,0.1425781
	c6.328125,0,11.4589844-5.1298828,11.4589844-11.4580078S68.8212891,24.3276367,62.4931641,24.3276367z M50.2441406,42.9941406
	c-0.3339844,13.5830078-13.484375,15.328125-13.484375,15.328125l-16.265625,0.015625v-28.953125h15.609375l0.4321289,0.0258789
	c4,0.25,8.1669922,3.3334961,8.1669922,3.3334961C50.6611328,37.0356445,50.2441406,42.9941406,50.2441406,42.9941406z"/>
</svg>
