<?xml version="1.0" standalone="no"?>
<!DOCTYPE svg PUBLIC "-//W3C//DTD SVG 20010904//EN"
 "http://www.w3.org/TR/2001/REC-SVG-20010904/DTD/svg10.dtd">
<svg version="1.0" xmlns="http://www.w3.org/2000/svg"
 width="240.000000pt" height="240.000000pt" viewBox="0 0 240.000000 240.000000"
 preserveAspectRatio="xMidYMid meet">
<metadata>
Created by potrace 1.14, written by Peter Selinger 2001-2017
</metadata>
<g transform="translate(0.000000,240.000000) scale(0.100000,-0.100000)"
fill="#000000" stroke="none">
<path fill="#FFFFFF" stroke="none" d="M1015 2384 c-516 -80 -924 -490 -999
-1005 -20 -134 -20 -224 0 -358 56 -382 292 -711 640 -888 590 -302 1309 -68
1611 523 242 473 143 1048 -243 1414 -268 255 -641 371 -1009 314z"/>
<path fill="#634421" stroke="none" d="M1480 2103 c-62 -23 -360 -183 -427
-230 -30 -20 -29 -12 7 99 17 55 26 96 20 102 -10 10 -62 -90 -105 -202 -24
-61 -36 -79 -75 -107 -76 -56 -252 -244 -322 -346 -192 -276 -331 -536 -327
-612 1 -20 2 -20 6 -2 5 23 53 137 86 205 25 51 170 275 237 365 64 86 275
295 345 342 112 75 270 151 412 199 l143 48 25 66 c14 36 25 69 25 73 0 8 -28
8 -50 0z"/>
<path fill="#634421" stroke="none" d="M1585 1871 c-16 -5 -55 -14 -85 -21
-305 -69 -618 -229 -814 -417 -125 -121 -285 -364 -353 -535 -22 -58 -24 -72
-14 -94 11 -24 16 -26 54 -22 51 6 95 26 160 74 56 41 55 55 -1 30 -21 -10
-54 -16 -73 -14 -51 5 -50 38 4 150 75 160 239 375 355 467 l40 31 62 -188
c34 -103 78 -218 98 -257 40 -76 136 -178 236 -251 l59 -43 31 23 c37 28 110
62 186 86 30 10 57 24 61 31 21 44 85 261 73 244 -25 -33 -56 -96 -80 -165
l-23 -65 -98 -35 c-54 -20 -108 -42 -121 -49 -21 -11 -31 -7 -108 45 -98 66
-118 89 -172 199 -34 68 -60 157 -87 295 -11 53 19 -14 61 -140 l42 -125 50
-5 c28 -3 48 -2 46 2 -3 5 -20 8 -37 8 -18 0 -37 4 -43 8 -6 4 -30 65 -53 136
-24 71 -51 146 -61 165 -10 20 -21 62 -25 93 l-7 57 48 31 c140 89 445 214
574 235 46 7 91 25 60 24 -8 -1 -28 -4 -45 -8z"/>
<path fill="#634421" stroke="none" d="M1381 1584 c-19 -21 -47 -40 -69 -46
-37 -10 -142 -105 -142 -129 0 -6 19 0 43 14 23 13 49 27 57 31 19 8 -17 1
-45 -9 -12 -4 0 12 27 39 26 25 52 46 57 46 17 0 13 -41 -5 -61 -15 -17 -13
-17 32 -3 27 8 62 27 78 42 48 44 70 66 86 87 13 17 11 17 -17 -3 -40 -28 -51
-28 -27 1 l19 22 -25 -21 c-14 -12 -36 -25 -50 -29 l-25 -7 24 26 c14 14 22
28 19 31 -3 3 -20 -11 -37 -31z"/>
<path fill="#ffffff" stroke="none" d="M1370 1525 c0 -8 -4 -15 -10 -15 -5 0
-7 7 -4 15 4 8 8 15 10 15 2 0 4 -7 4 -15z"/>
<path fill="#634421" stroke="none" d="M1711 1296 c-28 -30 -21 -48 8 -22 23
21 43 17 120 -26 63 -35 251 -156 251 -162 0 -2 -20 -16 -45 -31 -97 -56 -160
-140 -137 -181 8 -15 10 -13 10 8 0 75 123 148 249 148 64 0 68 13 15 56 -95
79 -342 216 -413 229 -29 5 -38 2 -58 -19z"/>
<path fill="#634421" stroke="none" d="M1710 1201 c-15 -29 -13 -34 15 -27 19
5 39 -3 80 -30 30 -20 55 -39 55 -41 0 -3 -20 -28 -45 -55 -84 -94 -82 -165 7
-263 26 -29 48 -55 48 -58 0 -2 -39 -18 -87 -36 -137 -48 -253 -133 -337 -244
-48 -62 -24 -50 28 14 82 103 258 199 426 231 30 6 58 14 62 17 4 4 -26 31
-67 61 -141 100 -148 150 -35 252 39 35 70 66 70 70 0 8 -115 90 -157 112 -41
21 -50 20 -63 -3z"/>
<path fill="#634421" stroke="none" d="M253 746 c3 -41 26 -53 75 -38 22 7 51
21 64 32 18 15 12 14 -28 -6 -58 -29 -99 -22 -107 18 -4 17 -5 16 -4 -6z"/>
</g>
</svg>
