<?xml version="1.0" encoding="UTF-8" standalone="no"?>
<svg width="90px" height="90px" viewBox="0 0 90 90" version="1.1" xmlns="http://www.w3.org/2000/svg" xmlns:xlink="http://www.w3.org/1999/xlink" xmlns:sketch="http://www.bohemiancoding.com/sketch/ns">
    <!-- Generator: Sketch 3.3 (11970) - http://www.bohemiancoding.com/sketch -->
    <title>Oval 1 + Java_avatar + Group</title>
    <desc>Created with Sketch.</desc>
    <defs></defs>
    <g id="Page-1" stroke="none" stroke-width="1" fill="none" fill-rule="evenodd" sketch:type="MSPage">
        <g id="Desktop" sketch:type="MSArtboardGroup" transform="translate(-1081.000000, -1794.000000)">
            <g id="Rectangle-154-+-Group" sketch:type="MSLayerGroup" transform="translate(0.000000, 600.000000)">
                <g id="Group" transform="translate(0.000000, 58.000000)" sketch:type="MSShapeGroup">
                    <g id="Group-Copy-3-+-Rectangle-118-+-Oval-1-+-asp_net_icon_transparent-Copy-Copy" transform="translate(938.000000, 1136.000000)">
                        <g id="Oval-1-+-Java_avatar-+-Group" transform="translate(143.000000, 0.000000)">
                            <g id="Oval-1-+-Java_avatar" fill="#FFFFFF">
                                <circle id="Oval-1" cx="45" cy="45" r="45"></circle>
                            </g>
                            <g id="Group" transform="translate(27.000000, 20.000000)">
                                <path d="M11.9316255,38.6188172 C11.9316255,38.6188172 10.02404,39.7270161 13.2891891,40.1020161 C17.2448255,40.5528226 19.2665055,40.488172 23.6256436,39.6639785 C23.6256436,39.6639785 24.7717018,40.3818548 26.3722545,41.003629 C16.6002182,45.1875 4.25621091,40.7612903 11.9316255,38.6188172" id="Shape" fill="#5382A1"></path>
                                <path d="M10.7375345,33.1591398 C10.7375345,33.1591398 8.59799273,34.7412634 11.8655636,35.0788978 C16.0910982,35.5143817 19.4280945,35.55 25.2023818,34.4392473 C25.2023818,34.4392473 26.0010436,35.2481183 27.2568909,35.690457 C15.4419164,39.1418011 2.28216,35.9626344 10.7375345,33.1591398" id="Shape" fill="#5382A1"></path>
                                <path d="M20.8040909,23.8977151 C23.2119164,26.6670699 20.1714582,29.1591398 20.1714582,29.1591398 C20.1714582,29.1591398 26.2853382,26.0061828 23.4775091,22.0579301 C20.8550836,18.3759409 18.8440327,16.5465054 29.7310473,10.2388441 C29.7310473,10.2388441 12.6420255,14.5025538 20.8040909,23.8977151" id="Shape" fill="#E76F00"></path>
                                <path d="M33.7283927,42.6571237 C33.7283927,42.6571237 35.1400436,43.819086 32.17372,44.7180108 C26.5331709,46.425 8.69715273,46.940457 3.74238182,44.7860215 C1.96126909,44.0119624 5.30136,42.9377688 6.35202545,42.7123656 C7.44776364,42.475 8.07393818,42.5192204 8.07393818,42.5192204 C6.09316,41.1252688 -4.72900364,45.2563172 2.57681455,46.4393817 C22.5008436,49.6672043 38.8964182,44.9858871 33.7283927,42.6571237" id="Shape" fill="#5382A1"></path>
                                <path d="M12.8489564,27.5022849 C12.8489564,27.5022849 3.77642182,29.6549731 9.63614545,30.4366935 C12.1103018,30.7676075 17.0424691,30.6927419 21.6366582,30.3081989 C25.3912836,29.9918011 29.1613818,29.319086 29.1613818,29.319086 C29.1613818,29.319086 27.8374545,29.8854839 26.8796255,30.5388441 C17.6666255,32.9594086 -0.131181818,31.8333333 4.99257818,29.3573925 C9.32574909,27.2649194 12.8489564,27.5022849 12.8489564,27.5022849" id="Shape" fill="#5382A1"></path>
                                <path d="M29.1239782,36.5901882 C38.4894182,31.7284946 34.1592073,27.0564516 31.1367782,27.6858871 C30.3959709,27.8399194 30.0656618,27.9733871 30.0656618,27.9733871 C30.0656618,27.9733871 30.3406727,27.5430108 30.8659382,27.3567204 C36.8452727,25.2567204 41.4437673,33.5504032 28.9357491,36.8352151 C28.9357491,36.8353495 29.0806545,36.705914 29.1239782,36.5901882" id="Shape" fill="#5382A1"></path>
                                <path d="M23.4775091,0.0536290323 C23.4775091,0.0536290323 28.6642364,5.23682796 18.5581236,13.2071237 C10.4540473,19.600672 16.7101418,23.2461022 18.55476,27.4111559 C13.8242764,23.1474462 10.3527345,19.394086 12.6817164,15.9008065 C16.1001127,10.7729839 25.5702291,8.28682796 23.4775091,0.0536290323" id="Shape" fill="#E76F00"></path>
                                <path d="M13.7692473,49.7642473 C22.7589018,50.3391129 36.5635345,49.4452957 36.89048,45.1959677 C36.89048,45.1959677 36.2620182,46.8068548 29.4610145,48.0861559 C21.7881564,49.528629 12.3247673,49.3602151 6.71193455,48.4357527 C6.71206909,48.4356183 7.86095273,49.3857527 13.7692473,49.7642473" id="Shape" fill="#5382A1"></path>
                            </g>
                        </g>
                    </g>
                </g>
            </g>
        </g>
    </g>
</svg>