<svg width="300" height="64" viewBox="0 0 300 64" fill="none" xmlns="http://www.w3.org/2000/svg">
  <path d="M69.4472 45.1602L79.4013 19.0701H83.2377L93.1533 45.1602H89.6896L86.9327 38.1172H75.5649L72.8081 45.1602H69.4472ZM85.956 35.174L81.2199 22.6109L76.5224 35.174H85.956Z" fill="white"/>
  <path d="M107.548 26.1517H110.607V45.1602H107.959L107.548 42.6283C106.43 44.0421 104.605 45.3851 101.475 45.3851C97.2981 45.3851 93.9822 43.0396 93.9822 36.7355V26.1517H97.0411V36.5492C97.0411 40.5013 98.8275 42.5898 101.996 42.5898C105.459 42.5898 107.548 39.9422 107.548 35.656V26.1517Z" fill="white"/>
  <path d="M112.072 28.9471V26.1517H115.503V20.8244H118.562V26.1517H123.485V28.9471H118.562V40.1671C118.562 41.7672 119.121 42.3648 120.76 42.3648H123.78V45.1602H120.464C116.814 45.1602 115.51 43.5601 115.51 40.2057V28.9471H112.072Z" fill="white"/>
  <path d="M142.474 34.5764V45.1602H139.415V34.7627C139.415 30.8107 137.513 28.7222 134.236 28.7222C130.695 28.7222 128.497 31.3697 128.497 35.656V45.1602H125.438V19.0701H128.497V29.2812C129.615 27.4948 131.556 25.9268 134.756 25.9268C139.004 25.9268 142.467 28.2723 142.467 34.5764H142.474Z" fill="white"/>
  <path d="M144.601 31.5175C144.601 24.1018 148.624 18.8452 154.516 18.8452C160.409 18.8452 164.393 24.1018 164.393 31.5175V32.7128C164.393 40.5013 160.371 45.3851 154.516 45.3851C148.662 45.3851 144.601 40.5013 144.601 32.7128V31.5175ZM161.225 31.6268C161.225 25.4384 158.539 21.7112 154.516 21.7112C150.494 21.7112 147.769 25.4384 147.769 31.6268V32.5971C147.769 38.7855 150.455 42.5126 154.516 42.5126C158.578 42.5126 161.225 38.7855 161.225 32.5971V31.6268Z" fill="white"/>
  <path d="M195.438 35.656C195.438 41.4716 191.563 45.3851 186.307 45.3851C183.1 45.3851 180.941 44.0806 179.784 42.2556L179.373 45.1602H176.725V19.0701H179.784V29.2105C181.05 27.4562 183.1 25.9332 186.307 25.9332C191.563 25.9332 195.438 29.474 195.438 35.6624V35.656ZM192.309 35.656C192.309 31.5175 189.777 28.6515 186.011 28.6515C182.245 28.6515 179.752 31.524 179.752 35.5853C179.752 39.6466 182.284 42.6669 186.011 42.6669C189.738 42.6669 192.309 39.7944 192.309 35.6624V35.656Z" fill="white"/>
  <path d="M195.322 26.1517H198.568L204.422 41.3238L210.09 26.1517H213.335L204.576 48.3669C203.381 51.4257 202.674 52.6145 199.994 52.6145H196.344V49.8192H199.062C200.817 49.8192 201.112 49.3693 201.819 47.5829L202.751 45.2695L195.335 26.1517H195.322Z" fill="white"/>
  <path d="M236.173 45.3851C228.828 45.3851 223.726 39.7944 223.726 32.1152C223.726 24.4359 228.835 18.8452 236.173 18.8452C243.512 18.8452 248.621 24.4359 248.621 32.1152C248.621 39.7944 243.512 45.3851 236.173 45.3851ZM236.173 42.4034C241.616 42.4034 245.305 38.1172 245.305 32.1152C245.305 26.1131 241.616 21.8269 236.173 21.8269C230.73 21.8269 227.042 26.1131 227.042 32.1152C227.042 38.1172 230.73 42.4034 236.173 42.4034Z" fill="white"/>
  <path d="M250.966 19.0701H254.025V36.2536L263.568 26.1517H267.334L259.918 34.0173L267.854 45.1602H264.166L257.868 36.215L254.032 40.1671V45.1602H250.973V19.0701H250.966Z" fill="white"/>
  <path d="M268.105 28.9471V26.1517H271.536V20.8244H274.595V26.1517H279.518V28.9471H274.595V40.1671C274.595 41.7672 275.154 42.3648 276.793 42.3648H279.813V45.1602H276.497C272.847 45.1602 271.543 43.5601 271.543 40.2057V28.9471H268.105Z" fill="white"/>
  <path d="M299.439 42.3648V45.1602H297.761C295.23 45.1602 294.368 44.0806 294.33 42.217C293.135 43.9328 291.239 45.3851 287.955 45.3851C283.778 45.3851 280.951 43.2966 280.951 39.8329C280.951 36.0287 283.598 33.9081 288.591 33.9081H294.182V32.6035C294.182 30.1423 292.428 28.6515 289.446 28.6515C286.76 28.6515 284.973 29.9174 284.601 31.8581H281.542C281.992 28.131 285.006 25.9332 289.594 25.9332C294.439 25.9332 297.234 28.3559 297.234 32.7899V41.0989C297.234 42.1078 297.607 42.3648 298.462 42.3648H299.439ZM288.296 36.4785C285.577 36.4785 284.048 37.4874 284.048 39.6466C284.048 41.5102 285.648 42.7761 288.186 42.7761C291.991 42.7761 294.188 40.5784 294.188 37.4103V36.4785H288.296Z" fill="white"/>
  <path d="M3.37163 27.7823C13.8466 26.0536 22.0585 17.3818 23.7786 6.88966L24.3558 1.84681C24.4986 1.04545 23.9557 -0.0707301 22.9442 0.00940596C15.0295 0.627599 7.56046 3.24347 3.40592 4.9435C1.34294 5.79065 0 7.79405 0 10.0264V26.4772C0 27.4503 0.874338 28.1944 1.8344 28.0399L3.37163 27.788V27.7823Z" fill="white"/>
  <path d="M28.8312 6.89002C30.557 17.3821 38.7689 26.054 49.2381 27.7826L50.7753 28.0345C51.7354 28.1948 52.6097 27.4507 52.6097 26.4718V10.0211C52.6097 7.78869 51.2668 5.78529 49.2038 4.93814C45.0436 3.23238 37.5802 0.622239 29.6655 0.00404612C28.6483 -0.0760899 28.1282 1.05154 28.2483 1.84145L28.8254 6.8843L28.8312 6.89002Z" fill="white"/>
  <path d="M49.2301 32.3907C34.915 35.2184 28.2689 44.7488 28.2689 62.7909C28.2689 63.6953 29.166 64.3249 29.9204 63.8212C36.5036 59.3737 50.9902 47.7654 52.4818 33.2436C52.5389 31.4176 50.2588 32.2762 49.2301 32.3907Z" fill="white"/>
  <path d="M3.37691 32.3907C17.6921 35.2184 24.3382 44.7488 24.3382 62.7909C24.3382 63.6953 23.441 64.3249 22.6867 63.8212C16.1034 59.3737 1.6168 47.7654 0.125285 33.2436C0.0681382 31.4176 2.34828 32.2762 3.37691 32.3907Z" fill="white"/>
</svg>
