<svg width="110" height="32" viewBox="0 0 110 32" fill="none" xmlns="http://www.w3.org/2000/svg">
  <path
    d="M35.0766 20.0987C35.0766 16.6589 37.9304 15.3594 41.5228 15.3594H45.0136C45.2683 15.3594 45.3959 15.2318 45.3959 14.9771V14.4422C45.3959 12.5822 43.9947 11.6904 41.9306 11.6904C40.3253 11.6904 39.2299 12.2258 38.6435 13.3723C38.4398 13.7801 38.2612 13.9327 37.8283 13.9327H36.3251C35.8412 13.9327 35.6115 13.678 35.6115 13.2957C35.6115 13.1171 35.6626 12.8624 35.8663 12.4295C36.8345 10.4168 38.72 9.11731 42.2364 9.11731C46.16 9.11731 48.4789 10.8502 48.4789 14.6463V20.9398C48.4789 21.5768 48.7081 21.7299 49.243 21.7299H49.2685C49.778 21.7299 50.0327 21.9846 50.0327 22.4941V23.7681C50.0327 24.2775 49.778 24.5323 49.2685 24.5323H48.3768C46.9242 24.5323 46.1856 24.15 45.7267 23.1562C45.6502 22.9776 45.5992 22.927 45.4975 22.927C45.3959 22.927 45.3189 22.978 45.1152 23.1562C43.9688 24.1755 42.5417 24.7104 40.6307 24.7104C37.7258 24.7104 35.0762 23.3599 35.0762 20.0987H35.0766ZM45.3959 18.3659V18.1111C45.3959 17.8564 45.2683 17.7289 45.0136 17.7289H41.1915C39.4081 17.7289 38.1596 18.3914 38.1596 19.9711C38.1596 21.5509 39.4336 22.2134 40.9623 22.2134C43.3322 22.2134 45.3959 20.7353 45.3959 18.3659Z"
    fill="white" />
  <path
    d="M51.307 17.876V10.0538C51.307 9.54432 51.5617 9.2896 52.0712 9.2896H53.6254C54.1348 9.2896 54.3896 9.54432 54.3896 10.0538V17.5958C54.3896 20.0418 55.2813 21.8508 57.8293 21.8508C60.5304 21.8508 61.804 19.7105 61.804 17.239V10.0533C61.804 9.5439 62.0588 9.28918 62.5682 9.28918H64.1225C64.6319 9.28918 64.8866 9.5439 64.8866 10.0533V23.7618C64.8866 24.2712 64.6319 24.526 64.1225 24.526H62.7213C62.2625 24.526 62.0077 24.2967 61.9312 23.8379L61.8036 23.1499C61.7781 22.9968 61.7016 22.9207 61.5744 22.9207C61.4728 22.9207 61.3962 22.9717 61.2691 23.0993C60.2243 24.042 58.9503 24.7046 57.0647 24.7046C53.0645 24.7046 51.3062 21.8253 51.3062 17.876H51.307Z"
    fill="white" />
  <path
    d="M67.7421 20.377V4.93616C67.7421 4.42672 67.9968 4.172 68.5063 4.172H70.0605C70.57 4.172 70.8247 4.42672 70.8247 4.93616V8.91087C70.8247 9.1656 70.9523 9.29316 71.207 9.29316H75.7171C76.2265 9.29316 76.4812 9.54788 76.4812 10.0573V11.3313C76.4812 11.8408 76.2265 12.0959 75.7171 12.0959H71.207C70.9523 12.0959 70.8247 12.2235 70.8247 12.4782V20.0968C70.8247 21.2177 71.3341 21.7276 72.4806 21.7276H76.0224C76.5318 21.7276 76.7866 21.9823 76.7866 22.4918V23.7658C76.7866 24.2752 76.5318 24.5299 76.0224 24.5299H72.3279C69.1429 24.5299 67.7417 23.2559 67.7417 20.3766L67.7421 20.377Z"
    fill="white" />
  <path
    d="M78.9028 23.7658V4.93616C78.9028 4.42672 79.1576 4.172 79.667 4.172H81.2212C81.7307 4.172 81.9854 4.42672 81.9854 4.93616V10.8729C81.9854 11.026 82.087 11.1277 82.2146 11.1277C82.2911 11.1277 82.3673 11.1021 82.5969 10.8984C83.7178 9.87915 84.9408 9.11499 87.0049 9.11499C90.9796 9.11499 92.7635 11.9177 92.7635 16.0455V23.7662C92.7635 24.2756 92.5088 24.5304 91.9994 24.5304H90.4451C89.9357 24.5304 89.681 24.2756 89.681 23.7662V16.1986C89.681 13.8288 88.7637 11.9688 86.2667 11.9688C83.5911 11.9688 81.9862 14.1345 81.9862 17.1924V23.7662C81.9862 24.2756 81.7315 24.5304 81.2221 24.5304H79.6678C79.1584 24.5304 78.9037 24.2756 78.9037 23.7662L78.9028 23.7658Z"
    fill="white" />
  <path
    d="M94.6992 14.3628C94.6992 7.45771 97.3744 3.99243 102.165 3.99243C106.955 3.99243 109.63 7.45771 109.63 14.3628C109.63 21.2678 106.955 24.7076 102.165 24.7076C97.3748 24.7076 94.6992 21.2423 94.6992 14.3628ZM98.4447 16.6816L105.197 9.19056C105.299 9.06299 105.35 8.98687 105.35 8.80827C105.35 8.6807 105.324 8.52804 105.146 8.29841C104.458 7.45771 103.49 6.84621 102.165 6.84621C99.3624 6.84621 97.7826 9.39425 97.7826 14.3883C97.7826 15.1014 97.8081 15.7388 97.9102 16.605C97.9357 16.7581 98.0118 16.8598 98.1394 16.8598C98.2159 16.8598 98.318 16.8342 98.4452 16.6816H98.4447ZM106.547 14.3117C106.547 13.5982 106.522 12.9612 106.42 12.095C106.394 11.9419 106.318 11.8402 106.19 11.8402C106.114 11.8402 106.012 11.8657 105.885 12.0188L99.1323 19.5099C99.0307 19.6374 98.9797 19.7135 98.9797 19.8921C98.9797 20.0197 99.0052 20.1724 99.1834 20.4016C99.8714 21.2423 100.839 21.8538 102.165 21.8538C104.967 21.8538 106.547 19.3057 106.547 14.3117H106.547Z"
    fill="white" />
  <path
    d="M1.68935 13.6673C6.93599 12.8036 11.0479 8.69124 11.912 3.4446L12.3324 0.893214C12.4131 0.399668 12.0078 -0.0357391 11.5088 0.0023225C7.51403 0.311416 3.74928 1.63395 1.67011 2.48636C0.660431 2.90086 0 3.8821 0 4.97417V13.039C0 13.5134 0.424115 13.8743 0.892565 13.7974L1.68935 13.6669V13.6673Z"
    fill="white" />
  <path
    d="M14.4422 3.44423C15.3059 8.69088 19.4183 12.8028 24.6649 13.6669L25.4617 13.7974C25.9302 13.8744 26.3543 13.5134 26.3543 13.0391V4.97423C26.3543 3.88173 25.6938 2.90092 24.6842 2.48642C22.605 1.63234 18.8386 0.311472 14.8454 0.00237818C14.3465 -0.0361017 13.9395 0.398052 14.0219 0.893271L14.4422 3.44465V3.44423Z"
    fill="white" />
  <path
    d="M24.665 16.1959C19.4184 17.0596 15.3065 21.1719 14.4423 26.4186L13.9183 31.3983C13.8702 31.8476 14.3696 32.1642 14.7456 31.9128C14.7494 31.9107 14.7514 31.909 14.7552 31.907C18.0457 29.6877 25.5517 23.8785 26.2946 16.6221C26.331 16.2649 26.0143 15.9734 25.6609 16.0307L24.6663 16.1938L24.6642 16.1959H24.665Z"
    fill="white" />
  <path
    d="M11.9135 26.4136C11.0498 21.167 6.93746 17.055 1.69082 16.1909L0.621329 16.0144C0.30638 15.9625 0.024473 16.2235 0.0550059 16.5423C0.759355 23.8392 8.36917 29.6848 11.6885 31.9079C12.0323 32.1362 12.4869 31.8618 12.443 31.4511L11.9131 26.4136H11.9135Z"
    fill="white" />
</svg>
