<svg width="106" height="40" viewBox="0 0 106 40" fill="none" xmlns="http://www.w3.org/2000/svg">
  <path
    d="M1.69096 17.4795C6.93608 16.6184 11.0487 12.5058 11.9098 7.26068L12.3326 4.70858C12.4108 4.21277 12.009 3.77959 11.5079 3.81612C7.51539 4.12404 3.75249 5.44967 1.67009 6.30037C0.662823 6.71268 0 7.69386 0 8.78985V16.8532C0 17.3282 0.422753 17.6883 0.892465 17.61L1.69096 17.4795Z"
    fill="white" />
  <path
    d="M14.4356 7.26056C15.2968 12.5057 19.4094 16.6183 24.6545 17.4794L25.453 17.6099C25.9227 17.6882 26.3454 17.3281 26.3454 16.8531V8.78973C26.3454 7.69895 25.6826 6.71777 24.6753 6.30025C22.5982 5.44433 18.83 4.12392 14.8375 3.816C14.3365 3.77947 13.9294 4.21265 14.0129 4.70846L14.4356 7.26056Z"
    fill="white" />
  <path
    d="M24.6589 20.0112C19.4138 20.8723 15.3012 24.9849 14.44 30.23L13.9181 35.209C13.8712 35.6578 14.367 35.9762 14.7428 35.7257C14.7428 35.7257 14.748 35.7257 14.7532 35.7205C18.0412 33.5024 25.5461 27.6936 26.2872 20.4392C26.3238 20.0843 26.0054 19.792 25.6557 19.8494L24.6641 20.0112H24.6589Z"
    fill="white" />
  <path
    d="M11.9075 30.2277C11.0464 24.9826 6.9338 20.87 1.68868 20.0088L0.618783 19.8314C0.305641 19.7792 0.0238052 20.0401 0.0551193 20.3585C0.759688 27.6547 8.36904 33.5 11.6831 35.7181C12.0276 35.9477 12.4816 35.6711 12.4399 35.2588L11.9128 30.2225L11.9075 30.2277Z"
    fill="white" />
  <path
    d="M62.7937 13.954H60.2965C60.1451 13.954 60.0262 14.073 60.0262 14.2243V21.4295C60.0262 22.3105 59.8803 23.0835 59.5884 23.7483C59.2965 24.4132 58.8857 24.9213 58.3506 25.2672C57.8155 25.6132 57.183 25.7861 56.4533 25.7861C55.4047 25.7861 54.6156 25.4402 54.0912 24.7483C53.5669 24.0564 53.3021 23.0619 53.3021 21.77V14.2243C53.3021 14.073 53.1832 13.954 53.0318 13.954H50.5076C50.3562 13.954 50.2373 14.073 50.2373 14.2243V22.0781C50.2373 23.2943 50.3887 24.3105 50.6859 25.1267C50.9832 25.9429 51.394 26.6023 51.9075 27.1104C52.421 27.6185 53.0102 27.9752 53.6804 28.1915C54.3453 28.4077 55.0426 28.5158 55.7723 28.5158C56.8209 28.5158 57.6911 28.3158 58.3884 27.9104C58.9019 27.6131 59.3343 27.2834 59.6965 26.9158C59.8478 26.7591 60.1073 26.8455 60.1505 27.0564L60.3451 28.1212C60.3667 28.2509 60.4802 28.3428 60.61 28.3428H62.7829C62.9342 28.3428 63.0531 28.2239 63.0531 28.0725V14.2243C63.0531 14.073 62.9342 13.954 62.7829 13.954H62.7937Z"
    fill="white" />
  <path
    d="M73.6435 25.6751H70.3841C69.8057 25.6751 69.395 25.5562 69.1625 25.3237C68.9301 25.0913 68.8112 24.6913 68.8112 24.1292V16.897C68.8112 16.7456 68.9301 16.6267 69.0814 16.6267H73.5029C73.6543 16.6267 73.7732 16.5078 73.7732 16.3564V14.2268C73.7732 14.0754 73.6543 13.9565 73.5029 13.9565H69.3517C69.0544 13.9565 68.8112 13.7133 68.8112 13.416V9.85394C68.8112 9.70259 68.6923 9.58368 68.5409 9.58368H66.0437C65.8924 9.58368 65.7734 9.70259 65.7734 9.85394V24.4427C65.7734 25.7562 66.0815 26.7345 66.7031 27.3777C67.3193 28.0264 68.3139 28.3453 69.6814 28.3453H73.6435C73.7948 28.3453 73.9137 28.2264 73.9137 28.075V25.9453C73.9137 25.794 73.7948 25.6751 73.6435 25.6751Z"
    fill="white" />
  <path
    d="M86.3397 14.5169C85.4857 14.0304 84.4911 13.7872 83.3452 13.7872C82.448 13.7872 81.621 13.9655 80.8696 14.3223C80.3291 14.5817 79.848 14.9006 79.4372 15.2844C79.2643 15.4466 78.9886 15.3223 78.9886 15.0898V8.93866C78.9886 8.78731 78.8697 8.6684 78.7183 8.6684H76.1941C76.0427 8.6684 75.9238 8.78731 75.9238 8.93866V28.0732C75.9238 28.2246 76.0427 28.3435 76.1941 28.3435H78.7183C78.8697 28.3435 78.9886 28.2246 78.9886 28.0732V21.0626C78.9886 20.1275 79.1399 19.3167 79.4372 18.6303C79.7345 17.9492 80.1615 17.4195 80.7183 17.0411C81.2696 16.6682 81.9237 16.479 82.6696 16.479C83.4155 16.479 84.0101 16.6465 84.4965 16.9871C84.983 17.3222 85.3506 17.7979 85.5938 18.4086C85.837 19.0194 85.9614 19.7437 85.9614 20.587V28.0732C85.9614 28.2246 86.0803 28.3435 86.2316 28.3435H88.7289C88.8802 28.3435 88.9991 28.2246 88.9991 28.0732V20.3329C88.9991 18.8735 88.7721 17.6573 88.3126 16.6952C87.8532 15.7276 87.1992 15.0033 86.3451 14.5169H86.3397Z"
    fill="white" />
  <path
    d="M104.469 12.9455C103.89 11.5239 103.063 10.4267 101.993 9.65913C100.923 8.89158 99.6418 8.50781 98.1446 8.50781C96.6473 8.50781 95.3879 8.89158 94.3069 9.65913C93.2312 10.4267 92.3988 11.5239 91.8204 12.9455C91.2421 14.3725 90.9502 16.0752 90.9502 18.0589V18.9561C90.9502 20.9615 91.2421 22.6804 91.8204 24.1128C92.3988 25.5451 93.2312 26.637 94.3069 27.3883C95.3825 28.1397 96.6635 28.5126 98.1446 28.5126C99.6256 28.5126 100.928 28.1397 101.993 27.3883C103.058 26.637 103.885 25.5451 104.469 24.1128C105.047 22.6804 105.339 20.9615 105.339 18.9561V18.0589C105.339 16.0752 105.047 14.3671 104.469 12.9455ZM94.015 19.3021C94.015 19.1507 94.015 18.9994 94.015 18.848V18.1724C94.015 15.886 94.3717 14.1347 95.0852 12.9185C95.7987 11.7023 96.8203 11.0915 98.15 11.0915C99.3878 11.0915 100.355 11.6158 101.058 12.6699C101.328 13.0482 101.096 13.5293 100.982 13.659L95.442 19.8372C94.9501 20.3885 94.042 20.048 94.0258 19.3129L94.015 19.3021ZM102.274 18.848C102.274 21.1182 101.917 22.8587 101.204 24.0749C100.49 25.2911 99.4689 25.9019 98.1392 25.9019C96.9176 25.9019 95.9555 25.3884 95.2582 24.3614C94.9879 23.9884 95.2203 23.5128 95.3338 23.3776L100.853 17.1886C101.344 16.6373 102.253 16.9724 102.269 17.7129C102.269 17.8643 102.269 18.021 102.269 18.1778V18.8534L102.274 18.848Z"
    fill="white" />
  <path
    d="M48.5034 25.7039H48.4277C48.125 25.7039 47.9142 25.6391 47.7791 25.5093C47.6493 25.3796 47.5845 25.1364 47.5845 24.7796V19.0176C47.5845 17.315 47.0602 16.0177 46.0115 15.1259C44.9629 14.234 43.4927 13.7908 41.6009 13.7908C40.4009 13.7908 39.3469 13.98 38.4388 14.3529C37.5307 14.7259 36.8064 15.2556 36.2605 15.9421C35.7794 16.5474 35.4767 17.2447 35.347 18.0339C35.32 18.196 35.4551 18.3474 35.6173 18.3474H38.0712C38.1956 18.3474 38.2983 18.2609 38.3307 18.1366C38.4766 17.5961 38.7955 17.1528 39.2982 16.8123C39.8604 16.4285 40.5793 16.2339 41.4603 16.2339C42.4333 16.2339 43.1954 16.461 43.7359 16.9204C44.2765 17.3799 44.5521 18.0123 44.5521 18.8176V19.4176C44.5521 19.569 44.4332 19.6879 44.2819 19.6879H41.0117C39.028 19.6879 37.5145 20.0879 36.4713 20.8825C35.4335 21.677 34.9092 22.8175 34.9092 24.2986C34.9092 25.1796 35.1362 25.9364 35.5848 26.5742C36.0335 27.212 36.6551 27.6931 37.455 28.0228C38.2496 28.3525 39.1631 28.5147 40.1955 28.5147C41.5468 28.5147 42.6441 28.2012 43.4981 27.5741C43.8711 27.2985 44.2062 26.985 44.4981 26.6444C44.6386 26.4769 44.9143 26.5363 44.9629 26.7471C45.0386 27.1039 45.1845 27.4174 45.3954 27.6714C45.7683 28.1201 46.4656 28.3471 47.4764 28.3471H48.779C48.9304 28.3471 49.0493 28.2282 49.0493 28.0768V26.1526C49.0493 25.785 48.9304 25.7039 48.5088 25.7039H48.5034ZM44.5467 22.5311C44.5467 23.2229 44.39 23.8499 44.0711 24.4013C43.7522 24.9526 43.3035 25.385 42.7198 25.6931C42.1414 26.0012 41.4333 26.158 40.6117 26.158C39.7901 26.158 39.1631 25.9634 38.6874 25.5796C38.2118 25.1958 37.9685 24.704 37.9685 24.104C37.9685 23.3743 38.2172 22.8283 38.7145 22.4716C39.2118 22.1148 39.9252 21.9365 40.8658 21.9365H44.5467V22.5256V22.5311Z"
    fill="white" />
</svg>
