<?xml version="1.0" encoding="UTF-8" standalone="no"?>
<svg width="28px" height="27px" viewBox="0 0 28 27" version="1.1" xmlns="http://www.w3.org/2000/svg" xmlns:xlink="http://www.w3.org/1999/xlink" xmlns:sketch="http://www.bohemiancoding.com/sketch/ns">
    <!-- Generator: Sketch 3.3 (11970) - http://www.bohemiancoding.com/sketch -->
    <title>Shape Copy</title>
    <desc>Created with Sketch.</desc>
    <defs></defs>
    <g id="Page-1" stroke="none" stroke-width="1" fill="none" fill-rule="evenodd" sketch:type="MSPage">
        <g id="Desktop" sketch:type="MSArtboardGroup" transform="translate(-580.000000, -1399.000000)" stroke="#FFFFFF" fill="#FFFFFF">
            <g id="Rectangle-2-Copy-+-Shape-Copy-+-Signature-Verified" sketch:type="MSLayerGroup" transform="translate(128.000000, 1373.000000)">
                <g id="Shape-Copy-+-Signature-Verified" transform="translate(453.000000, 22.000000)" sketch:type="MSShapeGroup">
                    <path d="M25.5432086,11.1011073 L14.2943647,22.1345093 C14.2774407,22.1559627 14.2846939,22.1849645 14.2653521,22.2044314 C14.1041708,22.3625509 13.8926203,22.4316785 13.6818758,22.4265138 C13.4671017,22.4340622 13.2527305,22.3677156 13.0887285,22.2064179 C13.0649543,22.1837726 13.0738192,22.1484142 13.0532686,22.1237826 L8.29519627,17.4564772 C7.98371338,17.1513622 7.98371338,16.6555504 8.29519627,16.3488463 C8.60667916,16.0429368 9.11238553,16.0429368 9.42427137,16.3488463 L13.6758315,20.5199426 L24.4113128,9.99069548 C24.7240046,9.68399138 25.2309198,9.68399138 25.5436115,9.99069548 C25.8559003,10.2970023 25.8559003,10.7948005 25.5432086,11.1011073 L25.5432086,11.1011073 Z M12.8856401,6.58834585 C6.65719118,6.58834585 1.6077836,11.5687119 1.6077836,17.7123288 C1.6077836,23.8563429 6.65719118,28.8355171 12.8856401,28.8355171 C19.114089,28.8355171 24.1634965,23.8563429 24.1634965,17.7123288 C24.1634965,17.4719713 24.1066801,17.2475052 24.0917709,17.0115178 L25.5770566,15.587648 C25.695122,16.2805133 25.7708772,16.9864889 25.7708772,17.7123288 C25.7708772,24.7339457 20.002198,30.4246575 12.8852371,30.4246575 C5.76908214,30.4246575 0,24.7339457 0,17.7123288 C0,10.6907118 5.76867919,5 12.8852371,5 C16.1511735,5 19.1237598,6.20774672 21.3952075,8.18384283 L20.2113307,9.31888637 C18.2364567,7.63995952 15.6970451,6.58834585 12.8856401,6.58834585 L12.8856401,6.58834585 Z" id="Shape-Copy"></path>
                </g>
            </g>
        </g>
    </g>
</svg>