<svg xmlns="http://www.w3.org/2000/svg" width="28" height="32" viewBox="0 0 28 32" fill="none">
    <path d="M2.53347 13.8911C7.77093 13.0268 11.8769 8.69088 12.7369 3.44483L13.0255 0.923406C13.097 0.522725 12.8255 -0.0353651 12.3198 0.00470298C8.3624 0.313799 4.62789 1.62173 2.55062 2.47175C1.51913 2.89533 0.847656 3.89703 0.847656 5.01321V13.2386C0.847656 13.7251 1.28483 14.0972 1.76485 14.0199L2.53347 13.894V13.8911Z" fill="#fff"/>
    <path d="M15.2632 3.44501C16.1261 8.69106 20.2321 13.027 25.4667 13.8913L26.2353 14.0173C26.7154 14.0974 27.1525 13.7253 27.1525 13.2359V5.01053C27.1525 3.89435 26.4811 2.89265 25.4496 2.46907C23.3694 1.61619 19.6378 0.311119 15.6804 0.00202306C15.1718 -0.038045 14.9118 0.525769 14.9718 0.920726L15.2604 3.44215L15.2632 3.44501Z" fill="#fff"/>
    <path d="M25.4627 16.1954C18.3051 17.6092 14.9821 22.3744 14.9821 31.3955C14.9821 31.8477 15.4307 32.1625 15.8078 31.9106C19.0995 29.6868 26.3428 23.8827 27.0885 16.6218C27.1171 15.7088 25.977 16.1381 25.4627 16.1954Z" fill="#fff"/>
    <path d="M2.53611 16.1954C9.69369 17.6092 13.0168 22.3744 13.0168 31.3955C13.0168 31.8477 12.5682 32.1625 12.191 31.9106C8.89936 29.6868 1.65606 23.8827 0.910299 16.6218C0.881725 15.7088 2.0218 16.1381 2.53611 16.1954Z" fill="#fff"/>
</svg>
