<?xml version="1.0" encoding="UTF-8" standalone="no"?>
<svg width="19px" height="18px" viewBox="0 0 19 18" version="1.1" xmlns="http://www.w3.org/2000/svg" xmlns:xlink="http://www.w3.org/1999/xlink" xmlns:sketch="http://www.bohemiancoding.com/sketch/ns">
    <!-- Generator: Sketch 3.3 (11970) - http://www.bohemiancoding.com/sketch -->
    <title>Github Logotype</title>
    <desc>Created with Sketch.</desc>
    <defs></defs>
    <g id="Page-1" stroke="none" stroke-width="1" fill="none" fill-rule="evenodd" sketch:type="MSPage">
        <g id="Desktop" sketch:type="MSArtboardGroup" transform="translate(-438.000000, -2259.000000)" fill="#000000">
            <g id="Group" sketch:type="MSLayerGroup" transform="translate(128.000000, 1938.000000)">
                <g id="View-Repo-+-Github-Logotype" transform="translate(310.000000, 321.000000)" sketch:type="MSShapeGroup">
                    <path d="M0,9.22832538 C0,13.3048772 2.68888648,16.7639413 6.41829769,17.9841877 C6.88785897,18.0691631 7.05897517,17.7842123 7.05897517,17.5394832 C7.05897517,17.3202468 7.05090908,16.7401482 7.04629989,15.9702714 C4.43576965,16.5277098 3.8849714,14.73303 3.8849714,14.73303 C3.45804513,13.6668723 2.84271821,13.3830546 2.84271821,13.3830546 C1.99059412,12.8103205 2.90724687,12.8222171 2.90724687,12.8222171 C3.84925017,12.8873649 4.34473814,13.7733748 4.34473814,13.7733748 C5.18245851,15.1833994 6.54159354,14.7760841 7.07625963,14.5398526 C7.16152965,13.9433255 7.4040883,13.5371432 7.6719975,13.3060102 C5.58806727,13.0731777 3.39697336,12.2817737 3.39697336,8.74566526 C3.39697336,7.73785735 3.76282785,6.91416275 4.3631749,6.26891643 C4.26695805,6.03551741 3.94489087,5.0973893 4.45535871,3.82729075 C4.45535871,3.82729075 5.24353028,3.57859616 7.03592921,4.77278338 C7.78492266,4.56827599 8.58749795,4.46573904 9.38546404,4.46234002 C10.182854,4.46573904 10.9854293,4.56827599 11.735575,4.77278338 C13.5268217,3.57859616 14.3138409,3.82729075 14.3138409,3.82729075 C14.8254611,5.0973893 14.5033939,6.03551741 14.407177,6.26891643 C15.0086764,6.91416275 15.3716501,7.73785735 15.3716501,8.74566526 C15.3716501,12.2902713 13.1776755,13.0703452 11.0868315,13.2992122 C11.4238785,13.5841629 11.7234759,14.1472664 11.7234759,15.0077837 C11.7234759,16.2416261 11.7125291,17.2369709 11.7125291,17.5394832 C11.7125291,17.7864783 11.8813407,18.0731286 12.3578157,17.9830547 C16.0837701,16.7605423 18.7703519,13.3043107 18.7703519,9.22832538 C18.7703519,4.13150258 14.5679226,0 9.38431175,0 C4.20242939,0 0,4.13150258 0,9.22832538 Z" id="Github-Logotype"></path>
                </g>
            </g>
        </g>
    </g>
</svg>