<?xml version="1.0" encoding="UTF-8" standalone="no"?>
<svg width="20px" height="40px" viewBox="0 0 20 40" version="1.1" xmlns="http://www.w3.org/2000/svg" xmlns:xlink="http://www.w3.org/1999/xlink" xmlns:sketch="http://www.bohemiancoding.com/sketch/ns">
    <!-- Generator: Sketch 3.3 (11970) - http://www.bohemiancoding.com/sketch -->
    <title>Shape Copy 16 + Shape Copy 15</title>
    <desc>Created with Sketch.</desc>
    <defs></defs>
    <g id="Page-1" stroke="none" stroke-width="1" fill="none" fill-rule="evenodd" sketch:type="MSPage">
        <g id="Desktop" sketch:type="MSArtboardGroup" transform="translate(-575.000000, -2119.000000)">
            <g id="Group-Copy-3-+-Rectangle-118-+-Oval-1-+-asp_net_icon_transparent-Copy-+-nodejs" sketch:type="MSLayerGroup" transform="translate(533.000000, 1794.000000)">
                <g id="Group-Copy-3-+-Rectangle-118-+-Oval-1-+-asp_net_icon_transparent-Copy" sketch:type="MSShapeGroup">
                    <g id="Group-Copy-3-+-Rectangle-118" transform="translate(0.000000, 41.000000)">
                        <g id="Group-Copy-3" transform="translate(0.000000, 4.000000)">
                            <g id="Shape-Copy-16-+-Shape-Copy-15" transform="translate(42.000000, 280.000000)">
                                <path d="M10.0003333,19.9993333 C4.47733333,19.9993333 0,15.523 0,10 C0,4.47766667 4.47733333,0 10.0003333,0 C15.523,0 20,4.47766667 20,10 C20,15.523 15.523,19.9993333 10.0003333,19.9993333 L10.0003333,19.9993333 Z M10.0003333,1.333 C5.21366667,1.333 1.33366667,5.21333333 1.33366667,10 C1.33366667,14.7863333 5.21366667,18.667 10.0003333,18.667 C14.7863333,18.667 18.6666667,14.7863333 18.6666667,10 C18.6666667,5.21333333 14.7863333,1.333 10.0003333,1.333 L10.0003333,1.333 Z M9.05533333,14.4766667 C8.806,14.7253333 8.40133333,14.7253333 8.152,14.4766667 C8.14233333,14.4666667 8.14633333,14.4513333 8.13766667,14.4416667 C8.13166667,14.4356667 8.12266667,14.4386667 8.11666667,14.4333333 L5.52566667,11.8416667 C5.25466667,11.5706667 5.25466667,11.132 5.52566667,10.861 C5.79666667,10.59 6.236,10.59 6.50666667,10.861 L8.68566667,13.04 L14.9046667,6.82033333 C15.1543333,6.571 15.5586667,6.571 15.808,6.82033333 C16.0576667,7.06966667 16.0576667,7.474 15.808,7.724 L9.05533333,14.4766667 L9.05533333,14.4766667 Z" id="Shape-Copy-16" fill="#7ED321"></path>
                                <path d="M9.99966667,39.9996667 C4.47733333,39.9996667 0,35.5226667 0,29.9996667 C0,24.478 4.47733333,20.0003333 9.99966667,20.0003333 C15.5226667,20.0003333 19.9996667,24.478 19.9996667,29.9996667 C19.9996667,35.523 15.5226667,39.9996667 9.99966667,39.9996667 L9.99966667,39.9996667 Z M9.99966667,21.3333333 C5.21333333,21.3333333 1.33333333,25.214 1.33333333,29.9996667 C1.33333333,34.786 5.21333333,38.6673333 9.99966667,38.6673333 C14.7863333,38.6673333 18.6666667,34.786 18.6666667,29.9996667 C18.6666667,25.214 14.7863333,21.3333333 9.99966667,21.3333333 L9.99966667,21.3333333 Z M13.179,33.1403333 C12.9346667,33.3833333 12.5233333,33.3703333 12.262,33.1103333 L10.0006667,30.863 L7.73933333,33.1103333 C7.478,33.3703333 7.067,33.3836667 6.822,33.141 C6.577,32.897 6.59066667,32.488 6.85166667,32.2296667 L9.11333333,29.981 L6.85166667,27.733 C6.59033333,27.473 6.57766667,27.0643333 6.82233333,26.8216667 C7.06733333,26.5776667 7.478,26.5913333 7.73933333,26.8506667 L10.0006667,29.099 L12.262,26.8506667 C12.5233333,26.5913333 12.9343333,26.5776667 13.1793333,26.8216667 C13.4243333,27.065 13.411,27.473 13.1496667,27.733 L10.888,29.981 L13.1496667,32.2296667 C13.411,32.4886667 13.4243333,32.8963333 13.179,33.1403333 L13.179,33.1403333 Z" id="Shape-Copy-15" fill="#F0586A"></path>
                            </g>
                        </g>
                    </g>
                </g>
            </g>
        </g>
    </g>
</svg>