<?xml version="1.0" encoding="UTF-8" standalone="no"?>
<svg width="18px" height="18px" viewBox="0 0 18 18" version="1.1" xmlns="http://www.w3.org/2000/svg" xmlns:xlink="http://www.w3.org/1999/xlink" xmlns:sketch="http://www.bohemiancoding.com/sketch/ns">
    <!-- Generator: Sketch 3.3 (11970) - http://www.bohemiancoding.com/sketch -->
    <title>auth0-svg</title>
    <desc>Created with Sketch.</desc>
    <defs></defs>
    <g id="Page-1" stroke="none" stroke-width="1" fill="none" fill-rule="evenodd" sketch:type="MSPage">
        <g id="Desktop" sketch:type="MSArtboardGroup" transform="translate(-273.000000, -5373.000000)" fill="#EB5424">
            <g id="©-2011-2015-+-Supported-by-+-auth0-svg" sketch:type="MSLayerGroup" transform="translate(180.000000, 5373.000000)">
                <g id="Supported-by-+-auth0-svg" sketch:type="MSShapeGroup">
                    <g id="auth0-svg" transform="translate(93.000000, 0.000000)">
                        <g id="Page-1">
                            <g id="auth0_logo_final_blue_RGB">
                                <g id="Group">
                                    <g id="Clipped">
                                        <path d="M13.8076044,14.5565357 L11.86157,8.99967857 L16.9556758,5.56628571 L10.65884,5.56628571 L8.71269017,0.00964285714 L8.71211271,0.00814285714 L15.0098724,0.00814285714 L16.9564842,5.56575 L16.9565997,5.56564286 L16.9582166,5.56478571 C18.0886489,8.78892857 16.9243776,12.456 13.8076044,14.5565357 L13.8076044,14.5565357 L13.8076044,14.5565357 Z M3.61731401,14.5565357 L3.61569712,14.5576071 L8.71107328,17.9918571 L13.8076044,14.5566429 L8.71269017,11.1222857 L3.61731401,14.5565357 L3.61731401,14.5565357 Z M0.467972171,5.56489286 L0.467972171,5.56489286 C-0.722053803,8.96357143 0.659341837,12.5648571 3.61627458,14.5571786 L3.61673655,14.5554643 L5.56300186,8.99892857 L0.47005102,5.56617857 L6.76538544,5.56617857 L8.71165074,0.00953571429 L8.71211271,0.00803571429 L2.41400649,0.00803571429 L0.467972171,5.56489286 L0.467972171,5.56489286 Z" id="Shape"></path>
                                    </g>
                                </g>
                            </g>
                        </g>
                    </g>
                </g>
            </g>
        </g>
    </g>
</svg>