<?xml version="1.0" encoding="UTF-8" standalone="no"?>
<svg width="84px" height="31px" viewBox="0 0 84 31" version="1.1" xmlns="http://www.w3.org/2000/svg" xmlns:xlink="http://www.w3.org/1999/xlink" xmlns:sketch="http://www.bohemiancoding.com/sketch/ns">
    <!-- Generator: Sketch 3.3 (11970) - http://www.bohemiancoding.com/sketch -->
    <title>JWT.IO Copy + Oval 17 + Rectangle 219 + Group Copy 5</title>
    <desc>Created with Sketch.</desc>
    <defs></defs>
    <g id="Page-1" stroke="none" stroke-width="1" fill="none" fill-rule="evenodd" sketch:type="MSPage">
        <g id="Desktop" sketch:type="MSArtboardGroup" transform="translate(-678.000000, -4602.000000)">
            <g id="Group" sketch:type="MSLayerGroup" transform="translate(180.000000, 4399.000000)">
                <g id="Rectangle-216-Copy-+-https://jwt.io/asset-+-Oval-17-+-Rectangle-219-+-Group-Copy-4-+-Rectangle-216-Copy-+-https://jwt.io/asset-Copy-+-JWT.IO-Copy-+-Oval-17-+-Rectangle-219-+-Group-Copy-5-+-ic_content_copy_24px-copy-3-+-ic_content_copy_24px-copy-2" transform="translate(390.000000, 61.000000)">
                    <g id="Rectangle-216-Copy-+-https://jwt.io/asset-+-Oval-17-+-Rectangle-219-+-Group-Copy-4-+-Rectangle-216-Copy-+-https://jwt.io/asset-Copy-+-JWT.IO-Copy-+-Oval-17-+-Rectangle-219-+-Group-Copy-5">
                        <g id="Rectangle-216-Copy-+-https://jwt.io/asset-Copy-+-JWT.IO-Copy-+-Oval-17-+-Rectangle-219-+-Group-Copy-5" transform="translate(0.000000, 142.000000)">
                            <g id="JWT.IO-Copy-+-Oval-17-+-Rectangle-219-+-Group-Copy-5" transform="translate(108.000000, 0.000000)">
                                <text id="JWT.IO-Copy" sketch:type="MSTextLayer" font-family="Proxima Nova" font-size="14" font-weight="bold" sketch:alignment="middle" fill="#FFFFFF">
                                    <tspan x="39.205" y="21">JWT.IO</tspan>
                                </text>
                                <g id="Oval-17-+-Rectangle-219-+-Group-Copy-5" sketch:type="MSShapeGroup">
                                    <g id="Rectangle-219-+-Group-Copy-4" transform="translate(0.328306, 0.328306)">
                                        <g id="Group-Copy-4">
                                            <g id="Shape">
                                                <path d="M17.477792,8.19271502 L17.477792,-1.77635684e-15 L12.9262837,-1.77635684e-15 L12.9262837,8.19271502 L15.1716945,11.2877407 L17.477792,8.19271502 Z" fill="#FFFFFF"></path>
                                                <path d="M12.9262837,22.1506739 L12.9262837,30.343389 L17.477792,30.343389 L17.477792,22.1506739 L15.1716945,19.0556483 L12.9262837,22.1506739 Z" fill="#FFFFFF"></path>
                                                <path d="M17.477792,22.1506739 L22.2720475,28.7655327 L25.9132542,26.0953145 L21.1189987,19.4804557 L17.477792,18.3274069 L17.477792,22.1506739 Z" fill="#00F2E6"></path>
                                                <path d="M12.9262837,8.19271502 L8.07134146,1.57785623 L4.43013479,4.24807445 L9.22439024,10.8629332 L12.9262837,12.015982 L12.9262837,8.19271502 Z" fill="#00F2E6"></path>
                                                <path d="M9.22439024,10.8629332 L1.45648267,8.31408858 L0.0606867779,12.6228498 L7.82859435,15.1716945 L11.469801,13.9579589 L9.22439024,10.8629332 Z" fill="#00B9F1"></path>
                                                <path d="M18.8735879,16.38543 L21.1189987,19.4804557 L28.8869063,22.0293004 L30.2827022,17.7205392 L22.5147946,15.1716945 L18.8735879,16.38543 Z" fill="#00B9F1"></path>
                                                <path d="M22.5147946,15.1716945 L30.2827022,12.6228498 L28.8869063,8.31408858 L21.1189987,10.8629332 L18.8735879,13.9579589 L22.5147946,15.1716945 Z" fill="#D63AFF"></path>
                                                <path d="M7.82859435,15.1716945 L0.0606867779,17.7205392 L1.45648267,22.0293004 L9.22439024,19.4804557 L11.469801,16.38543 L7.82859435,15.1716945 Z" fill="#D63AFF"></path>
                                                <path d="M9.22439024,19.4804557 L4.43013479,26.0953145 L8.07134146,28.7655327 L12.9262837,22.1506739 L12.9262837,18.3274069 L9.22439024,19.4804557 Z" fill="#FB015B"></path>
                                                <path d="M21.1189987,10.8629332 L25.9132542,4.24807445 L22.2720475,1.57785623 L17.477792,8.19271502 L17.477792,12.015982 L21.1189987,10.8629332 Z" fill="#FB015B"></path>
                                            </g>
                                        </g>
                                    </g>
                                </g>
                            </g>
                        </g>
                    </g>
                </g>
            </g>
        </g>
    </g>
</svg>