<svg width="202" height="81" viewBox="0 0 202 81" fill="none" xmlns="http://www.w3.org/2000/svg">
<path d="M46 0H26.7L32.7 18.6H52L36.4 29.7L42.4 48.4C52.4 41.1 55.7 30 52 18.6L46 0ZM1.50001 18.6H20.8L26.8 0H7.40001L1.50001 18.6C-2.19999 30 1.00001 41.1 11.1 48.4L17.1 29.7L1.50001 18.6ZM11.1 48.4L26.7 59.4L42.3 48.4L26.7 37.1L11.1 48.4ZM156.8 18.2C152.2 18.2 149.3 20.3 147.9 23.6H147.6V8.3H140.8V48.3H147.8V30.9C147.8 26.6 150.5 24.1 154.2 24.1C157.9 24.1 160 26.5 160 30.5V48.3H167V29.3C167 22.2 163 18.2 156.8 18.2ZM186 8.2C176.5 8.2 170.8 15.6 170.8 28.5C170.8 41.4 176.4 49 186 49C195.5 49 201.2 41.5 201.2 28.5C201.2 15.5 195.5 8.2 186 8.2ZM178 28.5C178 19.1 181.1 14.2 186 14.2C189.4 14.2 191.8 16.5 193.1 20.9L178.2 31.7C178 30.8 178 29.7 178 28.5ZM186 42.9C182.6 42.9 180 40.5 178.8 35.7L193.8 24.8C193.9 26 194 27.3 194 28.5C194 38 190.9 42.9 186 42.9ZM109.2 35.8C109.2 40.3 106 42.5 102.9 42.5C99.8 42.5 97.3 40.1 97.3 36.4V18.5H90.3V37.4C90.3 44.6 94.4 48.6 100.2 48.6C104.6 48.6 107.8 46.2 109.1 42.9H109.4V48.2H116.2V18.5H109.2V35.8ZM74.4 18.1C68.1 18.1 63.4 20.9 61.8 26.3L68.3 27.2C69 25.1 71 23.4 74.4 23.4C77.8 23.4 79.4 25 79.4 28V28.1C79.4 30.1 77.3 30.2 72.1 30.8C66.9 31.4 60.8 33.2 60.8 39.9C60.8 45.7 65.1 48.8 70.8 48.8C75.4 48.8 78.2 46.6 79.5 44.1H79.7V48.2H86.4V28.3C86.5 20.5 80.1 18.1 74.4 18.1ZM79.5 37.6C79.5 40.9 76.8 43.7 72.6 43.7C69.7 43.7 67.6 42.4 67.6 39.8C67.6 37.2 70 36 73.1 35.5C74.9 35.2 78.6 34.8 79.5 34V37.6ZM131.2 11.1H124.2V18.6H119.9V24.1H124.2V40.6C124.2 46.2 128.2 48.9 133.5 48.8C134.7 48.8 135.9 48.6 137.1 48.3V42.8C136.6 42.9 135.3 43 134.4 43.1C132.6 43.1 131.2 42.5 131.2 39.7V24.1H137V18.6H131.2V11.1Z" fill="white"/>
<path d="M139.9 77.6998C142.1 77.6998 143.6 75.8998 143.6 72.8998C143.6 69.8998 142 68.0998 139.9 68.0998C138.3 68.0998 137.4 68.9998 137 69.6998V67.9998V64.5998H135.3V77.4998H137V75.9998C137.4 76.7998 138.3 77.6998 139.9 77.6998ZM139.4 76.1998C137.9 76.1998 136.9 75.0998 136.9 72.7998C136.9 70.5998 138 69.4998 139.4 69.4998C140.8 69.4998 141.9 70.2998 141.9 72.7998C141.9 75.2998 140.8 76.1998 139.4 76.1998ZM151.6 68.2998L150 72.9998C149.6 74.1998 149.5 74.5998 149.3 75.0998C149.1 74.6998 149 74.2998 148.4 72.7998L146.5 68.1998H144.6L148.6 77.1998L148.1 78.4998C147.8 79.1998 147.5 79.2998 146.8 79.2998H145V80.9998H146.9C148.5 80.9998 149.2 80.3998 149.8 78.6998L153.4 68.2998H151.6ZM165.7 77.6998C169.4 77.6998 172.1 74.9998 172.1 70.9998C172.1 66.9998 169.4 64.2998 165.7 64.2998C162 64.2998 159.2 66.9998 159.2 70.9998C159.2 74.9998 162 77.6998 165.7 77.6998ZM165.7 75.9998C162.9 75.9998 161.2 73.7998 161.2 70.9998C161.2 68.0998 162.9 65.9998 165.7 65.9998C168.5 65.9998 170.2 68.1998 170.2 70.9998C170.2 73.7998 168.5 75.9998 165.7 75.9998ZM181.3 77.3998H183.5L179.1 71.9998L183.2 68.1998H181L176.3 72.7998V69.7998V64.4998H174.6V77.3998H176.3V74.6998L178 73.0998L181.3 77.3998ZM188.3 77.3998H190.5V75.8998H188.6C188 75.8998 187.7 75.5998 187.7 74.9998V69.6998H190.2V68.2998H187.7V65.3998H186V68.2998H183.9V69.6998H186V75.1998C186 76.6998 186.8 77.3998 188.3 77.3998ZM194.9 77.6998C196.4 77.6998 197.2 77.0998 197.9 76.0998C198 76.8998 198.3 77.4998 199.6 77.4998H200.9V75.9998H200C199.6 75.9998 199.5 75.8998 199.5 75.4998V71.2998C199.5 69.2998 198.3 68.0998 195.8 68.0998C193.4 68.0998 192.1 69.3998 191.8 70.6998L193.5 71.1998C193.7 70.4998 194.3 69.5998 195.9 69.5998C197.2 69.5998 197.8 70.1998 197.8 71.2998V71.5998C194.8 71.7998 192 72.6998 192 75.1998C191.9 76.6998 193.1 77.6998 194.9 77.6998ZM195.3 76.1998C194.2 76.1998 193.7 75.6998 193.7 74.8998C193.7 73.3998 195.5 72.8998 197.7 72.6998V73.5998C197.7 75.4998 196.5 76.1998 195.3 76.1998Z" fill="white"/>
</svg>