<svg width="281" height="547" viewBox="0 0 281 547" fill="none" xmlns="http://www.w3.org/2000/svg">
<rect x="281" width="547" height="281" rx="16" transform="rotate(90 281 0)" fill="black" fill-opacity="0.2"/>
<g filter="url(#filter0_b_5200_33094)">
<rect x="118" y="20" width="48" height="48" rx="24" fill="#191919" fill-opacity="0.3"/>
<rect x="118.343" y="20.3431" width="47.3139" height="47.3139" rx="23.6569" stroke="url(#paint0_linear_5200_33094)" stroke-width="0.686134"/>
<path d="M149.294 52.2117V50.382C149.294 49.4115 148.908 48.4807 148.222 47.7945C147.536 47.1082 146.605 46.7227 145.634 46.7227H138.316C137.345 46.7227 136.414 47.1082 135.728 47.7945C135.042 48.4807 134.656 49.4115 134.656 50.382V52.2117" stroke="#FBFBFB" stroke-width="1.37227" stroke-linecap="round" stroke-linejoin="round"/>
<path d="M141.972 43.0639C143.993 43.0639 145.631 41.4255 145.631 39.4045C145.631 37.3835 143.993 35.7451 141.972 35.7451C139.951 35.7451 138.312 37.3835 138.312 39.4045C138.312 41.4255 139.951 43.0639 141.972 43.0639Z" stroke="#FBFBFB" stroke-width="1.37227" stroke-linecap="round" stroke-linejoin="round"/>
</g>
<path d="M127.153 78.296C127.105 78.416 127.069 78.596 127.057 78.692C126.925 79.904 126.361 83.492 126.193 84.548H125.113C125.317 83.504 125.893 79.856 125.917 78.968C124.873 78.968 121.765 78.968 121.201 78.968C120.745 78.968 120.421 78.98 120.049 79.016V77.948C120.409 77.984 120.793 78.02 121.189 78.02C121.753 78.02 124.765 78.02 125.605 78.02C125.845 78.02 126.217 77.972 126.349 77.912L127.153 78.296ZM118.705 84.224C119.053 84.284 119.425 84.296 119.761 84.296H127.849C128.221 84.296 128.545 84.26 128.857 84.224V85.328C128.533 85.28 128.101 85.268 127.849 85.268H119.761C119.425 85.268 119.065 85.292 118.705 85.328V84.224ZM131.209 80.804C131.581 80.84 132.205 80.876 132.889 80.876C133.765 80.876 138.577 80.876 139.465 80.876C140.065 80.876 140.485 80.828 140.761 80.804V81.98C140.509 81.968 140.005 81.932 139.477 81.932C138.565 81.932 133.777 81.932 132.889 81.932C132.229 81.932 131.593 81.956 131.209 81.98V80.804ZM151.555 76.856C151.783 77.288 152.095 78.032 152.263 78.512L151.663 78.716C151.495 78.212 151.219 77.492 150.979 77.036L151.555 76.856ZM152.755 76.484C152.983 76.928 153.295 77.66 153.475 78.14L152.875 78.344C152.683 77.804 152.419 77.12 152.167 76.664L152.755 76.484ZM150.415 80.708C150.415 83.9 149.731 85.544 146.995 86.768L146.179 86.012C148.363 85.172 149.455 84.14 149.455 80.78V77.864C149.455 77.396 149.419 77 149.395 76.88H150.475C150.463 77 150.415 77.396 150.415 77.864V80.708ZM146.095 76.964C146.083 77.072 146.035 77.408 146.035 77.828V82.232C146.035 82.664 146.071 83.192 146.083 83.312H145.027C145.039 83.192 145.075 82.688 145.075 82.232V77.828C145.075 77.576 145.063 77.228 145.027 76.964H146.095ZM142.579 79.292C142.687 79.304 143.275 79.364 143.791 79.364H151.735C152.263 79.364 152.671 79.328 152.839 79.304V80.324C152.707 80.3 152.263 80.288 151.735 80.288H143.791C143.263 80.288 142.723 80.312 142.579 80.324V79.292ZM155.455 80.804C155.827 80.84 156.451 80.876 157.135 80.876C158.011 80.876 162.823 80.876 163.711 80.876C164.311 80.876 164.731 80.828 165.007 80.804V81.98C164.755 81.968 164.251 81.932 163.723 81.932C162.811 81.932 158.023 81.932 157.135 81.932C156.475 81.932 155.839 81.956 155.455 81.98V80.804Z" fill="#FBFBFB"/>
<g filter="url(#filter1_b_5200_33094)">
<rect x="117" y="157" width="48" height="48" rx="24" fill="#191919" fill-opacity="0.3"/>
<rect x="117.335" y="157.335" width="47.3304" height="47.3304" rx="23.6652" stroke="url(#paint1_linear_5200_33094)" stroke-width="0.66963"/>
<path d="M147.86 171.785H133.575C132.589 171.785 131.789 172.585 131.789 173.571V177.142C131.789 178.128 132.589 178.928 133.575 178.928H147.86C148.846 178.928 149.645 178.128 149.645 177.142V173.571C149.645 172.585 148.846 171.785 147.86 171.785Z" stroke="#FBFBFB" stroke-width="1.33926" stroke-linecap="round" stroke-linejoin="round"/>
<path d="M147.86 182.499H133.575C132.589 182.499 131.789 183.298 131.789 184.285V187.856C131.789 188.842 132.589 189.642 133.575 189.642H147.86C148.846 189.642 149.645 188.842 149.645 187.856V184.285C149.645 183.298 148.846 182.499 147.86 182.499Z" stroke="#FBFBFB" stroke-width="1.33926" stroke-linecap="round" stroke-linejoin="round"/>
<path d="M135.359 175.356H135.37" stroke="#FBFBFB" stroke-width="1.33926" stroke-linecap="round" stroke-linejoin="round"/>
<path d="M135.359 186.07H135.37" stroke="#FBFBFB" stroke-width="1.33926" stroke-linecap="round" stroke-linejoin="round"/>
</g>
<path d="M98.1962 223L101.172 214.204H102.42L105.396 223H104.232L102.684 218.08C102.372 217.096 102.096 216.136 101.808 215.116H101.76C101.472 216.136 101.196 217.096 100.872 218.08L99.3242 223H98.1962ZM99.7562 220.312V219.436H103.812V220.312H99.7562ZM108.596 223.168C107.228 223.168 106.604 222.28 106.604 220.612V216.484H107.696V220.48C107.696 221.692 108.068 222.208 108.932 222.208C109.592 222.208 110.072 221.884 110.684 221.116V216.484H111.776V223H110.876L110.78 221.98H110.756C110.144 222.688 109.496 223.168 108.596 223.168ZM116.269 223.168C114.877 223.168 114.421 222.292 114.421 220.996V217.372H113.449V216.556L114.469 216.484L114.589 214.648H115.513V216.484H117.277V217.372H115.513V221.02C115.513 221.812 115.765 222.28 116.521 222.28C116.749 222.28 117.049 222.184 117.253 222.1L117.469 222.916C117.109 223.048 116.677 223.168 116.269 223.168ZM118.992 223V213.46H120.084V216.064L120.048 217.408C120.648 216.82 121.308 216.328 122.208 216.328C123.576 216.328 124.2 217.216 124.2 218.872V223H123.096V219.016C123.096 217.792 122.724 217.276 121.86 217.276C121.2 217.276 120.732 217.624 120.084 218.272V223H118.992ZM128.753 223.168C127.037 223.168 126.005 221.572 126.005 218.704C126.005 215.836 127.037 214.3 128.753 214.3C130.445 214.3 131.477 215.836 131.477 218.704C131.477 221.572 130.445 223.168 128.753 223.168ZM128.753 222.28C129.749 222.28 130.421 221.212 130.421 218.704C130.421 216.184 129.749 215.176 128.753 215.176C127.745 215.176 127.061 216.184 127.061 218.704C127.061 221.212 127.745 222.28 128.753 222.28ZM143.877 217.492C143.877 220.684 143.181 222.328 140.445 223.564L139.641 222.796C141.825 221.968 142.905 220.936 142.905 217.564V214.648C142.905 214.18 142.869 213.784 142.845 213.676H143.937C143.925 213.796 143.877 214.18 143.877 214.648V217.492ZM139.545 213.748C139.533 213.856 139.497 214.204 139.497 214.612V219.016C139.497 219.46 139.533 219.988 139.545 220.096H138.477C138.489 219.988 138.537 219.472 138.537 219.016V214.612C138.537 214.36 138.513 214.024 138.477 213.748H139.545ZM136.041 216.076C136.149 216.088 136.737 216.16 137.241 216.16H145.185C145.725 216.16 146.121 216.112 146.289 216.088V217.108C146.157 217.096 145.725 217.072 145.197 217.072H137.241C136.713 217.072 136.173 217.108 136.041 217.108V216.076ZM148.689 217.804C149.061 217.84 149.685 217.876 150.369 217.876C151.245 217.876 156.057 217.876 156.945 217.876C157.545 217.876 157.965 217.828 158.241 217.804V218.98C157.989 218.968 157.485 218.932 156.957 218.932C156.045 218.932 151.257 218.932 150.369 218.932C149.709 218.932 149.073 218.956 148.689 218.98V217.804ZM168.78 213.652C169.08 214.084 169.512 214.816 169.764 215.296L169.104 215.584C168.876 215.104 168.468 214.384 168.144 213.928L168.78 213.652ZM170.1 213.172C170.412 213.616 170.88 214.36 171.096 214.804L170.46 215.092C170.196 214.576 169.8 213.892 169.464 213.448L170.1 213.172ZM162.204 219.4C162.732 218.152 163.224 216.328 163.392 214.948L164.46 215.164C164.376 215.428 164.292 215.788 164.232 216.04C164.076 216.784 163.656 218.56 163.152 219.796C162.708 220.888 162.048 222.124 161.376 223.096L160.356 222.664C161.112 221.656 161.796 220.396 162.204 219.4ZM168.12 218.944C167.64 217.708 166.896 216.04 166.38 215.14L167.352 214.816C167.82 215.692 168.588 217.348 169.104 218.608C169.584 219.796 170.22 221.632 170.544 222.724L169.476 223.06C169.176 221.848 168.612 220.216 168.12 218.944ZM173.052 217.804C173.424 217.84 174.048 217.876 174.732 217.876C175.608 217.876 180.42 217.876 181.308 217.876C181.908 217.876 182.328 217.828 182.604 217.804V218.98C182.352 218.968 181.848 218.932 181.32 218.932C180.408 218.932 175.62 218.932 174.732 218.932C174.072 218.932 173.436 218.956 173.052 218.98V217.804Z" fill="#FBFBFB"/>
<g filter="url(#filter2_b_5200_33094)">
<rect x="54" y="305" width="48" height="48" rx="24" fill="#191919" fill-opacity="0.3"/>
<rect x="54.339" y="305.339" width="47.3221" height="47.3221" rx="23.661" stroke="url(#paint2_linear_5200_33094)" stroke-width="0.677938"/>
<path d="M86.5348 320.366L84.7269 322.174M84.7269 322.174L87.4387 324.886L84.275 328.05L81.5632 325.338M84.7269 322.174L81.5632 325.338M77.8481 329.053C78.3148 329.513 78.6859 330.062 78.9398 330.666C79.1938 331.271 79.3257 331.919 79.3279 332.575C79.33 333.231 79.2025 333.88 78.9526 334.487C78.7027 335.093 78.3354 335.644 77.8717 336.107C77.4081 336.571 76.8574 336.938 76.2512 337.188C75.645 337.438 74.9954 337.565 74.3397 337.563C73.684 337.561 73.0352 337.429 72.4307 337.175C71.8263 336.921 71.278 336.55 70.8174 336.084C69.9118 335.146 69.4107 333.89 69.4221 332.587C69.4334 331.283 69.9562 330.036 70.878 329.114C71.7998 328.193 73.0467 327.67 74.3502 327.658C75.6537 327.647 76.9096 328.148 77.8472 329.054L77.8481 329.053ZM77.8481 329.053L81.5632 325.338" stroke="#FBFBFB" stroke-width="1.35588" stroke-linecap="round" stroke-linejoin="round"/>
</g>
<path d="M40.6308 362.9C40.5348 363.008 40.3908 363.188 40.3068 363.32C39.8268 364.136 38.6868 365.684 37.3188 366.632L36.5148 365.996C37.6308 365.36 38.7588 364.064 39.1428 363.32C38.3028 363.32 32.8788 363.32 32.3028 363.32C31.8588 363.32 31.4148 363.344 30.9468 363.38V362.3C31.3668 362.36 31.8588 362.408 32.3028 362.408C32.8788 362.408 38.4828 362.408 39.2028 362.408C39.4308 362.408 39.8628 362.372 40.0308 362.324L40.6308 362.9ZM35.8308 364.472C35.8308 367.724 35.5428 369.92 32.4828 371.456L31.6068 370.736C31.9308 370.628 32.3508 370.424 32.6868 370.196C34.5348 369.056 34.7988 367.352 34.7988 365.348C34.7988 365.06 34.7988 364.796 34.7508 364.472H35.8308ZM51.5532 363.5C51.4572 363.668 51.3372 363.944 51.2772 364.136C50.9532 365.348 50.2212 366.968 49.1532 368.276C48.0612 369.608 46.6212 370.7 44.3772 371.54L43.5012 370.748C45.7092 370.1 47.1972 369.02 48.3012 367.736C49.2252 366.644 49.9692 365.084 50.2092 363.992H45.7692L46.1532 363.128C46.6332 363.128 49.5972 363.128 49.9692 363.128C50.2932 363.128 50.5692 363.092 50.7612 363.02L51.5532 363.5ZM47.5332 361.688C47.3412 362 47.1252 362.408 47.0052 362.624C46.2972 363.956 45.0492 365.672 43.1172 366.944L42.2772 366.332C44.3532 365.096 45.5292 363.344 46.0572 362.276C46.1772 362.06 46.3572 361.628 46.4292 361.316L47.5332 361.688ZM57.0012 369.464C57.0012 368.36 57.0012 364.112 57.0012 362.84C57.0012 362.48 56.9892 362.084 56.9292 361.736H58.0572C58.0092 362.084 57.9732 362.492 57.9732 362.84C57.9732 364.1 57.9732 368.024 57.9732 369.212C57.9732 370.04 58.2852 370.304 59.7132 370.304C61.1052 370.304 62.2692 370.184 63.4572 369.944L63.4212 370.976C62.3532 371.132 61.1532 371.228 59.6532 371.228C57.4212 371.228 57.0012 370.64 57.0012 369.464ZM63.9732 364.1C63.8772 364.232 63.7572 364.436 63.6732 364.58C63.1212 365.576 62.1852 367.088 61.2132 368.072L60.3852 367.58C61.2852 366.752 62.1612 365.432 62.5212 364.724C62.1492 364.796 55.6812 366.092 54.2412 366.404L54.0492 365.396C55.5852 365.216 61.7172 363.98 62.6292 363.764C62.8812 363.704 63.1212 363.632 63.2652 363.548L63.9732 364.1ZM75.1692 362.984C75.0972 363.08 74.9412 363.344 74.8812 363.5C74.4012 364.688 73.4892 366.368 72.4932 367.472C71.1492 368.972 69.4332 370.4 67.5372 371.264L66.7692 370.46C68.7132 369.716 70.4772 368.276 71.7132 366.908C72.5292 365.984 73.4052 364.556 73.7172 363.56C73.2852 363.56 69.4452 363.56 69.0372 363.56C68.6052 363.56 67.9572 363.608 67.8252 363.62V362.54C67.9812 362.564 68.6652 362.612 69.0372 362.612C69.5052 362.612 73.2132 362.612 73.6692 362.612C74.0532 362.612 74.3772 362.576 74.5692 362.516L75.1692 362.984ZM72.6492 366.848C73.9452 367.928 75.5412 369.608 76.3572 370.604L75.5292 371.336C74.6652 370.196 73.2612 368.66 71.9652 367.52L72.6492 366.848ZM81.8532 369.944C81.8532 369.272 81.8532 363.968 81.8532 362.972C81.8532 362.624 81.8292 362.096 81.7692 361.712H82.9452C82.8972 362.084 82.8612 362.6 82.8612 362.972C82.8612 364.832 82.8732 369.38 82.8732 369.944C82.8732 370.328 82.8972 370.976 82.9452 371.372H81.7812C81.8412 370.988 81.8532 370.388 81.8532 369.944ZM82.6452 364.868C84.2292 365.324 86.6532 366.248 87.9852 366.896L87.5652 367.916C86.1972 367.184 83.9532 366.332 82.6452 365.924V364.868ZM91.2732 365.804C91.6452 365.84 92.2692 365.876 92.9532 365.876C93.8292 365.876 98.6412 365.876 99.5292 365.876C100.129 365.876 100.549 365.828 100.825 365.804V366.98C100.573 366.968 100.069 366.932 99.5412 366.932C98.6292 366.932 93.8412 366.932 92.9532 366.932C92.2932 366.932 91.6572 366.956 91.2732 366.98V365.804ZM112.753 363.5C112.657 363.668 112.537 363.944 112.477 364.136C112.153 365.348 111.421 366.968 110.353 368.276C109.261 369.608 107.821 370.7 105.577 371.54L104.701 370.748C106.909 370.1 108.397 369.02 109.501 367.736C110.425 366.644 111.169 365.084 111.409 363.992H106.969L107.353 363.128C107.833 363.128 110.797 363.128 111.169 363.128C111.493 363.128 111.769 363.092 111.961 363.02L112.753 363.5ZM108.733 361.688C108.541 362 108.325 362.408 108.205 362.624C107.497 363.956 106.249 365.672 104.317 366.944L103.477 366.332C105.553 365.096 106.729 363.344 107.257 362.276C107.377 362.06 107.557 361.628 107.629 361.316L108.733 361.688ZM117.265 362.216C118.105 362.78 119.653 364.028 120.313 364.688L119.569 365.456C118.957 364.832 117.469 363.536 116.569 362.948L117.265 362.216ZM116.233 370.256C118.321 369.944 119.881 369.212 121.021 368.504C122.881 367.34 124.333 365.564 125.029 364.076L125.605 365.108C124.789 366.596 123.397 368.228 121.585 369.368C120.373 370.124 118.861 370.868 116.857 371.24L116.233 370.256Z" fill="#FBFBFB"/>
<g filter="url(#filter3_b_5200_33094)">
<rect x="172" y="305" width="48" height="48" rx="24" fill="#191919" fill-opacity="0.3"/>
<rect x="172.333" y="305.333" width="47.3333" height="47.3333" rx="23.6667" stroke="url(#paint3_linear_5200_33094)" stroke-width="0.666667"/>
<path d="M203.113 337V335.223C203.113 334.28 202.738 333.375 202.071 332.708C201.405 332.042 200.5 331.667 199.557 331.667H192.446C191.503 331.667 190.599 332.042 189.932 332.708C189.265 333.375 188.891 334.28 188.891 335.223V337" stroke="#FBFBFB" stroke-width="1.33333" stroke-linecap="round" stroke-linejoin="round"/>
<path d="M196.009 328.111C197.972 328.111 199.564 326.519 199.564 324.556C199.564 322.592 197.972 321 196.009 321C194.045 321 192.453 322.592 192.453 324.556C192.453 326.519 194.045 328.111 196.009 328.111Z" stroke="#FBFBFB" stroke-width="1.33333" stroke-linecap="round" stroke-linejoin="round"/>
</g>
<path d="M166.711 371V362.204H167.827V371H166.711ZM170.467 371V362.204H172.663C175.375 362.204 176.815 363.776 176.815 366.572C176.815 369.368 175.375 371 172.723 371H170.467ZM171.583 370.088H172.579C174.643 370.088 175.675 368.804 175.675 366.572C175.675 364.34 174.643 363.116 172.579 363.116H171.583V370.088ZM181.801 369.944C181.801 369.272 181.801 363.968 181.801 362.972C181.801 362.624 181.777 362.096 181.717 361.712H182.893C182.845 362.084 182.809 362.6 182.809 362.972C182.809 364.832 182.821 369.38 182.821 369.944C182.821 370.328 182.845 370.976 182.893 371.372H181.729C181.789 370.988 181.801 370.388 181.801 369.944ZM182.593 364.868C184.177 365.324 186.601 366.248 187.933 366.896L187.513 367.916C186.145 367.184 183.901 366.332 182.593 365.924V364.868ZM191.221 365.804C191.593 365.84 192.217 365.876 192.901 365.876C193.777 365.876 198.589 365.876 199.477 365.876C200.077 365.876 200.497 365.828 200.773 365.804V366.98C200.521 366.968 200.017 366.932 199.489 366.932C198.577 366.932 193.789 366.932 192.901 366.932C192.241 366.932 191.605 366.956 191.221 366.98V365.804ZM212.701 363.5C212.605 363.668 212.485 363.944 212.425 364.136C212.101 365.348 211.369 366.968 210.301 368.276C209.209 369.608 207.769 370.7 205.525 371.54L204.649 370.748C206.857 370.1 208.345 369.02 209.449 367.736C210.373 366.644 211.117 365.084 211.357 363.992H206.917L207.301 363.128C207.781 363.128 210.745 363.128 211.117 363.128C211.441 363.128 211.717 363.092 211.909 363.02L212.701 363.5ZM208.681 361.688C208.489 362 208.273 362.408 208.153 362.624C207.445 363.956 206.197 365.672 204.265 366.944L203.425 366.332C205.501 365.096 206.677 363.344 207.205 362.276C207.325 362.06 207.505 361.628 207.577 361.316L208.681 361.688ZM217.213 362.216C218.053 362.78 219.601 364.028 220.261 364.688L219.517 365.456C218.905 364.832 217.417 363.536 216.517 362.948L217.213 362.216ZM216.181 370.256C218.269 369.944 219.829 369.212 220.969 368.504C222.829 367.34 224.281 365.564 224.977 364.076L225.553 365.108C224.737 366.596 223.345 368.228 221.533 369.368C220.321 370.124 218.809 370.868 216.805 371.24L216.181 370.256Z" fill="#FBFBFB"/>
<path d="M119.892 108.78C120.36 108.804 120.672 108.804 120.96 108.804C121.596 108.804 126.816 108.804 127.404 108.804C127.656 108.804 128.088 108.804 128.46 108.792C128.436 109.08 128.436 109.416 128.436 109.716C128.436 110.28 128.436 115.176 128.436 115.632C128.436 116.016 128.448 116.952 128.46 117.084H127.416C127.428 116.952 127.44 116.268 127.44 115.764C127.44 115.32 127.44 109.752 127.44 109.752H120.888C120.888 109.752 120.888 115.272 120.888 115.764C120.888 116.16 120.9 116.928 120.9 117.084H119.88C119.88 116.928 119.904 116.052 119.904 115.632C119.904 115.14 119.904 110.184 119.904 109.716C119.904 109.44 119.904 109.08 119.892 108.78ZM127.836 115.464V116.4H120.408V115.464H127.836ZM139.56 107.4C139.86 107.832 140.292 108.564 140.532 109.044L139.884 109.344C139.644 108.852 139.236 108.132 138.912 107.676L139.56 107.4ZM140.868 106.92C141.192 107.364 141.648 108.108 141.876 108.552L141.228 108.84C140.964 108.324 140.58 107.64 140.244 107.196L140.868 106.92ZM140.352 109.788C140.256 109.968 140.136 110.244 140.076 110.436C139.752 111.636 139.008 113.268 137.952 114.564C136.86 115.896 135.42 117 133.164 117.828L132.3 117.048C134.508 116.4 135.996 115.308 137.088 114.036C138.024 112.932 138.756 111.384 139.008 110.292H134.556L134.94 109.428C135.432 109.428 138.396 109.428 138.768 109.428C139.092 109.428 139.356 109.392 139.56 109.308L140.352 109.788ZM136.332 107.976C136.14 108.288 135.924 108.696 135.804 108.924C135.096 110.244 133.836 111.96 131.916 113.244L131.076 112.62C133.152 111.384 134.328 109.644 134.856 108.564C134.976 108.36 135.156 107.916 135.228 107.616L136.332 107.976ZM143.652 112.668C145.728 112.116 147.552 111.264 148.884 110.436C150.144 109.644 151.344 108.612 152.172 107.604L152.976 108.36C151.944 109.428 150.684 110.436 149.28 111.312C147.96 112.128 146.052 113.004 144.12 113.604L143.652 112.668ZM148.692 110.928L149.724 110.616V116.1C149.724 116.544 149.748 117.144 149.808 117.372H148.62C148.656 117.144 148.692 116.544 148.692 116.1V110.928ZM157.584 108.216C158.424 108.78 159.972 110.028 160.632 110.688L159.888 111.456C159.276 110.832 157.788 109.536 156.888 108.948L157.584 108.216ZM156.552 116.256C158.64 115.944 160.2 115.212 161.34 114.504C163.2 113.34 164.652 111.564 165.348 110.076L165.924 111.108C165.108 112.596 163.716 114.228 161.904 115.368C160.692 116.124 159.18 116.868 157.176 117.24L156.552 116.256Z" fill="#FBFBFB"/>
<path d="M195.558 297.442C195.802 297.686 196.198 297.686 196.442 297.442L200.419 293.464C200.663 293.22 200.663 292.825 200.419 292.581C200.175 292.337 199.78 292.337 199.536 292.581L196 296.116L192.464 292.581C192.22 292.337 191.825 292.337 191.581 292.581C191.337 292.825 191.337 293.22 191.581 293.464L195.558 297.442ZM139.375 239L139.375 260.477L140.625 260.477L140.625 239L139.375 239ZM148 269.102L188 269.102L188 267.852L148 267.852L148 269.102ZM195.375 276.477L195.375 297L196.625 297L196.625 276.477L195.375 276.477ZM188 269.102C192.073 269.102 195.375 272.404 195.375 276.477L196.625 276.477C196.625 271.714 192.763 267.852 188 267.852L188 269.102ZM139.375 260.477C139.375 265.241 143.237 269.102 148 269.102L148 267.852C143.927 267.852 140.625 264.551 140.625 260.477L139.375 260.477Z" fill="#FBFBFB"/>
<path d="M140.442 445.442C140.198 445.686 139.802 445.686 139.558 445.442L135.581 441.464C135.337 441.22 135.337 440.825 135.581 440.581C135.825 440.337 136.22 440.337 136.464 440.581L140 444.116L143.536 440.581C143.78 440.337 144.175 440.337 144.419 440.581C144.663 440.825 144.663 441.22 144.419 441.464L140.442 445.442ZM139.375 445L139.375 427.85L140.625 427.85L140.625 445L139.375 445ZM148 419.225L188 419.225L188 420.475L148 420.475L148 419.225ZM195.375 411.85L195.375 387L196.625 387L196.625 411.85L195.375 411.85ZM188 419.225C192.073 419.225 195.375 415.923 195.375 411.85L196.625 411.85C196.625 416.613 192.763 420.475 188 420.475L188 419.225ZM139.375 427.85C139.375 423.086 143.237 419.225 148 419.225L148 420.475C143.927 420.475 140.625 423.776 140.625 427.85L139.375 427.85Z" fill="#FBFBFB"/>
<path d="M88.4419 297.442C88.1979 297.686 87.8021 297.686 87.5581 297.442L83.5806 293.464C83.3365 293.22 83.3365 292.825 83.5806 292.581C83.8247 292.336 84.2204 292.336 84.4645 292.581L88 296.116L91.5355 292.581C91.7796 292.336 92.1753 292.336 92.4194 292.581C92.6635 292.825 92.6635 293.22 92.4194 293.464L88.4419 297.442ZM140.625 239L140.625 260.477L139.375 260.477L139.375 239L140.625 239ZM132 269.102L96 269.102L96 267.852L132 267.852L132 269.102ZM88.625 276.477L88.625 297L87.375 297L87.375 276.477L88.625 276.477ZM96 269.102C91.9269 269.102 88.625 272.404 88.625 276.477L87.375 276.477C87.375 271.714 91.2365 267.852 96 267.852L96 269.102ZM140.625 260.477C140.625 265.241 136.763 269.102 132 269.102L132 267.852C136.073 267.852 139.375 264.551 139.375 260.477L140.625 260.477Z" fill="#FBFBFB"/>
<path d="M141 137.198L140.375 137.198V137.198L141 137.198ZM141.442 149.442C141.198 149.686 140.802 149.686 140.558 149.442L136.581 145.464C136.337 145.22 136.337 144.825 136.581 144.581C136.825 144.337 137.22 144.337 137.464 144.581L141 148.116L144.536 144.581C144.78 144.337 145.175 144.337 145.419 144.581C145.663 144.825 145.663 145.22 145.419 145.464L141.442 149.442ZM141.625 125L141.625 137.198L140.375 137.198L140.375 125L141.625 125ZM141.625 137.198L141.625 149L140.375 149L140.375 137.198L141.625 137.198Z" fill="#FBFBFB"/>
<path d="M140 445L140 427.85C140 423.431 136.418 419.85 132 419.85L96 419.85C91.5817 419.85 88 416.268 88 411.85L88 387" stroke="#FBFBFB" stroke-width="1.25"/>
<g filter="url(#filter4_b_5200_33094)">
<rect x="116" y="453" width="48" height="48" rx="24" fill="#191919" fill-opacity="0.3"/>
<rect x="116.335" y="453.335" width="47.3304" height="47.3304" rx="23.6652" stroke="url(#paint4_linear_5200_33094)" stroke-width="0.669636"/>
<path d="M146.363 469.07H133.864C132.878 469.07 132.078 469.87 132.078 470.856V483.355C132.078 484.341 132.878 485.141 133.864 485.141H146.363C147.349 485.141 148.149 484.341 148.149 483.355V470.856C148.149 469.87 147.349 469.07 146.363 469.07Z" stroke="#FBFBFB" stroke-width="1.33927" stroke-linecap="round" stroke-linejoin="round"/>
<path d="M132.078 474.428H148.149" stroke="#FBFBFB" stroke-width="1.33927" stroke-linecap="round" stroke-linejoin="round"/>
<path d="M137.422 485.141V474.428" stroke="#FBFBFB" stroke-width="1.33927" stroke-linecap="round" stroke-linejoin="round"/>
</g>
<path d="M102.449 510.9C102.353 511.008 102.209 511.188 102.125 511.32C101.645 512.136 100.505 513.684 99.1372 514.632L98.3332 513.996C99.4492 513.36 100.577 512.064 100.961 511.32C100.121 511.32 94.6972 511.32 94.1212 511.32C93.6772 511.32 93.2332 511.344 92.7652 511.38V510.3C93.1852 510.36 93.6772 510.408 94.1212 510.408C94.6972 510.408 100.301 510.408 101.021 510.408C101.249 510.408 101.681 510.372 101.849 510.324L102.449 510.9ZM97.6492 512.472C97.6492 515.724 97.3612 517.92 94.3012 519.456L93.4252 518.736C93.7492 518.628 94.1692 518.424 94.5052 518.196C96.3532 517.056 96.6172 515.352 96.6172 513.348C96.6172 513.06 96.6172 512.796 96.5692 512.472H97.6492ZM113.177 510.384C113.177 510.828 113.525 511.176 113.969 511.176C114.401 511.176 114.761 510.828 114.761 510.384C114.761 509.952 114.401 509.592 113.969 509.592C113.525 509.592 113.177 509.952 113.177 510.384ZM112.625 510.384C112.625 509.64 113.225 509.04 113.969 509.04C114.713 509.04 115.313 509.64 115.313 510.384C115.313 511.128 114.713 511.728 113.969 511.728C113.225 511.728 112.625 511.128 112.625 510.384ZM113.669 511.188C113.585 511.356 113.537 511.56 113.489 511.788C113.225 513.048 112.649 514.992 111.689 516.216C110.597 517.632 109.169 518.736 106.973 519.432L106.157 518.532C108.485 517.944 109.829 516.924 110.837 515.64C111.689 514.56 112.241 512.88 112.409 511.728C111.713 511.728 106.961 511.728 106.265 511.728C105.785 511.728 105.377 511.752 105.077 511.776V510.708C105.401 510.744 105.881 510.792 106.277 510.792C106.961 510.792 111.749 510.792 112.289 510.792C112.481 510.792 112.709 510.78 112.937 510.72L113.669 511.188ZM125.057 509.904C125.033 510.192 125.021 510.54 125.021 510.948C125.021 511.416 125.021 512.436 125.021 512.88C125.021 515.772 124.637 516.72 123.761 517.74C122.993 518.676 121.793 519.204 120.917 519.504L120.125 518.676C121.229 518.388 122.249 517.92 122.993 517.068C123.845 516.084 124.001 515.1 124.001 512.844C124.001 512.376 124.001 511.368 124.001 510.948C124.001 510.54 123.965 510.192 123.929 509.904H125.057ZM119.489 510C119.465 510.228 119.453 510.576 119.453 510.852C119.453 511.212 119.453 514.356 119.453 514.86C119.453 515.172 119.465 515.568 119.489 515.784H118.397C118.421 515.592 118.445 515.208 118.445 514.86C118.445 514.344 118.445 511.212 118.445 510.852C118.445 510.648 118.433 510.228 118.397 510H119.489ZM132.941 509.724C132.833 510 132.725 510.324 132.629 510.576C132.449 511.116 132.173 511.848 131.837 512.508C131.369 513.444 130.481 514.656 129.737 515.292L128.789 514.716C129.653 514.104 130.505 512.868 130.925 512.136C131.249 511.536 131.465 510.924 131.597 510.456C131.693 510.156 131.753 509.82 131.777 509.508L132.941 509.724ZM131.429 511.788C132.185 511.788 137.249 511.788 137.849 511.788C138.137 511.788 138.617 511.776 138.965 511.716V512.748C138.593 512.724 138.125 512.724 137.849 512.724C137.237 512.724 132.185 512.724 131.309 512.724L131.429 511.788ZM135.833 512.292C135.725 515.988 134.357 518.112 132.209 519.468L131.189 518.784C131.537 518.652 131.897 518.436 132.161 518.22C133.397 517.296 134.753 515.616 134.825 512.292H135.833ZM141.449 513.804C141.821 513.84 142.445 513.876 143.129 513.876C144.005 513.876 148.817 513.876 149.705 513.876C150.305 513.876 150.725 513.828 151.001 513.804V514.98C150.749 514.968 150.245 514.932 149.717 514.932C148.805 514.932 144.017 514.932 143.129 514.932C142.469 514.932 141.833 514.956 141.449 514.98V513.804ZM155.843 509.784C156.551 510.18 157.931 511.104 158.459 511.488L157.895 512.304C157.319 511.86 156.011 510.996 155.315 510.6L155.843 509.784ZM154.043 518.364C155.363 518.136 156.851 517.656 158.075 516.972C160.067 515.832 161.651 514.26 162.611 512.568L163.199 513.564C162.155 515.172 160.499 516.72 158.579 517.848C157.367 518.556 155.711 519.108 154.607 519.336L154.043 518.364ZM154.043 512.484C154.751 512.868 156.155 513.732 156.671 514.104L156.119 514.944C155.531 514.512 154.235 513.684 153.503 513.3L154.043 512.484ZM167.147 512.424C167.375 512.448 168.059 512.46 168.383 512.46C169.055 512.46 172.043 512.46 173.015 512.46C173.291 512.46 173.591 512.448 173.759 512.448C173.747 512.58 173.747 512.832 173.747 513.06C173.747 513.48 173.747 518.016 173.747 519.036C173.747 519.228 173.759 519.504 173.759 519.684H172.811C172.823 519.54 172.823 519.252 172.823 519C172.823 517.74 172.823 513.684 172.823 513.324C172.427 513.324 169.043 513.324 168.383 513.324C168.059 513.324 167.375 513.348 167.147 513.348V512.424ZM167.411 515.268C167.651 515.292 168.083 515.316 168.491 515.316C169.103 515.316 172.943 515.316 173.291 515.316V516.18C172.943 516.18 169.103 516.18 168.491 516.18C168.083 516.18 167.651 516.18 167.411 516.204V515.268ZM167.015 518.256C167.207 518.28 167.579 518.304 167.999 518.304C168.683 518.304 172.775 518.304 173.303 518.304V519.192C172.703 519.192 168.683 519.192 167.999 519.192C167.627 519.192 167.207 519.216 167.015 519.216V518.256ZM179.447 510.216C180.287 510.78 181.835 512.028 182.495 512.688L181.751 513.456C181.139 512.832 179.651 511.536 178.751 510.948L179.447 510.216ZM178.415 518.256C180.503 517.944 182.063 517.212 183.203 516.504C185.063 515.34 186.515 513.564 187.211 512.076L187.787 513.108C186.971 514.596 185.579 516.228 183.767 517.368C182.555 518.124 181.043 518.868 179.039 519.24L178.415 518.256Z" fill="#FBFBFB"/>
<defs>
<filter id="filter0_b_5200_33094" x="107.022" y="9.02185" width="69.9563" height="69.9563" filterUnits="userSpaceOnUse" color-interpolation-filters="sRGB">
<feFlood flood-opacity="0" result="BackgroundImageFix"/>
<feGaussianBlur in="BackgroundImageFix" stdDeviation="5.48907"/>
<feComposite in2="SourceAlpha" operator="in" result="effect1_backgroundBlur_5200_33094"/>
<feBlend mode="normal" in="SourceGraphic" in2="effect1_backgroundBlur_5200_33094" result="shape"/>
</filter>
<filter id="filter1_b_5200_33094" x="106.286" y="146.286" width="69.4282" height="69.4282" filterUnits="userSpaceOnUse" color-interpolation-filters="sRGB">
<feFlood flood-opacity="0" result="BackgroundImageFix"/>
<feGaussianBlur in="BackgroundImageFix" stdDeviation="5.35704"/>
<feComposite in2="SourceAlpha" operator="in" result="effect1_backgroundBlur_5200_33094"/>
<feBlend mode="normal" in="SourceGraphic" in2="effect1_backgroundBlur_5200_33094" result="shape"/>
</filter>
<filter id="filter2_b_5200_33094" x="43.153" y="294.153" width="69.694" height="69.694" filterUnits="userSpaceOnUse" color-interpolation-filters="sRGB">
<feFlood flood-opacity="0" result="BackgroundImageFix"/>
<feGaussianBlur in="BackgroundImageFix" stdDeviation="5.4235"/>
<feComposite in2="SourceAlpha" operator="in" result="effect1_backgroundBlur_5200_33094"/>
<feBlend mode="normal" in="SourceGraphic" in2="effect1_backgroundBlur_5200_33094" result="shape"/>
</filter>
<filter id="filter3_b_5200_33094" x="161.333" y="294.333" width="69.3333" height="69.3333" filterUnits="userSpaceOnUse" color-interpolation-filters="sRGB">
<feFlood flood-opacity="0" result="BackgroundImageFix"/>
<feGaussianBlur in="BackgroundImageFix" stdDeviation="5.33333"/>
<feComposite in2="SourceAlpha" operator="in" result="effect1_backgroundBlur_5200_33094"/>
<feBlend mode="normal" in="SourceGraphic" in2="effect1_backgroundBlur_5200_33094" result="shape"/>
</filter>
<filter id="filter4_b_5200_33094" x="105.286" y="442.286" width="69.4284" height="69.4284" filterUnits="userSpaceOnUse" color-interpolation-filters="sRGB">
<feFlood flood-opacity="0" result="BackgroundImageFix"/>
<feGaussianBlur in="BackgroundImageFix" stdDeviation="5.35709"/>
<feComposite in2="SourceAlpha" operator="in" result="effect1_backgroundBlur_5200_33094"/>
<feBlend mode="normal" in="SourceGraphic" in2="effect1_backgroundBlur_5200_33094" result="shape"/>
</filter>
<linearGradient id="paint0_linear_5200_33094" x1="73.2812" y1="122.96" x2="189.661" y2="9.13567" gradientUnits="userSpaceOnUse">
<stop offset="0.0596952" stop-color="#191919"/>
<stop offset="0.290711" stop-color="#4016A0"/>
<stop offset="0.504779" stop-color="#3F59E4"/>
<stop offset="0.705284" stop-color="#4CB7A3"/>
<stop offset="0.937599" stop-color="#F6F1E7"/>
</linearGradient>
<linearGradient id="paint1_linear_5200_33094" x1="72.2812" y1="259.96" x2="188.661" y2="146.136" gradientUnits="userSpaceOnUse">
<stop offset="0.0596952" stop-color="#191919"/>
<stop offset="0.290711" stop-color="#4016A0"/>
<stop offset="0.504779" stop-color="#3F59E4"/>
<stop offset="0.705284" stop-color="#4CB7A3"/>
<stop offset="0.937599" stop-color="#F6F1E7"/>
</linearGradient>
<linearGradient id="paint2_linear_5200_33094" x1="9.28125" y1="407.96" x2="125.661" y2="294.136" gradientUnits="userSpaceOnUse">
<stop offset="0.0596952" stop-color="#191919"/>
<stop offset="0.290711" stop-color="#4016A0"/>
<stop offset="0.504779" stop-color="#3F59E4"/>
<stop offset="0.705284" stop-color="#4CB7A3"/>
<stop offset="0.937599" stop-color="#F6F1E7"/>
</linearGradient>
<linearGradient id="paint3_linear_5200_33094" x1="127.281" y1="407.96" x2="243.661" y2="294.136" gradientUnits="userSpaceOnUse">
<stop offset="0.0596952" stop-color="#191919"/>
<stop offset="0.290711" stop-color="#4016A0"/>
<stop offset="0.504779" stop-color="#3F59E4"/>
<stop offset="0.705284" stop-color="#4CB7A3"/>
<stop offset="0.937599" stop-color="#F6F1E7"/>
</linearGradient>
<linearGradient id="paint4_linear_5200_33094" x1="71.2812" y1="555.96" x2="187.661" y2="442.136" gradientUnits="userSpaceOnUse">
<stop offset="0.0596952" stop-color="#191919"/>
<stop offset="0.290711" stop-color="#4016A0"/>
<stop offset="0.504779" stop-color="#3F59E4"/>
<stop offset="0.705284" stop-color="#4CB7A3"/>
<stop offset="0.937599" stop-color="#F6F1E7"/>
</linearGradient>
</defs>
</svg>
