<svg width="281" height="547" viewBox="0 0 281 547" fill="none" xmlns="http://www.w3.org/2000/svg">
<rect x="281" width="547" height="281" rx="16" transform="rotate(90 281 0)" fill="black" fill-opacity="0.2"/>
<g filter="url(#filter0_b_4940_47674)">
<rect x="118" y="20" width="48" height="48" rx="24" fill="#191919" fill-opacity="0.3"/>
<rect x="118.343" y="20.3431" width="47.3139" height="47.3139" rx="23.6569" stroke="url(#paint0_linear_4940_47674)" stroke-width="0.686134"/>
<path d="M149.294 52.2112V50.3816C149.294 49.411 148.908 48.4802 148.222 47.794C147.536 47.1077 146.605 46.7222 145.634 46.7222H138.316C137.345 46.7222 136.414 47.1077 135.728 47.794C135.042 48.4802 134.656 49.411 134.656 50.3816V52.2112" stroke="#FBFBFB" stroke-width="1.37227" stroke-linecap="round" stroke-linejoin="round"/>
<path d="M141.976 43.0639C143.997 43.0639 145.635 41.4255 145.635 39.4045C145.635 37.3835 143.997 35.7451 141.976 35.7451C139.955 35.7451 138.316 37.3835 138.316 39.4045C138.316 41.4255 139.955 43.0639 141.976 43.0639Z" stroke="#FBFBFB" stroke-width="1.37227" stroke-linecap="round" stroke-linejoin="round"/>
</g>
<path d="M130.103 81.412V76.6H131.147V81.472C131.147 83.212 131.843 84.112 133.295 84.112C134.771 84.112 135.467 83.212 135.467 81.472V76.6H136.511V81.412C136.511 83.812 135.395 85.072 133.295 85.072C131.195 85.072 130.103 83.812 130.103 81.412ZM137.941 82.984H138.949C138.985 83.704 139.621 84.232 140.641 84.232C141.505 84.232 142.117 83.86 142.117 83.296C142.117 82.528 141.445 82.468 140.533 82.36C139.165 82.192 138.073 81.916 138.073 80.644C138.073 79.528 139.093 78.796 140.473 78.808C141.865 78.82 142.873 79.468 142.969 80.74H141.961C141.889 80.116 141.313 79.648 140.473 79.648C139.621 79.648 139.045 80.008 139.045 80.572C139.045 81.244 139.693 81.328 140.581 81.436C141.973 81.604 143.089 81.868 143.089 83.224C143.089 84.364 141.997 85.072 140.641 85.072C139.057 85.072 137.965 84.328 137.941 82.984ZM147.241 85.072C145.405 85.072 144.205 83.812 144.205 81.94C144.205 80.08 145.381 78.808 147.109 78.808C148.837 78.808 149.965 79.9 150.013 81.712C150.013 81.844 150.001 81.988 149.989 82.132H145.237V82.216C145.273 83.38 146.005 84.196 147.169 84.196C148.033 84.196 148.705 83.74 148.909 82.948H149.905C149.665 84.172 148.657 85.072 147.241 85.072ZM145.297 81.316H148.957C148.861 80.26 148.141 79.672 147.121 79.672C146.221 79.672 145.393 80.32 145.297 81.316ZM154.208 78.88H154.484V79.84H153.992C152.708 79.84 152.36 80.908 152.36 81.88V85H151.376V78.88H152.228L152.36 79.804C152.648 79.336 153.116 78.88 154.208 78.88Z" fill="#FBFBFB"/>
<g filter="url(#filter1_b_4940_47674)">
<rect x="117" y="157" width="48" height="48" rx="24" fill="#191919" fill-opacity="0.3"/>
<rect x="117.335" y="157.335" width="47.3304" height="47.3304" rx="23.6652" stroke="url(#paint1_linear_4940_47674)" stroke-width="0.66963"/>
<path d="M147.86 171.785H133.575C132.589 171.785 131.789 172.584 131.789 173.57V177.142C131.789 178.128 132.589 178.927 133.575 178.927H147.86C148.846 178.927 149.645 178.128 149.645 177.142V173.57C149.645 172.584 148.846 171.785 147.86 171.785Z" stroke="#FBFBFB" stroke-width="1.33926" stroke-linecap="round" stroke-linejoin="round"/>
<path d="M147.86 182.499H133.575C132.589 182.499 131.789 183.298 131.789 184.285V187.856C131.789 188.842 132.589 189.642 133.575 189.642H147.86C148.846 189.642 149.645 188.842 149.645 187.856V184.285C149.645 183.298 148.846 182.499 147.86 182.499Z" stroke="#FBFBFB" stroke-width="1.33926" stroke-linecap="round" stroke-linejoin="round"/>
<path d="M135.359 175.356H135.37" stroke="#FBFBFB" stroke-width="1.33926" stroke-linecap="round" stroke-linejoin="round"/>
<path d="M135.359 186.071H135.37" stroke="#FBFBFB" stroke-width="1.33926" stroke-linecap="round" stroke-linejoin="round"/>
</g>
<path d="M105.906 222H104.826L108.03 213.6H109.266L112.458 222H111.342L110.454 219.732H106.794L105.906 222ZM108.618 214.74L107.106 218.784H110.142L108.618 214.74ZM117.589 218.94V215.88H118.573V222H117.721L117.589 221.184C117.229 221.64 116.641 222.072 115.633 222.072C114.289 222.072 113.221 221.316 113.221 219.288V215.88H114.205V219.228C114.205 220.5 114.781 221.172 115.801 221.172C116.917 221.172 117.589 220.32 117.589 218.94ZM120.634 220.404V216.78H119.53V215.88H120.634V214.164H121.618V215.88H123.202V216.78H121.618V220.392C121.618 220.908 121.798 221.1 122.326 221.1H123.298V222H122.23C121.054 222 120.634 221.484 120.634 220.404ZM127.39 215.808C128.758 215.808 129.874 216.564 129.874 218.592V222H128.89V218.652C128.89 217.38 128.278 216.708 127.222 216.708C126.082 216.708 125.374 217.56 125.374 218.94V222H124.39V213.6H125.374V216.888C125.734 216.312 126.358 215.808 127.39 215.808ZM131.213 217.992V217.608C131.213 215.22 132.509 213.528 134.405 213.528C136.289 213.528 137.585 215.22 137.585 217.608V217.992C137.585 220.5 136.289 222.072 134.405 222.072C132.509 222.072 131.213 220.5 131.213 217.992ZM136.565 217.956V217.644C136.565 215.652 135.701 214.452 134.405 214.452C133.097 214.452 132.233 215.652 132.233 217.644V217.956C132.233 219.948 133.097 221.148 134.405 221.148C135.701 221.148 136.565 219.948 136.565 217.956ZM142.204 219.252H143.284C143.368 220.38 144.244 221.124 145.528 221.124C146.656 221.124 147.46 220.608 147.46 219.696C147.46 218.652 146.428 218.436 145.156 218.22C143.8 217.992 142.408 217.548 142.408 215.916C142.408 214.488 143.572 213.528 145.276 213.528C147.148 213.528 148.3 214.572 148.396 216.084H147.316C147.196 215.112 146.416 214.476 145.276 214.476C144.184 214.476 143.452 214.956 143.452 215.856C143.452 216.864 144.472 217.068 145.732 217.284C147.1 217.512 148.504 217.968 148.504 219.6C148.504 221.052 147.28 222.072 145.516 222.072C143.464 222.072 142.264 220.908 142.204 219.252ZM152.745 222.072C150.909 222.072 149.709 220.812 149.709 218.94C149.709 217.08 150.885 215.808 152.613 215.808C154.341 215.808 155.469 216.9 155.517 218.712C155.517 218.844 155.505 218.988 155.493 219.132H150.741V219.216C150.777 220.38 151.509 221.196 152.673 221.196C153.537 221.196 154.209 220.74 154.413 219.948H155.409C155.169 221.172 154.161 222.072 152.745 222.072ZM150.801 218.316H154.461C154.365 217.26 153.645 216.672 152.625 216.672C151.725 216.672 150.897 217.32 150.801 218.316ZM159.711 215.88H159.987V216.84H159.495C158.211 216.84 157.863 217.908 157.863 218.88V222H156.879V215.88H157.731L157.863 216.804C158.151 216.336 158.619 215.88 159.711 215.88ZM162.878 222L160.586 215.88H161.642L163.49 220.884L165.326 215.88H166.358L164.066 222H162.878ZM169.883 222.072C168.047 222.072 166.847 220.812 166.847 218.94C166.847 217.08 168.023 215.808 169.751 215.808C171.479 215.808 172.607 216.9 172.655 218.712C172.655 218.844 172.643 218.988 172.631 219.132H167.879V219.216C167.915 220.38 168.647 221.196 169.811 221.196C170.675 221.196 171.347 220.74 171.551 219.948H172.547C172.307 221.172 171.299 222.072 169.883 222.072ZM167.939 218.316H171.599C171.503 217.26 170.783 216.672 169.763 216.672C168.863 216.672 168.035 217.32 167.939 218.316ZM176.849 215.88H177.125V216.84H176.633C175.349 216.84 175.001 217.908 175.001 218.88V222H174.017V215.88H174.869L175.001 216.804C175.289 216.336 175.757 215.88 176.849 215.88Z" fill="#FBFBFB"/>
<g filter="url(#filter2_b_4940_47674)">
<rect x="64" y="305" width="48" height="48" rx="24" fill="#191919" fill-opacity="0.3"/>
<rect x="64.339" y="305.339" width="47.3221" height="47.3221" rx="23.661" stroke="url(#paint2_linear_4940_47674)" stroke-width="0.677938"/>
<path d="M96.5387 320.366L94.7308 322.174M94.7308 322.174L97.4426 324.886L94.2789 328.05L91.5671 325.338M94.7308 322.174L91.5671 325.338M87.852 329.053C88.3188 329.514 88.6898 330.062 88.9437 330.666C89.1977 331.271 89.3296 331.92 89.3318 332.575C89.334 333.231 89.2064 333.881 88.9565 334.487C88.7066 335.093 88.3393 335.644 87.8757 336.107C87.412 336.571 86.8613 336.938 86.2551 337.188C85.6489 337.438 84.9993 337.566 84.3436 337.564C83.6879 337.561 83.0392 337.429 82.4347 337.175C81.8302 336.922 81.2819 336.55 80.8214 336.084C79.9157 335.146 79.4146 333.89 79.426 332.587C79.4373 331.283 79.9601 330.036 80.8819 329.115C81.8037 328.193 83.0506 327.67 84.3541 327.659C85.6576 327.647 86.9135 328.148 87.8511 329.054L87.852 329.053ZM87.852 329.053L91.5671 325.338" stroke="#FBFBFB" stroke-width="1.35588" stroke-linecap="round" stroke-linejoin="round"/>
</g>
<path d="M50.6322 370H49.5522L52.7562 361.6H53.9922L57.1842 370H56.0682L55.1802 367.732H51.5202L50.6322 370ZM53.3442 362.74L51.8322 366.784H54.8682L53.3442 362.74ZM60.7091 370.072C58.9211 370.072 57.7451 368.86 57.7451 366.952C57.7451 365.08 58.9571 363.808 60.7331 363.808C62.2331 363.808 63.1811 364.648 63.4331 365.992H62.4011C62.2211 365.176 61.6211 364.684 60.7211 364.684C59.5451 364.684 58.7531 365.62 58.7531 366.952C58.7531 368.284 59.5451 369.196 60.7211 369.196C61.5971 369.196 62.1971 368.692 62.3891 367.912H63.4331C63.1931 369.232 62.1971 370.072 60.7091 370.072ZM67.4999 370.072C65.7119 370.072 64.5359 368.86 64.5359 366.952C64.5359 365.08 65.7479 363.808 67.5239 363.808C69.0239 363.808 69.9719 364.648 70.2239 365.992H69.1919C69.0119 365.176 68.4119 364.684 67.5119 364.684C66.3359 364.684 65.5439 365.62 65.5439 366.952C65.5439 368.284 66.3359 369.196 67.5119 369.196C68.3879 369.196 68.9879 368.692 69.1799 367.912H70.2239C69.9839 369.232 68.9879 370.072 67.4999 370.072ZM74.3627 370.072C72.5267 370.072 71.3267 368.812 71.3267 366.94C71.3267 365.08 72.5027 363.808 74.2307 363.808C75.9587 363.808 77.0867 364.9 77.1347 366.712C77.1347 366.844 77.1227 366.988 77.1107 367.132H72.3587V367.216C72.3947 368.38 73.1267 369.196 74.2907 369.196C75.1547 369.196 75.8267 368.74 76.0307 367.948H77.0267C76.7867 369.172 75.7787 370.072 74.3627 370.072ZM72.4187 366.316H76.0787C75.9827 365.26 75.2627 364.672 74.2427 364.672C73.3427 364.672 72.5147 365.32 72.4187 366.316ZM78.2221 367.984H79.2301C79.2661 368.704 79.9021 369.232 80.9221 369.232C81.7861 369.232 82.3981 368.86 82.3981 368.296C82.3981 367.528 81.7261 367.468 80.8141 367.36C79.4461 367.192 78.3541 366.916 78.3541 365.644C78.3541 364.528 79.3741 363.796 80.7541 363.808C82.1461 363.82 83.1541 364.468 83.2501 365.74H82.2421C82.1701 365.116 81.5941 364.648 80.7541 364.648C79.9021 364.648 79.3261 365.008 79.3261 365.572C79.3261 366.244 79.9741 366.328 80.8621 366.436C82.2541 366.604 83.3701 366.868 83.3701 368.224C83.3701 369.364 82.2781 370.072 80.9221 370.072C79.3381 370.072 78.2461 369.328 78.2221 367.984ZM84.3332 367.984H85.3412C85.3772 368.704 86.0132 369.232 87.0332 369.232C87.8972 369.232 88.5092 368.86 88.5092 368.296C88.5092 367.528 87.8372 367.468 86.9252 367.36C85.5572 367.192 84.4652 366.916 84.4652 365.644C84.4652 364.528 85.4852 363.796 86.8652 363.808C88.2572 363.82 89.2652 364.468 89.3612 365.74H88.3532C88.2812 365.116 87.7052 364.648 86.8652 364.648C86.0132 364.648 85.4372 365.008 85.4372 365.572C85.4372 366.244 86.0852 366.328 86.9732 366.436C88.3652 366.604 89.4812 366.868 89.4812 368.224C89.4812 369.364 88.3892 370.072 87.0332 370.072C85.4492 370.072 84.3572 369.328 84.3332 367.984ZM93.7621 362.56V361.6H100.254V362.56H97.5301V370H96.4861V362.56H93.7621ZM103.149 370.072C101.361 370.072 100.113 368.8 100.113 366.94C100.113 365.08 101.361 363.808 103.149 363.808C104.937 363.808 106.185 365.08 106.185 366.94C106.185 368.8 104.937 370.072 103.149 370.072ZM103.149 369.196C104.361 369.196 105.177 368.248 105.177 366.94C105.177 365.632 104.361 364.684 103.149 364.684C101.937 364.684 101.121 365.632 101.121 366.94C101.121 368.248 101.937 369.196 103.149 369.196ZM107.553 370V361.6H108.537V367.132L111.609 363.88H112.821L110.433 366.412L112.989 370H111.801L109.773 367.12L108.537 368.392V370H107.553ZM116.39 370.072C114.554 370.072 113.354 368.812 113.354 366.94C113.354 365.08 114.53 363.808 116.258 363.808C117.986 363.808 119.114 364.9 119.162 366.712C119.162 366.844 119.15 366.988 119.138 367.132H114.386V367.216C114.422 368.38 115.154 369.196 116.318 369.196C117.182 369.196 117.854 368.74 118.058 367.948H119.054C118.814 369.172 117.806 370.072 116.39 370.072ZM114.446 366.316H118.106C118.01 365.26 117.29 364.672 116.27 364.672C115.37 364.672 114.542 365.32 114.446 366.316ZM123.525 363.808C124.905 363.808 125.997 364.564 125.997 366.592V370H125.013V366.652C125.013 365.38 124.425 364.708 123.357 364.708C122.205 364.708 121.509 365.56 121.509 366.94V370H120.525V363.88H121.377L121.509 364.708C121.869 364.24 122.493 363.808 123.525 363.808Z" fill="#FBFBFB"/>
<g filter="url(#filter3_b_4940_47674)">
<rect x="172" y="305" width="48" height="48" rx="24" fill="#191919" fill-opacity="0.3"/>
<rect x="172.333" y="305.333" width="47.3333" height="47.3333" rx="23.6667" stroke="url(#paint3_linear_4940_47674)" stroke-width="0.666667"/>
<path d="M203.105 337V335.222C203.105 334.279 202.73 333.375 202.064 332.708C201.397 332.041 200.492 331.667 199.549 331.667H192.438C191.495 331.667 190.591 332.041 189.924 332.708C189.257 333.375 188.883 334.279 188.883 335.222V337" stroke="#FBFBFB" stroke-width="1.33333" stroke-linecap="round" stroke-linejoin="round"/>
<path d="M196.005 328.111C197.968 328.111 199.56 326.519 199.56 324.556C199.56 322.592 197.968 321 196.005 321C194.041 321 192.449 322.592 192.449 324.556C192.449 326.519 194.041 328.111 196.005 328.111Z" stroke="#FBFBFB" stroke-width="1.33333" stroke-linecap="round" stroke-linejoin="round"/>
</g>
<path d="M172.908 370V361.6H173.952V370H172.908ZM178.508 370H175.82V361.6H178.508C181.136 361.6 182.732 363.28 182.732 365.8C182.732 368.308 181.136 370 178.508 370ZM176.864 362.56V369.04H178.508C180.548 369.04 181.664 367.756 181.664 365.8C181.664 363.832 180.548 362.56 178.508 362.56H176.864ZM187.091 362.56V361.6H193.583V362.56H190.859V370H189.815V362.56H187.091ZM196.477 370.072C194.689 370.072 193.441 368.8 193.441 366.94C193.441 365.08 194.689 363.808 196.477 363.808C198.265 363.808 199.513 365.08 199.513 366.94C199.513 368.8 198.265 370.072 196.477 370.072ZM196.477 369.196C197.689 369.196 198.505 368.248 198.505 366.94C198.505 365.632 197.689 364.684 196.477 364.684C195.265 364.684 194.449 365.632 194.449 366.94C194.449 368.248 195.265 369.196 196.477 369.196ZM200.882 370V361.6H201.866V367.132L204.938 363.88H206.15L203.762 366.412L206.318 370H205.13L203.102 367.12L201.866 368.392V370H200.882ZM209.719 370.072C207.883 370.072 206.683 368.812 206.683 366.94C206.683 365.08 207.859 363.808 209.587 363.808C211.315 363.808 212.443 364.9 212.491 366.712C212.491 366.844 212.479 366.988 212.467 367.132H207.715V367.216C207.751 368.38 208.483 369.196 209.647 369.196C210.511 369.196 211.183 368.74 211.387 367.948H212.383C212.143 369.172 211.135 370.072 209.719 370.072ZM207.775 366.316H211.435C211.339 365.26 210.619 364.672 209.599 364.672C208.699 364.672 207.871 365.32 207.775 366.316ZM216.854 363.808C218.234 363.808 219.326 364.564 219.326 366.592V370H218.342V366.652C218.342 365.38 217.754 364.708 216.686 364.708C215.534 364.708 214.838 365.56 214.838 366.94V370H213.854V363.88H214.706L214.838 364.708C215.198 364.24 215.822 363.808 216.854 363.808Z" fill="#FBFBFB"/>
<path d="M127.688 116H122.816V107.6H123.86V115.04H127.688V116ZM131.334 116.072C129.546 116.072 128.298 114.8 128.298 112.94C128.298 111.08 129.546 109.808 131.334 109.808C133.122 109.808 134.37 111.08 134.37 112.94C134.37 114.8 133.122 116.072 131.334 116.072ZM131.334 115.196C132.546 115.196 133.362 114.248 133.362 112.94C133.362 111.632 132.546 110.684 131.334 110.684C130.122 110.684 129.306 111.632 129.306 112.94C129.306 114.248 130.122 115.196 131.334 115.196ZM140.562 110.936L140.694 109.88H141.546V115.7C141.546 117.464 140.61 118.472 138.51 118.472C136.95 118.472 135.858 117.74 135.702 116.396H136.71C136.878 117.164 137.562 117.596 138.582 117.596C139.866 117.596 140.562 116.996 140.562 115.664V114.944C140.154 115.64 139.494 116.072 138.462 116.072C136.77 116.072 135.522 114.932 135.522 112.94C135.522 111.068 136.77 109.808 138.462 109.808C139.494 109.808 140.178 110.252 140.562 110.936ZM138.558 115.196C139.758 115.196 140.574 114.272 140.574 112.964C140.574 111.62 139.758 110.684 138.558 110.684C137.346 110.684 136.53 111.608 136.53 112.94C136.53 114.272 137.346 115.196 138.558 115.196ZM142.874 113.984H143.882C143.918 114.704 144.554 115.232 145.574 115.232C146.438 115.232 147.05 114.86 147.05 114.296C147.05 113.528 146.378 113.468 145.466 113.36C144.098 113.192 143.006 112.916 143.006 111.644C143.006 110.528 144.026 109.796 145.406 109.808C146.798 109.82 147.806 110.468 147.902 111.74H146.894C146.822 111.116 146.246 110.648 145.406 110.648C144.554 110.648 143.978 111.008 143.978 111.572C143.978 112.244 144.626 112.328 145.514 112.436C146.906 112.604 148.022 112.868 148.022 114.224C148.022 115.364 146.93 116.072 145.574 116.072C143.99 116.072 142.898 115.328 142.874 113.984ZM153.239 108.848C152.879 108.848 152.603 108.584 152.603 108.212C152.603 107.84 152.879 107.576 153.239 107.576C153.599 107.576 153.875 107.84 153.875 108.212C153.875 108.584 153.599 108.848 153.239 108.848ZM152.735 116V109.88H153.719V116H152.735ZM158.307 109.808C159.687 109.808 160.779 110.564 160.779 112.592V116H159.795V112.652C159.795 111.38 159.207 110.708 158.139 110.708C156.987 110.708 156.291 111.56 156.291 112.94V116H155.307V109.88H156.159L156.291 110.708C156.651 110.24 157.275 109.808 158.307 109.808Z" fill="#FBFBFB"/>
<path d="M195.558 297.442C195.802 297.686 196.198 297.686 196.442 297.442L200.419 293.464C200.663 293.22 200.663 292.825 200.419 292.581C200.175 292.337 199.78 292.337 199.536 292.581L196 296.116L192.464 292.581C192.22 292.337 191.825 292.337 191.581 292.581C191.337 292.825 191.337 293.22 191.581 293.464L195.558 297.442ZM139.375 239L139.375 260.477L140.625 260.477L140.625 239L139.375 239ZM148 269.102L188 269.102L188 267.852L148 267.852L148 269.102ZM195.375 276.477L195.375 297L196.625 297L196.625 276.477L195.375 276.477ZM188 269.102C192.073 269.102 195.375 272.404 195.375 276.477L196.625 276.477C196.625 271.714 192.763 267.852 188 267.852L188 269.102ZM139.375 260.477C139.375 265.241 143.237 269.102 148 269.102L148 267.852C143.927 267.852 140.625 264.551 140.625 260.477L139.375 260.477Z" fill="#FBFBFB"/>
<path d="M140.442 445.442C140.198 445.686 139.802 445.686 139.558 445.442L135.581 441.464C135.337 441.22 135.337 440.825 135.581 440.581C135.825 440.337 136.22 440.337 136.464 440.581L140 444.116L143.536 440.581C143.78 440.337 144.175 440.337 144.419 440.581C144.663 440.825 144.663 441.22 144.419 441.464L140.442 445.442ZM139.375 445L139.375 427.85L140.625 427.85L140.625 445L139.375 445ZM148 419.225L188 419.225L188 420.475L148 420.475L148 419.225ZM195.375 411.85L195.375 387L196.625 387L196.625 411.85L195.375 411.85ZM188 419.225C192.073 419.225 195.375 415.923 195.375 411.85L196.625 411.85C196.625 416.613 192.763 420.475 188 420.475L188 419.225ZM139.375 427.85C139.375 423.086 143.237 419.225 148 419.225L148 420.475C143.927 420.475 140.625 423.776 140.625 427.85L139.375 427.85Z" fill="#FBFBFB"/>
<path d="M88.4419 297.442C88.1979 297.686 87.8021 297.686 87.5581 297.442L83.5806 293.464C83.3365 293.22 83.3365 292.825 83.5806 292.581C83.8247 292.336 84.2204 292.336 84.4645 292.581L88 296.116L91.5355 292.581C91.7796 292.336 92.1753 292.336 92.4194 292.581C92.6635 292.825 92.6635 293.22 92.4194 293.464L88.4419 297.442ZM140.625 239L140.625 260.477L139.375 260.477L139.375 239L140.625 239ZM132 269.102L96 269.102L96 267.852L132 267.852L132 269.102ZM88.625 276.477L88.625 297L87.375 297L87.375 276.477L88.625 276.477ZM96 269.102C91.9269 269.102 88.625 272.404 88.625 276.477L87.375 276.477C87.375 271.714 91.2365 267.852 96 267.852L96 269.102ZM140.625 260.477C140.625 265.241 136.763 269.102 132 269.102L132 267.852C136.073 267.852 139.375 264.551 139.375 260.477L140.625 260.477Z" fill="#FBFBFB"/>
<path d="M141 137.198L140.375 137.198L141 137.198ZM141.442 149.442C141.198 149.686 140.802 149.686 140.558 149.442L136.581 145.464C136.337 145.22 136.337 144.825 136.581 144.581C136.825 144.337 137.22 144.337 137.464 144.581L141 148.116L144.536 144.581C144.78 144.337 145.175 144.337 145.419 144.581C145.663 144.825 145.663 145.22 145.419 145.464L141.442 149.442ZM141.625 125L141.625 137.198L140.375 137.198L140.375 125L141.625 125ZM141.625 137.198L141.625 149L140.375 149L140.375 137.198L141.625 137.198Z" fill="#FBFBFB"/>
<path d="M140 445L140 427.85C140 423.431 136.418 419.85 132 419.85L96 419.85C91.5817 419.85 88 416.268 88 411.85L88 387" stroke="#FBFBFB" stroke-width="1.25"/>
<g filter="url(#filter4_b_4940_47674)">
<rect x="116" y="453" width="48" height="48" rx="24" fill="#191919" fill-opacity="0.3"/>
<rect x="116.335" y="453.335" width="47.3304" height="47.3304" rx="23.6652" stroke="url(#paint4_linear_4940_47674)" stroke-width="0.669636"/>
<path d="M146.359 469.071H133.86C132.874 469.071 132.074 469.87 132.074 470.856V483.356C132.074 484.342 132.874 485.141 133.86 485.141H146.359C147.345 485.141 148.145 484.342 148.145 483.356V470.856C148.145 469.87 147.345 469.071 146.359 469.071Z" stroke="#FBFBFB" stroke-width="1.33927" stroke-linecap="round" stroke-linejoin="round"/>
<path d="M132.074 474.429H148.145" stroke="#FBFBFB" stroke-width="1.33927" stroke-linecap="round" stroke-linejoin="round"/>
<path d="M137.422 485.142V474.429" stroke="#FBFBFB" stroke-width="1.33927" stroke-linecap="round" stroke-linejoin="round"/>
</g>
<path d="M110.059 518H108.979L112.183 509.6H113.419L116.611 518H115.495L114.607 515.732H110.947L110.059 518ZM112.771 510.74L111.259 514.784H114.295L112.771 510.74ZM120.741 511.808C122.433 511.808 123.681 512.948 123.681 514.94C123.681 516.812 122.433 518.072 120.741 518.072C119.709 518.072 119.013 517.652 118.641 517.064V520.4H117.657V511.88H118.509L118.641 512.864C119.049 512.3 119.709 511.808 120.741 511.808ZM120.645 517.196C121.857 517.196 122.673 516.272 122.673 514.94C122.673 513.608 121.857 512.684 120.645 512.684C119.445 512.684 118.629 513.608 118.629 514.916C118.629 516.26 119.445 517.196 120.645 517.196ZM128.13 511.808C129.822 511.808 131.07 512.948 131.07 514.94C131.07 516.812 129.822 518.072 128.13 518.072C127.098 518.072 126.402 517.652 126.03 517.064V520.4H125.046V511.88H125.898L126.03 512.864C126.438 512.3 127.098 511.808 128.13 511.808ZM128.034 517.196C129.246 517.196 130.062 516.272 130.062 514.94C130.062 513.608 129.246 512.684 128.034 512.684C126.834 512.684 126.018 513.608 126.018 514.916C126.018 516.26 126.834 517.196 128.034 517.196ZM132.434 518V509.6H133.418V518H132.434ZM135.51 510.848C135.15 510.848 134.874 510.584 134.874 510.212C134.874 509.84 135.15 509.576 135.51 509.576C135.87 509.576 136.146 509.84 136.146 510.212C136.146 510.584 135.87 510.848 135.51 510.848ZM135.006 518V511.88H135.99V518H135.006ZM140.326 518.072C138.538 518.072 137.362 516.86 137.362 514.952C137.362 513.08 138.574 511.808 140.35 511.808C141.85 511.808 142.798 512.648 143.05 513.992H142.018C141.838 513.176 141.238 512.684 140.338 512.684C139.162 512.684 138.37 513.62 138.37 514.952C138.37 516.284 139.162 517.196 140.338 517.196C141.214 517.196 141.814 516.692 142.006 515.912H143.05C142.81 517.232 141.814 518.072 140.326 518.072ZM149.781 517.1H150.093V518H149.553C148.737 518 148.461 517.652 148.449 517.052C148.065 517.604 147.453 518.072 146.397 518.072C145.053 518.072 144.141 517.4 144.141 516.284C144.141 515.06 144.993 514.376 146.601 514.376H148.401V513.956C148.401 513.164 147.837 512.684 146.877 512.684C146.013 512.684 145.437 513.092 145.317 513.716H144.333C144.477 512.516 145.449 511.808 146.925 511.808C148.485 511.808 149.385 512.588 149.385 514.016V516.692C149.385 517.016 149.505 517.1 149.781 517.1ZM148.401 515.504V515.204H146.505C145.629 515.204 145.137 515.528 145.137 516.224C145.137 516.824 145.653 517.232 146.469 517.232C147.693 517.232 148.401 516.524 148.401 515.504ZM151.545 516.404V512.78H150.441V511.88H151.545V510.164H152.529V511.88H154.113V512.78H152.529V516.392C152.529 516.908 152.709 517.1 153.237 517.1H154.209V518H153.141C151.965 518 151.545 517.484 151.545 516.404ZM155.806 510.848C155.446 510.848 155.17 510.584 155.17 510.212C155.17 509.84 155.446 509.576 155.806 509.576C156.166 509.576 156.442 509.84 156.442 510.212C156.442 510.584 156.166 510.848 155.806 510.848ZM155.302 518V511.88H156.286V518H155.302ZM160.694 518.072C158.906 518.072 157.658 516.8 157.658 514.94C157.658 513.08 158.906 511.808 160.694 511.808C162.482 511.808 163.73 513.08 163.73 514.94C163.73 516.8 162.482 518.072 160.694 518.072ZM160.694 517.196C161.906 517.196 162.722 516.248 162.722 514.94C162.722 513.632 161.906 512.684 160.694 512.684C159.482 512.684 158.666 513.632 158.666 514.94C158.666 516.248 159.482 517.196 160.694 517.196ZM168.099 511.808C169.479 511.808 170.571 512.564 170.571 514.592V518H169.587V514.652C169.587 513.38 168.999 512.708 167.931 512.708C166.779 512.708 166.083 513.56 166.083 514.94V518H165.099V511.88H165.951L166.083 512.708C166.443 512.24 167.067 511.808 168.099 511.808Z" fill="#FBFBFB"/>
<defs>
<filter id="filter0_b_4940_47674" x="107.022" y="9.02185" width="69.9563" height="69.9563" filterUnits="userSpaceOnUse" color-interpolation-filters="sRGB">
<feFlood flood-opacity="0" result="BackgroundImageFix"/>
<feGaussianBlur in="BackgroundImageFix" stdDeviation="5.48907"/>
<feComposite in2="SourceAlpha" operator="in" result="effect1_backgroundBlur_4940_47674"/>
<feBlend mode="normal" in="SourceGraphic" in2="effect1_backgroundBlur_4940_47674" result="shape"/>
</filter>
<filter id="filter1_b_4940_47674" x="106.286" y="146.286" width="69.4282" height="69.4282" filterUnits="userSpaceOnUse" color-interpolation-filters="sRGB">
<feFlood flood-opacity="0" result="BackgroundImageFix"/>
<feGaussianBlur in="BackgroundImageFix" stdDeviation="5.35704"/>
<feComposite in2="SourceAlpha" operator="in" result="effect1_backgroundBlur_4940_47674"/>
<feBlend mode="normal" in="SourceGraphic" in2="effect1_backgroundBlur_4940_47674" result="shape"/>
</filter>
<filter id="filter2_b_4940_47674" x="53.153" y="294.153" width="69.694" height="69.694" filterUnits="userSpaceOnUse" color-interpolation-filters="sRGB">
<feFlood flood-opacity="0" result="BackgroundImageFix"/>
<feGaussianBlur in="BackgroundImageFix" stdDeviation="5.4235"/>
<feComposite in2="SourceAlpha" operator="in" result="effect1_backgroundBlur_4940_47674"/>
<feBlend mode="normal" in="SourceGraphic" in2="effect1_backgroundBlur_4940_47674" result="shape"/>
</filter>
<filter id="filter3_b_4940_47674" x="161.333" y="294.333" width="69.3333" height="69.3333" filterUnits="userSpaceOnUse" color-interpolation-filters="sRGB">
<feFlood flood-opacity="0" result="BackgroundImageFix"/>
<feGaussianBlur in="BackgroundImageFix" stdDeviation="5.33333"/>
<feComposite in2="SourceAlpha" operator="in" result="effect1_backgroundBlur_4940_47674"/>
<feBlend mode="normal" in="SourceGraphic" in2="effect1_backgroundBlur_4940_47674" result="shape"/>
</filter>
<filter id="filter4_b_4940_47674" x="105.286" y="442.286" width="69.4284" height="69.4284" filterUnits="userSpaceOnUse" color-interpolation-filters="sRGB">
<feFlood flood-opacity="0" result="BackgroundImageFix"/>
<feGaussianBlur in="BackgroundImageFix" stdDeviation="5.35709"/>
<feComposite in2="SourceAlpha" operator="in" result="effect1_backgroundBlur_4940_47674"/>
<feBlend mode="normal" in="SourceGraphic" in2="effect1_backgroundBlur_4940_47674" result="shape"/>
</filter>
<linearGradient id="paint0_linear_4940_47674" x1="73.2812" y1="122.96" x2="189.661" y2="9.13567" gradientUnits="userSpaceOnUse">
<stop offset="0.0596952" stop-color="#191919"/>
<stop offset="0.290711" stop-color="#4016A0"/>
<stop offset="0.504779" stop-color="#3F59E4"/>
<stop offset="0.705284" stop-color="#4CB7A3"/>
<stop offset="0.937599" stop-color="#F6F1E7"/>
</linearGradient>
<linearGradient id="paint1_linear_4940_47674" x1="72.2812" y1="259.96" x2="188.661" y2="146.136" gradientUnits="userSpaceOnUse">
<stop offset="0.0596952" stop-color="#191919"/>
<stop offset="0.290711" stop-color="#4016A0"/>
<stop offset="0.504779" stop-color="#3F59E4"/>
<stop offset="0.705284" stop-color="#4CB7A3"/>
<stop offset="0.937599" stop-color="#F6F1E7"/>
</linearGradient>
<linearGradient id="paint2_linear_4940_47674" x1="19.2812" y1="407.96" x2="135.661" y2="294.136" gradientUnits="userSpaceOnUse">
<stop offset="0.0596952" stop-color="#191919"/>
<stop offset="0.290711" stop-color="#4016A0"/>
<stop offset="0.504779" stop-color="#3F59E4"/>
<stop offset="0.705284" stop-color="#4CB7A3"/>
<stop offset="0.937599" stop-color="#F6F1E7"/>
</linearGradient>
<linearGradient id="paint3_linear_4940_47674" x1="127.281" y1="407.96" x2="243.661" y2="294.136" gradientUnits="userSpaceOnUse">
<stop offset="0.0596952" stop-color="#191919"/>
<stop offset="0.290711" stop-color="#4016A0"/>
<stop offset="0.504779" stop-color="#3F59E4"/>
<stop offset="0.705284" stop-color="#4CB7A3"/>
<stop offset="0.937599" stop-color="#F6F1E7"/>
</linearGradient>
<linearGradient id="paint4_linear_4940_47674" x1="71.2812" y1="555.96" x2="187.661" y2="442.136" gradientUnits="userSpaceOnUse">
<stop offset="0.0596952" stop-color="#191919"/>
<stop offset="0.290711" stop-color="#4016A0"/>
<stop offset="0.504779" stop-color="#3F59E4"/>
<stop offset="0.705284" stop-color="#4CB7A3"/>
<stop offset="0.937599" stop-color="#F6F1E7"/>
</linearGradient>
</defs>
</svg>
