<svg width="672" height="251" viewBox="0 0 672 251" fill="none" xmlns="http://www.w3.org/2000/svg">
<rect width="672" height="251" rx="16" fill="white" fill-opacity="0.2"/>
<g filter="url(#filter0_b_5202_34611)">
<rect x="33" y="105" width="48" height="48" rx="24" fill="white" fill-opacity="0.3"/>
<rect x="33.3431" y="105.343" width="47.3139" height="47.3139" rx="23.6569" stroke="url(#paint0_linear_5202_34611)" stroke-width="0.686134"/>
<path d="M65.0203 137.934V136.105C65.0203 135.134 64.6348 134.203 63.9485 133.517C63.2623 132.831 62.3315 132.445 61.361 132.445H54.0422C53.0717 132.445 52.1409 132.831 51.4546 133.517C50.7684 134.203 50.3828 135.134 50.3828 136.105V137.934" stroke="#555555" stroke-width="1.37227" stroke-linecap="round" stroke-linejoin="round"/>
<path d="M57.7063 128.787C59.7273 128.787 61.3656 127.148 61.3656 125.127C61.3656 123.106 59.7273 121.468 57.7063 121.468C55.6852 121.468 54.0469 123.106 54.0469 125.127C54.0469 127.148 55.6852 128.787 57.7063 128.787Z" stroke="#555555" stroke-width="1.37227" stroke-linecap="round" stroke-linejoin="round"/>
</g>
<path d="M39.6787 167.012C39.6227 167.152 39.5807 167.362 39.5667 167.474C39.4127 168.888 38.7547 173.074 38.5587 174.306H37.2987C37.5367 173.088 38.2087 168.832 38.2367 167.796C37.0187 167.796 33.3927 167.796 32.7347 167.796C32.2027 167.796 31.8247 167.81 31.3907 167.852V166.606C31.8107 166.648 32.2587 166.69 32.7207 166.69C33.3787 166.69 36.8927 166.69 37.8727 166.69C38.1527 166.69 38.5867 166.634 38.7407 166.564L39.6787 167.012ZM29.8227 173.928C30.2287 173.998 30.6627 174.012 31.0547 174.012H40.4907C40.9247 174.012 41.3027 173.97 41.6667 173.928V175.216C41.2887 175.16 40.7847 175.146 40.4907 175.146H31.0547C30.6627 175.146 30.2427 175.174 29.8227 175.216V173.928ZM44.4107 169.938C44.8447 169.98 45.5727 170.022 46.3707 170.022C47.3927 170.022 53.0067 170.022 54.0427 170.022C54.7427 170.022 55.2327 169.966 55.5547 169.938V171.31C55.2607 171.296 54.6727 171.254 54.0567 171.254C52.9927 171.254 47.4067 171.254 46.3707 171.254C45.6007 171.254 44.8587 171.282 44.4107 171.31V169.938ZM68.1473 165.332C68.4133 165.836 68.7773 166.704 68.9733 167.264L68.2733 167.502C68.0773 166.914 67.7553 166.074 67.4753 165.542L68.1473 165.332ZM69.5473 164.898C69.8133 165.416 70.1773 166.27 70.3873 166.83L69.6873 167.068C69.4633 166.438 69.1553 165.64 68.8613 165.108L69.5473 164.898ZM66.8173 169.826C66.8173 173.55 66.0193 175.468 62.8273 176.896L61.8753 176.014C64.4233 175.034 65.6973 173.83 65.6973 169.91V166.508C65.6973 165.962 65.6553 165.5 65.6273 165.36H66.8873C66.8733 165.5 66.8173 165.962 66.8173 166.508V169.826ZM61.7773 165.458C61.7633 165.584 61.7073 165.976 61.7073 166.466V171.604C61.7073 172.108 61.7493 172.724 61.7633 172.864H60.5313C60.5453 172.724 60.5873 172.136 60.5873 171.604V166.466C60.5873 166.172 60.5733 165.766 60.5313 165.458H61.7773ZM57.6753 168.174C57.8013 168.188 58.4873 168.258 59.0893 168.258H68.3573C68.9733 168.258 69.4493 168.216 69.6453 168.188V169.378C69.4913 169.35 68.9733 169.336 68.3573 169.336H59.0893C58.4733 169.336 57.8433 169.364 57.6753 169.378V168.174ZM72.6973 169.938C73.1313 169.98 73.8593 170.022 74.6573 170.022C75.6793 170.022 81.2933 170.022 82.3293 170.022C83.0293 170.022 83.5193 169.966 83.8413 169.938V171.31C83.5473 171.296 82.9593 171.254 82.3433 171.254C81.2793 171.254 75.6933 171.254 74.6573 171.254C73.8873 171.254 73.1453 171.282 72.6973 171.31V169.938Z" fill="#191919"/>
<g filter="url(#filter1_b_5202_34611)">
<rect x="204" y="105" width="48" height="48" rx="24" fill="white" fill-opacity="0.3"/>
<rect x="204.335" y="105.335" width="47.3304" height="47.3304" rx="23.6652" stroke="url(#paint1_linear_5202_34611)" stroke-width="0.66963"/>
<path d="M235.25 120.178H220.965C219.979 120.178 219.18 120.977 219.18 121.963V125.535C219.18 126.521 219.979 127.32 220.965 127.32H235.25C236.236 127.32 237.036 126.521 237.036 125.535V121.963C237.036 120.977 236.236 120.178 235.25 120.178Z" stroke="#555555" stroke-width="1.33926" stroke-linecap="round" stroke-linejoin="round"/>
<path d="M235.25 130.892H220.965C219.979 130.892 219.18 131.691 219.18 132.677V136.248C219.18 137.235 219.979 138.034 220.965 138.034H235.25C236.236 138.034 237.036 137.235 237.036 136.248V132.677C237.036 131.691 236.236 130.892 235.25 130.892Z" stroke="#555555" stroke-width="1.33926" stroke-linecap="round" stroke-linejoin="round"/>
<path d="M222.75 123.749H222.76" stroke="#555555" stroke-width="1.33926" stroke-linecap="round" stroke-linejoin="round"/>
<path d="M222.75 134.463H222.76" stroke="#555555" stroke-width="1.33926" stroke-linecap="round" stroke-linejoin="round"/>
</g>
<path d="M178.062 176L181.534 165.738H182.99L186.462 176H185.104L183.298 170.26C182.934 169.112 182.612 167.992 182.276 166.802H182.22C181.884 167.992 181.562 169.112 181.184 170.26L179.378 176H178.062ZM179.882 172.864V171.842H184.614V172.864H179.882ZM190.195 176.196C188.599 176.196 187.871 175.16 187.871 173.214V168.398H189.145V173.06C189.145 174.474 189.579 175.076 190.587 175.076C191.357 175.076 191.917 174.698 192.631 173.802V168.398H193.905V176H192.855L192.743 174.81H192.715C192.001 175.636 191.245 176.196 190.195 176.196ZM199.147 176.196C197.523 176.196 196.991 175.174 196.991 173.662V169.434H195.857V168.482L197.047 168.398L197.187 166.256H198.265V168.398H200.323V169.434H198.265V173.69C198.265 174.614 198.559 175.16 199.441 175.16C199.707 175.16 200.057 175.048 200.295 174.95L200.547 175.902C200.127 176.056 199.623 176.196 199.147 176.196ZM202.324 176V164.87H203.598V167.908L203.556 169.476C204.256 168.79 205.026 168.216 206.076 168.216C207.672 168.216 208.4 169.252 208.4 171.184V176H207.112V171.352C207.112 169.924 206.678 169.322 205.67 169.322C204.9 169.322 204.354 169.728 203.598 170.484V176H202.324ZM213.712 176.196C211.71 176.196 210.506 174.334 210.506 170.988C210.506 167.642 211.71 165.85 213.712 165.85C215.686 165.85 216.89 167.642 216.89 170.988C216.89 174.334 215.686 176.196 213.712 176.196ZM213.712 175.16C214.874 175.16 215.658 173.914 215.658 170.988C215.658 168.048 214.874 166.872 213.712 166.872C212.536 166.872 211.738 168.048 211.738 170.988C211.738 173.914 212.536 175.16 213.712 175.16ZM231.356 169.574C231.356 173.298 230.544 175.216 227.352 176.658L226.414 175.762C228.962 174.796 230.222 173.592 230.222 169.658V166.256C230.222 165.71 230.18 165.248 230.152 165.122H231.426C231.412 165.262 231.356 165.71 231.356 166.256V169.574ZM226.302 165.206C226.288 165.332 226.246 165.738 226.246 166.214V171.352C226.246 171.87 226.288 172.486 226.302 172.612H225.056C225.07 172.486 225.126 171.884 225.126 171.352V166.214C225.126 165.92 225.098 165.528 225.056 165.206H226.302ZM222.214 167.922C222.34 167.936 223.026 168.02 223.614 168.02H232.882C233.512 168.02 233.974 167.964 234.17 167.936V169.126C234.016 169.112 233.512 169.084 232.896 169.084H223.614C222.998 169.084 222.368 169.126 222.214 169.126V167.922ZM236.97 169.938C237.404 169.98 238.132 170.022 238.93 170.022C239.952 170.022 245.566 170.022 246.602 170.022C247.302 170.022 247.792 169.966 248.114 169.938V171.31C247.82 171.296 247.232 171.254 246.616 171.254C245.552 171.254 239.966 171.254 238.93 171.254C238.16 171.254 237.418 171.282 236.97 171.31V169.938ZM260.41 165.094C260.76 165.598 261.264 166.452 261.558 167.012L260.788 167.348C260.522 166.788 260.046 165.948 259.668 165.416L260.41 165.094ZM261.95 164.534C262.314 165.052 262.86 165.92 263.112 166.438L262.37 166.774C262.062 166.172 261.6 165.374 261.208 164.856L261.95 164.534ZM252.738 171.8C253.354 170.344 253.928 168.216 254.124 166.606L255.37 166.858C255.272 167.166 255.174 167.586 255.104 167.88C254.922 168.748 254.432 170.82 253.844 172.262C253.326 173.536 252.556 174.978 251.772 176.112L250.582 175.608C251.464 174.432 252.262 172.962 252.738 171.8ZM259.64 171.268C259.08 169.826 258.212 167.88 257.61 166.83L258.744 166.452C259.29 167.474 260.186 169.406 260.788 170.876C261.348 172.262 262.09 174.404 262.468 175.678L261.222 176.07C260.872 174.656 260.214 172.752 259.64 171.268ZM265.394 169.938C265.828 169.98 266.556 170.022 267.354 170.022C268.376 170.022 273.99 170.022 275.026 170.022C275.726 170.022 276.216 169.966 276.538 169.938V171.31C276.244 171.296 275.656 171.254 275.04 171.254C273.976 171.254 268.39 171.254 267.354 171.254C266.584 171.254 265.842 171.282 265.394 171.31V169.938Z" fill="#191919"/>
<g filter="url(#filter2_b_5202_34611)">
<rect x="384" y="153" width="48" height="48" rx="24" fill="white" fill-opacity="0.3"/>
<rect x="384.339" y="153.339" width="47.3221" height="47.3221" rx="23.661" stroke="url(#paint2_linear_5202_34611)" stroke-width="0.677938"/>
<path d="M416.535 168.366L414.727 170.174M414.727 170.174L417.439 172.886L414.275 176.05L411.563 173.338M414.727 170.174L411.563 173.338M407.848 177.053C408.315 177.513 408.686 178.062 408.94 178.666C409.194 179.271 409.326 179.919 409.328 180.575C409.33 181.231 409.203 181.88 408.953 182.487C408.703 183.093 408.335 183.644 407.872 184.107C407.408 184.571 406.857 184.938 406.251 185.188C405.645 185.438 404.995 185.565 404.34 185.563C403.684 185.561 403.035 185.429 402.431 185.175C401.826 184.921 401.278 184.55 400.817 184.084C399.912 183.146 399.411 181.89 399.422 180.587C399.433 179.283 399.956 178.036 400.878 177.114C401.8 176.193 403.047 175.67 404.35 175.658C405.654 175.647 406.91 176.148 407.847 177.054L407.848 177.053ZM407.848 177.053L411.563 173.338" stroke="#555555" stroke-width="1.35588" stroke-linecap="round" stroke-linejoin="round"/>
</g>
<path d="M358.174 215.2C358.046 215.344 357.854 215.584 357.742 215.76C357.102 216.848 355.582 218.912 353.758 220.176L352.686 219.328C354.174 218.48 355.678 216.752 356.19 215.76C355.07 215.76 347.838 215.76 347.07 215.76C346.478 215.76 345.886 215.792 345.262 215.84V214.4C345.822 214.48 346.478 214.544 347.07 214.544C347.838 214.544 355.31 214.544 356.27 214.544C356.574 214.544 357.15 214.496 357.374 214.432L358.174 215.2ZM351.774 217.296C351.774 221.632 351.39 224.56 347.31 226.608L346.142 225.648C346.574 225.504 347.134 225.232 347.582 224.928C350.046 223.408 350.398 221.136 350.398 218.464C350.398 218.08 350.398 217.728 350.334 217.296H351.774ZM372.738 216C372.61 216.224 372.45 216.592 372.37 216.848C371.938 218.464 370.962 220.624 369.538 222.368C368.082 224.144 366.162 225.6 363.17 226.72L362.002 225.664C364.946 224.8 366.93 223.36 368.402 221.648C369.634 220.192 370.626 218.112 370.946 216.656H365.026L365.538 215.504C366.178 215.504 370.13 215.504 370.626 215.504C371.058 215.504 371.426 215.456 371.682 215.36L372.738 216ZM367.378 213.584C367.122 214 366.834 214.544 366.674 214.832C365.73 216.608 364.066 218.896 361.49 220.592L360.37 219.776C363.138 218.128 364.706 215.792 365.41 214.368C365.57 214.08 365.81 213.504 365.906 213.088L367.378 213.584ZM380.002 223.952C380.002 222.48 380.002 216.816 380.002 215.12C380.002 214.64 379.986 214.112 379.906 213.648H381.41C381.346 214.112 381.298 214.656 381.298 215.12C381.298 216.8 381.298 222.032 381.298 223.616C381.298 224.72 381.714 225.072 383.618 225.072C385.474 225.072 387.026 224.912 388.61 224.592L388.562 225.968C387.138 226.176 385.538 226.304 383.538 226.304C380.562 226.304 380.002 225.52 380.002 223.952ZM389.298 216.8C389.17 216.976 389.01 217.248 388.898 217.44C388.162 218.768 386.914 220.784 385.618 222.096L384.514 221.44C385.714 220.336 386.882 218.576 387.362 217.632C386.866 217.728 378.242 219.456 376.322 219.872L376.066 218.528C378.114 218.288 386.29 216.64 387.506 216.352C387.842 216.272 388.162 216.176 388.354 216.064L389.298 216.8ZM404.226 215.312C404.13 215.44 403.922 215.792 403.842 216C403.202 217.584 401.986 219.824 400.658 221.296C398.866 223.296 396.578 225.2 394.05 226.352L393.026 225.28C395.618 224.288 397.97 222.368 399.618 220.544C400.706 219.312 401.874 217.408 402.29 216.08C401.714 216.08 396.594 216.08 396.05 216.08C395.474 216.08 394.61 216.144 394.434 216.16V214.72C394.642 214.752 395.554 214.816 396.05 214.816C396.674 214.816 401.618 214.816 402.226 214.816C402.738 214.816 403.17 214.768 403.426 214.688L404.226 215.312ZM400.866 220.464C402.594 221.904 404.722 224.144 405.81 225.472L404.706 226.448C403.554 224.928 401.682 222.88 399.954 221.36L400.866 220.464ZM413.138 224.592C413.138 223.696 413.138 216.624 413.138 215.296C413.138 214.832 413.106 214.128 413.026 213.616H414.594C414.53 214.112 414.482 214.8 414.482 215.296C414.482 217.776 414.498 223.84 414.498 224.592C414.498 225.104 414.53 225.968 414.594 226.496H413.042C413.122 225.984 413.138 225.184 413.138 224.592ZM414.194 217.824C416.306 218.432 419.538 219.664 421.314 220.528L420.754 221.888C418.93 220.912 415.938 219.776 414.194 219.232V217.824ZM425.698 219.072C426.194 219.12 427.026 219.168 427.938 219.168C429.106 219.168 435.522 219.168 436.706 219.168C437.506 219.168 438.066 219.104 438.434 219.072V220.64C438.098 220.624 437.426 220.576 436.722 220.576C435.506 220.576 429.122 220.576 427.938 220.576C427.058 220.576 426.21 220.608 425.698 220.64V219.072ZM454.338 216C454.21 216.224 454.05 216.592 453.97 216.848C453.538 218.464 452.562 220.624 451.138 222.368C449.682 224.144 447.762 225.6 444.77 226.72L443.602 225.664C446.546 224.8 448.53 223.36 450.002 221.648C451.234 220.192 452.226 218.112 452.546 216.656H446.626L447.138 215.504C447.778 215.504 451.73 215.504 452.226 215.504C452.658 215.504 453.026 215.456 453.282 215.36L454.338 216ZM448.978 213.584C448.722 214 448.434 214.544 448.274 214.832C447.33 216.608 445.666 218.896 443.09 220.592L441.97 219.776C444.738 218.128 446.306 215.792 447.01 214.368C447.17 214.08 447.41 213.504 447.506 213.088L448.978 213.584ZM460.354 214.288C461.474 215.04 463.538 216.704 464.418 217.584L463.426 218.608C462.61 217.776 460.626 216.048 459.426 215.264L460.354 214.288ZM458.978 225.008C461.762 224.592 463.842 223.616 465.362 222.672C467.842 221.12 469.778 218.752 470.706 216.768L471.474 218.144C470.386 220.128 468.53 222.304 466.114 223.824C464.498 224.832 462.482 225.824 459.81 226.32L458.978 225.008Z" fill="#191919"/>
<g filter="url(#filter3_b_5202_34611)">
<rect x="384" y="24" width="48" height="48" rx="24" fill="white" fill-opacity="0.3"/>
<rect x="384.333" y="24.3333" width="47.3333" height="47.3333" rx="23.6667" stroke="url(#paint3_linear_5202_34611)" stroke-width="0.666667"/>
<path d="M415.113 56.0003V54.2225C415.113 53.2796 414.738 52.3752 414.071 51.7084C413.405 51.0416 412.5 50.667 411.557 50.667H404.446C403.503 50.667 402.599 51.0416 401.932 51.7084C401.265 52.3752 400.891 53.2796 400.891 54.2225V56.0003" stroke="#555555" stroke-width="1.33333" stroke-linecap="round" stroke-linejoin="round"/>
<path d="M408.009 47.1111C409.972 47.1111 411.564 45.5192 411.564 43.5556C411.564 41.5919 409.972 40 408.009 40C406.045 40 404.453 41.5919 404.453 43.5556C404.453 45.5192 406.045 47.1111 408.009 47.1111Z" stroke="#555555" stroke-width="1.33333" stroke-linecap="round" stroke-linejoin="round"/>
</g>
<path d="M373.83 95V84.738H375.132V95H373.83ZM378.211 95V84.738H380.773C383.937 84.738 385.617 86.572 385.617 89.834C385.617 93.096 383.937 95 380.843 95H378.211ZM379.513 93.936H380.675C383.083 93.936 384.287 92.438 384.287 89.834C384.287 87.23 383.083 85.802 380.675 85.802H379.513V93.936ZM391.434 93.768C391.434 92.984 391.434 86.796 391.434 85.634C391.434 85.228 391.406 84.612 391.336 84.164H392.708C392.652 84.598 392.61 85.2 392.61 85.634C392.61 87.804 392.624 93.11 392.624 93.768C392.624 94.216 392.652 94.972 392.708 95.434H391.35C391.42 94.986 391.434 94.286 391.434 93.768ZM392.358 87.846C394.206 88.378 397.034 89.456 398.588 90.212L398.098 91.402C396.502 90.548 393.884 89.554 392.358 89.078V87.846ZM402.424 88.938C402.858 88.98 403.586 89.022 404.384 89.022C405.406 89.022 411.02 89.022 412.056 89.022C412.756 89.022 413.246 88.966 413.568 88.938V90.31C413.274 90.296 412.686 90.254 412.07 90.254C411.006 90.254 405.42 90.254 404.384 90.254C403.614 90.254 402.872 90.282 402.424 90.31V88.938ZM427.484 86.25C427.372 86.446 427.232 86.768 427.162 86.992C426.784 88.406 425.93 90.296 424.684 91.822C423.41 93.376 421.73 94.65 419.112 95.63L418.09 94.706C420.666 93.95 422.402 92.69 423.69 91.192C424.768 89.918 425.636 88.098 425.916 86.824H420.736L421.184 85.816C421.744 85.816 425.202 85.816 425.636 85.816C426.014 85.816 426.336 85.774 426.56 85.69L427.484 86.25ZM422.794 84.136C422.57 84.5 422.318 84.976 422.178 85.228C421.352 86.782 419.896 88.784 417.642 90.268L416.662 89.554C419.084 88.112 420.456 86.068 421.072 84.822C421.212 84.57 421.422 84.066 421.506 83.702L422.794 84.136ZM432.748 84.752C433.728 85.41 435.534 86.866 436.304 87.636L435.436 88.532C434.722 87.804 432.986 86.292 431.936 85.606L432.748 84.752ZM431.544 94.132C433.98 93.768 435.8 92.914 437.13 92.088C439.3 90.73 440.994 88.658 441.806 86.922L442.478 88.126C441.526 89.862 439.902 91.766 437.788 93.096C436.374 93.978 434.61 94.846 432.272 95.28L431.544 94.132Z" fill="#191919"/>
<path d="M104.124 127.41C104.67 127.438 105.034 127.438 105.37 127.438C106.112 127.438 112.202 127.438 112.888 127.438C113.182 127.438 113.686 127.438 114.12 127.424C114.092 127.76 114.092 128.152 114.092 128.502C114.092 129.16 114.092 134.872 114.092 135.404C114.092 135.852 114.106 136.944 114.12 137.098H112.902C112.916 136.944 112.93 136.146 112.93 135.558C112.93 135.04 112.93 128.544 112.93 128.544H105.286C105.286 128.544 105.286 134.984 105.286 135.558C105.286 136.02 105.3 136.916 105.3 137.098H104.11C104.11 136.916 104.138 135.894 104.138 135.404C104.138 134.83 104.138 129.048 104.138 128.502C104.138 128.18 104.138 127.76 104.124 127.41ZM113.392 135.208V136.3H104.726V135.208H113.392ZM127.07 125.8C127.42 126.304 127.924 127.158 128.204 127.718L127.448 128.068C127.168 127.494 126.692 126.654 126.314 126.122L127.07 125.8ZM128.596 125.24C128.974 125.758 129.506 126.626 129.772 127.144L129.016 127.48C128.708 126.878 128.26 126.08 127.868 125.562L128.596 125.24ZM127.994 128.586C127.882 128.796 127.742 129.118 127.672 129.342C127.294 130.742 126.426 132.646 125.194 134.158C123.92 135.712 122.24 137 119.608 137.966L118.6 137.056C121.176 136.3 122.912 135.026 124.186 133.542C125.278 132.254 126.132 130.448 126.426 129.174H121.232L121.68 128.166C122.254 128.166 125.712 128.166 126.146 128.166C126.524 128.166 126.832 128.124 127.07 128.026L127.994 128.586ZM123.304 126.472C123.08 126.836 122.828 127.312 122.688 127.578C121.862 129.118 120.392 131.12 118.152 132.618L117.172 131.89C119.594 130.448 120.966 128.418 121.582 127.158C121.722 126.92 121.932 126.402 122.016 126.052L123.304 126.472ZM131.844 131.946C134.266 131.302 136.394 130.308 137.948 129.342C139.418 128.418 140.818 127.214 141.784 126.038L142.722 126.92C141.518 128.166 140.048 129.342 138.41 130.364C136.87 131.316 134.644 132.338 132.39 133.038L131.844 131.946ZM137.724 129.916L138.928 129.552V135.95C138.928 136.468 138.956 137.168 139.026 137.434H137.64C137.682 137.168 137.724 136.468 137.724 135.95V129.916ZM148.098 126.752C149.078 127.41 150.884 128.866 151.654 129.636L150.786 130.532C150.072 129.804 148.336 128.292 147.286 127.606L148.098 126.752ZM146.894 136.132C149.33 135.768 151.15 134.914 152.48 134.088C154.65 132.73 156.344 130.658 157.156 128.922L157.828 130.126C156.876 131.862 155.252 133.766 153.138 135.096C151.724 135.978 149.96 136.846 147.622 137.28L146.894 136.132Z" fill="#191919"/>
<path d="M183.442 131.442C183.686 131.198 183.686 130.802 183.442 130.558L179.464 126.581C179.22 126.337 178.825 126.337 178.581 126.581C178.337 126.825 178.337 127.22 178.581 127.464L182.116 131L178.581 134.536C178.337 134.78 178.337 135.175 178.581 135.419C178.825 135.663 179.22 135.663 179.464 135.419L183.442 131.442ZM167 131.625L183 131.625L183 130.375L167 130.375L167 131.625Z" fill="#191919"/>
<path d="M354.442 58.4419C354.686 58.1979 354.686 57.8021 354.442 57.5581L350.464 53.5806C350.22 53.3365 349.825 53.3365 349.581 53.5806C349.337 53.8247 349.337 54.2204 349.581 54.4645L353.116 58L349.581 61.5355C349.337 61.7796 349.337 62.1753 349.581 62.4194C349.825 62.6635 350.22 62.6635 350.464 62.4194L354.442 58.4419ZM273 132.625H306.167V131.375H273V132.625ZM314.792 124V66H313.542V124H314.792ZM322.167 58.625H354V57.375H322.167V58.625ZM314.792 66C314.792 61.9269 318.094 58.625 322.167 58.625V57.375C317.403 57.375 313.542 61.2365 313.542 66H314.792ZM306.167 132.625C310.93 132.625 314.792 128.763 314.792 124H313.542C313.542 128.073 310.24 131.375 306.167 131.375V132.625Z" fill="#191919"/>
<path d="M570.442 131.558C570.686 131.802 570.686 132.198 570.442 132.442L566.464 136.419C566.22 136.663 565.825 136.663 565.581 136.419C565.337 136.175 565.337 135.78 565.581 135.536L569.116 132L565.581 128.464C565.337 128.22 565.337 127.825 565.581 127.581C565.825 127.337 566.22 127.337 566.464 127.581L570.442 131.558ZM570 132.625H530.735V131.375H570V132.625ZM522.11 124V66H523.36V124H522.11ZM514.735 58.625H461V57.375H514.735V58.625ZM522.11 66C522.11 61.9269 518.808 58.625 514.735 58.625V57.375C519.498 57.375 523.36 61.2365 523.36 66H522.11ZM530.735 132.625C525.971 132.625 522.11 128.763 522.11 124H523.36C523.36 128.073 526.661 131.375 530.735 131.375V132.625Z" fill="#191919"/>
<path d="M354.442 204.558C354.686 204.802 354.686 205.198 354.442 205.442L350.464 209.419C350.22 209.663 349.825 209.663 349.581 209.419C349.337 209.175 349.337 208.78 349.581 208.536L353.116 205L349.581 201.464C349.337 201.22 349.337 200.825 349.581 200.581C349.825 200.337 350.22 200.337 350.464 200.581L354.442 204.558ZM273 131.375H306.167V132.625H273V131.375ZM314.792 140V197H313.542V140H314.792ZM322.167 204.375H354V205.625H322.167V204.375ZM314.792 197C314.792 201.073 318.094 204.375 322.167 204.375V205.625C317.403 205.625 313.542 201.763 313.542 197H314.792ZM306.167 131.375C310.93 131.375 314.792 135.237 314.792 140H313.542C313.542 135.927 310.24 132.625 306.167 132.625V131.375Z" fill="#191919"/>
<path d="M570.442 132.442C570.686 132.198 570.686 131.802 570.442 131.558L566.464 127.581C566.22 127.337 565.825 127.337 565.581 127.581C565.337 127.825 565.337 128.22 565.581 128.464L569.116 132L565.581 135.536C565.337 135.78 565.337 136.175 565.581 136.419C565.825 136.663 566.22 136.663 566.464 136.419L570.442 132.442ZM570 131.375H530.735V132.625H570V131.375ZM522.11 140V197H523.36V140H522.11ZM514.735 204.375H461V205.625H514.735V204.375ZM522.11 197C522.11 201.073 518.808 204.375 514.735 204.375V205.625C519.498 205.625 523.36 201.763 523.36 197H522.11ZM530.735 131.375C525.971 131.375 522.11 135.237 522.11 140H523.36C523.36 135.927 526.661 132.625 530.735 132.625V131.375Z" fill="#191919"/>
<g filter="url(#filter4_b_5202_34611)">
<rect x="583" y="105" width="48" height="48" rx="24" fill="white" fill-opacity="0.3"/>
<rect x="583.335" y="105.335" width="47.3304" height="47.3304" rx="23.6652" stroke="url(#paint4_linear_5202_34611)" stroke-width="0.669636"/>
<path d="M613.363 121.07H600.864C599.878 121.07 599.078 121.87 599.078 122.856V135.355C599.078 136.341 599.878 137.141 600.864 137.141H613.363C614.349 137.141 615.149 136.341 615.149 135.355V122.856C615.149 121.87 614.349 121.07 613.363 121.07Z" stroke="#555555" stroke-width="1.33927" stroke-linecap="round" stroke-linejoin="round"/>
<path d="M599.078 126.428H615.149" stroke="#555555" stroke-width="1.33927" stroke-linecap="round" stroke-linejoin="round"/>
<path d="M604.422 137.141V126.428" stroke="#555555" stroke-width="1.33927" stroke-linecap="round" stroke-linejoin="round"/>
</g>
<path d="M563.191 166.55C563.079 166.676 562.911 166.886 562.813 167.04C562.253 167.992 560.923 169.798 559.327 170.904L558.389 170.162C559.691 169.42 561.007 167.908 561.455 167.04C560.475 167.04 554.147 167.04 553.475 167.04C552.957 167.04 552.439 167.068 551.893 167.11V165.85C552.383 165.92 552.957 165.976 553.475 165.976C554.147 165.976 560.685 165.976 561.525 165.976C561.791 165.976 562.295 165.934 562.491 165.878L563.191 166.55ZM557.591 168.384C557.591 172.178 557.255 174.74 553.685 176.532L552.663 175.692C553.041 175.566 553.531 175.328 553.923 175.062C556.079 173.732 556.387 171.744 556.387 169.406C556.387 169.07 556.387 168.762 556.331 168.384H557.591ZM575.707 165.948C575.707 166.466 576.113 166.872 576.631 166.872C577.135 166.872 577.555 166.466 577.555 165.948C577.555 165.444 577.135 165.024 576.631 165.024C576.113 165.024 575.707 165.444 575.707 165.948ZM575.063 165.948C575.063 165.08 575.763 164.38 576.631 164.38C577.499 164.38 578.199 165.08 578.199 165.948C578.199 166.816 577.499 167.516 576.631 167.516C575.763 167.516 575.063 166.816 575.063 165.948ZM576.281 166.886C576.183 167.082 576.127 167.32 576.071 167.586C575.763 169.056 575.091 171.324 573.971 172.752C572.697 174.404 571.031 175.692 568.469 176.504L567.517 175.454C570.233 174.768 571.801 173.578 572.977 172.08C573.971 170.82 574.615 168.86 574.811 167.516C573.999 167.516 568.455 167.516 567.643 167.516C567.083 167.516 566.607 167.544 566.257 167.572V166.326C566.635 166.368 567.195 166.424 567.657 166.424C568.455 166.424 574.041 166.424 574.671 166.424C574.895 166.424 575.161 166.41 575.427 166.34L576.281 166.886ZM589.567 165.388C589.539 165.724 589.525 166.13 589.525 166.606C589.525 167.152 589.525 168.342 589.525 168.86C589.525 172.234 589.077 173.34 588.055 174.53C587.159 175.622 585.759 176.238 584.737 176.588L583.813 175.622C585.101 175.286 586.291 174.74 587.159 173.746C588.153 172.598 588.335 171.45 588.335 168.818C588.335 168.272 588.335 167.096 588.335 166.606C588.335 166.13 588.293 165.724 588.251 165.388H589.567ZM583.071 165.5C583.043 165.766 583.029 166.172 583.029 166.494C583.029 166.914 583.029 170.582 583.029 171.17C583.029 171.534 583.043 171.996 583.071 172.248H581.797C581.825 172.024 581.853 171.576 581.853 171.17C581.853 170.568 581.853 166.914 581.853 166.494C581.853 166.256 581.839 165.766 581.797 165.5H583.071ZM598.765 165.178C598.639 165.5 598.513 165.878 598.401 166.172C598.191 166.802 597.869 167.656 597.477 168.426C596.931 169.518 595.895 170.932 595.027 171.674L593.921 171.002C594.929 170.288 595.923 168.846 596.413 167.992C596.791 167.292 597.043 166.578 597.197 166.032C597.309 165.682 597.379 165.29 597.407 164.926L598.765 165.178ZM597.001 167.586C597.883 167.586 603.791 167.586 604.491 167.586C604.827 167.586 605.387 167.572 605.793 167.502V168.706C605.359 168.678 604.813 168.678 604.491 168.678C603.777 168.678 597.883 168.678 596.861 168.678L597.001 167.586ZM602.139 168.174C602.013 172.486 600.417 174.964 597.911 176.546L596.721 175.748C597.127 175.594 597.547 175.342 597.855 175.09C599.297 174.012 600.879 172.052 600.963 168.174H602.139ZM608.691 169.938C609.125 169.98 609.853 170.022 610.651 170.022C611.673 170.022 617.287 170.022 618.323 170.022C619.023 170.022 619.513 169.966 619.835 169.938V171.31C619.541 171.296 618.953 171.254 618.337 171.254C617.273 171.254 611.687 171.254 610.651 171.254C609.881 171.254 609.139 171.282 608.691 171.31V169.938ZM625.483 165.248C626.309 165.71 627.919 166.788 628.535 167.236L627.877 168.188C627.205 167.67 625.679 166.662 624.867 166.2L625.483 165.248ZM623.383 175.258C624.923 174.992 626.659 174.432 628.087 173.634C630.411 172.304 632.259 170.47 633.379 168.496L634.065 169.658C632.847 171.534 630.915 173.34 628.675 174.656C627.261 175.482 625.329 176.126 624.041 176.392L623.383 175.258ZM623.383 168.398C624.209 168.846 625.847 169.854 626.449 170.288L625.805 171.268C625.119 170.764 623.607 169.798 622.753 169.35L623.383 168.398ZM638.671 168.328C638.937 168.356 639.735 168.37 640.113 168.37C640.897 168.37 644.383 168.37 645.517 168.37C645.839 168.37 646.189 168.356 646.385 168.356C646.371 168.51 646.371 168.804 646.371 169.07C646.371 169.56 646.371 174.852 646.371 176.042C646.371 176.266 646.385 176.588 646.385 176.798H645.279C645.293 176.63 645.293 176.294 645.293 176C645.293 174.53 645.293 169.798 645.293 169.378C644.831 169.378 640.883 169.378 640.113 169.378C639.735 169.378 638.937 169.406 638.671 169.406V168.328ZM638.979 171.646C639.259 171.674 639.763 171.702 640.239 171.702C640.953 171.702 645.433 171.702 645.839 171.702V172.71C645.433 172.71 640.953 172.71 640.239 172.71C639.763 172.71 639.259 172.71 638.979 172.738V171.646ZM638.517 175.132C638.741 175.16 639.175 175.188 639.665 175.188C640.463 175.188 645.237 175.188 645.853 175.188V176.224C645.153 176.224 640.463 176.224 639.665 176.224C639.231 176.224 638.741 176.252 638.517 176.252V175.132ZM653.021 165.752C654.001 166.41 655.807 167.866 656.577 168.636L655.709 169.532C654.995 168.804 653.259 167.292 652.209 166.606L653.021 165.752ZM651.817 175.132C654.253 174.768 656.073 173.914 657.403 173.088C659.573 171.73 661.267 169.658 662.079 167.922L662.751 169.126C661.799 170.862 660.175 172.766 658.061 174.096C656.647 174.978 654.883 175.846 652.545 176.28L651.817 175.132Z" fill="#191919"/>
<defs>
<filter id="filter0_b_5202_34611" x="22.0219" y="94.0219" width="69.9563" height="69.9563" filterUnits="userSpaceOnUse" color-interpolation-filters="sRGB">
<feFlood flood-opacity="0" result="BackgroundImageFix"/>
<feGaussianBlur in="BackgroundImageFix" stdDeviation="5.48907"/>
<feComposite in2="SourceAlpha" operator="in" result="effect1_backgroundBlur_5202_34611"/>
<feBlend mode="normal" in="SourceGraphic" in2="effect1_backgroundBlur_5202_34611" result="shape"/>
</filter>
<filter id="filter1_b_5202_34611" x="193.286" y="94.2859" width="69.4282" height="69.4282" filterUnits="userSpaceOnUse" color-interpolation-filters="sRGB">
<feFlood flood-opacity="0" result="BackgroundImageFix"/>
<feGaussianBlur in="BackgroundImageFix" stdDeviation="5.35704"/>
<feComposite in2="SourceAlpha" operator="in" result="effect1_backgroundBlur_5202_34611"/>
<feBlend mode="normal" in="SourceGraphic" in2="effect1_backgroundBlur_5202_34611" result="shape"/>
</filter>
<filter id="filter2_b_5202_34611" x="373.153" y="142.153" width="69.694" height="69.694" filterUnits="userSpaceOnUse" color-interpolation-filters="sRGB">
<feFlood flood-opacity="0" result="BackgroundImageFix"/>
<feGaussianBlur in="BackgroundImageFix" stdDeviation="5.4235"/>
<feComposite in2="SourceAlpha" operator="in" result="effect1_backgroundBlur_5202_34611"/>
<feBlend mode="normal" in="SourceGraphic" in2="effect1_backgroundBlur_5202_34611" result="shape"/>
</filter>
<filter id="filter3_b_5202_34611" x="373.333" y="13.3333" width="69.3333" height="69.3333" filterUnits="userSpaceOnUse" color-interpolation-filters="sRGB">
<feFlood flood-opacity="0" result="BackgroundImageFix"/>
<feGaussianBlur in="BackgroundImageFix" stdDeviation="5.33333"/>
<feComposite in2="SourceAlpha" operator="in" result="effect1_backgroundBlur_5202_34611"/>
<feBlend mode="normal" in="SourceGraphic" in2="effect1_backgroundBlur_5202_34611" result="shape"/>
</filter>
<filter id="filter4_b_5202_34611" x="572.286" y="94.2858" width="69.4284" height="69.4284" filterUnits="userSpaceOnUse" color-interpolation-filters="sRGB">
<feFlood flood-opacity="0" result="BackgroundImageFix"/>
<feGaussianBlur in="BackgroundImageFix" stdDeviation="5.35709"/>
<feComposite in2="SourceAlpha" operator="in" result="effect1_backgroundBlur_5202_34611"/>
<feBlend mode="normal" in="SourceGraphic" in2="effect1_backgroundBlur_5202_34611" result="shape"/>
</filter>
<linearGradient id="paint0_linear_5202_34611" x1="-11.7188" y1="207.96" x2="104.661" y2="94.1357" gradientUnits="userSpaceOnUse">
<stop offset="0.0596952" stop-color="#191919"/>
<stop offset="0.290711" stop-color="#4016A0"/>
<stop offset="0.504779" stop-color="#3F59E4"/>
<stop offset="0.705284" stop-color="#4CB7A3"/>
<stop offset="0.937599" stop-color="#F6F1E7"/>
</linearGradient>
<linearGradient id="paint1_linear_5202_34611" x1="159.281" y1="207.96" x2="275.661" y2="94.1357" gradientUnits="userSpaceOnUse">
<stop offset="0.0596952" stop-color="#191919"/>
<stop offset="0.290711" stop-color="#4016A0"/>
<stop offset="0.504779" stop-color="#3F59E4"/>
<stop offset="0.705284" stop-color="#4CB7A3"/>
<stop offset="0.937599" stop-color="#F6F1E7"/>
</linearGradient>
<linearGradient id="paint2_linear_5202_34611" x1="339.281" y1="255.96" x2="455.661" y2="142.136" gradientUnits="userSpaceOnUse">
<stop offset="0.0596952" stop-color="#191919"/>
<stop offset="0.290711" stop-color="#4016A0"/>
<stop offset="0.504779" stop-color="#3F59E4"/>
<stop offset="0.705284" stop-color="#4CB7A3"/>
<stop offset="0.937599" stop-color="#F6F1E7"/>
</linearGradient>
<linearGradient id="paint3_linear_5202_34611" x1="339.281" y1="126.96" x2="455.661" y2="13.1357" gradientUnits="userSpaceOnUse">
<stop offset="0.0596952" stop-color="#191919"/>
<stop offset="0.290711" stop-color="#4016A0"/>
<stop offset="0.504779" stop-color="#3F59E4"/>
<stop offset="0.705284" stop-color="#4CB7A3"/>
<stop offset="0.937599" stop-color="#F6F1E7"/>
</linearGradient>
<linearGradient id="paint4_linear_5202_34611" x1="538.281" y1="207.96" x2="654.661" y2="94.1357" gradientUnits="userSpaceOnUse">
<stop offset="0.0596952" stop-color="#191919"/>
<stop offset="0.290711" stop-color="#4016A0"/>
<stop offset="0.504779" stop-color="#3F59E4"/>
<stop offset="0.705284" stop-color="#4CB7A3"/>
<stop offset="0.937599" stop-color="#F6F1E7"/>
</linearGradient>
</defs>
</svg>
