<svg width="672" height="251" viewBox="0 0 672 251" fill="none" xmlns="http://www.w3.org/2000/svg">
<rect width="672" height="251" rx="16" fill="black" fill-opacity="0.2"/>
<g filter="url(#filter0_b_4951_71715)">
<rect x="33" y="105" width="48" height="48" rx="24" fill="#191919" fill-opacity="0.3"/>
<rect x="33.3431" y="105.343" width="47.3139" height="47.3139" rx="23.6569" stroke="url(#paint0_linear_4951_71715)" stroke-width="0.686134"/>
<path d="M65.0203 137.935V136.105C65.0203 135.134 64.6348 134.204 63.9485 133.517C63.2623 132.831 62.3315 132.446 61.361 132.446H54.0422C53.0717 132.446 52.1409 132.831 51.4546 133.517C50.7684 134.204 50.3828 135.134 50.3828 136.105V137.935" stroke="#FBFBFB" stroke-width="1.37227" stroke-linecap="round" stroke-linejoin="round"/>
<path d="M57.7024 128.787C59.7234 128.787 61.3617 127.148 61.3617 125.127C61.3617 123.106 59.7234 121.468 57.7024 121.468C55.6813 121.468 54.043 123.106 54.043 125.127C54.043 127.148 55.6813 128.787 57.7024 128.787Z" stroke="#FBFBFB" stroke-width="1.37227" stroke-linecap="round" stroke-linejoin="round"/>
</g>
<path d="M43.1205 170.814V165.2H44.3385V170.884C44.3385 172.914 45.1505 173.964 46.8445 173.964C48.5665 173.964 49.3785 172.914 49.3785 170.884V165.2H50.5965V170.814C50.5965 173.614 49.2945 175.084 46.8445 175.084C44.3945 175.084 43.1205 173.614 43.1205 170.814ZM52.2641 172.648H53.4401C53.4821 173.488 54.2241 174.104 55.4141 174.104C56.4221 174.104 57.1361 173.67 57.1361 173.012C57.1361 172.116 56.3521 172.046 55.2881 171.92C53.6921 171.724 52.4181 171.402 52.4181 169.918C52.4181 168.616 53.6081 167.762 55.2181 167.776C56.8421 167.79 58.0181 168.546 58.1301 170.03H56.9541C56.8701 169.302 56.1981 168.756 55.2181 168.756C54.2241 168.756 53.5521 169.176 53.5521 169.834C53.5521 170.618 54.3081 170.716 55.3441 170.842C56.9681 171.038 58.2701 171.346 58.2701 172.928C58.2701 174.258 56.9961 175.084 55.4141 175.084C53.5661 175.084 52.2921 174.216 52.2641 172.648ZM63.1144 175.084C60.9724 175.084 59.5724 173.614 59.5724 171.43C59.5724 169.26 60.9444 167.776 62.9604 167.776C64.9764 167.776 66.2924 169.05 66.3484 171.164C66.3484 171.318 66.3344 171.486 66.3204 171.654H60.7764V171.752C60.8184 173.11 61.6724 174.062 63.0304 174.062C64.0384 174.062 64.8224 173.53 65.0604 172.606H66.2224C65.9424 174.034 64.7664 175.084 63.1144 175.084ZM60.8464 170.702H65.1164C65.0044 169.47 64.1644 168.784 62.9744 168.784C61.9244 168.784 60.9584 169.54 60.8464 170.702ZM71.2424 167.86H71.5644V168.98H70.9904C69.4924 168.98 69.0864 170.226 69.0864 171.36V175H67.9384V167.86H68.9324L69.0864 168.938C69.4224 168.392 69.9684 167.86 71.2424 167.86Z" fill="#FBFBFB"/>
<g filter="url(#filter1_b_4951_71715)">
<rect x="204" y="105" width="48" height="48" rx="24" fill="#191919" fill-opacity="0.3"/>
<rect x="204.335" y="105.335" width="47.3304" height="47.3304" rx="23.6652" stroke="url(#paint1_linear_4951_71715)" stroke-width="0.66963"/>
<path d="M235.246 120.178H220.961C219.975 120.178 219.176 120.977 219.176 121.963V125.535C219.176 126.521 219.975 127.32 220.961 127.32H235.246C236.233 127.32 237.032 126.521 237.032 125.535V121.963C237.032 120.977 236.233 120.178 235.246 120.178Z" stroke="#FBFBFB" stroke-width="1.33926" stroke-linecap="round" stroke-linejoin="round"/>
<path d="M235.246 130.892H220.961C219.975 130.892 219.176 131.691 219.176 132.677V136.248C219.176 137.235 219.975 138.034 220.961 138.034H235.246C236.233 138.034 237.032 137.235 237.032 136.248V132.677C237.032 131.691 236.233 130.892 235.246 130.892Z" stroke="#FBFBFB" stroke-width="1.33926" stroke-linecap="round" stroke-linejoin="round"/>
<path d="M222.746 123.749H222.756" stroke="#FBFBFB" stroke-width="1.33926" stroke-linecap="round" stroke-linejoin="round"/>
<path d="M222.746 134.463H222.756" stroke="#FBFBFB" stroke-width="1.33926" stroke-linecap="round" stroke-linejoin="round"/>
</g>
<path d="M187.057 175H185.797L189.535 165.2H190.977L194.701 175H193.399L192.363 172.354H188.093L187.057 175ZM190.221 166.53L188.457 171.248H191.999L190.221 166.53ZM200.687 171.43V167.86H201.835V175H200.841L200.687 174.048C200.267 174.58 199.581 175.084 198.405 175.084C196.837 175.084 195.591 174.202 195.591 171.836V167.86H196.739V171.766C196.739 173.25 197.411 174.034 198.601 174.034C199.903 174.034 200.687 173.04 200.687 171.43ZM204.239 173.138V168.91H202.951V167.86H204.239V165.858H205.387V167.86H207.235V168.91H205.387V173.124C205.387 173.726 205.597 173.95 206.213 173.95H207.347V175H206.101C204.729 175 204.239 174.398 204.239 173.138ZM212.122 167.776C213.718 167.776 215.02 168.658 215.02 171.024V175H213.872V171.094C213.872 169.61 213.158 168.826 211.926 168.826C210.596 168.826 209.77 169.82 209.77 171.43V175H208.622V165.2H209.77V169.036C210.19 168.364 210.918 167.776 212.122 167.776ZM216.581 170.324V169.876C216.581 167.09 218.093 165.116 220.305 165.116C222.503 165.116 224.015 167.09 224.015 169.876V170.324C224.015 173.25 222.503 175.084 220.305 175.084C218.093 175.084 216.581 173.25 216.581 170.324ZM222.825 170.282V169.918C222.825 167.594 221.817 166.194 220.305 166.194C218.779 166.194 217.771 167.594 217.771 169.918V170.282C217.771 172.606 218.779 174.006 220.305 174.006C221.817 174.006 222.825 172.606 222.825 170.282ZM229.404 171.794H230.664C230.762 173.11 231.784 173.978 233.282 173.978C234.598 173.978 235.536 173.376 235.536 172.312C235.536 171.094 234.332 170.842 232.848 170.59C231.266 170.324 229.642 169.806 229.642 167.902C229.642 166.236 231 165.116 232.988 165.116C235.172 165.116 236.516 166.334 236.628 168.098H235.368C235.228 166.964 234.318 166.222 232.988 166.222C231.714 166.222 230.86 166.782 230.86 167.832C230.86 169.008 232.05 169.246 233.52 169.498C235.116 169.764 236.754 170.296 236.754 172.2C236.754 173.894 235.326 175.084 233.268 175.084C230.874 175.084 229.474 173.726 229.404 171.794ZM241.702 175.084C239.56 175.084 238.16 173.614 238.16 171.43C238.16 169.26 239.532 167.776 241.548 167.776C243.564 167.776 244.88 169.05 244.936 171.164C244.936 171.318 244.922 171.486 244.908 171.654H239.364V171.752C239.406 173.11 240.26 174.062 241.618 174.062C242.626 174.062 243.41 173.53 243.648 172.606H244.81C244.53 174.034 243.354 175.084 241.702 175.084ZM239.434 170.702H243.704C243.592 169.47 242.752 168.784 241.562 168.784C240.512 168.784 239.546 169.54 239.434 170.702ZM249.83 167.86H250.152V168.98H249.578C248.08 168.98 247.674 170.226 247.674 171.36V175H246.526V167.86H247.52L247.674 168.938C248.01 168.392 248.556 167.86 249.83 167.86ZM253.524 175L250.85 167.86H252.082L254.238 173.698L256.38 167.86H257.584L254.91 175H253.524ZM261.696 175.084C259.554 175.084 258.154 173.614 258.154 171.43C258.154 169.26 259.526 167.776 261.542 167.776C263.558 167.776 264.874 169.05 264.93 171.164C264.93 171.318 264.916 171.486 264.902 171.654H259.358V171.752C259.4 173.11 260.254 174.062 261.612 174.062C262.62 174.062 263.404 173.53 263.642 172.606H264.804C264.524 174.034 263.348 175.084 261.696 175.084ZM259.428 170.702H263.698C263.586 169.47 262.746 168.784 261.556 168.784C260.506 168.784 259.54 169.54 259.428 170.702ZM269.824 167.86H270.146V168.98H269.572C268.074 168.98 267.668 170.226 267.668 171.36V175H266.52V167.86H267.514L267.668 168.938C268.004 168.392 268.55 167.86 269.824 167.86Z" fill="#FBFBFB"/>
<g filter="url(#filter2_b_4951_71715)">
<rect x="383.5" y="153" width="48" height="48" rx="24" fill="#191919" fill-opacity="0.3"/>
<rect x="383.839" y="153.339" width="47.3221" height="47.3221" rx="23.661" stroke="url(#paint2_linear_4951_71715)" stroke-width="0.677938"/>
<path d="M416.039 168.366L414.231 170.174M414.231 170.174L416.943 172.886L413.779 176.05L411.067 173.338M414.231 170.174L411.067 173.338M407.352 177.053C407.819 177.514 408.19 178.062 408.444 178.666C408.698 179.271 408.83 179.92 408.832 180.575C408.834 181.231 408.706 181.881 408.457 182.487C408.207 183.093 407.839 183.644 407.376 184.107C406.912 184.571 406.361 184.938 405.755 185.188C405.149 185.438 404.499 185.566 403.844 185.564C403.188 185.561 402.539 185.429 401.935 185.175C401.33 184.922 400.782 184.55 400.321 184.084C399.416 183.146 398.915 181.89 398.926 180.587C398.937 179.283 399.46 178.036 400.382 177.115C401.304 176.193 402.551 175.67 403.854 175.659C405.158 175.647 406.413 176.148 407.351 177.054L407.352 177.053ZM407.352 177.053L411.067 173.338" stroke="#FBFBFB" stroke-width="1.35588" stroke-linecap="round" stroke-linejoin="round"/>
</g>
<path d="M363.904 223H362.644L366.382 213.2H367.824L371.548 223H370.246L369.21 220.354H364.94L363.904 223ZM367.068 214.53L365.304 219.248H368.846L367.068 214.53ZM375.661 223.084C373.575 223.084 372.203 221.67 372.203 219.444C372.203 217.26 373.617 215.776 375.689 215.776C377.439 215.776 378.545 216.756 378.839 218.324H377.635C377.425 217.372 376.725 216.798 375.675 216.798C374.303 216.798 373.379 217.89 373.379 219.444C373.379 220.998 374.303 222.062 375.675 222.062C376.697 222.062 377.397 221.474 377.621 220.564H378.839C378.559 222.104 377.397 223.084 375.661 223.084ZM383.583 223.084C381.497 223.084 380.125 221.67 380.125 219.444C380.125 217.26 381.539 215.776 383.611 215.776C385.361 215.776 386.467 216.756 386.761 218.324H385.557C385.347 217.372 384.647 216.798 383.597 216.798C382.225 216.798 381.301 217.89 381.301 219.444C381.301 220.998 382.225 222.062 383.597 222.062C384.619 222.062 385.319 221.474 385.543 220.564H386.761C386.481 222.104 385.319 223.084 383.583 223.084ZM391.59 223.084C389.448 223.084 388.048 221.614 388.048 219.43C388.048 217.26 389.42 215.776 391.436 215.776C393.452 215.776 394.768 217.05 394.824 219.164C394.824 219.318 394.81 219.486 394.796 219.654H389.252V219.752C389.294 221.11 390.148 222.062 391.506 222.062C392.514 222.062 393.298 221.53 393.536 220.606H394.698C394.418 222.034 393.242 223.084 391.59 223.084ZM389.322 218.702H393.592C393.48 217.47 392.64 216.784 391.45 216.784C390.4 216.784 389.434 217.54 389.322 218.702ZM396.092 220.648H397.268C397.31 221.488 398.052 222.104 399.242 222.104C400.25 222.104 400.964 221.67 400.964 221.012C400.964 220.116 400.18 220.046 399.116 219.92C397.52 219.724 396.246 219.402 396.246 217.918C396.246 216.616 397.436 215.762 399.046 215.776C400.67 215.79 401.846 216.546 401.958 218.03H400.782C400.698 217.302 400.026 216.756 399.046 216.756C398.052 216.756 397.38 217.176 397.38 217.834C397.38 218.618 398.136 218.716 399.172 218.842C400.796 219.038 402.098 219.346 402.098 220.928C402.098 222.258 400.824 223.084 399.242 223.084C397.394 223.084 396.12 222.216 396.092 220.648ZM403.222 220.648H404.398C404.44 221.488 405.182 222.104 406.372 222.104C407.38 222.104 408.094 221.67 408.094 221.012C408.094 220.116 407.31 220.046 406.246 219.92C404.65 219.724 403.376 219.402 403.376 217.918C403.376 216.616 404.566 215.762 406.176 215.776C407.8 215.79 408.976 216.546 409.088 218.03H407.912C407.828 217.302 407.156 216.756 406.176 216.756C405.182 216.756 404.51 217.176 404.51 217.834C404.51 218.618 405.266 218.716 406.302 218.842C407.926 219.038 409.228 219.346 409.228 220.928C409.228 222.258 407.954 223.084 406.372 223.084C404.524 223.084 403.25 222.216 403.222 220.648ZM414.222 214.32V213.2H421.796V214.32H418.618V223H417.4V214.32H414.222ZM425.173 223.084C423.087 223.084 421.631 221.6 421.631 219.43C421.631 217.26 423.087 215.776 425.173 215.776C427.259 215.776 428.715 217.26 428.715 219.43C428.715 221.6 427.259 223.084 425.173 223.084ZM425.173 222.062C426.587 222.062 427.539 220.956 427.539 219.43C427.539 217.904 426.587 216.798 425.173 216.798C423.759 216.798 422.807 217.904 422.807 219.43C422.807 220.956 423.759 222.062 425.173 222.062ZM430.312 223V213.2H431.46V219.654L435.044 215.86H436.458L433.672 218.814L436.654 223H435.268L432.902 219.64L431.46 221.124V223H430.312ZM440.622 223.084C438.48 223.084 437.08 221.614 437.08 219.43C437.08 217.26 438.452 215.776 440.468 215.776C442.484 215.776 443.8 217.05 443.856 219.164C443.856 219.318 443.842 219.486 443.828 219.654H438.284V219.752C438.326 221.11 439.18 222.062 440.538 222.062C441.546 222.062 442.33 221.53 442.568 220.606H443.73C443.45 222.034 442.274 223.084 440.622 223.084ZM438.354 218.702H442.624C442.512 217.47 441.672 216.784 440.482 216.784C439.432 216.784 438.466 217.54 438.354 218.702ZM448.946 215.776C450.556 215.776 451.83 216.658 451.83 219.024V223H450.682V219.094C450.682 217.61 449.996 216.826 448.75 216.826C447.406 216.826 446.594 217.82 446.594 219.43V223H445.446V215.86H446.44L446.594 216.826C447.014 216.28 447.742 215.776 448.946 215.776Z" fill="#FBFBFB"/>
<g filter="url(#filter3_b_4951_71715)">
<rect x="384" y="24" width="48" height="48" rx="24" fill="#191919" fill-opacity="0.3"/>
<rect x="384.333" y="24.3333" width="47.3333" height="47.3333" rx="23.6667" stroke="url(#paint3_linear_4951_71715)" stroke-width="0.666667"/>
<path d="M415.105 56.0003V54.2225C415.105 53.2796 414.73 52.3752 414.064 51.7084C413.397 51.0416 412.492 50.667 411.549 50.667H404.438C403.495 50.667 402.591 51.0416 401.924 51.7084C401.257 52.3752 400.883 53.2796 400.883 54.2225V56.0003" stroke="#FBFBFB" stroke-width="1.33333" stroke-linecap="round" stroke-linejoin="round"/>
<path d="M408.005 47.1111C409.968 47.1111 411.56 45.5192 411.56 43.5556C411.56 41.5919 409.968 40 408.005 40C406.041 40 404.449 41.5919 404.449 43.5556C404.449 45.5192 406.041 47.1111 408.005 47.1111Z" stroke="#FBFBFB" stroke-width="1.33333" stroke-linecap="round" stroke-linejoin="round"/>
</g>
<path d="M381.059 94V84.2H382.277V94H381.059ZM387.592 94H384.456V84.2H387.592C390.658 84.2 392.52 86.16 392.52 89.1C392.52 92.026 390.658 94 387.592 94ZM385.674 85.32V92.88H387.592C389.972 92.88 391.274 91.382 391.274 89.1C391.274 86.804 389.972 85.32 387.592 85.32H385.674ZM397.606 85.32V84.2H405.18V85.32H402.002V94H400.784V85.32H397.606ZM408.557 94.084C406.471 94.084 405.015 92.6 405.015 90.43C405.015 88.26 406.471 86.776 408.557 86.776C410.643 86.776 412.099 88.26 412.099 90.43C412.099 92.6 410.643 94.084 408.557 94.084ZM408.557 93.062C409.971 93.062 410.923 91.956 410.923 90.43C410.923 88.904 409.971 87.798 408.557 87.798C407.143 87.798 406.191 88.904 406.191 90.43C406.191 91.956 407.143 93.062 408.557 93.062ZM413.695 94V84.2H414.843V90.654L418.427 86.86H419.841L417.055 89.814L420.037 94H418.651L416.285 90.64L414.843 92.124V94H413.695ZM424.005 94.084C421.863 94.084 420.463 92.614 420.463 90.43C420.463 88.26 421.835 86.776 423.851 86.776C425.867 86.776 427.183 88.05 427.239 90.164C427.239 90.318 427.225 90.486 427.211 90.654H421.667V90.752C421.709 92.11 422.563 93.062 423.921 93.062C424.929 93.062 425.713 92.53 425.951 91.606H427.113C426.833 93.034 425.657 94.084 424.005 94.084ZM421.737 89.702H426.007C425.895 88.47 425.055 87.784 423.865 87.784C422.815 87.784 421.849 88.54 421.737 89.702ZM432.329 86.776C433.939 86.776 435.213 87.658 435.213 90.024V94H434.065V90.094C434.065 88.61 433.379 87.826 432.133 87.826C430.789 87.826 429.977 88.82 429.977 90.43V94H428.829V86.86H429.823L429.977 87.826C430.397 87.28 431.125 86.776 432.329 86.776Z" fill="#FBFBFB"/>
<path d="M108.636 136H102.952V126.2H104.17V134.88H108.636V136ZM112.889 136.084C110.803 136.084 109.347 134.6 109.347 132.43C109.347 130.26 110.803 128.776 112.889 128.776C114.975 128.776 116.431 130.26 116.431 132.43C116.431 134.6 114.975 136.084 112.889 136.084ZM112.889 135.062C114.303 135.062 115.255 133.956 115.255 132.43C115.255 130.904 114.303 129.798 112.889 129.798C111.475 129.798 110.523 130.904 110.523 132.43C110.523 133.956 111.475 135.062 112.889 135.062ZM123.656 130.092L123.81 128.86H124.804V135.65C124.804 137.708 123.712 138.884 121.262 138.884C119.442 138.884 118.168 138.03 117.986 136.462H119.162C119.358 137.358 120.156 137.862 121.346 137.862C122.844 137.862 123.656 137.162 123.656 135.608V134.768C123.18 135.58 122.41 136.084 121.206 136.084C119.232 136.084 117.776 134.754 117.776 132.43C117.776 130.246 119.232 128.776 121.206 128.776C122.41 128.776 123.208 129.294 123.656 130.092ZM121.318 135.062C122.718 135.062 123.67 133.984 123.67 132.458C123.67 130.89 122.718 129.798 121.318 129.798C119.904 129.798 118.952 130.876 118.952 132.43C118.952 133.984 119.904 135.062 121.318 135.062ZM126.353 133.648H127.529C127.571 134.488 128.313 135.104 129.503 135.104C130.511 135.104 131.225 134.67 131.225 134.012C131.225 133.116 130.441 133.046 129.377 132.92C127.781 132.724 126.507 132.402 126.507 130.918C126.507 129.616 127.697 128.762 129.307 128.776C130.931 128.79 132.107 129.546 132.219 131.03H131.043C130.959 130.302 130.287 129.756 129.307 129.756C128.313 129.756 127.641 130.176 127.641 130.834C127.641 131.618 128.397 131.716 129.433 131.842C131.057 132.038 132.359 132.346 132.359 133.928C132.359 135.258 131.085 136.084 129.503 136.084C127.655 136.084 126.381 135.216 126.353 133.648ZM138.446 127.656C138.026 127.656 137.704 127.348 137.704 126.914C137.704 126.48 138.026 126.172 138.446 126.172C138.866 126.172 139.188 126.48 139.188 126.914C139.188 127.348 138.866 127.656 138.446 127.656ZM137.858 136V128.86H139.006V136H137.858ZM144.359 128.776C145.969 128.776 147.243 129.658 147.243 132.024V136H146.095V132.094C146.095 130.61 145.409 129.826 144.163 129.826C142.819 129.826 142.007 130.82 142.007 132.43V136H140.859V128.86H141.853L142.007 129.826C142.427 129.28 143.155 128.776 144.359 128.776Z" fill="#FBFBFB"/>
<path d="M183.442 131.942C183.686 131.698 183.686 131.302 183.442 131.058L179.464 127.081C179.22 126.837 178.825 126.837 178.581 127.081C178.337 127.325 178.337 127.72 178.581 127.964L182.116 131.5L178.581 135.036C178.337 135.28 178.337 135.675 178.581 135.919C178.825 136.163 179.22 136.163 179.464 135.919L183.442 131.942ZM156 132.125L183 132.125L183 130.875L156 130.875L156 132.125Z" fill="#FBFBFB"/>
<path d="M354.442 58.4419C354.686 58.1979 354.686 57.8021 354.442 57.5581L350.464 53.5806C350.22 53.3365 349.825 53.3365 349.581 53.5806C349.337 53.8247 349.337 54.2204 349.581 54.4645L353.116 58L349.581 61.5355C349.337 61.7796 349.337 62.1753 349.581 62.4194C349.825 62.6635 350.22 62.6635 350.464 62.4194L354.442 58.4419ZM273 132.625H306.167V131.375H273V132.625ZM314.792 124V66H313.542V124H314.792ZM322.167 58.625H354V57.375H322.167V58.625ZM314.792 66C314.792 61.9269 318.094 58.625 322.167 58.625V57.375C317.403 57.375 313.542 61.2365 313.542 66H314.792ZM306.167 132.625C310.93 132.625 314.792 128.763 314.792 124H313.542C313.542 128.073 310.24 131.375 306.167 131.375V132.625Z" fill="#FBFBFB"/>
<path d="M570.442 131.558C570.686 131.802 570.686 132.198 570.442 132.442L566.464 136.419C566.22 136.663 565.825 136.663 565.581 136.419C565.337 136.175 565.337 135.78 565.581 135.536L569.116 132L565.581 128.464C565.337 128.22 565.337 127.825 565.581 127.581C565.825 127.337 566.22 127.337 566.464 127.581L570.442 131.558ZM570 132.625H530.735V131.375H570V132.625ZM522.11 124V66H523.36V124H522.11ZM514.735 58.625H461V57.375H514.735V58.625ZM522.11 66C522.11 61.9269 518.808 58.625 514.735 58.625V57.375C519.498 57.375 523.36 61.2365 523.36 66H522.11ZM530.735 132.625C525.971 132.625 522.11 128.763 522.11 124H523.36C523.36 128.073 526.661 131.375 530.735 131.375V132.625Z" fill="#FBFBFB"/>
<path d="M354.442 204.558C354.686 204.802 354.686 205.198 354.442 205.442L350.464 209.419C350.22 209.663 349.825 209.663 349.581 209.419C349.337 209.175 349.337 208.78 349.581 208.536L353.116 205L349.581 201.464C349.337 201.22 349.337 200.825 349.581 200.581C349.825 200.337 350.22 200.337 350.464 200.581L354.442 204.558ZM273 131.375H306.167V132.625H273V131.375ZM314.792 140V197H313.542V140H314.792ZM322.167 204.375H354V205.625H322.167V204.375ZM314.792 197C314.792 201.073 318.094 204.375 322.167 204.375V205.625C317.403 205.625 313.542 201.763 313.542 197H314.792ZM306.167 131.375C310.93 131.375 314.792 135.237 314.792 140H313.542C313.542 135.927 310.24 132.625 306.167 132.625V131.375Z" fill="#FBFBFB"/>
<path d="M570 132H530.735C526.316 132 522.735 135.582 522.735 140V197C522.735 201.418 519.153 205 514.735 205H461" stroke="#FBFBFB" stroke-width="1.25"/>
<g filter="url(#filter4_b_4951_71715)">
<rect x="591" y="105" width="48" height="48" rx="24" fill="#191919" fill-opacity="0.3"/>
<rect x="591.335" y="105.335" width="47.3304" height="47.3304" rx="23.6652" stroke="url(#paint4_linear_4951_71715)" stroke-width="0.669636"/>
<path d="M621.359 121.07H608.86C607.874 121.07 607.074 121.87 607.074 122.856V135.355C607.074 136.341 607.874 137.141 608.86 137.141H621.359C622.345 137.141 623.145 136.341 623.145 135.355V122.856C623.145 121.87 622.345 121.07 621.359 121.07Z" stroke="#FBFBFB" stroke-width="1.33927" stroke-linecap="round" stroke-linejoin="round"/>
<path d="M607.074 126.428H623.145" stroke="#FBFBFB" stroke-width="1.33927" stroke-linecap="round" stroke-linejoin="round"/>
<path d="M612.422 137.141V126.428" stroke="#FBFBFB" stroke-width="1.33927" stroke-linecap="round" stroke-linejoin="round"/>
</g>
<path d="M580.069 175H578.809L582.547 165.2H583.989L587.713 175H586.411L585.375 172.354H581.105L580.069 175ZM583.233 166.53L581.469 171.248H585.011L583.233 166.53ZM592.532 167.776C594.506 167.776 595.962 169.106 595.962 171.43C595.962 173.614 594.506 175.084 592.532 175.084C591.328 175.084 590.516 174.594 590.082 173.908V177.8H588.934V167.86H589.928L590.082 169.008C590.558 168.35 591.328 167.776 592.532 167.776ZM592.42 174.062C593.834 174.062 594.786 172.984 594.786 171.43C594.786 169.876 593.834 168.798 592.42 168.798C591.02 168.798 590.068 169.876 590.068 171.402C590.068 172.97 591.02 174.062 592.42 174.062ZM601.151 167.776C603.125 167.776 604.581 169.106 604.581 171.43C604.581 173.614 603.125 175.084 601.151 175.084C599.947 175.084 599.135 174.594 598.701 173.908V177.8H597.553V167.86H598.547L598.701 169.008C599.177 168.35 599.947 167.776 601.151 167.776ZM601.039 174.062C602.453 174.062 603.405 172.984 603.405 171.43C603.405 169.876 602.453 168.798 601.039 168.798C599.639 168.798 598.687 169.876 598.687 171.402C598.687 172.97 599.639 174.062 601.039 174.062ZM606.173 175V165.2H607.321V175H606.173ZM609.762 166.656C609.342 166.656 609.02 166.348 609.02 165.914C609.02 165.48 609.342 165.172 609.762 165.172C610.182 165.172 610.504 165.48 610.504 165.914C610.504 166.348 610.182 166.656 609.762 166.656ZM609.174 175V167.86H610.322V175H609.174ZM615.381 175.084C613.295 175.084 611.923 173.67 611.923 171.444C611.923 169.26 613.337 167.776 615.409 167.776C617.159 167.776 618.265 168.756 618.559 170.324H617.355C617.145 169.372 616.445 168.798 615.395 168.798C614.023 168.798 613.099 169.89 613.099 171.444C613.099 172.998 614.023 174.062 615.395 174.062C616.417 174.062 617.117 173.474 617.341 172.564H618.559C618.279 174.104 617.117 175.084 615.381 175.084ZM626.411 173.95H626.775V175H626.145C625.193 175 624.871 174.594 624.857 173.894C624.409 174.538 623.695 175.084 622.463 175.084C620.895 175.084 619.831 174.3 619.831 172.998C619.831 171.57 620.825 170.772 622.701 170.772H624.801V170.282C624.801 169.358 624.143 168.798 623.023 168.798C622.015 168.798 621.343 169.274 621.203 170.002H620.055C620.223 168.602 621.357 167.776 623.079 167.776C624.899 167.776 625.949 168.686 625.949 170.352V173.474C625.949 173.852 626.089 173.95 626.411 173.95ZM624.801 172.088V171.738H622.589C621.567 171.738 620.993 172.116 620.993 172.928C620.993 173.628 621.595 174.104 622.547 174.104C623.975 174.104 624.801 173.278 624.801 172.088ZM628.47 173.138V168.91H627.182V167.86H628.47V165.858H629.618V167.86H631.466V168.91H629.618V173.124C629.618 173.726 629.828 173.95 630.444 173.95H631.578V175H630.332C628.96 175 628.47 174.398 628.47 173.138ZM633.441 166.656C633.021 166.656 632.699 166.348 632.699 165.914C632.699 165.48 633.021 165.172 633.441 165.172C633.861 165.172 634.183 165.48 634.183 165.914C634.183 166.348 633.861 166.656 633.441 166.656ZM632.853 175V167.86H634.001V175H632.853ZM639.143 175.084C637.057 175.084 635.601 173.6 635.601 171.43C635.601 169.26 637.057 167.776 639.143 167.776C641.229 167.776 642.685 169.26 642.685 171.43C642.685 173.6 641.229 175.084 639.143 175.084ZM639.143 174.062C640.557 174.062 641.509 172.956 641.509 171.43C641.509 169.904 640.557 168.798 639.143 168.798C637.729 168.798 636.777 169.904 636.777 171.43C636.777 172.956 637.729 174.062 639.143 174.062ZM647.782 167.776C649.392 167.776 650.666 168.658 650.666 171.024V175H649.518V171.094C649.518 169.61 648.832 168.826 647.586 168.826C646.242 168.826 645.43 169.82 645.43 171.43V175H644.282V167.86H645.276L645.43 168.826C645.85 168.28 646.578 167.776 647.782 167.776Z" fill="#FBFBFB"/>
<defs>
<filter id="filter0_b_4951_71715" x="22.0219" y="94.0219" width="69.9563" height="69.9563" filterUnits="userSpaceOnUse" color-interpolation-filters="sRGB">
<feFlood flood-opacity="0" result="BackgroundImageFix"/>
<feGaussianBlur in="BackgroundImageFix" stdDeviation="5.48907"/>
<feComposite in2="SourceAlpha" operator="in" result="effect1_backgroundBlur_4951_71715"/>
<feBlend mode="normal" in="SourceGraphic" in2="effect1_backgroundBlur_4951_71715" result="shape"/>
</filter>
<filter id="filter1_b_4951_71715" x="193.286" y="94.2859" width="69.4282" height="69.4282" filterUnits="userSpaceOnUse" color-interpolation-filters="sRGB">
<feFlood flood-opacity="0" result="BackgroundImageFix"/>
<feGaussianBlur in="BackgroundImageFix" stdDeviation="5.35704"/>
<feComposite in2="SourceAlpha" operator="in" result="effect1_backgroundBlur_4951_71715"/>
<feBlend mode="normal" in="SourceGraphic" in2="effect1_backgroundBlur_4951_71715" result="shape"/>
</filter>
<filter id="filter2_b_4951_71715" x="372.653" y="142.153" width="69.694" height="69.694" filterUnits="userSpaceOnUse" color-interpolation-filters="sRGB">
<feFlood flood-opacity="0" result="BackgroundImageFix"/>
<feGaussianBlur in="BackgroundImageFix" stdDeviation="5.4235"/>
<feComposite in2="SourceAlpha" operator="in" result="effect1_backgroundBlur_4951_71715"/>
<feBlend mode="normal" in="SourceGraphic" in2="effect1_backgroundBlur_4951_71715" result="shape"/>
</filter>
<filter id="filter3_b_4951_71715" x="373.333" y="13.3333" width="69.3333" height="69.3333" filterUnits="userSpaceOnUse" color-interpolation-filters="sRGB">
<feFlood flood-opacity="0" result="BackgroundImageFix"/>
<feGaussianBlur in="BackgroundImageFix" stdDeviation="5.33333"/>
<feComposite in2="SourceAlpha" operator="in" result="effect1_backgroundBlur_4951_71715"/>
<feBlend mode="normal" in="SourceGraphic" in2="effect1_backgroundBlur_4951_71715" result="shape"/>
</filter>
<filter id="filter4_b_4951_71715" x="580.286" y="94.2858" width="69.4284" height="69.4284" filterUnits="userSpaceOnUse" color-interpolation-filters="sRGB">
<feFlood flood-opacity="0" result="BackgroundImageFix"/>
<feGaussianBlur in="BackgroundImageFix" stdDeviation="5.35709"/>
<feComposite in2="SourceAlpha" operator="in" result="effect1_backgroundBlur_4951_71715"/>
<feBlend mode="normal" in="SourceGraphic" in2="effect1_backgroundBlur_4951_71715" result="shape"/>
</filter>
<linearGradient id="paint0_linear_4951_71715" x1="-11.7188" y1="207.96" x2="104.661" y2="94.1357" gradientUnits="userSpaceOnUse">
<stop offset="0.0596952" stop-color="#191919"/>
<stop offset="0.290711" stop-color="#4016A0"/>
<stop offset="0.504779" stop-color="#3F59E4"/>
<stop offset="0.705284" stop-color="#4CB7A3"/>
<stop offset="0.937599" stop-color="#F6F1E7"/>
</linearGradient>
<linearGradient id="paint1_linear_4951_71715" x1="159.281" y1="207.96" x2="275.661" y2="94.1357" gradientUnits="userSpaceOnUse">
<stop offset="0.0596952" stop-color="#191919"/>
<stop offset="0.290711" stop-color="#4016A0"/>
<stop offset="0.504779" stop-color="#3F59E4"/>
<stop offset="0.705284" stop-color="#4CB7A3"/>
<stop offset="0.937599" stop-color="#F6F1E7"/>
</linearGradient>
<linearGradient id="paint2_linear_4951_71715" x1="338.781" y1="255.96" x2="455.161" y2="142.136" gradientUnits="userSpaceOnUse">
<stop offset="0.0596952" stop-color="#191919"/>
<stop offset="0.290711" stop-color="#4016A0"/>
<stop offset="0.504779" stop-color="#3F59E4"/>
<stop offset="0.705284" stop-color="#4CB7A3"/>
<stop offset="0.937599" stop-color="#F6F1E7"/>
</linearGradient>
<linearGradient id="paint3_linear_4951_71715" x1="339.281" y1="126.96" x2="455.661" y2="13.1357" gradientUnits="userSpaceOnUse">
<stop offset="0.0596952" stop-color="#191919"/>
<stop offset="0.290711" stop-color="#4016A0"/>
<stop offset="0.504779" stop-color="#3F59E4"/>
<stop offset="0.705284" stop-color="#4CB7A3"/>
<stop offset="0.937599" stop-color="#F6F1E7"/>
</linearGradient>
<linearGradient id="paint4_linear_4951_71715" x1="546.281" y1="207.96" x2="662.661" y2="94.1357" gradientUnits="userSpaceOnUse">
<stop offset="0.0596952" stop-color="#191919"/>
<stop offset="0.290711" stop-color="#4016A0"/>
<stop offset="0.504779" stop-color="#3F59E4"/>
<stop offset="0.705284" stop-color="#4CB7A3"/>
<stop offset="0.937599" stop-color="#F6F1E7"/>
</linearGradient>
</defs>
</svg>
