<svg width="672" height="251" viewBox="0 0 672 251" fill="none" xmlns="http://www.w3.org/2000/svg">
<rect width="672" height="251" rx="16" fill="black" fill-opacity="0.2"/>
<g filter="url(#filter0_b_5202_34522)">
<rect x="33" y="105" width="48" height="48" rx="24" fill="#191919" fill-opacity="0.3"/>
<rect x="33.3431" y="105.343" width="47.3139" height="47.3139" rx="23.6569" stroke="url(#paint0_linear_5202_34522)" stroke-width="0.686134"/>
<path d="M65.0203 137.934V136.105C65.0203 135.134 64.6348 134.203 63.9485 133.517C63.2623 132.831 62.3315 132.445 61.361 132.445H54.0422C53.0717 132.445 52.1409 132.831 51.4546 133.517C50.7684 134.203 50.3828 135.134 50.3828 136.105V137.934" stroke="#FBFBFB" stroke-width="1.37227" stroke-linecap="round" stroke-linejoin="round"/>
<path d="M57.7063 128.787C59.7273 128.787 61.3656 127.148 61.3656 125.127C61.3656 123.106 59.7273 121.468 57.7063 121.468C55.6852 121.468 54.0469 123.106 54.0469 125.127C54.0469 127.148 55.6852 128.787 57.7063 128.787Z" stroke="#FBFBFB" stroke-width="1.37227" stroke-linecap="round" stroke-linejoin="round"/>
</g>
<path d="M39.6787 167.012C39.6227 167.152 39.5807 167.362 39.5667 167.474C39.4127 168.888 38.7547 173.074 38.5587 174.306H37.2987C37.5367 173.088 38.2087 168.832 38.2367 167.796C37.0187 167.796 33.3927 167.796 32.7347 167.796C32.2027 167.796 31.8247 167.81 31.3907 167.852V166.606C31.8107 166.648 32.2587 166.69 32.7207 166.69C33.3787 166.69 36.8927 166.69 37.8727 166.69C38.1527 166.69 38.5867 166.634 38.7407 166.564L39.6787 167.012ZM29.8227 173.928C30.2287 173.998 30.6627 174.012 31.0547 174.012H40.4907C40.9247 174.012 41.3027 173.97 41.6667 173.928V175.216C41.2887 175.16 40.7847 175.146 40.4907 175.146H31.0547C30.6627 175.146 30.2427 175.174 29.8227 175.216V173.928ZM44.4107 169.938C44.8447 169.98 45.5727 170.022 46.3707 170.022C47.3927 170.022 53.0067 170.022 54.0427 170.022C54.7427 170.022 55.2327 169.966 55.5547 169.938V171.31C55.2607 171.296 54.6727 171.254 54.0567 171.254C52.9927 171.254 47.4067 171.254 46.3707 171.254C45.6007 171.254 44.8587 171.282 44.4107 171.31V169.938ZM68.1473 165.332C68.4133 165.836 68.7773 166.704 68.9733 167.264L68.2733 167.502C68.0773 166.914 67.7553 166.074 67.4753 165.542L68.1473 165.332ZM69.5473 164.898C69.8133 165.416 70.1773 166.27 70.3873 166.83L69.6873 167.068C69.4633 166.438 69.1553 165.64 68.8613 165.108L69.5473 164.898ZM66.8173 169.826C66.8173 173.55 66.0193 175.468 62.8273 176.896L61.8753 176.014C64.4233 175.034 65.6973 173.83 65.6973 169.91V166.508C65.6973 165.962 65.6553 165.5 65.6273 165.36H66.8873C66.8733 165.5 66.8173 165.962 66.8173 166.508V169.826ZM61.7773 165.458C61.7633 165.584 61.7073 165.976 61.7073 166.466V171.604C61.7073 172.108 61.7493 172.724 61.7633 172.864H60.5313C60.5453 172.724 60.5873 172.136 60.5873 171.604V166.466C60.5873 166.172 60.5733 165.766 60.5313 165.458H61.7773ZM57.6753 168.174C57.8013 168.188 58.4873 168.258 59.0893 168.258H68.3573C68.9733 168.258 69.4493 168.216 69.6453 168.188V169.378C69.4913 169.35 68.9733 169.336 68.3573 169.336H59.0893C58.4733 169.336 57.8433 169.364 57.6753 169.378V168.174ZM72.6973 169.938C73.1313 169.98 73.8593 170.022 74.6573 170.022C75.6793 170.022 81.2933 170.022 82.3293 170.022C83.0293 170.022 83.5193 169.966 83.8413 169.938V171.31C83.5473 171.296 82.9593 171.254 82.3433 171.254C81.2793 171.254 75.6933 171.254 74.6573 171.254C73.8873 171.254 73.1453 171.282 72.6973 171.31V169.938Z" fill="#FBFBFB"/>
<g filter="url(#filter1_b_5202_34522)">
<rect x="204" y="105" width="48" height="48" rx="24" fill="#191919" fill-opacity="0.3"/>
<rect x="204.335" y="105.335" width="47.3304" height="47.3304" rx="23.6652" stroke="url(#paint1_linear_5202_34522)" stroke-width="0.66963"/>
<path d="M235.25 120.178H220.965C219.979 120.178 219.18 120.977 219.18 121.963V125.535C219.18 126.521 219.979 127.32 220.965 127.32H235.25C236.236 127.32 237.036 126.521 237.036 125.535V121.963C237.036 120.977 236.236 120.178 235.25 120.178Z" stroke="#FBFBFB" stroke-width="1.33926" stroke-linecap="round" stroke-linejoin="round"/>
<path d="M235.25 130.892H220.965C219.979 130.892 219.18 131.691 219.18 132.677V136.248C219.18 137.235 219.979 138.034 220.965 138.034H235.25C236.236 138.034 237.036 137.235 237.036 136.248V132.677C237.036 131.691 236.236 130.892 235.25 130.892Z" stroke="#FBFBFB" stroke-width="1.33926" stroke-linecap="round" stroke-linejoin="round"/>
<path d="M222.75 123.749H222.76" stroke="#FBFBFB" stroke-width="1.33926" stroke-linecap="round" stroke-linejoin="round"/>
<path d="M222.75 134.463H222.76" stroke="#FBFBFB" stroke-width="1.33926" stroke-linecap="round" stroke-linejoin="round"/>
</g>
<path d="M178.062 176L181.534 165.738H182.99L186.462 176H185.104L183.298 170.26C182.934 169.112 182.612 167.992 182.276 166.802H182.22C181.884 167.992 181.562 169.112 181.184 170.26L179.378 176H178.062ZM179.882 172.864V171.842H184.614V172.864H179.882ZM190.195 176.196C188.599 176.196 187.871 175.16 187.871 173.214V168.398H189.145V173.06C189.145 174.474 189.579 175.076 190.587 175.076C191.357 175.076 191.917 174.698 192.631 173.802V168.398H193.905V176H192.855L192.743 174.81H192.715C192.001 175.636 191.245 176.196 190.195 176.196ZM199.147 176.196C197.523 176.196 196.991 175.174 196.991 173.662V169.434H195.857V168.482L197.047 168.398L197.187 166.256H198.265V168.398H200.323V169.434H198.265V173.69C198.265 174.614 198.559 175.16 199.441 175.16C199.707 175.16 200.057 175.048 200.295 174.95L200.547 175.902C200.127 176.056 199.623 176.196 199.147 176.196ZM202.324 176V164.87H203.598V167.908L203.556 169.476C204.256 168.79 205.026 168.216 206.076 168.216C207.672 168.216 208.4 169.252 208.4 171.184V176H207.112V171.352C207.112 169.924 206.678 169.322 205.67 169.322C204.9 169.322 204.354 169.728 203.598 170.484V176H202.324ZM213.712 176.196C211.71 176.196 210.506 174.334 210.506 170.988C210.506 167.642 211.71 165.85 213.712 165.85C215.686 165.85 216.89 167.642 216.89 170.988C216.89 174.334 215.686 176.196 213.712 176.196ZM213.712 175.16C214.874 175.16 215.658 173.914 215.658 170.988C215.658 168.048 214.874 166.872 213.712 166.872C212.536 166.872 211.738 168.048 211.738 170.988C211.738 173.914 212.536 175.16 213.712 175.16ZM231.356 169.574C231.356 173.298 230.544 175.216 227.352 176.658L226.414 175.762C228.962 174.796 230.222 173.592 230.222 169.658V166.256C230.222 165.71 230.18 165.248 230.152 165.122H231.426C231.412 165.262 231.356 165.71 231.356 166.256V169.574ZM226.302 165.206C226.288 165.332 226.246 165.738 226.246 166.214V171.352C226.246 171.87 226.288 172.486 226.302 172.612H225.056C225.07 172.486 225.126 171.884 225.126 171.352V166.214C225.126 165.92 225.098 165.528 225.056 165.206H226.302ZM222.214 167.922C222.34 167.936 223.026 168.02 223.614 168.02H232.882C233.512 168.02 233.974 167.964 234.17 167.936V169.126C234.016 169.112 233.512 169.084 232.896 169.084H223.614C222.998 169.084 222.368 169.126 222.214 169.126V167.922ZM236.97 169.938C237.404 169.98 238.132 170.022 238.93 170.022C239.952 170.022 245.566 170.022 246.602 170.022C247.302 170.022 247.792 169.966 248.114 169.938V171.31C247.82 171.296 247.232 171.254 246.616 171.254C245.552 171.254 239.966 171.254 238.93 171.254C238.16 171.254 237.418 171.282 236.97 171.31V169.938ZM260.41 165.094C260.76 165.598 261.264 166.452 261.558 167.012L260.788 167.348C260.522 166.788 260.046 165.948 259.668 165.416L260.41 165.094ZM261.95 164.534C262.314 165.052 262.86 165.92 263.112 166.438L262.37 166.774C262.062 166.172 261.6 165.374 261.208 164.856L261.95 164.534ZM252.738 171.8C253.354 170.344 253.928 168.216 254.124 166.606L255.37 166.858C255.272 167.166 255.174 167.586 255.104 167.88C254.922 168.748 254.432 170.82 253.844 172.262C253.326 173.536 252.556 174.978 251.772 176.112L250.582 175.608C251.464 174.432 252.262 172.962 252.738 171.8ZM259.64 171.268C259.08 169.826 258.212 167.88 257.61 166.83L258.744 166.452C259.29 167.474 260.186 169.406 260.788 170.876C261.348 172.262 262.09 174.404 262.468 175.678L261.222 176.07C260.872 174.656 260.214 172.752 259.64 171.268ZM265.394 169.938C265.828 169.98 266.556 170.022 267.354 170.022C268.376 170.022 273.99 170.022 275.026 170.022C275.726 170.022 276.216 169.966 276.538 169.938V171.31C276.244 171.296 275.656 171.254 275.04 171.254C273.976 171.254 268.39 171.254 267.354 171.254C266.584 171.254 265.842 171.282 265.394 171.31V169.938Z" fill="#FBFBFB"/>
<g filter="url(#filter2_b_5202_34522)">
<rect x="384" y="153" width="48" height="48" rx="24" fill="#191919" fill-opacity="0.3"/>
<rect x="384.339" y="153.339" width="47.3221" height="47.3221" rx="23.661" stroke="url(#paint2_linear_5202_34522)" stroke-width="0.677938"/>
<path d="M416.535 168.366L414.727 170.174M414.727 170.174L417.439 172.886L414.275 176.05L411.563 173.338M414.727 170.174L411.563 173.338M407.848 177.053C408.315 177.513 408.686 178.062 408.94 178.666C409.194 179.271 409.326 179.919 409.328 180.575C409.33 181.231 409.203 181.88 408.953 182.487C408.703 183.093 408.335 183.644 407.872 184.107C407.408 184.571 406.857 184.938 406.251 185.188C405.645 185.438 404.995 185.565 404.34 185.563C403.684 185.561 403.035 185.429 402.431 185.175C401.826 184.921 401.278 184.55 400.817 184.084C399.912 183.146 399.411 181.89 399.422 180.587C399.433 179.283 399.956 178.036 400.878 177.114C401.8 176.193 403.047 175.67 404.35 175.658C405.654 175.647 406.91 176.148 407.847 177.054L407.848 177.053ZM407.848 177.053L411.563 173.338" stroke="#FBFBFB" stroke-width="1.35588" stroke-linecap="round" stroke-linejoin="round"/>
</g>
<path d="M364.403 214.55C364.291 214.676 364.123 214.886 364.025 215.04C363.465 215.992 362.135 217.798 360.539 218.904L359.601 218.162C360.903 217.42 362.219 215.908 362.667 215.04C361.687 215.04 355.359 215.04 354.687 215.04C354.169 215.04 353.651 215.068 353.105 215.11V213.85C353.595 213.92 354.169 213.976 354.687 213.976C355.359 213.976 361.897 213.976 362.737 213.976C363.003 213.976 363.507 213.934 363.703 213.878L364.403 214.55ZM358.803 216.384C358.803 220.178 358.467 222.74 354.897 224.532L353.875 223.692C354.253 223.566 354.743 223.328 355.135 223.062C357.291 221.732 357.599 219.744 357.599 217.406C357.599 217.07 357.599 216.762 357.543 216.384H358.803ZM377.145 215.25C377.033 215.446 376.893 215.768 376.823 215.992C376.445 217.406 375.591 219.296 374.345 220.822C373.071 222.376 371.391 223.65 368.773 224.63L367.751 223.706C370.327 222.95 372.063 221.69 373.351 220.192C374.429 218.918 375.297 217.098 375.577 215.824H370.397L370.845 214.816C371.405 214.816 374.863 214.816 375.297 214.816C375.675 214.816 375.997 214.774 376.221 214.69L377.145 215.25ZM372.455 213.136C372.231 213.5 371.979 213.976 371.839 214.228C371.013 215.782 369.557 217.784 367.303 219.268L366.323 218.554C368.745 217.112 370.117 215.068 370.733 213.822C370.873 213.57 371.083 213.066 371.167 212.702L372.455 213.136ZM383.501 222.208C383.501 220.92 383.501 215.964 383.501 214.48C383.501 214.06 383.487 213.598 383.417 213.192H384.733C384.677 213.598 384.635 214.074 384.635 214.48C384.635 215.95 384.635 220.528 384.635 221.914C384.635 222.88 384.999 223.188 386.665 223.188C388.289 223.188 389.647 223.048 391.033 222.768L390.991 223.972C389.745 224.154 388.345 224.266 386.595 224.266C383.991 224.266 383.501 223.58 383.501 222.208ZM391.635 215.95C391.523 216.104 391.383 216.342 391.285 216.51C390.641 217.672 389.549 219.436 388.415 220.584L387.449 220.01C388.499 219.044 389.521 217.504 389.941 216.678C389.507 216.762 381.961 218.274 380.281 218.638L380.057 217.462C381.849 217.252 389.003 215.81 390.067 215.558C390.361 215.488 390.641 215.404 390.809 215.306L391.635 215.95ZM404.697 214.648C404.613 214.76 404.431 215.068 404.361 215.25C403.801 216.636 402.737 218.596 401.575 219.884C400.007 221.634 398.005 223.3 395.793 224.308L394.897 223.37C397.165 222.502 399.223 220.822 400.665 219.226C401.617 218.148 402.639 216.482 403.003 215.32C402.499 215.32 398.019 215.32 397.543 215.32C397.039 215.32 396.283 215.376 396.129 215.39V214.13C396.311 214.158 397.109 214.214 397.543 214.214C398.089 214.214 402.415 214.214 402.947 214.214C403.395 214.214 403.773 214.172 403.997 214.102L404.697 214.648ZM401.757 219.156C403.269 220.416 405.131 222.376 406.083 223.538L405.117 224.392C404.109 223.062 402.471 221.27 400.959 219.94L401.757 219.156ZM412.495 222.768C412.495 221.984 412.495 215.796 412.495 214.634C412.495 214.228 412.467 213.612 412.397 213.164H413.769C413.713 213.598 413.671 214.2 413.671 214.634C413.671 216.804 413.685 222.11 413.685 222.768C413.685 223.216 413.713 223.972 413.769 224.434H412.411C412.481 223.986 412.495 223.286 412.495 222.768ZM413.419 216.846C415.267 217.378 418.095 218.456 419.649 219.212L419.159 220.402C417.563 219.548 414.945 218.554 413.419 218.078V216.846ZM423.485 217.938C423.919 217.98 424.647 218.022 425.445 218.022C426.467 218.022 432.081 218.022 433.117 218.022C433.817 218.022 434.307 217.966 434.629 217.938V219.31C434.335 219.296 433.747 219.254 433.131 219.254C432.067 219.254 426.481 219.254 425.445 219.254C424.675 219.254 423.933 219.282 423.485 219.31V217.938ZM448.545 215.25C448.433 215.446 448.293 215.768 448.223 215.992C447.845 217.406 446.991 219.296 445.745 220.822C444.471 222.376 442.791 223.65 440.173 224.63L439.151 223.706C441.727 222.95 443.463 221.69 444.751 220.192C445.829 218.918 446.697 217.098 446.977 215.824H441.797L442.245 214.816C442.805 214.816 446.263 214.816 446.697 214.816C447.075 214.816 447.397 214.774 447.621 214.69L448.545 215.25ZM443.855 213.136C443.631 213.5 443.379 213.976 443.239 214.228C442.413 215.782 440.957 217.784 438.703 219.268L437.723 218.554C440.145 217.112 441.517 215.068 442.133 213.822C442.273 213.57 442.483 213.066 442.567 212.702L443.855 213.136ZM453.809 213.752C454.789 214.41 456.595 215.866 457.365 216.636L456.497 217.532C455.783 216.804 454.047 215.292 452.997 214.606L453.809 213.752ZM452.605 223.132C455.041 222.768 456.861 221.914 458.191 221.088C460.361 219.73 462.055 217.658 462.867 215.922L463.539 217.126C462.587 218.862 460.963 220.766 458.849 222.096C457.435 222.978 455.671 223.846 453.333 224.28L452.605 223.132Z" fill="#FBFBFB"/>
<g filter="url(#filter3_b_5202_34522)">
<rect x="384" y="24" width="48" height="48" rx="24" fill="#191919" fill-opacity="0.3"/>
<rect x="384.333" y="24.3333" width="47.3333" height="47.3333" rx="23.6667" stroke="url(#paint3_linear_5202_34522)" stroke-width="0.666667"/>
<path d="M415.113 56.0003V54.2225C415.113 53.2796 414.738 52.3752 414.071 51.7084C413.405 51.0416 412.5 50.667 411.557 50.667H404.446C403.503 50.667 402.599 51.0416 401.932 51.7084C401.265 52.3752 400.891 53.2796 400.891 54.2225V56.0003" stroke="#FBFBFB" stroke-width="1.33333" stroke-linecap="round" stroke-linejoin="round"/>
<path d="M408.009 47.1111C409.972 47.1111 411.564 45.5192 411.564 43.5556C411.564 41.5919 409.972 40 408.009 40C406.045 40 404.453 41.5919 404.453 43.5556C404.453 45.5192 406.045 47.1111 408.009 47.1111Z" stroke="#FBFBFB" stroke-width="1.33333" stroke-linecap="round" stroke-linejoin="round"/>
</g>
<path d="M373.83 95V84.738H375.132V95H373.83ZM378.211 95V84.738H380.773C383.937 84.738 385.617 86.572 385.617 89.834C385.617 93.096 383.937 95 380.843 95H378.211ZM379.513 93.936H380.675C383.083 93.936 384.287 92.438 384.287 89.834C384.287 87.23 383.083 85.802 380.675 85.802H379.513V93.936ZM391.434 93.768C391.434 92.984 391.434 86.796 391.434 85.634C391.434 85.228 391.406 84.612 391.336 84.164H392.708C392.652 84.598 392.61 85.2 392.61 85.634C392.61 87.804 392.624 93.11 392.624 93.768C392.624 94.216 392.652 94.972 392.708 95.434H391.35C391.42 94.986 391.434 94.286 391.434 93.768ZM392.358 87.846C394.206 88.378 397.034 89.456 398.588 90.212L398.098 91.402C396.502 90.548 393.884 89.554 392.358 89.078V87.846ZM402.424 88.938C402.858 88.98 403.586 89.022 404.384 89.022C405.406 89.022 411.02 89.022 412.056 89.022C412.756 89.022 413.246 88.966 413.568 88.938V90.31C413.274 90.296 412.686 90.254 412.07 90.254C411.006 90.254 405.42 90.254 404.384 90.254C403.614 90.254 402.872 90.282 402.424 90.31V88.938ZM427.484 86.25C427.372 86.446 427.232 86.768 427.162 86.992C426.784 88.406 425.93 90.296 424.684 91.822C423.41 93.376 421.73 94.65 419.112 95.63L418.09 94.706C420.666 93.95 422.402 92.69 423.69 91.192C424.768 89.918 425.636 88.098 425.916 86.824H420.736L421.184 85.816C421.744 85.816 425.202 85.816 425.636 85.816C426.014 85.816 426.336 85.774 426.56 85.69L427.484 86.25ZM422.794 84.136C422.57 84.5 422.318 84.976 422.178 85.228C421.352 86.782 419.896 88.784 417.642 90.268L416.662 89.554C419.084 88.112 420.456 86.068 421.072 84.822C421.212 84.57 421.422 84.066 421.506 83.702L422.794 84.136ZM432.748 84.752C433.728 85.41 435.534 86.866 436.304 87.636L435.436 88.532C434.722 87.804 432.986 86.292 431.936 85.606L432.748 84.752ZM431.544 94.132C433.98 93.768 435.8 92.914 437.13 92.088C439.3 90.73 440.994 88.658 441.806 86.922L442.478 88.126C441.526 89.862 439.902 91.766 437.788 93.096C436.374 93.978 434.61 94.846 432.272 95.28L431.544 94.132Z" fill="#FBFBFB"/>
<path d="M104.044 127.41C104.59 127.438 104.954 127.438 105.29 127.438C106.032 127.438 112.122 127.438 112.808 127.438C113.102 127.438 113.606 127.438 114.04 127.424C114.012 127.76 114.012 128.152 114.012 128.502C114.012 129.16 114.012 134.872 114.012 135.404C114.012 135.852 114.026 136.944 114.04 137.098H112.822C112.836 136.944 112.85 136.146 112.85 135.558C112.85 135.04 112.85 128.544 112.85 128.544H105.206C105.206 128.544 105.206 134.984 105.206 135.558C105.206 136.02 105.22 136.916 105.22 137.098H104.03C104.03 136.916 104.058 135.894 104.058 135.404C104.058 134.83 104.058 129.048 104.058 128.502C104.058 128.18 104.058 127.76 104.044 127.41ZM113.312 135.208V136.3H104.646V135.208H113.312ZM126.99 125.8C127.34 126.304 127.844 127.158 128.124 127.718L127.368 128.068C127.088 127.494 126.612 126.654 126.234 126.122L126.99 125.8ZM128.516 125.24C128.894 125.758 129.426 126.626 129.692 127.144L128.936 127.48C128.628 126.878 128.18 126.08 127.788 125.562L128.516 125.24ZM127.914 128.586C127.802 128.796 127.662 129.118 127.592 129.342C127.214 130.742 126.346 132.646 125.114 134.158C123.84 135.712 122.16 137 119.528 137.966L118.52 137.056C121.096 136.3 122.832 135.026 124.106 133.542C125.198 132.254 126.052 130.448 126.346 129.174H121.152L121.6 128.166C122.174 128.166 125.632 128.166 126.066 128.166C126.444 128.166 126.752 128.124 126.99 128.026L127.914 128.586ZM123.224 126.472C123 126.836 122.748 127.312 122.608 127.578C121.782 129.118 120.312 131.12 118.072 132.618L117.092 131.89C119.514 130.448 120.886 128.418 121.502 127.158C121.642 126.92 121.852 126.402 121.936 126.052L123.224 126.472ZM131.764 131.946C134.186 131.302 136.314 130.308 137.868 129.342C139.338 128.418 140.738 127.214 141.704 126.038L142.642 126.92C141.438 128.166 139.968 129.342 138.33 130.364C136.79 131.316 134.564 132.338 132.31 133.038L131.764 131.946ZM137.644 129.916L138.848 129.552V135.95C138.848 136.468 138.876 137.168 138.946 137.434H137.56C137.602 137.168 137.644 136.468 137.644 135.95V129.916ZM148.018 126.752C148.998 127.41 150.804 128.866 151.574 129.636L150.706 130.532C149.992 129.804 148.256 128.292 147.206 127.606L148.018 126.752ZM146.814 136.132C149.25 135.768 151.07 134.914 152.4 134.088C154.57 132.73 156.264 130.658 157.076 128.922L157.748 130.126C156.796 131.862 155.172 133.766 153.058 135.096C151.644 135.978 149.88 136.846 147.542 137.28L146.814 136.132Z" fill="#FBFBFB"/>
<path d="M183.442 131.942C183.686 131.698 183.686 131.302 183.442 131.058L179.464 127.081C179.22 126.837 178.825 126.837 178.581 127.081C178.337 127.325 178.337 127.72 178.581 127.964L182.116 131.5L178.581 135.036C178.337 135.28 178.337 135.675 178.581 135.919C178.825 136.163 179.22 136.163 179.464 135.919L183.442 131.942ZM167 132.125L183 132.125L183 130.875L167 130.875L167 132.125Z" fill="#FBFBFB"/>
<path d="M354.442 58.4419C354.686 58.1979 354.686 57.8021 354.442 57.5581L350.464 53.5806C350.22 53.3365 349.825 53.3365 349.581 53.5806C349.337 53.8247 349.337 54.2204 349.581 54.4645L353.116 58L349.581 61.5355C349.337 61.7796 349.337 62.1753 349.581 62.4194C349.825 62.6635 350.22 62.6635 350.464 62.4194L354.442 58.4419ZM273 132.625H306.167V131.375H273V132.625ZM314.792 124V66H313.542V124H314.792ZM322.167 58.625H354V57.375H322.167V58.625ZM314.792 66C314.792 61.9269 318.094 58.625 322.167 58.625V57.375C317.403 57.375 313.542 61.2365 313.542 66H314.792ZM306.167 132.625C310.93 132.625 314.792 128.763 314.792 124H313.542C313.542 128.073 310.24 131.375 306.167 131.375V132.625Z" fill="#FBFBFB"/>
<path d="M570.442 131.558C570.686 131.802 570.686 132.198 570.442 132.442L566.464 136.419C566.22 136.663 565.825 136.663 565.581 136.419C565.337 136.175 565.337 135.78 565.581 135.536L569.116 132L565.581 128.464C565.337 128.22 565.337 127.825 565.581 127.581C565.825 127.337 566.22 127.337 566.464 127.581L570.442 131.558ZM570 132.625H530.735V131.375H570V132.625ZM522.11 124V66H523.36V124H522.11ZM514.735 58.625H461V57.375H514.735V58.625ZM522.11 66C522.11 61.9269 518.808 58.625 514.735 58.625V57.375C519.498 57.375 523.36 61.2365 523.36 66H522.11ZM530.735 132.625C525.971 132.625 522.11 128.763 522.11 124H523.36C523.36 128.073 526.661 131.375 530.735 131.375V132.625Z" fill="#FBFBFB"/>
<path d="M354.442 204.558C354.686 204.802 354.686 205.198 354.442 205.442L350.464 209.419C350.22 209.663 349.825 209.663 349.581 209.419C349.337 209.175 349.337 208.78 349.581 208.536L353.116 205L349.581 201.464C349.337 201.22 349.337 200.825 349.581 200.581C349.825 200.337 350.22 200.337 350.464 200.581L354.442 204.558ZM273 131.375H306.167V132.625H273V131.375ZM314.792 140V197H313.542V140H314.792ZM322.167 204.375H354V205.625H322.167V204.375ZM314.792 197C314.792 201.073 318.094 204.375 322.167 204.375V205.625C317.403 205.625 313.542 201.763 313.542 197H314.792ZM306.167 131.375C310.93 131.375 314.792 135.237 314.792 140H313.542C313.542 135.927 310.24 132.625 306.167 132.625V131.375Z" fill="#FBFBFB"/>
<path d="M570 132H530.735C526.316 132 522.735 135.582 522.735 140V197C522.735 201.418 519.153 205 514.735 205H461" stroke="#FBFBFB" stroke-width="1.25"/>
<g filter="url(#filter4_b_5202_34522)">
<rect x="583" y="105" width="48" height="48" rx="24" fill="#191919" fill-opacity="0.3"/>
<rect x="583.335" y="105.335" width="47.3304" height="47.3304" rx="23.6652" stroke="url(#paint4_linear_5202_34522)" stroke-width="0.669636"/>
<path d="M613.363 121.07H600.864C599.878 121.07 599.078 121.87 599.078 122.856V135.355C599.078 136.341 599.878 137.141 600.864 137.141H613.363C614.349 137.141 615.149 136.341 615.149 135.355V122.856C615.149 121.87 614.349 121.07 613.363 121.07Z" stroke="#FBFBFB" stroke-width="1.33927" stroke-linecap="round" stroke-linejoin="round"/>
<path d="M599.078 126.428H615.149" stroke="#FBFBFB" stroke-width="1.33927" stroke-linecap="round" stroke-linejoin="round"/>
<path d="M604.422 137.141V126.428" stroke="#FBFBFB" stroke-width="1.33927" stroke-linecap="round" stroke-linejoin="round"/>
</g>
<path d="M563.191 166.55C563.079 166.676 562.911 166.886 562.813 167.04C562.253 167.992 560.923 169.798 559.327 170.904L558.389 170.162C559.691 169.42 561.007 167.908 561.455 167.04C560.475 167.04 554.147 167.04 553.475 167.04C552.957 167.04 552.439 167.068 551.893 167.11V165.85C552.383 165.92 552.957 165.976 553.475 165.976C554.147 165.976 560.685 165.976 561.525 165.976C561.791 165.976 562.295 165.934 562.491 165.878L563.191 166.55ZM557.591 168.384C557.591 172.178 557.255 174.74 553.685 176.532L552.663 175.692C553.041 175.566 553.531 175.328 553.923 175.062C556.079 173.732 556.387 171.744 556.387 169.406C556.387 169.07 556.387 168.762 556.331 168.384H557.591ZM575.707 165.948C575.707 166.466 576.113 166.872 576.631 166.872C577.135 166.872 577.555 166.466 577.555 165.948C577.555 165.444 577.135 165.024 576.631 165.024C576.113 165.024 575.707 165.444 575.707 165.948ZM575.063 165.948C575.063 165.08 575.763 164.38 576.631 164.38C577.499 164.38 578.199 165.08 578.199 165.948C578.199 166.816 577.499 167.516 576.631 167.516C575.763 167.516 575.063 166.816 575.063 165.948ZM576.281 166.886C576.183 167.082 576.127 167.32 576.071 167.586C575.763 169.056 575.091 171.324 573.971 172.752C572.697 174.404 571.031 175.692 568.469 176.504L567.517 175.454C570.233 174.768 571.801 173.578 572.977 172.08C573.971 170.82 574.615 168.86 574.811 167.516C573.999 167.516 568.455 167.516 567.643 167.516C567.083 167.516 566.607 167.544 566.257 167.572V166.326C566.635 166.368 567.195 166.424 567.657 166.424C568.455 166.424 574.041 166.424 574.671 166.424C574.895 166.424 575.161 166.41 575.427 166.34L576.281 166.886ZM589.567 165.388C589.539 165.724 589.525 166.13 589.525 166.606C589.525 167.152 589.525 168.342 589.525 168.86C589.525 172.234 589.077 173.34 588.055 174.53C587.159 175.622 585.759 176.238 584.737 176.588L583.813 175.622C585.101 175.286 586.291 174.74 587.159 173.746C588.153 172.598 588.335 171.45 588.335 168.818C588.335 168.272 588.335 167.096 588.335 166.606C588.335 166.13 588.293 165.724 588.251 165.388H589.567ZM583.071 165.5C583.043 165.766 583.029 166.172 583.029 166.494C583.029 166.914 583.029 170.582 583.029 171.17C583.029 171.534 583.043 171.996 583.071 172.248H581.797C581.825 172.024 581.853 171.576 581.853 171.17C581.853 170.568 581.853 166.914 581.853 166.494C581.853 166.256 581.839 165.766 581.797 165.5H583.071ZM598.765 165.178C598.639 165.5 598.513 165.878 598.401 166.172C598.191 166.802 597.869 167.656 597.477 168.426C596.931 169.518 595.895 170.932 595.027 171.674L593.921 171.002C594.929 170.288 595.923 168.846 596.413 167.992C596.791 167.292 597.043 166.578 597.197 166.032C597.309 165.682 597.379 165.29 597.407 164.926L598.765 165.178ZM597.001 167.586C597.883 167.586 603.791 167.586 604.491 167.586C604.827 167.586 605.387 167.572 605.793 167.502V168.706C605.359 168.678 604.813 168.678 604.491 168.678C603.777 168.678 597.883 168.678 596.861 168.678L597.001 167.586ZM602.139 168.174C602.013 172.486 600.417 174.964 597.911 176.546L596.721 175.748C597.127 175.594 597.547 175.342 597.855 175.09C599.297 174.012 600.879 172.052 600.963 168.174H602.139ZM608.691 169.938C609.125 169.98 609.853 170.022 610.651 170.022C611.673 170.022 617.287 170.022 618.323 170.022C619.023 170.022 619.513 169.966 619.835 169.938V171.31C619.541 171.296 618.953 171.254 618.337 171.254C617.273 171.254 611.687 171.254 610.651 171.254C609.881 171.254 609.139 171.282 608.691 171.31V169.938ZM625.483 165.248C626.309 165.71 627.919 166.788 628.535 167.236L627.877 168.188C627.205 167.67 625.679 166.662 624.867 166.2L625.483 165.248ZM623.383 175.258C624.923 174.992 626.659 174.432 628.087 173.634C630.411 172.304 632.259 170.47 633.379 168.496L634.065 169.658C632.847 171.534 630.915 173.34 628.675 174.656C627.261 175.482 625.329 176.126 624.041 176.392L623.383 175.258ZM623.383 168.398C624.209 168.846 625.847 169.854 626.449 170.288L625.805 171.268C625.119 170.764 623.607 169.798 622.753 169.35L623.383 168.398ZM638.671 168.328C638.937 168.356 639.735 168.37 640.113 168.37C640.897 168.37 644.383 168.37 645.517 168.37C645.839 168.37 646.189 168.356 646.385 168.356C646.371 168.51 646.371 168.804 646.371 169.07C646.371 169.56 646.371 174.852 646.371 176.042C646.371 176.266 646.385 176.588 646.385 176.798H645.279C645.293 176.63 645.293 176.294 645.293 176C645.293 174.53 645.293 169.798 645.293 169.378C644.831 169.378 640.883 169.378 640.113 169.378C639.735 169.378 638.937 169.406 638.671 169.406V168.328ZM638.979 171.646C639.259 171.674 639.763 171.702 640.239 171.702C640.953 171.702 645.433 171.702 645.839 171.702V172.71C645.433 172.71 640.953 172.71 640.239 172.71C639.763 172.71 639.259 172.71 638.979 172.738V171.646ZM638.517 175.132C638.741 175.16 639.175 175.188 639.665 175.188C640.463 175.188 645.237 175.188 645.853 175.188V176.224C645.153 176.224 640.463 176.224 639.665 176.224C639.231 176.224 638.741 176.252 638.517 176.252V175.132ZM653.021 165.752C654.001 166.41 655.807 167.866 656.577 168.636L655.709 169.532C654.995 168.804 653.259 167.292 652.209 166.606L653.021 165.752ZM651.817 175.132C654.253 174.768 656.073 173.914 657.403 173.088C659.573 171.73 661.267 169.658 662.079 167.922L662.751 169.126C661.799 170.862 660.175 172.766 658.061 174.096C656.647 174.978 654.883 175.846 652.545 176.28L651.817 175.132Z" fill="#FBFBFB"/>
<defs>
<filter id="filter0_b_5202_34522" x="22.0219" y="94.0219" width="69.9563" height="69.9563" filterUnits="userSpaceOnUse" color-interpolation-filters="sRGB">
<feFlood flood-opacity="0" result="BackgroundImageFix"/>
<feGaussianBlur in="BackgroundImageFix" stdDeviation="5.48907"/>
<feComposite in2="SourceAlpha" operator="in" result="effect1_backgroundBlur_5202_34522"/>
<feBlend mode="normal" in="SourceGraphic" in2="effect1_backgroundBlur_5202_34522" result="shape"/>
</filter>
<filter id="filter1_b_5202_34522" x="193.286" y="94.2859" width="69.4282" height="69.4282" filterUnits="userSpaceOnUse" color-interpolation-filters="sRGB">
<feFlood flood-opacity="0" result="BackgroundImageFix"/>
<feGaussianBlur in="BackgroundImageFix" stdDeviation="5.35704"/>
<feComposite in2="SourceAlpha" operator="in" result="effect1_backgroundBlur_5202_34522"/>
<feBlend mode="normal" in="SourceGraphic" in2="effect1_backgroundBlur_5202_34522" result="shape"/>
</filter>
<filter id="filter2_b_5202_34522" x="373.153" y="142.153" width="69.694" height="69.694" filterUnits="userSpaceOnUse" color-interpolation-filters="sRGB">
<feFlood flood-opacity="0" result="BackgroundImageFix"/>
<feGaussianBlur in="BackgroundImageFix" stdDeviation="5.4235"/>
<feComposite in2="SourceAlpha" operator="in" result="effect1_backgroundBlur_5202_34522"/>
<feBlend mode="normal" in="SourceGraphic" in2="effect1_backgroundBlur_5202_34522" result="shape"/>
</filter>
<filter id="filter3_b_5202_34522" x="373.333" y="13.3333" width="69.3333" height="69.3333" filterUnits="userSpaceOnUse" color-interpolation-filters="sRGB">
<feFlood flood-opacity="0" result="BackgroundImageFix"/>
<feGaussianBlur in="BackgroundImageFix" stdDeviation="5.33333"/>
<feComposite in2="SourceAlpha" operator="in" result="effect1_backgroundBlur_5202_34522"/>
<feBlend mode="normal" in="SourceGraphic" in2="effect1_backgroundBlur_5202_34522" result="shape"/>
</filter>
<filter id="filter4_b_5202_34522" x="572.286" y="94.2858" width="69.4284" height="69.4284" filterUnits="userSpaceOnUse" color-interpolation-filters="sRGB">
<feFlood flood-opacity="0" result="BackgroundImageFix"/>
<feGaussianBlur in="BackgroundImageFix" stdDeviation="5.35709"/>
<feComposite in2="SourceAlpha" operator="in" result="effect1_backgroundBlur_5202_34522"/>
<feBlend mode="normal" in="SourceGraphic" in2="effect1_backgroundBlur_5202_34522" result="shape"/>
</filter>
<linearGradient id="paint0_linear_5202_34522" x1="-11.7188" y1="207.96" x2="104.661" y2="94.1357" gradientUnits="userSpaceOnUse">
<stop offset="0.0596952" stop-color="#191919"/>
<stop offset="0.290711" stop-color="#4016A0"/>
<stop offset="0.504779" stop-color="#3F59E4"/>
<stop offset="0.705284" stop-color="#4CB7A3"/>
<stop offset="0.937599" stop-color="#F6F1E7"/>
</linearGradient>
<linearGradient id="paint1_linear_5202_34522" x1="159.281" y1="207.96" x2="275.661" y2="94.1357" gradientUnits="userSpaceOnUse">
<stop offset="0.0596952" stop-color="#191919"/>
<stop offset="0.290711" stop-color="#4016A0"/>
<stop offset="0.504779" stop-color="#3F59E4"/>
<stop offset="0.705284" stop-color="#4CB7A3"/>
<stop offset="0.937599" stop-color="#F6F1E7"/>
</linearGradient>
<linearGradient id="paint2_linear_5202_34522" x1="339.281" y1="255.96" x2="455.661" y2="142.136" gradientUnits="userSpaceOnUse">
<stop offset="0.0596952" stop-color="#191919"/>
<stop offset="0.290711" stop-color="#4016A0"/>
<stop offset="0.504779" stop-color="#3F59E4"/>
<stop offset="0.705284" stop-color="#4CB7A3"/>
<stop offset="0.937599" stop-color="#F6F1E7"/>
</linearGradient>
<linearGradient id="paint3_linear_5202_34522" x1="339.281" y1="126.96" x2="455.661" y2="13.1357" gradientUnits="userSpaceOnUse">
<stop offset="0.0596952" stop-color="#191919"/>
<stop offset="0.290711" stop-color="#4016A0"/>
<stop offset="0.504779" stop-color="#3F59E4"/>
<stop offset="0.705284" stop-color="#4CB7A3"/>
<stop offset="0.937599" stop-color="#F6F1E7"/>
</linearGradient>
<linearGradient id="paint4_linear_5202_34522" x1="538.281" y1="207.96" x2="654.661" y2="94.1357" gradientUnits="userSpaceOnUse">
<stop offset="0.0596952" stop-color="#191919"/>
<stop offset="0.290711" stop-color="#4016A0"/>
<stop offset="0.504779" stop-color="#3F59E4"/>
<stop offset="0.705284" stop-color="#4CB7A3"/>
<stop offset="0.937599" stop-color="#F6F1E7"/>
</linearGradient>
</defs>
</svg>
