<?xml version="1.0" encoding="UTF-8" standalone="no"?>
<svg width="135px" height="20px" viewBox="0 0 135 20" version="1.1" xmlns="http://www.w3.org/2000/svg" xmlns:xlink="http://www.w3.org/1999/xlink">
    <!-- Generator: Sketch 3.8.3 (29802) - http://www.bohemiancoding.com/sketch -->
    <title>Group 3</title>
    <desc>Created with Sketch.</desc>
    <defs></defs>
    <g id="Page-1" stroke="none" stroke-width="1" fill="none" fill-rule="evenodd">
        <g id="Group-3" fill="#000000">
            <g id="Group">
                <g id="Page-1">
                    <g id="Artboard-8">
                        <g id="View-on-JWT.IO">
                            <g id="Group-Copy-5" transform="translate(0.419260, 0.479309)">
                                <g id="Group-Copy-4">
                                    <polygon id="Shape" points="10.8773693 5.08758538 10.8773693 -1.77635684e-15 8.04472108 -1.77635684e-15 8.04472108 5.08758538 9.44216089 7.00956207"></polygon>
                                    <polygon id="Shape" points="8.04472108 13.7553234 8.04472108 18.8429088 10.8773693 18.8429088 10.8773693 13.7553234 9.44216089 11.8333467"></polygon>
                                    <polygon id="Shape" points="10.8773693 13.7553234 13.8610922 17.8630775 16.1272108 16.2049016 13.143488 12.0971474 10.8773693 11.3811169"></polygon>
                                    <polygon id="Shape" points="8.04472108 5.08758538 5.02322959 0.979831258 2.75711098 2.63800723 5.74083382 6.74576135 8.04472108 7.46179188"></polygon>
                                    <polygon id="Shape" points="5.74083382 6.74576135 0.906447446 5.16295701 0.0377686436 7.83865006 4.87215502 9.4214544 7.13827363 8.66773805"></polygon>
                                    <polygon id="Shape" points="11.7460482 10.1751708 13.143488 12.0971474 17.9778743 13.6799518 18.8465531 11.0042587 14.0121668 9.4214544"></polygon>
                                    <polygon id="Shape" points="14.0121668 9.4214544 18.8465531 7.83865006 17.9778743 5.16295701 13.143488 6.74576135 11.7460482 8.66773805"></polygon>
                                    <polygon id="Shape" points="4.87215502 9.4214544 0.0377686436 11.0042587 0.906447446 13.6799518 5.74083382 12.0971474 7.13827363 10.1751708"></polygon>
                                    <polygon id="Shape" points="5.74083382 12.0971474 2.75711098 16.2049016 5.02322959 17.8630775 8.04472108 13.7553234 8.04472108 11.3811169"></polygon>
                                    <polygon id="Shape" points="13.143488 6.74576135 16.1272108 2.63800723 13.8610922 0.979831258 10.8773693 5.08758538 10.8773693 7.46179188"></polygon>
                                </g>
                            </g>
                        </g>
                    </g>
                </g>
                <path d="M30.4154762,4.26666667 L30.4154762,12.4095238 C30.4154762,14.2009524 28.9497619,15.6666667 27.1583333,15.6666667 L27.1583333,14.0380952 C28.0656803,14.0380952 28.7869048,13.3168707 28.7869048,12.4095238 L28.7869048,4.26666667 L30.4154762,4.26666667 L30.4154762,4.26666667 L30.4154762,4.26666667 Z M60.1485374,5.8952381 L63.8244558,5.8952381 L63.8244558,4.26666667 L54.8673129,4.26666667 L54.8673129,5.8952381 L58.519966,5.8952381 L58.519966,15.6666667 L60.1485374,15.6666667 L60.1485374,5.8952381 L60.1485374,5.8952381 L60.1485374,5.8952381 Z M49.9583333,4.26666667 L49.9583333,12.4095238 C49.9583333,13.3168707 49.2371088,14.0380952 48.3297619,14.0380952 C47.422415,14.0380952 46.7011905,13.3168707 46.7011905,12.4095238 L46.7011905,7.52380952 C46.7011905,5.73238095 45.2354762,4.26666667 43.4440476,4.26666667 C41.652619,4.26666667 40.1869048,5.73238095 40.1869048,7.52380952 L40.1869048,12.4095238 C40.1869048,13.3168707 39.4656803,14.0380952 38.5583333,14.0380952 C37.6509864,14.0380952 36.9297619,13.3168707 36.9297619,12.4095238 L36.9297619,4.26666667 L35.3011905,4.26666667 L35.3011905,12.4095238 C35.3011905,14.2009524 36.7669048,15.6666667 38.5583333,15.6666667 C40.3497619,15.6666667 41.8154762,14.2009524 41.8154762,12.4095238 L41.8154762,7.52380952 C41.8154762,6.61646259 42.5367007,5.8952381 43.4440476,5.8952381 C44.3513946,5.8952381 45.072619,6.61646259 45.072619,7.52380952 L45.072619,7.52380952 L45.072619,12.4095238 C45.072619,14.2009524 46.5383333,15.6666667 48.3297619,15.6666667 C50.1211905,15.6666667 51.5869048,14.2009524 51.5869048,12.4095238 L51.5869048,4.26666667 L49.9583333,4.26666667 L49.9583333,4.26666667 L49.9583333,4.26666667 Z" id="Shape"></path>
            </g>
            <path d="M77.5048364,16 L77.5048364,5.17 L75.7048364,5.455 L75.7048364,8.95 C75.2698364,8.8 74.7148364,8.68 74.0248364,8.68 C72.3448364,8.68 70.8598364,9.88 70.8598364,12.58 C70.8598364,15.025 72.0748364,16.15 73.5898364,16.15 C74.5948364,16.15 75.2998364,15.61 75.8098364,14.995 L75.9598364,16 L77.5048364,16 Z M75.7048364,13.555 C75.2248364,14.155 74.7148364,14.545 74.0548364,14.545 C73.2598364,14.545 72.6598364,13.885 72.6598364,12.475 C72.6598364,10.885 73.3498364,10.12 74.2948364,10.12 C74.9098364,10.12 75.2548364,10.225 75.7048364,10.435 L75.7048364,13.555 Z M86.0916546,12.295 C86.0916546,10.24 85.1166546,8.605 82.9416546,8.605 C81.0516546,8.605 79.6416546,10.03 79.6416546,12.385 C79.6416546,14.995 81.1566546,16.15 83.1816546,16.15 C84.3516546,16.15 85.2966546,15.805 86.0766546,15.265 L85.8666546,13.855 C85.0716546,14.41 84.3066546,14.755 83.3766546,14.755 C82.2666546,14.755 81.5166546,14.14 81.4266546,12.73 L86.0766546,12.73 C86.0766546,12.625 86.0916546,12.445 86.0916546,12.295 L86.0916546,12.295 Z M84.3366546,11.605 L81.4566546,11.605 C81.5916546,10.42 82.1766546,9.85 82.8966546,9.85 C83.7666546,9.85 84.2166546,10.48 84.3366546,11.605 L84.3366546,11.605 Z M94.8134729,12.175 C94.8134729,9.745 93.6134729,8.605 92.0834729,8.605 C91.1684729,8.605 90.4934729,9.085 90.0284729,9.565 L90.0284729,5.17 L88.2284729,5.455 L88.2284729,15.61 C89.1284729,15.91 90.0734729,16.09 91.1984729,16.09 C93.3584729,16.09 94.8134729,14.845 94.8134729,12.175 L94.8134729,12.175 Z M92.9984729,12.28 C92.9984729,13.93 92.3084729,14.62 91.1684729,14.62 C90.6584729,14.62 90.4034729,14.56 90.0284729,14.425 L90.0284729,11.14 C90.4784729,10.6 91.0184729,10.195 91.6184729,10.195 C92.4284729,10.195 92.9984729,10.885 92.9984729,12.28 L92.9984729,12.28 Z M103.115291,16 L103.115291,8.755 L101.315291,8.755 L101.315291,13.645 C100.790291,14.185 100.220291,14.545 99.6502911,14.545 C99.0052911,14.545 98.7352911,14.125 98.7352911,13.495 L98.7352911,8.755 L96.9352911,8.755 L96.9352911,13.96 C96.9352911,15.325 97.6402911,16.15 99.0052911,16.15 C99.9652911,16.15 100.745291,15.625 101.420291,14.98 L101.585291,16 L103.115291,16 Z M107.187109,15.64 C107.547109,15.715 107.772109,15.76 108.267109,15.82 L109.242109,15.94 C110.142109,16.075 110.457109,16.3 110.457109,16.69 C110.457109,17.23 109.722109,17.665 108.432109,17.665 C107.067109,17.665 106.422109,17.275 106.422109,16.735 C106.422109,16.36 106.662109,16.015 107.187109,15.64 L107.187109,15.64 Z M109.557109,11.125 C109.557109,11.905 109.077109,12.49 108.282109,12.49 C107.502109,12.49 107.022109,11.92 107.022109,11.17 C107.022109,10.375 107.487109,9.76 108.282109,9.76 C109.047109,9.76 109.557109,10.345 109.557109,11.125 L109.557109,11.125 Z M110.322109,9.28 C109.797109,8.845 109.092109,8.605 108.267109,8.605 C106.647109,8.605 105.357109,9.595 105.357109,11.17 C105.357109,12.13 105.867109,12.88 106.722109,13.285 C106.122109,13.645 105.807109,14.035 105.807109,14.44 C105.807109,14.725 105.942109,14.995 106.227109,15.22 C105.327109,15.73 104.862109,16.255 104.862109,16.93 C104.862109,18.13 106.347109,18.73 108.312109,18.73 C110.412109,18.73 112.122109,17.86 112.122109,16.3 C112.122109,15.19 111.192109,14.725 109.707109,14.515 L108.777109,14.425 C107.652109,14.26 107.427109,14.2 107.427109,13.96 C107.427109,13.84 107.547109,13.705 107.727109,13.57 C107.907109,13.6 108.102109,13.615 108.312109,13.615 C109.872109,13.615 111.207109,12.685 111.207109,11.125 C111.207109,10.795 111.147109,10.465 111.012109,10.18 L112.332109,10.09 L112.092109,8.65 L110.322109,9.28 Z M115.653928,15.64 C116.013928,15.715 116.238928,15.76 116.733928,15.82 L117.708928,15.94 C118.608928,16.075 118.923928,16.3 118.923928,16.69 C118.923928,17.23 118.188928,17.665 116.898928,17.665 C115.533928,17.665 114.888928,17.275 114.888928,16.735 C114.888928,16.36 115.128928,16.015 115.653928,15.64 L115.653928,15.64 Z M118.023928,11.125 C118.023928,11.905 117.543928,12.49 116.748928,12.49 C115.968928,12.49 115.488928,11.92 115.488928,11.17 C115.488928,10.375 115.953928,9.76 116.748928,9.76 C117.513928,9.76 118.023928,10.345 118.023928,11.125 L118.023928,11.125 Z M118.788928,9.28 C118.263928,8.845 117.558928,8.605 116.733928,8.605 C115.113928,8.605 113.823928,9.595 113.823928,11.17 C113.823928,12.13 114.333928,12.88 115.188928,13.285 C114.588928,13.645 114.273928,14.035 114.273928,14.44 C114.273928,14.725 114.408928,14.995 114.693928,15.22 C113.793928,15.73 113.328928,16.255 113.328928,16.93 C113.328928,18.13 114.813928,18.73 116.778928,18.73 C118.878928,18.73 120.588928,17.86 120.588928,16.3 C120.588928,15.19 119.658928,14.725 118.173928,14.515 L117.243928,14.425 C116.118928,14.26 115.893928,14.2 115.893928,13.96 C115.893928,13.84 116.013928,13.705 116.193928,13.57 C116.373928,13.6 116.568928,13.615 116.778928,13.615 C118.338928,13.615 119.673928,12.685 119.673928,11.125 C119.673928,10.795 119.613928,10.465 119.478928,10.18 L120.798928,10.09 L120.558928,8.65 L118.788928,9.28 Z M128.485746,12.295 C128.485746,10.24 127.510746,8.605 125.335746,8.605 C123.445746,8.605 122.035746,10.03 122.035746,12.385 C122.035746,14.995 123.550746,16.15 125.575746,16.15 C126.745746,16.15 127.690746,15.805 128.470746,15.265 L128.260746,13.855 C127.465746,14.41 126.700746,14.755 125.770746,14.755 C124.660746,14.755 123.910746,14.14 123.820746,12.73 L128.470746,12.73 C128.470746,12.625 128.485746,12.445 128.485746,12.295 L128.485746,12.295 Z M126.730746,11.605 L123.850746,11.605 C123.985746,10.42 124.570746,9.85 125.290746,9.85 C126.160746,9.85 126.610746,10.48 126.730746,11.605 L126.730746,11.605 Z M134.987564,10.39 L134.702564,8.605 C133.577564,8.665 132.857564,9.37 132.377564,10.21 L132.152564,8.755 L130.622564,8.755 L130.622564,16 L132.422564,16 L132.422564,11.845 C132.932564,11.065 133.862564,10.465 134.987564,10.39 L134.987564,10.39 Z" id="debugger" opacity="0.227553638"></path>
        </g>
    </g>
</svg>