<?xml version="1.0" encoding="UTF-8" standalone="no"?>
<svg width="90px" height="90px" viewBox="0 0 90 90" version="1.1" xmlns="http://www.w3.org/2000/svg" xmlns:xlink="http://www.w3.org/1999/xlink" xmlns:sketch="http://www.bohemiancoding.com/sketch/ns">
    <!-- Generator: Sketch 3.3 (11970) - http://www.bohemiancoding.com/sketch -->
    <title>Oval 1 + rust</title>
    <desc>Created with Sketch.</desc>
    <defs></defs>
    <g id="Page-1" stroke="none" stroke-width="1" fill="none" fill-rule="evenodd" sketch:type="MSPage">
        <g id="Desktop" sketch:type="MSArtboardGroup" transform="translate(-271.000000, -3633.000000)">
            <g id="Rectangle-154-+-Group" sketch:type="MSLayerGroup" transform="translate(0.000000, 600.000000)">
                <g id="Group" transform="translate(0.000000, 58.000000)" sketch:type="MSShapeGroup">
                    <g id="Oval-1-+-rust" transform="translate(271.000000, 2975.000000)">
                        <circle id="Oval-1" fill="#FFFFFF" cx="45" cy="45" r="45"></circle>
                        <g id="rust" transform="translate(20.000000, 20.000000)" fill="#814626">
                            <path d="M49.3476415,24.3943392 L47.275,23.1113203 C47.2575472,22.9094335 47.2377358,22.7080184 47.2160377,22.5075467 L48.9971698,20.8462259 C49.1783019,20.677358 49.259434,20.427358 49.2103774,20.1853769 C49.1627358,19.9424524 48.9924528,19.7424524 48.7608491,19.6561316 L46.4839623,18.8047165 C46.4268868,18.6075467 46.3669811,18.411792 46.3056604,18.2169807 L47.7259434,16.2443392 C47.8707547,16.0438675 47.9004717,15.7830184 47.8061321,15.5542448 C47.7117925,15.3264146 47.5056604,15.1632071 47.2617925,15.1231127 L44.8608491,14.7325467 C44.7674528,14.5504712 44.670283,14.3712259 44.5721698,14.1933958 L45.5811321,11.9787731 C45.684434,11.7533014 45.6632075,11.4910373 45.5254717,11.2863203 C45.3882075,11.0806599 45.1556604,10.9603769 44.9075472,10.9698108 L42.4707547,11.0547165 C42.3448113,10.8971693 42.2165094,10.7410373 42.0858491,10.5877354 L42.6457547,8.21415047 C42.7023585,7.97311274 42.6311321,7.72075425 42.4556604,7.54575425 C42.2816038,7.37122594 42.0287736,7.29905613 41.7877358,7.35565991 L39.4146226,7.91509387 C39.2608491,7.78490519 39.104717,7.6561316 38.9466981,7.53018821 L39.0320755,5.09339575 C39.0415094,4.84669764 38.9212264,4.61226368 38.715566,4.47547123 C38.509434,4.33773538 38.2485849,4.31698066 38.0235844,4.41933915 L35.8094335,5.42877311 C35.6306599,5.33065991 35.4514146,5.23349009 35.2702825,5.13962217 L34.8787731,2.73820708 C34.8391505,2.49481085 34.6759429,2.28820708 34.447641,2.19386745 C34.2198108,2.09905613 33.9584901,2.12971651 33.7580184,2.27405613 L31.7839618,3.69433915 C31.5896222,3.6325467 31.3943392,3.57311274 31.1971693,3.51650896 L30.3457542,1.23915047 C30.2594335,1.007075 30.0594335,0.836791981 29.816509,0.788678774 C29.5740561,0.741037264 29.3245278,0.821697642 29.1561316,1.00188632 L27.4948108,2.78443349 C27.2943392,2.76226368 27.0924524,2.74198066 26.8910373,2.72547123 L25.6080184,0.652358019 C25.4783014,0.442452358 25.2485844,0.31462217 25.0014146,0.31462217 C24.7542448,0.31462217 24.5245278,0.442452358 24.3952825,0.652358019 L23.1122637,2.72547123 C22.9103769,2.74198066 22.7084901,2.76226368 22.5080184,2.78443349 L20.8462259,1.00188632 C20.6778297,0.821697642 20.4278297,0.741037264 20.1858486,0.788678774 C19.9429241,0.837263679 19.7429241,1.007075 19.6566033,1.23915047 L18.8051882,3.51650896 C18.6080184,3.57311274 18.4127354,3.6330184 18.2179241,3.69433915 L16.2443392,2.27405613 C16.0438675,2.12924481 15.7825467,2.09858443 15.5542448,2.19386745 C15.3264146,2.28820708 15.1627354,2.49481085 15.1231127,2.73820708 L14.7316033,5.13962217 C14.5504712,5.23349009 14.3712259,5.33018821 14.1924524,5.42877311 L11.9783014,4.41933915 C11.7533014,4.31650896 11.4910373,4.33773538 11.2863203,4.47547123 C11.0806599,4.61226368 10.9603769,4.84669764 10.9698108,5.09339575 L11.0547165,7.53018821 C10.8971693,7.6561316 10.7410373,7.78490519 10.586792,7.91509387 L8.21367877,7.35565991 C7.97264104,7.29952783 7.71981085,7.37122594 7.54528255,7.54575425 C7.36981085,7.72075425 7.29858443,7.97311274 7.35518821,8.21415047 L7.91415047,10.5877354 C7.78443349,10.741509 7.6561316,10.8971693 7.53018821,11.0547165 L5.09339575,10.9698108 C4.84764104,10.9627354 4.61273538,11.0806599 4.47547123,11.2863203 C4.33773538,11.4910373 4.31698066,11.7533014 4.41933915,11.9787731 L5.42877311,14.1933958 C5.33065991,14.3712259 5.23349009,14.5504712 5.13962217,14.7325467 L2.73867877,15.1231127 C2.49481085,15.1627354 2.28915047,15.3259429 2.19433915,15.5542448 C2.09999953,15.7830184 2.13065991,16.0438675 2.27452783,16.2443392 L3.69481085,18.2169807 C3.6330184,18.411792 3.57311274,18.6075467 3.51650896,18.8047165 L1.23915047,19.6561316 C1.0080184,19.7424524 0.837735377,19.9424524 0.78962217,20.1853769 C0.741508962,20.4278297 0.82216934,20.677358 1.00282972,20.8462259 L2.78443349,22.5075467 C2.76226368,22.7080184 2.74245236,22.9099052 2.72547123,23.1113203 L0.652829717,24.3943392 C0.442924057,24.5240561 0.315093868,24.7533014 0.315093868,25.0009429 C0.315093868,25.2485844 0.442924057,25.4778297 0.652829717,25.607075 L2.72547123,26.8900939 C2.74245236,27.0919807 2.76226368,27.2933958 2.78443349,27.4938675 L1.00282972,29.1556599 C0.82216934,29.3240561 0.741508962,29.5740561 0.78962217,29.8160373 C0.837735377,30.0589618 1.0080184,30.2584901 1.23915047,30.3452825 L3.51650896,31.1966976 C3.57311274,31.3938675 3.6330184,31.5896222 3.69481085,31.7844335 L2.27452783,33.7575467 C2.13018821,33.9584901 2.09952783,34.2193392 2.19433915,34.4471693 C2.28915047,34.6759429 2.49528255,34.8391505 2.73915047,34.8783014 L5.13962217,35.2688675 C5.23349009,35.4509429 5.32971651,35.6301882 5.42877311,35.8089618 L4.41933915,38.022641 C4.31650896,38.2476415 4.33773538,38.509434 4.47547123,38.7150943 C4.61320708,38.9212264 4.84764104,39.0415094 5.09339575,39.0316038 L7.52924481,38.9462264 C7.6561316,39.104717 7.78396179,39.2599057 7.91415047,39.4141509 L7.35518821,41.7882075 C7.29858443,42.0287736 7.36981085,42.2801887 7.54528255,42.4551887 C7.71933915,42.6311321 7.97264104,42.7014151 8.21367877,42.6448113 L10.586792,42.0858491 C10.7410373,42.2169811 10.8971693,42.3443396 11.0547165,42.4698113 L10.9698108,44.9070755 C10.9603769,45.1537736 11.0806599,45.3877358 11.2863203,45.5254717 C11.4910373,45.6627358 11.7533014,45.6834906 11.9783014,45.5806604 L14.1924524,44.5716981 C14.3707542,44.6707547 14.5499995,44.7669811 14.7316033,44.8608491 L15.1231127,47.2608491 C15.1627354,47.5051887 15.3259429,47.7117925 15.5542448,47.8056604 C15.782075,47.9004717 16.0438675,47.8698113 16.2443392,47.7259434 L18.2169807,46.304717 C18.411792,46.3665094 18.6075467,46.4268868 18.8047165,46.4834906 L19.6561316,48.7599057 C19.7424524,48.9910377 19.9424524,49.1622642 20.1853769,49.209434 C20.4278297,49.2584906 20.677358,49.1773585 20.8457542,48.9962264 L22.5075467,47.2146226 C22.7080184,47.2377358 22.9099052,47.2570755 23.111792,47.275 L24.3948108,49.3476415 C24.5240561,49.5566038 24.7537731,49.6853774 25.0009429,49.6853774 C25.2481127,49.6853774 25.4778297,49.5570755 25.6075467,49.3476415 L26.8905656,47.275 C27.0924524,47.2570755 27.2938675,47.2377358 27.4943392,47.2146226 L29.1556599,48.9962264 C29.3240561,49.1773585 29.5740561,49.2584906 29.8160373,49.209434 C30.0589618,49.1617925 30.2589618,48.9910377 30.3452825,48.7599057 L31.1966976,46.4834906 C31.3938675,46.4268868 31.5896222,46.3665094 31.7844335,46.304717 L33.7575467,47.7259434 C33.9580184,47.8698113 34.2193392,47.9004717 34.4471693,47.8056604 C34.6754712,47.7117925 34.8386788,47.504717 34.8783014,47.2608491 L35.2698108,44.8608491 C35.4509429,44.7669811 35.6301882,44.6693396 35.8089618,44.5716981 L38.0231127,45.5806604 C38.2481132,45.6834906 38.5099057,45.6627358 38.7150943,45.5254717 C38.9207547,45.3877358 39.040566,45.1542453 39.0316038,44.9070755 L38.9466981,42.4698113 C39.1042453,42.3438679 39.2603774,42.2169811 39.4141509,42.0858491 L41.7872642,42.6448113 C42.0283019,42.7014151 42.2811321,42.6311321 42.4551887,42.4551887 C42.6306604,42.2801887 42.7018868,42.0287736 42.645283,41.7882075 L42.0863208,39.4141509 C42.2165094,39.2599057 42.3448113,39.104717 42.470283,38.9462264 L44.9070755,39.0316038 C45.1528302,39.0415094 45.3877358,38.9212264 45.525,38.7150943 C45.6627358,38.509434 45.6839623,38.2476415 45.5806604,38.022641 L44.5716981,35.8089618 C44.670283,35.6301882 44.7669811,35.4509429 44.8603774,35.2688675 L47.2613208,34.8783014 C47.5056604,34.8391505 47.7113208,34.6759429 47.8056604,34.4471693 C47.9,34.2193392 47.870283,33.9584901 47.7254717,33.7575467 L46.3051887,31.7844335 C46.3665094,31.5896222 46.4264151,31.3938675 46.4834906,31.1966976 L48.7603774,30.3452825 C48.9919811,30.2584901 49.1627358,30.0589618 49.2099057,29.8160373 C49.2589623,29.5735844 49.1778302,29.3240561 48.9966981,29.1556599 L47.215566,27.4938675 C47.2372642,27.2933958 47.2570755,27.091509 47.2745283,26.8900939 L49.3471698,25.607075 C49.5570755,25.4778297 49.6849057,25.2481127 49.6849057,25.0009429 C49.6849057,24.7537731 49.5575472,24.5240561 49.3476415,24.3943392 L49.3476415,24.3943392 Z M35.4754712,41.5882075 C34.6839618,41.4174528 34.1806599,40.6372642 34.3504712,39.8433962 C34.5198108,39.0504717 35.2995278,38.5457547 36.0905656,38.7165094 C36.882075,38.8858491 37.3863203,39.6674528 37.216509,40.4599057 C37.0466976,41.2523585 36.266509,41.7575472 35.4754712,41.5882075 L35.4754712,41.5882075 Z M34.7712259,36.8249995 C34.0490561,36.6702825 33.3386788,37.1297165 33.1839618,37.8533014 L32.4481127,41.2872642 C30.177358,42.3179245 27.6556599,42.890566 24.9999995,42.890566 C22.2834901,42.890566 19.707075,42.2896226 17.3957542,41.2150943 L16.6603769,37.7811316 C16.5056599,37.0584901 15.7952825,36.5981127 15.0735844,36.7533014 L12.0419807,37.4042448 C11.4792448,36.8249995 10.9556599,36.2080184 10.4745278,35.5566033 L25.2254712,35.5566033 C25.3924524,35.5566033 25.5037731,35.5264146 25.5037731,35.3745278 L25.5037731,30.1566033 C25.5037731,30.0047165 25.3924524,29.9745278 25.2254712,29.9745278 L20.9113203,29.9745278 L20.9113203,26.6669807 L25.577358,26.6669807 C26.0033014,26.6669807 27.8547165,26.7886788 28.4466976,29.1551882 C28.632075,29.8830184 29.0391505,32.2504712 29.3174524,33.0084901 C29.5948108,33.8584901 30.7240561,35.5566033 31.927358,35.5566033 L39.2778302,35.5566033 C39.3613208,35.5566033 39.4504717,35.5471693 39.5443396,35.5301882 C39.034434,36.2231127 38.475,36.8787731 37.872641,37.491509 L34.7712259,36.8249995 L34.7712259,36.8249995 Z M14.3693392,41.5165094 C13.5778297,41.6872642 12.7985844,41.1825472 12.6283014,40.3896226 C12.4589618,39.595283 12.9622637,38.815566 13.7537731,38.6448113 C14.5452825,38.4754717 15.3249995,38.9801887 15.4948108,39.7731132 C15.6641505,40.565566 15.1603769,41.3466981 14.3693392,41.5165094 L14.3693392,41.5165094 Z M8.77358443,18.8254712 C9.10188632,19.566509 8.76792406,20.4349052 8.02782972,20.7627354 C7.28773538,21.091509 6.42169764,20.757075 6.09339575,20.0155656 C5.76509387,19.2740561 6.09905613,18.407075 6.83915047,18.0783014 C7.57971651,17.7499995 8.44528255,18.0839618 8.77358443,18.8254712 L8.77358443,18.8254712 Z M7.05377311,22.902358 L10.211792,21.4990561 C10.8863203,21.1995278 11.1910373,20.4089618 10.891509,19.7330184 L10.2410373,18.2622637 L12.7990561,18.2622637 L12.7990561,29.7924524 L7.63820708,29.7924524 C7.19056557,28.2188675 6.95047123,26.5580184 6.95047123,24.841509 C6.95047123,24.1863203 6.98584858,23.5386788 7.05377311,22.902358 L7.05377311,22.902358 Z M20.9122637,21.7825467 L20.9122637,18.3839618 L27.0037731,18.3839618 C27.3183958,18.3839618 29.2254712,18.747641 29.2254712,20.1735844 C29.2254712,21.3575467 27.7627354,21.782075 26.5599052,21.782075 L20.9122637,21.782075 L20.9122637,21.7825467 Z M43.05,24.841509 C43.05,25.2924524 43.0334906,25.7386788 43.0004717,26.1816033 L41.1485849,26.1816033 C40.9632075,26.1816033 40.8886792,26.3033014 40.8886792,26.4849052 L40.8886792,27.3353769 C40.8886792,29.3372637 39.7599057,29.772641 38.7707547,29.8834901 C37.8287731,29.9896222 36.7844335,29.4891505 36.6556599,28.9127354 C36.0999995,25.7872637 35.1740561,25.1198108 33.711792,23.966509 C35.5264146,22.8141505 37.4146222,21.1141505 37.4146222,18.8386788 C37.4146222,16.3816033 35.7301882,14.8339618 34.582075,14.0749995 C32.9712259,13.0132071 31.1877354,12.8004712 30.7066033,12.8004712 L11.5542448,12.8004712 C14.1514146,9.90188632 17.6712259,7.84858443 21.652358,7.10141462 L23.9099052,9.46981085 C24.4202825,10.0042448 25.2655656,10.0240561 25.7995278,9.51320708 L28.3254712,7.09716934 C33.6183958,8.0825467 38.0995278,11.377358 40.6820755,15.897641 L38.9528302,19.8033014 C38.6542453,20.4792448 38.9589623,21.2698108 39.6330189,21.5693392 L42.9622642,23.0481127 C43.0198113,23.6391505 43.05,24.2363203 43.05,24.841509 L43.05,24.841509 Z M23.9108486,5.08679198 C24.4957542,4.52641462 25.4235844,4.54858443 25.9834901,5.13443349 C26.5424524,5.72169764 26.5212259,6.65047123 25.9349052,7.21037689 C25.3499995,7.77075425 24.4221693,7.74905613 23.8622637,7.16226368 C23.3037731,6.57594292 23.3249995,5.64716934 23.9108486,5.08679198 L23.9108486,5.08679198 Z M41.0712264,18.8966976 C41.3990566,18.1556599 42.2650943,17.8212259 43.0051887,18.1499995 C43.745283,18.4783014 44.0792453,19.3462259 43.7509434,20.0872637 C43.4231132,20.8287731 42.5570755,21.1632071 41.8165094,20.8344335 C41.0773585,20.5061316 40.7433962,19.6386788 41.0712264,18.8966976 L41.0712264,18.8966976 Z" id="path3"></path>
                        </g>
                    </g>
                </g>
            </g>
        </g>
    </g>
</svg>