<?xml version="1.0" encoding="UTF-8" standalone="no"?>
<svg width="360px" height="360px" viewBox="0 0 360 360" version="1.1" xmlns="http://www.w3.org/2000/svg" xmlns:xlink="http://www.w3.org/1999/xlink" xmlns:sketch="http://www.bohemiancoding.com/sketch/ns">
    <!-- Generator: Sketch 3.4.2 (15855) - http://www.bohemiancoding.com/sketch -->
    <title>Mask + Oval 1 + Mask + path2995</title>
    <desc>Created with Sketch.</desc>
    <defs></defs>
    <g id="Page-1" stroke="none" stroke-width="1" fill="none" fill-rule="evenodd" sketch:type="MSPage">
        <g id="Mask-+-Oval-1-+-Mask-+-path2995" sketch:type="MSLayerGroup">
            <circle id="Oval-2" fill="#FFFFFF" sketch:type="MSShapeGroup" cx="180" cy="180" r="180"></circle>
            <circle id="Mask" fill="#3B477A" sketch:type="MSShapeGroup" cx="180" cy="180" r="175"></circle>
            <g id="Oval-1-+-Mask-+-path2995" transform="translate(2.000000, 2.000000)" fill="#FFFFFF" sketch:type="MSShapeGroup">
                <path d="M148.774102,355.650752 C109.969618,348.785657 76.6889053,331.071925 49.1871854,302.645409 C25.7971099,278.468803 9.70175888,248.023005 2.3734105,214.092974 C-0.791136833,199.441217 -0.791136833,157.514379 2.3734105,142.862609 C7.32552905,119.934461 16.9440952,97.1528893 30.0562662,77.2957866 C38.7377534,64.1485226 64.156506,38.7329335 77.3054051,30.0525267 C97.1649781,16.9419876 119.949384,7.32461723 142.880392,2.37311512 C157.533986,-0.791038372 199.466043,-0.791038372 214.119611,2.37311512 C249.848797,10.0881305 279.53681,26.2182175 305.157661,51.8358848 C330.778525,77.453552 346.910614,107.137883 354.626594,142.862609 C357.791135,157.514379 357.791135,199.441217 354.626594,214.092974 C346.910614,249.817713 330.778525,279.502033 305.157661,305.119695 C279.941729,330.332488 250.632351,346.424846 215.497043,354.34795 C203.036298,357.157872 161.83978,357.962264 148.774102,355.650752 L148.774102,355.650752 Z M181.029872,320.027207 C181.029872,308.328032 180.859803,307.484847 178.500015,307.484847 C176.158008,307.484847 175.978084,308.292367 176.077126,318.359034 C176.194069,330.249296 177.030084,333.902651 179.449374,333.096317 C180.571749,332.722252 181.029872,328.934019 181.029872,320.027207 L181.029872,320.027207 Z M162.182381,324.053402 C165.512363,320.723835 166.483156,318.704474 166.483156,315.10725 C166.483156,311.439112 166.036402,310.54737 164.360499,310.870245 C163.193029,311.095146 161.79196,312.986616 161.247024,315.073501 C160.702074,317.160385 158.463295,320.384965 156.271945,322.239245 C152.325636,325.57855 152.171512,328.353642 155.932369,328.353642 C157.00446,328.353642 159.816961,326.418529 162.182381,324.053402 L162.182381,324.053402 Z M203.864609,326.982156 C204.330866,326.227833 202.919434,324.093525 200.728071,322.239245 C198.536721,320.384965 196.297942,317.160385 195.752993,315.073501 C195.208056,312.986616 193.807001,311.095146 192.639531,310.870245 C190.963615,310.54737 190.516873,311.439112 190.516873,315.10725 C190.516873,322.382961 200.963025,331.676457 203.864609,326.982156 L203.864609,326.982156 Z M146.244232,304.264087 C146.244232,303.536109 144.474383,301.970955 142.311246,300.785954 C128.207921,293.059985 111.671419,280.773458 102.475856,271.188451 C84.5298532,252.482421 76.4503398,233.852739 76.255403,210.729554 C76.1251104,195.2748 78.1182328,187.219255 85.6433849,172.786311 C92.9187741,158.832381 101.352741,148.298758 124.547827,124.196449 C150.451465,97.2796578 156.41607,90.1756439 160.91888,80.8775143 C164.116575,74.2743629 164.542913,71.8671972 164.987439,57.9051393 C165.539376,40.5703405 164.484142,28.6019468 162.403829,28.6019468 C161.457677,28.6019468 161.277504,33.1000513 161.818999,43.2029557 C163.552057,75.5374096 157.546841,85.5703072 120.280665,112.600852 C94.6156407,131.216658 82.8369251,141.326824 73.9430978,152.374383 C61.3417585,168.027276 55.7657781,181.576286 54.3683001,199.938976 C51.0001679,244.195862 79.0492155,282.571204 128.535177,301.410509 C139.453741,305.567215 146.244232,306.661411 146.244232,304.264087 L146.244232,304.264087 Z M231.859211,300.67308 C248.871394,293.589563 261.810795,285.020161 274.002403,272.762834 C292.593936,254.07109 300.33805,236.597679 301.495221,210.729554 C302.509988,188.045077 297.583212,173.037335 283.542673,156.043276 C273.921664,144.398433 263.56685,136.069796 235.644082,117.517247 C198.071271,92.552991 189.251938,82.6135655 189.251938,65.2331035 C189.251938,60.6108586 190.08489,54.0616661 191.102955,50.6793442 C192.838437,44.9134717 192.793055,40.9374123 191.043767,45.4953847 C189.388188,49.8091861 185.614907,47.8231319 183.578151,41.5658906 L181.622629,35.5582091 L182.363082,41.2496975 C184.990535,61.4454469 185.318157,69.9081147 184.156984,87.5859023 C182.587125,111.48604 179.650028,127.823164 171.582126,157.531482 C163.575758,187.013308 162.134509,197.700306 163.128638,220.215374 C163.969087,239.249898 166.629927,253.48735 172.819957,272.071147 C178.565513,289.320518 179.635922,290.629629 190.203775,293.331774 C196.018571,294.818585 201.520986,297.329343 205.904533,300.496033 C210.015175,303.465574 214.13652,305.398366 216.447954,305.440588 C218.535099,305.478652 225.470157,303.333342 231.859198,300.67308 L231.859211,300.67308 Z M228.043194,292.096743 C226.463439,290.517198 227.198378,289.174064 233.372476,282.357266 C252.81421,260.891695 261.527604,238.724439 261.776103,210.097165 C261.94539,190.596219 257.637184,177.674202 244.487339,158.241392 C238.540477,149.453125 217.61515,127.537101 207.493335,119.495924 C200.064275,113.593979 192.438056,103.538523 191.075486,97.8483763 C189.695942,92.0873125 193.559088,93.6085459 198.040256,100.590965 C200.236026,104.012358 204.991429,109.035919 208.607809,111.754451 C212.22419,114.472971 222.920784,122.448883 232.378008,129.478693 C264.917387,153.666105 279.397301,174.286366 282.654992,201.076202 C284.540049,216.577975 281.544846,232.596525 273.980357,247.468868 C266.141046,262.881518 251.847445,279.668834 239.602008,287.845022 C232.070476,292.873734 229.694391,293.747748 228.043194,292.096743 L228.043194,292.096743 Z M164.350447,293.729381 C164.717754,292.772319 161.460884,286.653973 157.11298,280.133053 C145.599913,262.865901 140.589348,253.3358 135.917604,239.819378 C131.976678,228.41745 131.763014,226.867744 131.732403,209.464776 C131.686121,183.15282 134.535374,174.811434 155.408252,140.151756 C175.091628,107.467256 177.755663,94.8125615 175.538813,44.5277683 C174.744281,26.5053586 173.84265,11.5082114 173.535171,11.2007742 C171.455601,9.12146048 171.01792,14.462797 171.782531,32.5895738 C173.304792,68.6782159 170.976306,88.7859721 163.365522,105.274997 C158.18292,116.503277 152.389909,125.015471 136.78719,144.328863 C115.06962,171.211381 108.93968,185.468477 109.053448,208.8324 C109.131435,224.846493 111.302176,234.695429 117.773433,248.395924 C124.780787,263.231416 137.674688,278.202333 153.83383,290.265119 C161.27418,295.819343 163.293114,296.484398 164.350447,293.729381 L164.350447,293.729381 Z" id="path2995"></path>
            </g>
        </g>
    </g>
</svg>