<?xml version="1.0" encoding="UTF-8" standalone="no"?>
<svg width="90px" height="90px" viewBox="0 0 90 90" version="1.1" xmlns="http://www.w3.org/2000/svg" xmlns:xlink="http://www.w3.org/1999/xlink" xmlns:sketch="http://www.bohemiancoding.com/sketch/ns">
    <!-- Generator: Sketch 3.3 (11970) - http://www.bohemiancoding.com/sketch -->
    <title>2</title>
    <desc>Created with Sketch.</desc>
    <defs></defs>
    <g id="Page-1" stroke="none" stroke-width="1" fill="none" fill-rule="evenodd" sketch:type="MSPage">
        <g id="Desktop" sketch:type="MSArtboardGroup" transform="translate(-676.000000, -1794.000000)">
            <g id="Rectangle-154-+-Group" sketch:type="MSLayerGroup" transform="translate(0.000000, 600.000000)">
                <g id="Group" transform="translate(0.000000, 58.000000)" sketch:type="MSShapeGroup">
                    <g id="Group-Copy-3-+-Rectangle-118-+-Oval-1-+-asp_net_icon_transparent-Copy-+-nodejs" transform="translate(533.000000, 1136.000000)">
                        <g id="Group-Copy-3-+-Rectangle-118-+-Oval-1-+-asp_net_icon_transparent-Copy">
                            <g id="2" transform="translate(143.000000, 0.000000)">
                                <path d="M45,90 C69.8528137,90 90,69.8528137 90,45 C90,20.1471863 69.8528137,0 45,0 C20.1471863,0 0,20.1471863 0,45 C0,69.8528137 20.1471863,90 45,90 Z" id="Oval-1" fill="#FFFFFF"></path>
                                <g id="Fill-7-+-Fill-8" transform="translate(26.000000, 24.000000)" fill="#78B742">
                                    <path d="M19.1328621,42.7903333 C18.5545862,42.7903333 17.9803448,42.641 17.4746897,42.3503333 L12.1935517,39.253 C11.4054828,38.8156667 11.7901034,38.661 12.0496552,38.5703333 C13.1026552,38.209 13.3151379,38.125 14.438069,37.4943333 C14.555069,37.429 14.7097241,37.453 14.8307586,37.5236667 L18.8867586,39.9116667 C19.0346897,39.993 19.2417931,39.993 19.3776207,39.9116667 L35.1927931,30.861 C35.3407241,30.777 35.4348621,30.6103333 35.4348621,30.437 L35.4348621,12.3396667 C35.4348621,12.1636667 35.3407241,11.997 35.1901034,11.9076667 L19.3803103,2.865 C19.2337241,2.77966667 19.040069,2.77966667 18.8921379,2.865 L3.08637931,11.9103333 C2.93306897,11.997 2.83624138,12.1676667 2.83624138,12.3396667 L2.83624138,30.437 C2.83624138,30.6103333 2.93306897,30.773 3.08503448,30.8556667 L7.41806897,33.337 C9.76882759,34.5023333 11.2091379,33.1303333 11.2091379,31.7516667 L11.2091379,13.8836667 C11.2091379,13.6316667 11.4135517,13.433 11.6677241,13.433 L13.6742069,13.433 C13.9243448,13.433 14.1314483,13.6316667 14.1314483,13.8836667 L14.1314483,31.7516667 C14.1314483,34.8623333 12.4235172,36.6463333 9.44875862,36.6463333 C8.53427586,36.6463333 7.8147931,36.6463333 5.80562069,35.665 L1.65817241,33.297 C0.633413793,32.7103333 0,31.6116667 0,30.437 L0,12.3396667 C0,11.165 0.633413793,10.0663333 1.65817241,9.48233333 L17.4746897,0.421 C18.4752414,-0.140333333 19.8052759,-0.140333333 20.7977586,0.421 L36.612931,9.48233333 C37.6376897,10.069 38.2737931,11.165 38.2737931,12.3396667 L38.2737931,30.437 C38.2737931,31.6116667 37.6376897,32.7063333 36.612931,33.297 L20.7977586,42.3503333 C20.2921034,42.641 19.7192069,42.7903333 19.1328621,42.7903333" id="Fill-7"></path>
                                    <path d="M24.5094828,29.3733333 C17.5876552,29.3733333 16.137931,26.2226667 16.137931,23.5813333 C16.137931,23.3293333 16.3423448,23.1293333 16.5951724,23.1293333 L18.6406552,23.1293333 C18.8692759,23.1293333 19.0588966,23.292 19.0952069,23.5133333 C19.4031724,25.5773333 20.3243793,26.6186667 24.5094828,26.6186667 C27.8406207,26.6186667 29.2594138,25.872 29.2594138,24.1186667 C29.2594138,23.108 28.8573103,22.3586667 23.6797241,21.856 C19.352069,21.432 16.6758621,20.484 16.6758621,17.0506667 C16.6758621,13.8866667 19.3655172,12 23.8747241,12 C28.9420345,12 31.4487931,13.744 31.7661724,17.4853333 C31.7782759,17.6133333 31.7325517,17.7373333 31.6464828,17.8333333 C31.559069,17.924 31.4380345,17.9786667 31.3116207,17.9786667 L29.258069,17.9786667 C29.0455862,17.9786667 28.8573103,17.828 28.8142759,17.624 C28.322069,15.452 27.1238276,14.7586667 23.8747241,14.7586667 C20.2369655,14.7586667 19.8146897,16.0146667 19.8146897,16.956 C19.8146897,18.0973333 20.3136207,18.4293333 25.224931,19.0733333 C30.0851379,19.7106667 32.3942069,20.612 32.3942069,23.9986667 C32.3942069,27.416 29.5203103,29.3733333 24.5094828,29.3733333" id="Fill-8"></path>
                                </g>
                            </g>
                        </g>
                    </g>
                </g>
            </g>
        </g>
    </g>
</svg>