<?xml version="1.0" encoding="utf-8"?>
<!DOCTYPE svg PUBLIC "-//W3C//DTD SVG 1.1//EN" "http://www.w3.org/Graphics/SVG/1.1/DTD/svg11.dtd">
<svg version="1.1" id="Layer_1" xmlns="http://www.w3.org/2000/svg" xmlns:xlink="http://www.w3.org/1999/xlink" x="0px"
    y="0px" width="150px" height="150px" viewBox="0 0 150 150" enable-background="new 0 0 150 150" xml:space="preserve">
    <g>
        <circle id="Oval" fill="#FFFFFF" cx="75" cy="75" r="75" overflow="none"></circle>
        <g clip-path="circle(75 at 75 35)">
            <g transform="translate(0.000000, -2.00000) scale(1.05 1.05)">
                <path fill="#000000" d="M86.085,127c-0.209-1.424,0.197-2.841-0.232-4.177c-0.367-1.166-1.209-1.273-1.762-2.221
		c-1.457-2.487-2.963-5.709-3.102-8.754c-0.127-2.735-1.133-5.206-1.27-7.917c-0.066-1.308,0.088-2.657,0.041-3.952
		c-0.025-0.63-0.061-1.176-0.186-1.86c-0.031-0.169-0.143-0.865-0.195-1.144l0.34-0.848c-0.15-0.291,2.902-0.194,3.812-0.188
		c1.545,0.019,2.998,0.099,4.539,0.173c3.148,0.156,6.016,0.117,9.082-0.356c6.832-1.055,9.973-3.845,11.58-5.005
		c6.273-4.523,9.146-11.918,9.146-11.918c1.035-2.31,1.031-6.431,3.25-8.276c2.615-2.179,7.006-2.022,10.008-3.359
		c1.756-0.777,3.023-1.205,4.818-0.833c1.332,0.278,3.73,1.821,4.281-0.345c-0.445-0.287-0.619-0.812-0.857-1.103
		c2.475-0.245,0.047-5.986-0.932-7.133c-1.512-1.77-4.035-2.581-6.719-3.293c-3.188-0.845-6.08-1.82-9.082-1.231
		c-5.242,1.026-4.85-1.974-7.939-1.974c-3.707,0-10.303,0.182-11.443,3.786c-0.531,1.683-1.078,1.753-1.998,3.044
		c-0.787,1.106,0.137,2.082-0.258,3.344c-0.408,1.297-1.007,5.865-1.632,7.459c-1.057,2.697-2.317,6.065-4.643,6.065
		c-3.261,0.39-5.824,0.515-8.469-0.445c-1.592-0.578-4.26-1.483-5.58-2.039c-6.088-2.563-7.088-5.367-7.088-5.367
		c-0.653-1.08-2.374-2.821-3.018-5.093c-0.708-2.502-1.903-4.589-2.387-5.891c-0.501-1.349-1.699-3.51-2.64-5.846
		c-1.205-2.991-2.9-5.223-4.141-6.331c-1.896-1.69-3.646-4.306-7.495-3.546c-0.688,0.136-3.188,0.249-5.104,1.856
		c-1.299,1.09-1.709,3.339-2.912,5.236c-0.695,1.096-1.917,4.24-3.038,6.863c-0.777,1.818-1.139,3.181-1.979,3.85
		c-0.657,0.524-1.471,1.201-2.456,0.832c-0.611-0.229-1.264-0.617-1.923-1.132c-0.89-0.695-2.913-4.138-4.156-6.681
		c-1.077-2.205-3.376-5.502-4.706-7.287c-1.914-2.568-3.036-3.219-5.864-3.219c-6.067,0-6.526,3.397-9.195,8.337
		c-1.172,2.17-1.599,5.614-3.952,8.313c-1.345,1.544-5.637,7.893-8.621,8.972v-0.031L0,66.366v45.257l0.008,0.063v-0.284
		c0.193-0.59,0.398-1.156,0.631-1.662c1.154-2.459,3.832-4.741,5.32-7.266c0.809-1.376,1.732-2.724,2.268-4.168
		c0.461-1.244,0.688-3.099,1.354-4.178c0.816-1.323,2.094-1.773,3.406-1.987c2.055-0.339,3.801,2.954,6.43,4.166
		c1.121,0.515,6.281,2.342,7.83,2.717c2.551,0.61,5.381,1.119,7.971,1.642c1.387,0.28,2.713,0.443,4.141,0.588
		c1.281,0.128,6.08,0.287,6.377,0.634c-2.439,1.244-3.869,4.736-4.785,7.207c-0.955,2.575-1.621,5.441-2.775,7.96
		c-1.279,2.783-3.961,3.941-3.641,7.184c0.123,1.294,0.359,2.651,0.143,4.075c-0.23,1.499-0.836,2.669-1.277,4.137
		c-0.566,1.915-1.24,8.1-2.113,9.918l5.337-0.669l0.009-0.003c0.583-1.386,1.12-7.237,1.309-7.794
		c0.998-2.934,2.322-5.348,4.359-7.617c1.986-2.211,1.883-5.061,3.043-7.637c1.256-2.8,2.945-5.039,4.539-7.671
		c2.881-4.759,4.781-10.767,10.906-11.989c0.654-0.135,4.404,2.569,6.068,4.177c1.906,1.832,3.988,3.954,5.24,6.48
		c2.424,4.896,4.48,11.988,5.258,15.899c0.447,2.246,0.803,2.38,2.322,4.159c0.699,0.815,2.094,3.362,2.553,4.34
		c0.482,1.044,1.215,3.42,1.799,4.633c0.344,0.722,1.236,2.94,1.885,4.856l4.987-0.156c0.018,0.042,0.109-0.012,0.13,0.027
		c0.002,0,0.005-0.001,0.007-0.002c-0.021-0.038-0.04-0.082-0.058-0.123C88.496,138.292,86.906,132.522,86.085,127z" />
            </g>
        </g>
    </g>
</svg>
