<?xml version="1.0" encoding="UTF-8"?>
<svg width="305px" height="305px" viewBox="0 0 305 305" version="1.1" xmlns="http://www.w3.org/2000/svg" xmlns:xlink="http://www.w3.org/1999/xlink">
    <!-- Generator: Sketch 62 (91390) - https://sketch.com -->
    <title>Oval</title>
    <desc>Created with Sketch.</desc>
    <defs>
        <linearGradient x1="50.2330508%" y1="84.6468927%" x2="49.7528249%" y2="13.1567797%" id="linearGradient-1">
            <stop stop-color="#1C4D71" offset="0%"></stop>
            <stop stop-color="#255578" offset="17%"></stop>
            <stop stop-color="#3D6B8B" offset="44%"></stop>
            <stop stop-color="#658FAA" offset="78%"></stop>
            <stop stop-color="#83AAC2" offset="100%"></stop>
        </linearGradient>
    </defs>
    <g id="Page-1" stroke="none" stroke-width="1" fill="none" fill-rule="evenodd">
        <circle id="Oval" fill="#FFFFFF" cx="152.5" cy="152.5" r="152.5"></circle>
        <g id="31" transform="translate(81.000000, 81.000000)" fill-rule="nonzero">
            <rect id="Rectangle" stroke="#231F20" fill="url(#linearGradient-1)" x="0.5" y="0.5" width="141.6" height="141.6" rx="12"></rect>
            <g id="Group" transform="translate(26.000000, 37.000000)" fill="#FFFFFF">
                <path d="M50.99,63.71 C48.32,65.05 42.29,66.49 34.46,66.49 C12.19,66.49 0.72,52.63 0.72,34.28 C0.72,12.28 16.39,0.06 35.89,0.06 C43.44,0.06 49.18,1.59 51.76,2.92 L48.76,14.49 C44.8919337,12.8937037 40.74443,12.0846005 36.56,12.11 C24.99,12.11 16.01,19.11 16.01,33.43 C16.01,46.33 23.66,54.43 36.66,54.43 C40.7934562,54.4263028 44.8958673,53.716075 48.79,52.33 L50.99,63.71 Z" id="Path"></path>
                <polygon id="Path" points="58.81 18.91 87.31 18.91 87.31 27.56 69.39 27.56 69.39 38.21 86.1 38.21 86.1 46.79 69.39 46.79 69.39 65.54 58.81 65.54"></polygon>
            </g>
        </g>
    </g>
</svg>