<svg xmlns="http://www.w3.org/2000/svg" width="86" height="32" viewBox="0 0 86 32" fill="none">
    <path d="M33.5137 14.084L37.6493 3.22675H39.2432L43.3627 14.084H41.9237L40.7783 11.1531H36.0554L34.91 14.084H33.5137ZM40.3725 9.9283L38.4048 4.70023L36.4532 9.9283H40.3725Z" fill="white"/>
    <path d="M49.3434 6.17371H50.6143V14.084H49.5143L49.3434 13.0304C48.8789 13.6187 48.1206 14.1776 46.8204 14.1776C45.085 14.1776 43.7074 13.2015 43.7074 10.5781V6.17371H44.9783V10.5006C44.9783 12.1452 45.7205 13.0143 47.0367 13.0143C48.4757 13.0143 49.3434 11.9125 49.3434 10.1289V6.17371Z" fill="white"/>
    <path d="M51.2203 7.33592V6.17264H52.646V3.95572H53.9168V6.17264H55.9619V7.33592H53.9168V12.0051C53.9168 12.671 54.1491 12.9197 54.8299 12.9197H56.0847V14.0829H54.7071C53.1906 14.0829 52.6487 13.4171 52.6487 12.0211V7.33592H51.2203Z" fill="white"/>
    <path d="M63.8539 9.67692V14.0813H62.583V9.75448C62.583 8.10984 61.7928 7.24072 60.4312 7.24072C58.9601 7.24072 58.047 8.3425 58.047 10.1262V14.0813H56.7762V3.22675H58.047V7.47605C58.5116 6.73263 59.3179 6.08012 60.6474 6.08012C62.4122 6.08012 63.8512 7.0562 63.8512 9.6796L63.8539 9.67692Z" fill="white"/>
    <path d="M64.7375 8.40602C64.7375 5.31999 66.4088 3.13249 68.857 3.13249C71.3052 3.13249 72.9605 5.31999 72.9605 8.40602V8.90342C72.9605 12.1446 71.2892 14.177 68.857 14.177C66.4248 14.177 64.7375 12.1446 64.7375 8.90342V8.40602ZM71.6443 8.45148C71.6443 5.87622 70.5283 4.32519 68.857 4.32519C67.1857 4.32519 66.0537 5.87622 66.0537 8.45148V8.85529C66.0537 11.4305 67.1697 12.9816 68.857 12.9816C70.5443 12.9816 71.6443 11.4305 71.6443 8.85529V8.45148Z" fill="white"/>
    <path d="M41.9824 24.9171C41.9824 27.3372 40.3725 28.9658 38.1885 28.9658C36.8563 28.9658 35.9592 28.423 35.4787 27.6635L35.3078 28.8722H34.2078V18.015H35.4787V22.2349C36.0046 21.5048 36.8563 20.871 38.1885 20.871C40.3725 20.871 41.9824 22.3445 41.9824 24.9198V24.9171ZM40.6822 24.9171C40.6822 23.1949 39.6302 22.0022 38.0657 22.0022C36.5012 22.0022 35.4653 23.1976 35.4653 24.8877C35.4653 26.5778 36.5172 27.8346 38.0657 27.8346C39.6142 27.8346 40.6822 26.6393 40.6822 24.9198V24.9171Z" fill="white"/>
    <path d="M41.9343 20.9614H43.2825L45.7148 27.2752L48.0695 20.9614H49.4178L45.7788 30.2061C45.2822 31.479 44.9886 31.9738 43.8752 31.9738H42.3588V30.8105H43.4881C44.217 30.8105 44.3398 30.6233 44.6335 29.8799L45.0206 28.9171L41.9396 20.9614H41.9343Z" fill="white"/>
    <path d="M58.9061 28.9619C55.8545 28.9619 53.7347 26.6353 53.7347 23.4397C53.7347 20.244 55.8572 17.9174 58.9061 17.9174C61.9551 17.9174 64.0776 20.244 64.0776 23.4397C64.0776 26.6353 61.9551 28.9619 58.9061 28.9619ZM58.9061 27.7211C61.1675 27.7211 62.7 25.9374 62.7 23.4397C62.7 20.942 61.1675 19.1583 58.9061 19.1583C56.6448 19.1583 55.1123 20.942 55.1123 23.4397C55.1123 25.9374 56.6448 27.7211 58.9061 27.7211Z" fill="white"/>
    <path d="M65.0551 18.015H66.3259V25.1658L70.2906 20.9619H71.8551L68.7742 24.2352L72.0714 28.8722H70.5389L67.9225 25.1497L66.3286 26.7944V28.8722H65.0578V18.015H65.0551Z" fill="white"/>
    <path d="M72.1751 22.1247V20.9614H73.6008V18.7445H74.8717V20.9614H76.9168V22.1247H74.8717V26.7938C74.8717 27.4597 75.104 27.7084 75.7848 27.7084H77.0396V28.8717H75.6619C74.1455 28.8717 73.6035 28.2058 73.6035 26.8099V22.1247H72.1751Z" fill="white"/>
    <path d="M85.1912 27.7083V28.8716H84.4944C83.4425 28.8716 83.0847 28.4223 83.0687 27.6468C82.5721 28.3608 81.7845 28.9652 80.4202 28.9652C78.6848 28.9652 77.5101 28.0961 77.5101 26.6547C77.5101 25.0716 78.6101 24.1891 80.6845 24.1891H83.0073V23.6462C83.0073 22.622 82.2784 22.0016 81.0396 22.0016C79.9236 22.0016 79.1814 22.5284 79.0266 23.336H77.7557C77.9426 21.785 79.1948 20.8704 81.101 20.8704C83.1141 20.8704 84.2755 21.8786 84.2755 23.7238V27.1815C84.2755 27.6014 84.4303 27.7083 84.7854 27.7083H85.1912ZM80.5617 25.2588C79.4324 25.2588 78.797 25.6786 78.797 26.5771C78.797 27.3527 79.4617 27.8795 80.5163 27.8795C82.0969 27.8795 83.01 26.9649 83.01 25.6465V25.2588H80.5617Z" fill="white"/>
    <path d="M1.68569 13.8913C6.92275 13.0271 11.0284 8.69149 11.8884 3.44584L12.177 0.924616C12.2484 0.523966 11.977 -0.0340806 11.4712 0.00598436C7.51417 0.315057 3.77994 1.62289 1.70283 2.47284C0.671418 2.89638 0 3.89801 0 5.0141V13.2389C0 13.7254 0.437136 14.0974 0.917128 14.0201L1.68569 13.8942V13.8913Z" fill="white"/>
    <path d="M14.4145 3.44603C15.2773 8.69167 19.383 13.0273 24.6172 13.8915L25.3857 14.0174C25.8657 14.0976 26.3029 13.7255 26.3029 13.2362V5.01142C26.3029 3.89533 25.6314 2.8937 24.6 2.47016C22.5201 1.61735 18.7887 0.312377 14.8316 0.00330464C14.323 -0.0367603 14.0631 0.52701 14.123 0.921936L14.4116 3.44316L14.4145 3.44603Z" fill="white"/>
    <path d="M24.6132 16.1954C17.4562 17.6091 14.1333 22.374 14.1333 31.3943C14.1333 31.8465 14.5819 32.1613 14.959 31.9094C18.2504 29.6858 25.4932 23.8821 26.2389 16.6218C26.2674 15.7089 25.1275 16.1381 24.6132 16.1954Z" fill="white"/>
    <path d="M1.68833 16.1954C8.84536 17.6091 12.1682 22.374 12.1682 31.3943C12.1682 31.8465 11.7196 32.1613 11.3425 31.9094C8.05109 29.6858 0.80834 23.8821 0.0626375 16.6218C0.0340665 15.7089 1.17405 16.1381 1.68833 16.1954Z" fill="white"/>
</svg>
