<?xml version="1.0" encoding="utf-8"?>
<svg version="1.1" id="Layer_1" xmlns="http://www.w3.org/2000/svg" x="0px" y="0px"
	 viewBox="0 0 22 22" style="enable-background:new 0 0 22 22;" xml:space="preserve">
<g>
	<g>
		<path class="st0" d="M11,6c-0.6,0-1-0.4-1-1V1c0-0.6,0.4-1,1-1s1,0.4,1,1v4C12,5.6,11.6,6,11,6z"/>
	</g>
	<g>
		<path class="st0" d="M11,22c-0.6,0-1-0.4-1-1v-4c0-0.6,0.4-1,1-1s1,0.4,1,1v4C12,21.6,11.6,22,11,22z"/>
	</g>
	<g>
		<path class="st0" d="M6.8,7.8c-0.3,0-0.5-0.1-0.7-0.3L3.2,4.6c-0.4-0.4-0.4-1,0-1.4s1-0.4,1.4,0l2.8,2.8c0.4,0.4,0.4,1,0,1.4
			C7.3,7.7,7,7.8,6.8,7.8z"/>
	</g>
	<g>
		<path class="st0" d="M18.1,19.1c-0.3,0-0.5-0.1-0.7-0.3l-2.8-2.8c-0.4-0.4-0.4-1,0-1.4s1-0.4,1.4,0l2.8,2.8c0.4,0.4,0.4,1,0,1.4
			C18.6,19,18.3,19.1,18.1,19.1z"/>
	</g>
	<g>
		<path class="st0" d="M5,12H1c-0.6,0-1-0.4-1-1s0.4-1,1-1h4c0.6,0,1,0.4,1,1S5.6,12,5,12z"/>
	</g>
	<g>
		<path class="st0" d="M21,12h-4c-0.6,0-1-0.4-1-1s0.4-1,1-1h4c0.6,0,1,0.4,1,1S21.6,12,21,12z"/>
	</g>
	<g>
		<path class="st0" d="M3.9,19.1c-0.3,0-0.5-0.1-0.7-0.3c-0.4-0.4-0.4-1,0-1.4l2.8-2.8c0.4-0.4,1-0.4,1.4,0s0.4,1,0,1.4l-2.8,2.8
			C4.4,19,4.2,19.1,3.9,19.1z"/>
	</g>
	<g>
		<path class="st0" d="M15.2,7.8c-0.3,0-0.5-0.1-0.7-0.3c-0.4-0.4-0.4-1,0-1.4l2.8-2.8c0.4-0.4,1-0.4,1.4,0s0.4,1,0,1.4l-2.8,2.8
			C15.8,7.7,15.5,7.8,15.2,7.8z"/>
	</g>
</g>
</svg>
