<?xml version="1.0" encoding="UTF-8" standalone="no"?>
<svg width="90px" height="90px" viewBox="0 0 90 90" version="1.1" xmlns="http://www.w3.org/2000/svg" xmlns:xlink="http://www.w3.org/1999/xlink" xmlns:sketch="http://www.bohemiancoding.com/sketch/ns">
    <!-- Generator: Sketch 3.3 (11970) - http://www.bohemiancoding.com/sketch -->
    <title>1</title>
    <desc>Created with Sketch.</desc>
    <defs>
        <linearGradient x1="49.9972467%" y1="-19.5160457%" x2="49.9972467%" y2="129.625092%" id="linearGradient-1">
            <stop stop-color="#0994DC" offset="0%"></stop>
            <stop stop-color="#66CEF5" offset="35.000601%"></stop>
            <stop stop-color="#66CEF5" offset="35.000601%"></stop>
            <stop stop-color="#127BCA" offset="84.616101%"></stop>
            <stop stop-color="#127BCA" offset="84.616101%"></stop>
            <stop stop-color="#127BCA" offset="100%"></stop>
        </linearGradient>
        <linearGradient x1="50.0007616%" y1="-19.5161868%" x2="50.0007616%" y2="129.624154%" id="linearGradient-2">
            <stop stop-color="#0E76BC" offset="0%"></stop>
            <stop stop-color="#36AEE8" offset="36.0001%"></stop>
            <stop stop-color="#36AEE8" offset="36.0001%"></stop>
            <stop stop-color="#00ADEF" offset="84.616101%"></stop>
            <stop stop-color="#00ADEF" offset="84.616101%"></stop>
            <stop stop-color="#00ADEF" offset="100%"></stop>
        </linearGradient>
        <linearGradient x1="49.9991979%" y1="110.921751%" x2="49.9991979%" y2="-6.21395776%" id="linearGradient-3">
            <stop stop-color="#1C63B7" offset="0%"></stop>
            <stop stop-color="#33BDF2" offset="50%"></stop>
            <stop stop-color="#33BDF2" stop-opacity="0.41960785" offset="100%"></stop>
        </linearGradient>
        <linearGradient x1="50.0009899%" y1="-19.5149993%" x2="50.0009899%" y2="129.627315%" id="linearGradient-4">
            <stop stop-color="#166AB8" offset="0%"></stop>
            <stop stop-color="#36AEE8" offset="39.999399%"></stop>
            <stop stop-color="#36AEE8" offset="39.999399%"></stop>
            <stop stop-color="#0798DD" offset="84.616101%"></stop>
            <stop stop-color="#0798DD" offset="84.616101%"></stop>
            <stop stop-color="#0798DD" offset="100%"></stop>
        </linearGradient>
        <linearGradient x1="49.9985422%" y1="-19.5211325%" x2="49.9985422%" y2="129.626892%" id="linearGradient-5">
            <stop stop-color="#124379" offset="0%"></stop>
            <stop stop-color="#1487CB" offset="38.9999%"></stop>
            <stop stop-color="#1487CB" offset="38.9999%"></stop>
            <stop stop-color="#165197" offset="78.022802%"></stop>
            <stop stop-color="#165197" offset="78.022802%"></stop>
            <stop stop-color="#165197" offset="100%"></stop>
        </linearGradient>
        <linearGradient x1="0.000304652977%" y1="50.000544%" x2="100.000291%" y2="50.000544%" id="linearGradient-6">
            <stop stop-color="#33BDF2" stop-opacity="0.69803923" offset="0%"></stop>
            <stop stop-color="#1DACD8" offset="100%"></stop>
        </linearGradient>
        <linearGradient x1="50.0095709%" y1="94.6864084%" x2="50.0095709%" y2="-3.02458407%" id="linearGradient-7">
            <stop stop-color="#136AB4" offset="0%"></stop>
            <stop stop-color="#59CAF5" stop-opacity="0.54901963" offset="60.000002%"></stop>
            <stop stop-color="#59CAF5" stop-opacity="0.23529412" offset="100%"></stop>
        </linearGradient>
        <linearGradient x1="-0.000760861053%" y1="49.999714%" x2="99.9992241%" y2="49.999714%" id="linearGradient-8">
            <stop stop-color="#05A1E6" stop-opacity="0.24705882" offset="0%"></stop>
            <stop stop-color="#05A1E6" offset="100%"></stop>
        </linearGradient>
        <linearGradient x1="49.9983236%" y1="124.313712%" x2="49.9983236%" y2="-9.42137278%" id="linearGradient-9">
            <stop stop-color="#318ED5" offset="0%"></stop>
            <stop stop-color="#38A7E4" offset="100%"></stop>
        </linearGradient>
        <linearGradient x1="49.99857%" y1="91.1999524%" x2="49.99857%" y2="-76.7854074%" id="linearGradient-10">
            <stop stop-color="#05A1E6" offset="0%"></stop>
            <stop stop-color="#05A1E6" stop-opacity="0.54901963" offset="100%"></stop>
        </linearGradient>
        <linearGradient x1="50.0000694%" y1="100.01049%" x2="50.0000694%" y2="0.0101898204%" id="linearGradient-11">
            <stop stop-color="#1959A6" offset="0%"></stop>
            <stop stop-color="#05A1E6" offset="50%"></stop>
            <stop stop-color="#05A1E6" offset="50%"></stop>
            <stop stop-color="#7EC5EA" offset="91.758698%"></stop>
            <stop stop-color="#7EC5EA" offset="100%"></stop>
        </linearGradient>
        <linearGradient x1="59.8041209%" y1="94.5677442%" x2="38.4710575%" y2="5.75513731%" id="linearGradient-12">
            <stop stop-color="#165096" offset="0%"></stop>
            <stop stop-color="#0D82CA" offset="100%"></stop>
        </linearGradient>
        <linearGradient x1="49.9946843%" y1="76.9980959%" x2="49.9946843%" y2="-3.29893613%" id="linearGradient-13">
            <stop stop-color="#05A1E6" offset="0%"></stop>
            <stop stop-color="#0495D6" offset="87.362701%"></stop>
            <stop stop-color="#0495D6" offset="100%"></stop>
        </linearGradient>
        <linearGradient x1="65.2631169%" y1="-4.16143813%" x2="34.2626975%" y2="105.843625%" id="linearGradient-14">
            <stop stop-color="#38A7E4" stop-opacity="0.32941177" offset="0%"></stop>
            <stop stop-color="#0E88D3" offset="96.153301%"></stop>
            <stop stop-color="#0E88D3" offset="96.153301%"></stop>
            <stop stop-color="#0E88D3" offset="100%"></stop>
        </linearGradient>
        <linearGradient x1="50.016714%" y1="-0.295776148%" x2="50.016714%" y2="101.881944%" id="linearGradient-15">
            <stop stop-color="#168CD4" offset="0%"></stop>
            <stop stop-color="#1C87CC" offset="50%"></stop>
            <stop stop-color="#154B8D" offset="100%"></stop>
        </linearGradient>
        <linearGradient x1="16.6738062%" y1="205.564966%" x2="87.8125992%" y2="-19.8362753%" id="linearGradient-16">
            <stop stop-color="#97D6EE" offset="0%"></stop>
            <stop stop-color="#55C1EA" offset="70.329303%"></stop>
            <stop stop-color="#55C1EA" offset="100%"></stop>
        </linearGradient>
        <linearGradient x1="6.89015912%" y1="6.30038251%" x2="75.7828966%" y2="116.770678%" id="linearGradient-17">
            <stop stop-color="#7ACCEC" offset="0%"></stop>
            <stop stop-color="#3FB7ED" offset="100%"></stop>
        </linearGradient>
        <linearGradient x1="49.9966533%" y1="6.36281892%" x2="49.9966533%" y2="127.96135%" id="linearGradient-18">
            <stop stop-color="#1DA7E7" offset="0%"></stop>
            <stop stop-color="#37ABE7" stop-opacity="0" offset="100%"></stop>
        </linearGradient>
    </defs>
    <g id="Page-1" stroke="none" stroke-width="1" fill="none" fill-rule="evenodd" sketch:type="MSPage">
        <g id="Desktop" sketch:type="MSArtboardGroup" transform="translate(-271.000000, -1794.000000)">
            <g id="Rectangle-154-+-Group" sketch:type="MSLayerGroup" transform="translate(0.000000, 600.000000)">
                <g id="Group" transform="translate(0.000000, 58.000000)" sketch:type="MSShapeGroup">
                    <g id="1" transform="translate(271.000000, 1136.000000)">
                        <circle id="Oval-1" fill="#FFFFFF" cx="45" cy="45" r="45"></circle>
                        <g id="Group-Copy-6" transform="translate(15.000000, 33.000000)">
                            <path d="M20.8079162,4.86426667 C22.9627352,11.4537333 23.7790971,23.2087429 30.0801448,23.2087429 L30.0801448,23.2087429 C30.5599543,23.2087429 31.0445829,23.1618095 31.5311352,23.0692762 L31.5311352,23.0692762 C25.8031733,21.7337143 25.1243162,10.1065714 21.6290781,4.08533333 L21.6290781,4.08533333 C21.355021,4.3344 21.0829067,4.59401905 20.8079162,4.86426667" id="path12339" fill="url(#linearGradient-1)"></path>
                            <path d="M21.6290781,4.08533333 C25.1243162,10.1065714 25.8031733,21.7337143 31.5311352,23.0692762 L31.5311352,23.0692762 C31.9811352,22.9865905 32.4321067,22.861581 32.8840305,22.7038857 L32.8840305,22.7038857 C27.742621,20.1846286 26.32144,8.89407619 22.3521638,3.4584 L22.3521638,3.4584 C22.1117638,3.65847619 21.8704305,3.86809524 21.6290781,4.08533333" id="path12367" fill="url(#linearGradient-2)"></path>
                            <path d="M26.6651352,0.504438095 C26.1862781,0.504438095 25.700659,0.551352381 25.2131924,0.643904762 C23.9381638,0.884285714 22.6430019,1.43329524 21.3372114,2.26407619 C21.6939162,2.616 22.0333067,3.01885714 22.3525448,3.45832381 C23.6804686,2.35638095 24.9997257,1.54198095 26.3142019,1.05251429 C26.80744,0.869828571 27.2988305,0.732361905 27.7920686,0.641980952 C27.4362971,0.551504762 27.0612876,0.504438095 26.6651352,0.504438095" id="path12379" fill="#14559A"></path>
                            <path d="M36.8975543,20.3816952 C37.4235162,19.9634667 37.9504495,19.5009143 38.4783352,18.9961524 C36.2888876,12.4373714 35.5052305,0.514133333 29.1599352,0.514133333 C28.7060876,0.514133333 28.2483924,0.556438095 27.7916495,0.641047619 C33.5715352,2.07860952 34.3119352,14.6537714 36.8975543,20.3816952" id="path12459" fill="url(#linearGradient-3)"></path>
                            <path id="path12521" fill="#3092C4" d="M27.79184,0.641504762 C27.4360686,0.55112381 27.0610781,0.504057143 26.6649067,0.504057143 L29.1601448,0.5132 C28.7062781,0.5132 28.2485829,0.555504762 27.79184,0.64112381"></path>
                            <path d="M36.7867352,21.7750286 C36.538659,21.5384952 36.3031162,21.2788762 36.0713448,21.0019429 C35.0040114,21.7577143 33.9405448,22.3308 32.88384,22.7038857 C33.2597638,22.887581 33.6539924,23.0241333 34.0723162,23.1087429 C34.3963162,23.1748952 34.7319352,23.2087429 35.0847924,23.2087429 C36.2704114,23.2087429 37.2078971,23.0683619 38.0059733,22.6856571 C37.5665829,22.4481143 37.1636686,22.140419 36.7867352,21.7750286" id="path12525" fill="#1969BC"></path>
                            <path d="M26.3137448,1.0536 C31.4907543,3.76131429 31.9407543,16.0230286 36.0715733,21.0019429 L36.0715733,21.0019429 C36.3485067,20.806781 36.6225448,20.600019 36.8965829,20.3816952 L36.8965829,20.3816952 C34.3109829,14.6537714 33.5715352,2.0776 27.792621,0.641047619 L27.792621,0.641047619 C27.2993448,0.733352381 26.807021,0.869980952 26.3137448,1.0536" id="path12553" fill="url(#linearGradient-4)"></path>
                            <path d="M22.3521638,3.4584 C26.32144,8.89407619 27.742621,20.1846286 32.8840305,22.7038857 L32.8840305,22.7038857 C33.9407733,22.3308 35.004259,21.7577143 36.0715733,21.0019429 L36.0715733,21.0019429 C31.9407543,16.0230286 31.4907543,3.76131429 26.3137448,1.0536 L26.3137448,1.0536 C24.9993067,1.54205714 23.6800686,2.35645714 22.3521638,3.4584" id="path12581" fill="url(#linearGradient-5)"></path>
                            <path d="M18.2683543,4.7055619 C17.646221,6.1123619 17.01064,7.96137143 16.2423543,10.3748762 C17.770259,8.22192381 19.2933638,6.36712381 20.8078019,4.86426667 C20.5991543,4.22287619 20.3751162,3.63154286 20.1337638,3.10455238 C19.5145257,3.57862857 18.8904686,4.11232381 18.2683543,4.7055619" id="path12651" fill="url(#linearGradient-6)"></path>
                            <path d="M20.68544,2.69893333 C20.5027352,2.82969524 20.3191162,2.96339048 20.1345067,3.10470476 C20.375821,3.6316381 20.5988876,4.22302857 20.8075924,4.86434286 C21.0825257,4.59510476 21.3555924,4.33455238 21.6286781,4.08548571 C21.33544,3.58161905 21.0238971,3.11622857 20.68544,2.69893333" id="path12655" fill="#2B74B1"></path>
                            <path d="M21.3372114,2.26407619 C21.1198971,2.40161905 20.9035924,2.5467619 20.6852876,2.69868571 C21.0237448,3.116 21.3352876,3.58139048 21.6295352,4.08624762 C21.8709067,3.86794286 22.112221,3.65739048 22.352621,3.45832381 C22.0333829,3.01893333 21.6939924,2.616 21.3372114,2.26407619" id="path12659" fill="#125A9E"></path>
                            <path d="M56.6488114,0.00264761905 C53.7208495,11.2941143 47.6053829,20.3634667 42.4783924,22.6500381 L42.4686781,22.6500381 C42.375421,22.6923429 42.2830971,22.730819 42.1917638,22.7682667 C42.1791924,22.7758857 42.1677638,22.7768381 42.1580686,22.7814095 C42.1311352,22.7922667 42.1061448,22.8006476 42.0792114,22.8114095 C42.06664,22.8190286 42.0552114,22.8215048 42.0436876,22.8260762 C42.0004495,22.8415048 41.9581067,22.8545524 41.9158019,22.8714667 C41.8975162,22.8790857 41.880259,22.8838476 41.8628686,22.8899429 C41.8436305,22.8975619 41.8214781,22.9046095 41.7994019,22.9107238 C41.7801829,22.9183429 41.7600305,22.9238667 41.737859,22.9322476 C41.7195733,22.9398667 41.7003352,22.9431048 41.6830971,22.9507238 C41.6455543,22.961581 41.611021,22.9707238 41.5734781,22.9837905 C41.5580495,22.9837905 41.5437067,22.9921714 41.5273257,22.9961714 C41.50424,23.0037905 41.47824,23.0093143 41.4532495,23.0161714 C41.4359162,23.0237905 41.4215543,23.0262667 41.4032495,23.0300762 C41.3772495,23.0376952 41.3483924,23.0447429 41.3224686,23.0508571 C41.287859,23.0584762 41.2570971,23.0655238 41.2243924,23.0724 C41.4561257,23.158 41.6974781,23.2012381 41.9580686,23.2012381 C46.8196686,23.2012381 51.7215733,14.4886667 59.8322971,4.26325641e-14 L56.6476495,4.26325641e-14 L56.6488114,0.00264761905 Z" id="path12741" fill="url(#linearGradient-7)"></path>
                            <path d="M15.1865829,0.962666667 C15.1896305,0.962666667 15.19344,0.955047619 15.1953448,0.955047619 C15.1991543,0.955047619 15.205059,0.955047619 15.2069638,0.947428571 L15.213059,0.947428571 C15.2399733,0.938285714 15.2649829,0.927428571 15.2918971,0.917428571 C15.2987543,0.917428571 15.3023733,0.917428571 15.3073257,0.909809524 C15.3141829,0.909809524 15.3208495,0.902190476 15.3275543,0.901238095 C15.3564114,0.892095238 15.3852495,0.881238095 15.4121829,0.871238095 L15.4167543,0.871238095 C15.4812114,0.852019048 15.5407924,0.828171429 15.6032876,0.805866667 C15.6120495,0.805866667 15.620621,0.798247619 15.6311352,0.798247619 C15.6571352,0.789866667 15.6840686,0.780533333 15.7109448,0.7744 C15.7235162,0.766780952 15.7359543,0.766780952 15.7474781,0.762780952 C15.7753257,0.7544 15.8023352,0.745066667 15.828259,0.738933333 C15.8398781,0.738933333 15.8504114,0.731314286 15.859021,0.730552381 C15.9484495,0.705942857 16.0369067,0.682857143 16.1263352,0.661314286 C16.1389067,0.661314286 16.149421,0.653695238 16.1628686,0.652933333 C16.1887924,0.645314286 16.2128876,0.641314286 16.2407543,0.637504762 C16.2523733,0.629885714 16.2657638,0.629885714 16.2792305,0.625885714 C16.3051543,0.618266667 16.3301448,0.617504762 16.3580686,0.611219048 L16.3763543,0.611219048 C16.4302019,0.600361905 16.485021,0.591219048 16.5388686,0.581219048 L16.5715543,0.581219048 C16.5974781,0.5736 16.6205638,0.572838095 16.6465638,0.56807619 C16.6608495,0.56807619 16.6754019,0.560457143 16.6888686,0.560457143 C16.7128686,0.560457143 16.7369448,0.552838095 16.7609448,0.5496 C16.7735162,0.5496 16.7859352,0.5496 16.8004114,0.541980952 C16.8570971,0.534361905 16.9157829,0.531314286 16.9754019,0.526552381 C16.8071352,0.510361905 16.6340495,0.499619048 16.4580876,0.499619048 C10.9830171,0.499619048 3.43964571,10.658381 0.0415219048,23.8143238 L0.696339048,23.8143238 C1.78385333,21.8749143 2.76079048,20.0402667 3.65407238,18.3180952 C6.03391238,8.99973333 10.8810933,2.6448 15.1869257,0.961161905" id="path12803" fill="url(#linearGradient-8)"></path>
                            <path d="M18.2684114,4.7055619 C18.8905638,4.11232381 19.5145829,3.57862857 20.133821,3.10462857 C19.9925067,2.79500952 19.8463543,2.50845714 19.6895733,2.24592381 C19.18864,2.85361905 18.7309448,3.6555619 18.2684114,4.7055619" id="path12807" fill="#0D82CA"></path>
                            <path d="M18.7181829,1.03967619 C19.0758781,1.33967619 19.3960305,1.75220952 19.6893448,2.24645714 C19.7816495,2.13299048 19.8749638,2.02815238 19.9720495,1.93007619 C19.5653448,1.55028571 19.1258781,1.23874286 18.6489448,1.00413333 C18.6681829,1.0148 18.6874019,1.02337143 18.7074019,1.03182857 C18.7074019,1.03182857 18.715021,1.03944762 18.718259,1.03944762" id="path12811" fill="#0D82CA"></path>
                            <path d="M3.65382667,18.319219 C8.6462019,8.69885714 11.011619,2.61030476 15.1866781,0.962209524 L15.1866781,0.962209524 C10.8818095,2.64691429 6.03366667,9.00177143 3.65382667,18.319219" id="path12831" fill="url(#linearGradient-9)"></path>
                            <path d="M19.9717257,1.92982857 C19.874659,2.02891429 19.7823543,2.1327619 19.68904,2.24622857 C19.8458019,2.50868571 19.9918971,2.79430476 20.1342781,3.10485714 C20.3188876,2.96354286 20.5025067,2.82984762 20.6852114,2.69908571 C20.4592876,2.42022857 20.2208114,2.1616 19.9717257,1.92982857" id="path12843" fill="#127BCA"></path>
                            <path d="M5.92020381,23.7722095 L5.92020381,23.7722095 C5.88943429,23.7798286 5.85866476,23.7798286 5.82981714,23.7830667 L5.81250286,23.7830667 C5.78650286,23.7830667 5.75957905,23.7906857 5.73557905,23.7906857 L5.72304571,23.7906857 C5.66058286,23.7983048 5.59900571,23.7983048 5.53938857,23.8030667 L5.5201581,23.8030667 C10.5731124,23.6616762 12.8827543,21.1317905 14.0289257,17.4625143 C14.9000876,14.680781 15.6154971,12.3374476 16.2424305,10.3711048 C14.1260495,13.35 12.0000495,16.9009714 9.86252571,20.8789333 C8.83174095,22.7962667 7.26441333,23.5972 5.92016381,23.7684381" id="path12923" fill="url(#linearGradient-10)"></path>
                            <path d="M5.92020381,23.7702857 L5.92020381,23.7702857 C7.26445333,23.5990476 8.83178286,22.7990476 9.86256571,20.880781 L9.86256571,20.880781 C12.0000876,16.9038095 14.12704,13.3518476 16.2414971,10.3729524 L16.2414971,10.3729524 C17.0107352,7.95845714 17.6453638,6.1104381 18.2684495,4.7036381 L18.2684495,4.7036381 C14.0539733,8.7152381 9.82314095,15.3855619 5.92020381,23.7683619" id="path12949" fill="url(#linearGradient-11)"></path>
                            <path d="M3.65358857,18.3194476 C2.76034476,20.041619 1.78340952,21.8762667 0.695855238,23.8156762 L2.60072762,23.8156762 C2.85265524,21.8896381 3.21035238,20.0530857 3.65358857,18.3203619" id="path12961" fill="#05A1E6"></path>
                            <path d="M16.8001638,0.546895238 C16.7847352,0.546895238 16.7732305,0.554514286 16.7597829,0.554514286 L16.7597829,0.554514286 C16.7366971,0.562133333 16.712621,0.562133333 16.688621,0.564609524 L16.688621,0.564609524 C16.6743352,0.564609524 16.6607733,0.564609524 16.6463162,0.572228571 L16.6463162,0.572228571 C16.6203162,0.579847619 16.5963162,0.580609524 16.5713067,0.585371429 L16.5713067,0.585371429 C16.5596876,0.585371429 16.54824,0.585371429 16.538621,0.592990476 L16.538621,0.592990476 C16.4837638,0.602133333 16.4299543,0.612228571 16.3761067,0.621447619 L16.3761067,0.621447619 L16.357821,0.621447619 L16.357821,0.621447619 C16.3299733,0.629066667 16.3049067,0.633066667 16.2789829,0.63687619 L16.2789829,0.63687619 C16.265459,0.644495238 16.2520495,0.644495238 16.2395162,0.647542857 L16.2395162,0.647542857 C16.2135924,0.655161905 16.1875924,0.6584 16.1626019,0.662971429 L16.1626019,0.662971429 C16.1490781,0.670590476 16.1386019,0.670590476 16.1260495,0.671352381 L16.1260495,0.671352381 C16.03664,0.692895238 15.9481638,0.715980952 15.8587352,0.740590476 L15.8587352,0.740590476 C15.8492114,0.740590476 15.8395162,0.748209524 15.8279733,0.749733333 L15.8279733,0.749733333 C15.801059,0.757352381 15.775059,0.765161905 15.7472114,0.773580952 L15.7472114,0.773580952 C15.7355924,0.7812 15.7222019,0.7812 15.710659,0.784247619 L15.710659,0.784247619 C15.6837448,0.791866667 15.6568114,0.79967619 15.6308495,0.808095238 L15.6308495,0.808095238 C15.6203733,0.808095238 15.6116305,0.815714286 15.6020114,0.815714286 L15.6020114,0.815714286 C15.5404686,0.838780952 15.4798971,0.861866667 15.4164305,0.881104762 L15.4164305,0.881104762 L15.4164305,0.881104762 L15.4164305,0.881104762 C15.3895162,0.889485714 15.360659,0.90032381 15.331821,0.91032381 L15.331821,0.91032381 C15.3202019,0.917942857 15.3096686,0.919657143 15.2962781,0.924990476 L15.2962781,0.924990476 C15.2693448,0.933371429 15.2424305,0.944228571 15.217421,0.954228571 L15.217421,0.954228571 C15.2078971,0.961847619 15.1982019,0.962609524 15.1914971,0.966609524 L15.1914971,0.966609524 C11.0164476,2.61470476 8.65103048,8.70325714 3.65865524,18.323619 L3.65865524,18.323619 C3.21537905,20.0563429 2.85672,21.8928952 2.60575619,23.8188571 L2.60575619,23.8188571 L2.87306667,23.8188571 C3.6259619,23.8188571 3.83846476,23.8112381 4.70482286,23.8112381 L4.70482286,23.8112381 L4.74905333,23.8112381 L4.87790095,23.8112381 L4.92213333,23.8112381 L4.93466667,23.8112381 L4.97889714,23.8112381 L5.00389714,23.8112381 L5.02121143,23.8112381 L5.05582667,23.8112381 L5.1635219,23.8112381 L5.27121524,23.8112381 L5.3616,23.8112381 L5.3856019,23.8112381 L5.54425714,23.8112381 L5.54425714,23.8112381 C5.60387238,23.803619 5.66541333,23.803619 5.72791429,23.7988571 L5.72791429,23.7988571 L5.73945714,23.7988571 L5.73945714,23.7988571 C5.76545714,23.7988571 5.79138095,23.7912381 5.81638095,23.7912381 L5.81638095,23.7912381 L5.83460952,23.7912381 L5.83460952,23.7912381 C5.86245524,23.7912381 5.89422476,23.783619 5.92499429,23.780381 L5.92499429,23.780381 C9.82793333,15.397581 14.0587543,8.72725714 18.2732305,4.71565714 L18.2732305,4.71565714 C18.7366971,3.66565714 19.19344,2.86371429 19.693459,2.25700952 L19.693459,2.25700952 C19.4011352,1.76278095 19.0809448,1.34931429 18.7232495,1.0492381 L18.7232495,1.0492381 C18.7232495,1.0492381 18.7135352,1.0492381 18.7127733,1.04161905 L18.7127733,1.04161905 C18.6925448,1.0332381 18.6734019,1.02314286 18.6531733,1.0131619 L18.6531733,1.0131619 C18.6329257,1.00230476 18.6156305,0.99392381 18.5945448,0.983161905 L18.5945448,0.983161905 C18.576259,0.975542857 18.5550971,0.965447619 18.5368495,0.955466667 L18.5368495,0.955466667 C18.511859,0.947847619 18.4916305,0.936990476 18.4695543,0.926990476 L18.4695543,0.926990476 C18.4512686,0.919371429 18.4349257,0.911561905 18.416621,0.90392381 L18.416621,0.90392381 C18.3790781,0.889257143 18.3416305,0.87392381 18.3060495,0.857771429 L18.3060495,0.857771429 C18.2896686,0.850152381 18.2743543,0.846152381 18.2588876,0.840057143 L18.2588876,0.840057143 C18.2329638,0.83072381 18.2031162,0.818514286 18.1762019,0.806971429 L18.1762019,0.806971429 C18.1626781,0.799352381 18.1473448,0.797828571 18.1319733,0.792304762 L18.1319733,0.792304762 C18.0925829,0.779161905 18.0540876,0.765390476 18.0175352,0.753066667 L18.0175352,0.753066667 L18.0080114,0.753066667 L18.0080114,0.753066667 C17.9637638,0.7384 17.9205067,0.727695238 17.8753067,0.715371429 L17.8753067,0.715371429 C17.8648305,0.707752381 17.8560686,0.707752381 17.8455352,0.706228571 L17.8455352,0.706228571 C17.8060686,0.695371429 17.771459,0.684685714 17.7339924,0.674685714 L17.7339924,0.674685714 C17.7244686,0.674685714 17.7157067,0.667066667 17.7080686,0.667066667 L17.7080686,0.667066667 C17.6176876,0.643219048 17.5244114,0.624 17.4301829,0.606304762 L17.4301829,0.606304762 C17.4204686,0.606304762 17.4109638,0.598685714 17.4013448,0.598685714 L17.4013448,0.598685714 C17.3609638,0.591066667 17.3215352,0.584019048 17.2811543,0.579447619 L17.2811543,0.579447619 C17.27144,0.571828571 17.2657257,0.571828571 17.2571543,0.571828571 L17.2571543,0.571828571 C17.2090781,0.564209524 17.1619543,0.558685714 17.1148305,0.553352381 L17.1148305,0.553352381 L17.08984,0.553352381 L17.08984,0.553352381 C17.0513829,0.545733333 17.01584,0.544971429 16.980221,0.540971429 L16.980221,0.540971429 C16.9196114,0.548590476 16.8619543,0.551828571 16.8052114,0.557161905" id="path12981" fill="url(#linearGradient-12)"></path>
                            <path d="M45.2120876,6.25365714 C44.2514971,9.33062857 43.4735924,11.8691238 42.7966781,13.957619 L42.7966781,13.957619 C45.4322781,10.3306476 48.0284686,5.7680381 50.500659,0.502666667 L50.500659,0.502666667 C47.6169257,1.4083619 46.0784495,3.48154286 45.2120876,6.25365714" id="path13003" fill="url(#linearGradient-13)"></path>
                            <path d="M42.8803162,22.4577333 C42.7457067,22.5261905 42.6110971,22.5913524 42.4783924,22.6500381 C47.6053829,20.3634667 53.7208495,11.2941143 56.6488114,0.00264761905 L56.0554971,0.00264761905 C49.3284876,12.0191238 47.1650019,20.0634667 42.8803162,22.4577333" id="path13093" fill="url(#linearGradient-14)"></path>
                            <path d="M39.5324686,21.4481714 C40.647859,20.0866286 41.5564876,17.7722095 42.7969638,13.9576952 C41.3661067,15.9231048 39.9257829,17.6125905 38.4843733,18.9904571 C38.4843733,18.9980762 38.4843733,18.9980762 38.4767543,19.0028381 C38.7912305,19.9451619 39.1363733,20.7768571 39.5296876,21.448019" id="path13097" fill="#079AE1"></path>
                            <path d="M39.5324686,21.4481714 C39.152621,21.9116571 38.7507543,22.2645714 38.3035924,22.5261143 C38.2055162,22.5830476 38.1065257,22.6366667 38.0055162,22.6857333 C38.4776876,22.9405143 38.9930019,23.1107429 39.5699162,23.1789714 L39.5699162,23.1789714 C39.6544686,23.1873524 39.7381638,23.1951619 39.8257067,23.2012762 L39.8411352,23.2012762 C39.8803733,23.2012762 39.9219162,23.2012762 39.964221,23.2088952 L39.9811733,23.2088952 L40.1071733,23.2088952 L40.2427924,23.2088952 L40.2851162,23.2088952 L40.3812686,23.2088952 C40.3966971,23.2088952 40.4127924,23.2088952 40.4281829,23.2012762 C40.4581829,23.2012762 40.4897257,23.2012762 40.5204876,23.1936571 L40.5313448,23.1936571 L40.5659543,23.1936571 C40.5974971,23.1936571 40.6321067,23.1860381 40.6659543,23.1828 L40.6735733,23.1828 C40.6836686,23.1828 40.6943352,23.175181 40.7043352,23.175181 C40.7397257,23.1675619 40.776659,23.1643238 40.8111162,23.1589905 L40.842659,23.1589905 C40.8818781,23.1513714 40.9224305,23.1466095 40.9628114,23.1389905 L40.9704305,23.1389905 L40.9820495,23.1389905 C41.0628305,23.1235619 41.1416686,23.1082286 41.22144,23.0882286 C40.5598971,22.8459048 40.0060495,22.2747429 39.5291162,21.4612762" id="path13101" fill="#1969BC"></path>
                            <path d="M30.080259,23.2088952 C30.5601067,23.2088952 31.0447352,23.161981 31.5312686,23.0685143 C31.9812876,22.986819 32.432221,22.8617333 32.8841448,22.7040381 C33.2601448,22.8877333 33.6543733,23.0242857 34.0716876,23.1088952 C34.3957067,23.1750476 34.73224,23.2088952 35.0851733,23.2088952 L30.080259,23.2088952 L30.080259,23.2088952 Z" id="path13105" fill="#1E5CB3"></path>
                            <path d="M35.0852495,23.2088952 C36.2698781,23.2088952 37.2083543,23.0685143 38.0055162,22.6858095 C38.4776114,22.9405905 38.9930019,23.110819 39.5699162,23.1791238 L39.5699162,23.1791238 C39.6545448,23.1875048 39.73824,23.1953143 39.8257067,23.2014286 L39.8411352,23.2014286 C39.8803733,23.2014286 39.9219162,23.2014286 39.964221,23.2090476 L39.9819352,23.2090476 L40.1079352,23.2090476 L35.081859,23.2090476 L35.0852495,23.2088952 Z" id="path13109" fill="#1E5CB3"></path>
                            <path id="path13113" fill="#1D60B5" d="M40.1109257,23.2088952 L40.2474781,23.2088952 L40.2897829,23.2088952 L40.385021,23.2088952 C40.4012114,23.2088952 40.4165448,23.2088952 40.4319352,23.2012762 C40.4619352,23.2012762 40.4934781,23.2012762 40.5252495,23.1936571 L40.5353448,23.1936571 L40.5707352,23.1936571 C40.602259,23.1936571 40.6368876,23.1860381 40.6698019,23.1829905 L40.6781829,23.1829905 C40.6882781,23.1829905 40.6981829,23.1753714 40.7081829,23.1753714 C40.7435733,23.1677524 40.7805067,23.1647048 40.8148876,23.159181 C40.8265067,23.159181 40.8356495,23.159181 40.8479543,23.1515619 C40.8871924,23.1439429 40.9278019,23.1399429 40.9682019,23.1323429 L40.975821,23.1323429 L40.98744,23.1323429 C41.068221,23.1169143 41.147059,23.1015619 41.2268305,23.0815619 L41.2268305,23.0815619 C41.4585257,23.1671048 41.6999162,23.210419 41.9604495,23.210419 L40.1123543,23.2180381 L40.1109257,23.2088952 Z"></path>
                            <path d="M38.47984,19.0029905 L38.47984,18.9953714 C37.9519733,19.5001524 37.42504,19.9627048 36.89904,20.3809333 C36.6240305,20.5992381 36.3500305,20.8059429 36.0731162,21.001181 C36.3048114,21.2780952 36.5404305,21.5377143 36.7885067,21.7742667 C37.16544,22.139581 37.5682781,22.4473524 38.0077448,22.684819 C38.1077448,22.635581 38.2077448,22.5818857 38.3048305,22.5252 C38.7529067,22.2636571 39.1548495,21.9108 39.5346971,21.4473333 C39.1413829,20.7761714 38.796221,19.944381 38.4817638,19.0020762" id="path13117" fill="#175FAB"></path>
                            <path d="M54.17664,0.00264761905 L51.6823733,0.00264761905 L51.4342781,0.00264761905 L51.4342781,0.00264761905 L51.1996686,0.00264761905 L51.1996686,0.00264761905 L51.1905257,0.00264761905 C51.0289829,0.0102666667 50.8722971,0.0157904762 50.71744,0.0257333333 L50.71744,0.0257333333 C50.6443733,0.182514286 50.5693638,0.33927619 50.4972114,0.496971429 L50.4972114,0.496971429 C48.0250971,5.76234286 45.4289067,10.3249524 42.7933067,13.9519238 L42.7933067,13.9519238 C41.553859,17.7663619 40.64424,20.0808571 39.5288305,21.442419 L39.5288305,21.442419 C40.0057638,22.2558857 40.5605829,22.8279619 41.2202019,23.0702857 L41.2202019,23.0702857 C41.23944,23.0626667 41.2548114,23.0626667 41.2721257,23.0586667 L41.2721257,23.0586667 L41.2827924,23.0586667 L41.2827924,23.0586667 C41.2944114,23.0586667 41.3067924,23.0510476 41.3193448,23.0510476 L41.3193448,23.0510476 C41.346259,23.0434286 41.3751162,23.0386667 41.4020305,23.0302857 L41.4020305,23.0302857 C41.4193638,23.0226667 41.4337257,23.0219048 41.4511162,23.016381 L41.4511162,23.016381 C41.4761067,23.0087619 41.5020305,23.0032381 41.5251162,22.9971429 L41.5251162,22.9971429 C41.5405448,22.9895238 41.5558781,22.9870476 41.5712686,22.984 L41.5712686,22.984 C41.6097257,22.971619 41.6443352,22.9624571 41.6808876,22.9509143 L41.6808876,22.9509143 C41.698221,22.9432952 41.7165067,22.9370095 41.7357257,22.9324381 L41.7357257,22.9324381 C41.7568876,22.924819 41.7780305,22.9192952 41.7972686,22.9101333 L41.7972686,22.9101333 C41.819421,22.9025143 41.8414971,22.8985143 41.8607352,22.8901333 L41.8607352,22.8901333 C41.8780686,22.8825143 41.8962781,22.8777524 41.912659,22.8708952 L41.912659,22.8708952 C41.9558781,22.8554667 41.99824,22.8424381 42.0414971,22.8255048 L42.0414971,22.8255048 C42.0531162,22.8255048 42.0645829,22.8148381 42.0771162,22.8123619 L42.0771162,22.8123619 C42.10304,22.8015048 42.1299733,22.7931238 42.1559733,22.781581 L42.1559733,22.781581 C42.1654971,22.7739619 42.1771162,22.7732 42.1895733,22.7692 L42.1895733,22.7692 C42.2799733,22.7315048 42.3732305,22.6930476 42.4665067,22.6509714 L42.4665067,22.6509714 L42.476221,22.6509714 L42.476221,22.6509714 C42.6089067,22.5925143 42.7435352,22.5268952 42.8771924,22.4586667 L42.8771924,22.4586667 C47.1628305,20.0644 49.3263543,12.0200571 56.0533638,0.00358095238 L56.0533638,0.00358095238 L54.1744876,0.00358095238 L54.17664,0.00264761905 Z" id="path13139" fill="url(#linearGradient-15)"></path>
                            <path d="M16.9753638,0.530666667 C16.9860305,0.530666667 16.9955924,0.530666667 17.0061257,0.538285714 C17.0320495,0.538285714 17.0580495,0.538285714 17.0840114,0.546666667 L17.1100114,0.546666667 C17.1570971,0.554285714 17.20424,0.558285714 17.2523162,0.565142857 C17.2610781,0.565142857 17.2686971,0.565142857 17.2763162,0.572761905 C17.3157067,0.580380952 17.3561257,0.586666667 17.3965067,0.592761905 C17.4052686,0.592761905 17.4167543,0.600380952 17.4263543,0.600380952 C17.5186781,0.618857143 17.6129067,0.63807619 17.7032876,0.66192381 C17.711859,0.66192381 17.720621,0.669542857 17.7282971,0.669542857 C17.7667543,0.678685714 17.8013638,0.690304762 17.839821,0.701066667 C17.85144,0.701066667 17.8599733,0.708685714 17.8706019,0.7104 C17.915821,0.722019048 17.9581067,0.733485714 18.0023352,0.748095238 C18.00424,0.748095238 18.0069067,0.748095238 18.0120495,0.755714286 C18.0494971,0.767142857 18.0879733,0.781866667 18.127421,0.794933333 C18.1428495,0.802552381 18.1571924,0.805790476 18.1716495,0.8096 C18.1985829,0.821219048 18.2284305,0.832666667 18.2543543,0.843447619 C18.2697829,0.843447619 18.2851162,0.854114286 18.301421,0.859638095 C18.3369638,0.875828571 18.3745067,0.8904 18.41104,0.905790476 C18.4302781,0.913409524 18.4465829,0.921980952 18.4648876,0.928857143 C18.4860495,0.939714286 18.5081257,0.949638095 18.5312114,0.957333333 C18.5504305,0.96647619 18.5715924,0.976552381 18.589821,0.985009524 C18.6100495,0.995866667 18.6292114,1.00424762 18.6485067,1.01500952 C19.12544,1.2496381 19.5648686,1.56217143 19.9716114,1.94102857 C20.1216114,1.78333333 20.2783352,1.64194286 20.4408495,1.51502857 C19.5514019,0.884247619 18.5437067,0.524628571 17.3811924,0.524628571 C17.2465638,0.524628571 17.1119543,0.532247619 16.975421,0.542342857" id="path13231" fill="#7DCBEC"></path>
                            <path d="M19.9717448,1.92982857 C20.2207924,2.16152381 20.4592495,2.42022857 20.6852114,2.69908571 C20.9034781,2.5471619 21.11984,2.40099048 21.3371543,2.26445714 C21.0525257,1.97982857 20.7525257,1.72405714 20.4400114,1.50382857 C20.2775162,1.62982857 20.1217448,1.77213333 19.9717448,1.92982857" id="path13235" fill="#5EC5ED"></path>
                            <g id="g13243" transform="translate(20.389605, 1.340135) scale(1, -1) translate(-20.389605, -1.340135) translate(16.062623, 0.378583)" fill="url(#linearGradient-16)">
                                <path d="M0.91251245,1.77117801 C1.04905277,1.78271663 1.18367,1.78752439 1.31828722,1.78752439 C2.48080308,1.78752439 3.48850914,1.4279041 4.37794435,0.798087812 C5.31641869,1.53848253 6.45104956,1.7971399 8.0270326,1.7971399 L0.3951977,1.7971399 C0.571161639,1.7971399 0.743279372,1.78656284 0.91251245,1.77117801" id="path13245"></path>
                            </g>
                            <g id="g13253" transform="translate(23.755035, 1.340135) scale(1, -1) translate(-23.755035, -1.340135) translate(19.908829, 0.378583)" fill="url(#linearGradient-17)">
                                <path d="M4.18082627,1.7971399 C2.60484323,1.7971399 1.47021237,1.53848253 0.531738024,0.798087812 C0.843280736,0.5778925 1.14328483,0.32211978 1.4279041,0.0375005117 C2.7346527,0.868281078 4.02890112,1.41828858 5.30488007,1.65867648 C5.79142517,1.75002388 6.27700872,1.7971399 6.75586141,1.7971399 L4.18082627,1.7971399 L4.18082627,1.7971399 Z" id="path13255"></path>
                            </g>
                            <path d="M42.7966781,13.9595429 C43.4745638,11.8691238 44.2505257,9.3316381 45.21304,6.25365714 C46.0803733,3.48055238 47.6159733,1.40744762 50.4996495,0.502666667 C50.575821,0.347809524 50.6477448,0.188190476 50.721821,0.0314285714 C46.0207543,0.3132 43.8236114,2.70453333 42.717821,6.24598095 C40.7841448,12.4287429 39.6129638,16.4364952 38.4850781,18.990381 C39.9254781,17.6134286 41.3658781,15.9230286 42.7966781,13.9595429" id="path13333" fill="url(#linearGradient-18)"></path>
                        </g>
                    </g>
                </g>
            </g>
        </g>
    </g>
</svg>