<?xml version="1.0" encoding="UTF-8" standalone="no"?>
<svg width="90px" height="90px" viewBox="0 0 90 90" version="1.1" xmlns="http://www.w3.org/2000/svg" xmlns:xlink="http://www.w3.org/1999/xlink" xmlns:sketch="http://www.bohemiancoding.com/sketch/ns">
    <!-- Generator: Sketch 3.3 (11970) - http://www.bohemiancoding.com/sketch -->
    <title>Oval 1 + scala</title>
    <desc>Created with Sketch.</desc>
    <defs>
        <path id="path-1" d="M43.540146,50 L6.09489051,50 C2.73722628,50 0,47.2426471 0,43.8602941 L0,6.13970588 C0,2.75735294 2.73722628,0 6.09489051,0 L43.5766423,0 C46.9343066,0 49.6715328,2.75735294 49.6715328,6.13970588 L49.6715328,43.8970588 C49.6350365,47.2426471 46.8978102,50 43.540146,50 L43.540146,50 Z"></path>
    </defs>
    <g id="Page-1" stroke="none" stroke-width="1" fill="none" fill-rule="evenodd" sketch:type="MSPage">
        <g id="Desktop" sketch:type="MSArtboardGroup" transform="translate(-1081.000000, -3633.000000)">
            <g id="Rectangle-154-+-Group" sketch:type="MSLayerGroup" transform="translate(0.000000, 600.000000)">
                <g id="Group" transform="translate(0.000000, 58.000000)">
                    <g id="Oval-1-+-scala" transform="translate(1081.000000, 2975.000000)">
                        <circle id="Oval-1" fill="#FFFFFF" sketch:type="MSShapeGroup" cx="45" cy="45" r="45"></circle>
                        <g id="scala" transform="translate(20.000000, 20.000000)">
                            <g id="Scala_Icon">
                                <path d="M43.540146,50 L6.09489051,50 C2.73722628,50 0,47.2426471 0,43.8602941 L0,6.13970588 C0,2.75735294 2.73722628,0 6.09489051,0 L43.5766423,0 C46.9343066,0 49.6715328,2.75735294 49.6715328,6.13970588 L49.6715328,43.8970588 C49.6350365,47.2426471 46.8978102,50 43.540146,50 L43.540146,50 Z" id="XMLID_1_" fill="#DC332D" sketch:type="MSShapeGroup"></path>
                                <g id="shadow">
                                    <g id="Clipped">
                                        <mask id="mask-2" sketch:name="XMLID_2_" fill="white">
                                            <use xlink:href="#path-1"></use>
                                        </mask>
                                        <g id="XMLID_2_"></g>
                                        <path d="M13.3211679,20.3676471 L16.5693431,23.6397059 L13.3211679,32.7205882 L16.8248175,36.2132353 L13.3211679,45.0367647 L18.2846715,50 L49.6350365,50 L49.6350365,18.3823529 L36.3138686,4.96323529 L36.3138686,7.5 L13.3211679,20.3676471 Z" id="Shape" opacity="0.3" fill="#000000" sketch:type="MSShapeGroup" mask="url(#mask-2)"></path>
                                    </g>
                                </g>
                                <g id="logo" transform="translate(13.138686, 4.779412)" fill="#FFFFFF" sketch:type="MSShapeGroup">
                                    <g id="Group" transform="translate(0.000000, 6.250000)">
                                        <path d="M0.182481752,9.33823529 C0.182481752,9.33823529 23.1386861,11.6544118 23.1386861,15.5147059 L23.1386861,6.25 C23.1386861,6.25 23.1386861,2.38970588 0.182481752,0.0735294118 L0.182481752,3.67647059 L0.182481752,9.33823529 L0.182481752,9.33823529 Z" id="Shape"></path>
                                        <path d="M0.182481752,21.6911765 C0.182481752,21.6911765 23.1386861,24.0073529 23.1386861,27.8676471 L23.1386861,18.6029412 C23.1386861,18.6029412 23.1386861,14.7426471 0.182481752,12.4264706 L0.182481752,21.6911765 L0.182481752,21.6911765 Z" id="Shape"></path>
                                    </g>
                                    <path d="M23.1751825,0.183823529 L23.1751825,9.44852941 C23.1751825,9.44852941 23.1751825,13.3088235 0.218978102,15.625 L0.218978102,6.32352941 C0.182481752,6.32352941 23.1751825,4.04411765 23.1751825,0.183823529" id="Shape"></path>
                                    <path d="M0.182481752,18.6764706 C0.182481752,18.6764706 23.1386861,16.3602941 23.1386861,12.5 L23.1386861,21.7647059 C23.1386861,21.7647059 23.1386861,25.625 0.182481752,27.9411765 L0.182481752,18.6764706 L0.182481752,18.6764706 Z" id="Shape"></path>
                                    <path d="M0.182481752,40.2573529 L0.182481752,30.9926471 C0.182481752,30.9926471 23.1386861,28.6764706 23.1386861,24.8161765 L23.1386861,34.0808824 C23.1751825,34.1176471 23.1751825,37.9411765 0.182481752,40.2573529" id="Shape"></path>
                                </g>
                            </g>
                        </g>
                    </g>
                </g>
            </g>
        </g>
    </g>
</svg>