<?xml version="1.0" encoding="UTF-8" standalone="no"?>
<svg width="463px" height="463px" viewBox="0 0 463 463" version="1.1" xmlns="http://www.w3.org/2000/svg" xmlns:xlink="http://www.w3.org/1999/xlink">
    <!-- Generator: Sketch 3.8.3 (29802) - http://www.bohemiancoding.com/sketch -->
    <title>Group</title>
    <desc>Created with Sketch.</desc>
    <defs></defs>
    <g id="Page-1" stroke="none" stroke-width="1" fill="none" fill-rule="evenodd">
        <g id="Group">
            <circle id="Oval-1" fill="#FFFFFF" cx="231.5" cy="231.5" r="231.5"></circle>
            <g id="apple" transform="translate(92.000000, 50.000000)" fill="#999999">
                <path d="M153.157304,29.5744171 C175.529312,0.143481117 206.631751,0 206.631751,0 C206.631751,0 211.258185,27.6700821 189.032728,54.3251888 C165.301485,82.7869294 138.327654,78.1296552 138.327654,78.1296552 C138.327654,78.1296552 133.262684,55.7454844 153.157304,29.5744171 L153.157304,29.5744171 Z" id="Shape"></path>
                <path d="M141.173099,97.5124466 C152.68241,97.5124466 174.043103,81.7217077 201.847018,81.7217077 C249.706648,81.7217077 268.534575,115.712217 268.534575,115.712217 C268.534575,115.712217 231.710483,134.503777 231.710483,180.100624 C231.710483,231.537767 277.58328,249.264663 277.58328,249.264663 C277.58328,249.264663 245.516511,339.349031 202.203328,339.349031 C182.309827,339.349031 166.84363,325.96844 145.882877,325.96844 C124.522185,325.96844 103.324825,339.848144 89.5187968,339.848144 C49.9672837,339.849261 0,254.394811 0,185.703645 C0,118.121248 42.2940362,82.6685714 81.9641328,82.6685714 C107.753247,82.6685714 127.765891,97.5124466 141.173099,97.5124466 L141.173099,97.5124466 Z" id="Shape"></path>
            </g>
        </g>
    </g>
</svg>
