<?xml version="1.0" encoding="UTF-8" standalone="no"?>
<svg
   xmlns:dc="http://purl.org/dc/elements/1.1/"
   xmlns:cc="http://creativecommons.org/ns#"
   xmlns:rdf="http://www.w3.org/1999/02/22-rdf-syntax-ns#"
   xmlns:svg="http://www.w3.org/2000/svg"
   xmlns="http://www.w3.org/2000/svg"
   xml:space="preserve"
   enable-background="new 0 0 403.25 353.688"
   viewBox="0 0 400 400.00001"
   height="400"
   width="400"
   y="0px"
   x="0px"
   id="Lager_1"
   version="1.1"><metadata
     id="metadata29"><rdf:RDF><cc:Work
         rdf:about=""><dc:format>image/svg+xml</dc:format><dc:type
           rdf:resource="http://purl.org/dc/dcmitype/StillImage" /><dc:title></dc:title></cc:Work></rdf:RDF></metadata><defs
     id="defs27" /><g
     transform="translate(-1.182,22.709489)"
     id="g4166"><path
       style="fill:#a90533"
       id="path7"
       d="m 69.974,298.27401 c -29.674,-31.444 -47.036,-74.884 -46.992,-126.714 -0.041,-45.837 14.361,-85.235998 39.12,-115.215998 l -0.04,0.015 -52.04,0 0,0 0,241.919998 59.915,0 0.037,-0.005 z" /><path
       style="fill:#a90533"
       id="path9"
       d="m 344.046,298.29401 c 12.783,-13.691 24.237,-29.815 34.616,-48.255 l -57.6,-28.8 c -20.229,32.887 -49.812,63.158 -90.72,63.36 -59.537,-0.202 -82.929,-51.112 -82.8,-116.64 l 222.48,0 0,0 c 0.297,-7.398 0.297,-10.838 0,-14.399 1.452,-38.985 -8.88,-71.753998 -27.675,-97.272998 l -0.097,0.073 50.092,0 0,241.919998 -48.405,0 0.109,0.014 z" /><path
       style="fill:#a90533"
       id="path11"
       d="m 151.143,111.79901 c 2.463,-29.667998 25.854,-49.619998 53.28,-49.679998 27.613,0.06 47.564,20.012 48.24,49.679998 l -101.52,0 0,0 z" /></g></svg>