<?xml version="1.0" encoding="utf-8"?>
<!-- Generator: Adobe Illustrator 21.0.2, SVG Export Plug-In . SVG Version: 6.00 Build 0)  -->
<svg xmlns="http://www.w3.org/2000/svg" xmlns:xlink="http://www.w3.org/1999/xlink" version="1.1" id="Layer_2" x="0px" y="0px" viewBox="0 0 90 90" width="90px" height="90px" style="enable-background:new 0 0 90 90;" xml:space="preserve">
<style type="text/css">
	.st0{fill:#FFFFFF;}
	.st1{fill:#FBC53D;}
	.st2{fill:#DA2119;}
</style>
<circle class="st0" cx="45" cy="45" r="45"/>
<circle class="st1" cx="45" cy="45" r="24.7"/>
<g>
	<polygon class="st2" points="26.1,34.4 33.1,34.4 33.1,53.5 30.5,53.5 30.5,36.9 26.1,36.9  "/>
	<polygon class="st2" points="23.2,37.8 29.6,37.8 29.6,53.5 27,53.5 27,40.4 23.2,40.4  "/>
	<path class="st2" d="M46,47.5c-2,0-3.7-1.6-3.7-3.6c0-2,1.8-3.6,3.7-3.6c1.9,0,3.4,1.5,3.4,3.4c0,0,0,0.1,0,0.1h2.5c0,0,0,0,0,0   c0-3.4-2.5-6.1-5.9-6.1c-3.9,0-6.3,2.7-6.3,6.1S42.6,50,46,50c0.1,0,0.4,0,0.5,0l20.5,0v-2.6L46,47.5"/>
	<path class="st2" d="M52.4,50.9L46,50.8c-0.7,0-1-0.1-1.3-0.1c-3.3-0.5-5.8-3.3-5.8-6.8c0-3.8,3.1-6.7,6.9-6.9   c4.1-0.1,7.1,3.1,7.1,6.9h2.4c0-5.3-4.3-9.6-9.6-9.6s-9.6,4.3-9.6,9.6c0,5.2,4.2,9.3,9.3,9.4l2.3,0h19.3v-2.5H52.4z"/>
</g>
</svg>