<?xml version="1.0" encoding="UTF-8" standalone="no"?>
<!-- Generator: Adobe Illustrator 16.0.0, SVG Export Plug-In . SVG Version: 6.00 Build 0)  -->

<svg
   xmlns:dc="http://purl.org/dc/elements/1.1/"
   xmlns:cc="http://creativecommons.org/ns#"
   xmlns:rdf="http://www.w3.org/1999/02/22-rdf-syntax-ns#"
   xmlns:svg="http://www.w3.org/2000/svg"
   xmlns="http://www.w3.org/2000/svg"
   xmlns:sodipodi="http://sodipodi.sourceforge.net/DTD/sodipodi-0.dtd"
   xmlns:inkscape="http://www.inkscape.org/namespaces/inkscape"
   version="1.1"
   id="Layer_1"
   x="0px"
   y="0px"
   width="400"
   height="400"
   viewBox="0 0 399.99999 400"
   enable-background="new 0 0 361.958 444.604"
   xml:space="preserve"
   sodipodi:docname="23.svg"
   inkscape:version="0.92.2 5c3e80d, 2017-08-06"><metadata
     id="metadata4980"><rdf:RDF><cc:Work
         rdf:about=""><dc:format>image/svg+xml</dc:format><dc:type
           rdf:resource="http://purl.org/dc/dcmitype/StillImage" /><dc:title></dc:title></cc:Work></rdf:RDF></metadata><defs
     id="defs4978" /><sodipodi:namedview
     pagecolor="#ffffff"
     bordercolor="#666666"
     borderopacity="1"
     objecttolerance="10"
     gridtolerance="10"
     guidetolerance="10"
     inkscape:pageopacity="0"
     inkscape:pageshadow="2"
     inkscape:window-width="1920"
     inkscape:window-height="1080"
     id="namedview4976"
     showgrid="false"
     inkscape:zoom="1.9950338"
     inkscape:cx="180.47776"
     inkscape:cy="202.25222"
     inkscape:window-x="0"
     inkscape:window-y="0"
     inkscape:window-maximized="0"
     inkscape:current-layer="Layer_1" /><circle
     style="fill:#ffffff;fill-opacity:1;stroke:none;stroke-width:5.096035;stroke-miterlimit:4;stroke-dasharray:none;stroke-opacity:1"
     id="path5119"
     cx="200"
     cy="200"
     r="200" /><g
     id="background"
     transform="translate(0,-44.604)" /><g
     id="g5037"
     transform="matrix(0.97614556,0,0,0.97614556,-2.7759292,48.874151)"><g
       transform="matrix(0.24008588,0,0,0.24008588,27.284379,-263.97111)"
       id="g3332_1_"><path
         style="fill:#fbc712"
         inkscape:connector-curvature="0"
         d="M 751.584,1350.484 457.39,1323.606 226.453,1219.208 h 262.563 l 262.569,131.146"
         id="path24_1_" /><path
         style="fill:#fbc712"
         inkscape:connector-curvature="0"
         d="m 751.584,1350.484 311.798,-36.112 213.351,-95.165 h -262.585 l -262.565,131.146"
         id="path26_1_" /><path
         style="fill:#f6871f"
         inkscape:connector-curvature="0"
         d="m 751.584,2138.194 262.565,31.251 262.585,100.017 H 1014.149 L 751.584,2138.047"
         id="path28_1_" /><path
         style="fill:#f15e22"
         inkscape:connector-curvature="0"
         d="m 751.584,2138.194 -262.569,28.221 -262.563,103.047 h 262.563 l 262.569,-131.415"
         id="path30_1_" /><path
         style="fill:#fcee23"
         inkscape:connector-curvature="0"
         d="m 357.733,1744.341 -38.752,308.28 -92.529,216.841 v -262.548 l 131.28,-262.719"
         id="path32_1_" /><path
         style="fill:#fcee23"
         inkscape:connector-curvature="0"
         d="M 357.733,1744.341 328.215,1462.012 226.453,1219.208 v 262.561 l 131.28,262.426"
         id="path34_1_" /><path
         style="fill:#f04923"
         inkscape:connector-curvature="0"
         d="m 1145.433,1744.341 37.885,-285.408 93.399,-239.725 v 262.561 l -131.284,262.426"
         id="path36_1_" /><path
         style="fill:#f04923"
         inkscape:connector-curvature="0"
         d="m 1145.433,1744.341 25.617,289.817 105.667,235.304 v -262.548 l -131.284,-262.719"
         id="path38_1_" /><path
         style="fill:#f8b218"
         inkscape:connector-curvature="0"
         d="m 226.453,1219.208 525.131,131.276 v 393.633 H 357.733 l -131.28,-524.645"
         id="path16_1_" /><path
         style="fill:#f89d1c"
         inkscape:connector-curvature="0"
         d="m 226.453,2269.462 131.28,-525.121 393.851,-0.224 v 393.776 l -525.131,131.036"
         id="path22_1_" /><path
         style="fill:#f37321"
         inkscape:connector-curvature="0"
         d="m 1276.734,1219.208 -131.301,525.109 -393.849,-0.199 v -393.654 l 525.15,-130.991"
         id="path18_1_" /><path
         style="fill:#f15e22"
         inkscape:connector-curvature="0"
         d="m 1276.734,2269.462 -525.15,-131.268 v -394.077 l 393.849,0.224 131.301,524.588"
         id="path20_1_" /><path
         style="fill:#f6871f"
         inkscape:connector-curvature="0"
         d="m 751.584,1350.484 -393.851,393.857 393.851,393.853 393.849,-393.877 -393.849,-393.963"
         id="path14_1_" /></g></g></svg>