<?xml version="1.0" encoding="UTF-8" standalone="no"?>
<svg width="90px" height="90px" viewBox="0 0 90 90" version="1.1" xmlns="http://www.w3.org/2000/svg" xmlns:xlink="http://www.w3.org/1999/xlink" xmlns:sketch="http://www.bohemiancoding.com/sketch/ns">
    <!-- Generator: Sketch 3.3 (11970) - http://www.bohemiancoding.com/sketch -->
    <title>Oval 1 + python</title>
    <desc>Created with Sketch.</desc>
    <defs>
        <linearGradient x1="1.06341024e-07%" y1="9.14856261e-08%" x2="74.5209927%" y2="64.1103734%" id="linearGradient-1">
            <stop stop-color="#5A9FD4" offset="0%"></stop>
            <stop stop-color="#306998" offset="100%"></stop>
        </linearGradient>
        <linearGradient x1="49.9999998%" y1="82.2756107%" x2="23.4426562%" y2="44.914431%" id="linearGradient-2">
            <stop stop-color="#FFD43B" offset="0%"></stop>
            <stop stop-color="#FFE873" offset="100%"></stop>
        </linearGradient>
    </defs>
    <g id="Page-1" stroke="none" stroke-width="1" fill="none" fill-rule="evenodd" sketch:type="MSPage">
        <g id="Desktop" sketch:type="MSArtboardGroup" transform="translate(-271.000000, -2407.000000)">
            <g id="Rectangle-154-+-Group" sketch:type="MSLayerGroup" transform="translate(0.000000, 600.000000)">
                <g id="Group" transform="translate(0.000000, 58.000000)" sketch:type="MSShapeGroup">
                    <g id="Group-Copy-3-+-Rectangle-118-+-Oval-1-+-asp_net_icon_transparent-Copy-Copy-Copy-Copy" transform="translate(128.000000, 1749.000000)">
                        <g id="Oval-1-+-python" transform="translate(143.000000, 0.000000)">
                            <circle id="Oval-1" fill="#FFFFFF" cx="45" cy="45" r="45"></circle>
                            <g id="path1948-+-path1950" transform="translate(20.000000, 20.000000)">
                                <path d="M24.7813196,0.176094204 C22.735046,0.18551823 20.7809004,0.358491416 19.0614536,0.660054381 C13.9961786,1.54700296 13.076521,3.40346239 13.0765205,6.82708982 L13.0765205,11.3486606 L25.0463866,11.3486606 L25.0463866,12.8558509 L13.0765205,12.8558509 L8.58433304,12.8558509 C5.1055567,12.8558509 2.05944054,14.928292 1.10665437,18.8707845 C0.00762758929,23.389796 -0.0411202232,26.2097327 1.10665437,30.9283066 C1.95751522,34.4406305 3.98948616,36.9432394 7.46826161,36.9432403 L11.583775,36.9432403 L11.583775,31.5228863 C11.583775,27.6070004 15.0021429,24.152865 19.0614536,24.1528642 L31.0173687,24.1528642 C34.3454719,24.1528642 37.0023031,21.4368624 37.0023018,18.1241031 L37.0023018,6.82708982 C37.0023018,3.61189558 34.2657036,1.1966573 31.0173687,0.660054381 C28.9611246,0.320795398 26.8275933,0.166670177 24.7813196,0.176094204 L24.7813196,0.176094204 Z M18.3081054,3.81270929 C19.5445103,3.81270929 20.5541991,4.82980929 20.5541991,6.08040841 C20.5541982,7.32657478 19.5445103,8.33428009 18.3081054,8.33428009 C17.0672679,8.33427965 16.0620116,7.32657434 16.0620116,6.08040841 C16.0620112,4.82980973 17.0672679,3.81270929 18.3081054,3.81270929 L18.3081054,3.81270929 Z" id="path1948" fill="url(#linearGradient-1)"></path>
                                <path d="M38.4950473,12.8558509 L38.4950473,18.1241031 C38.4950473,22.208508 35.0013442,25.6462265 31.0173687,25.646227 L19.0614536,25.646227 C15.7865281,25.646227 13.076521,28.4243168 13.0765205,31.6749881 L13.0765205,42.972 C13.0765205,46.1871947 15.8973187,48.0783363 19.0614536,49.0007611 C22.8504406,50.1050133 26.4838808,50.3045796 31.0173687,49.0007611 C34.0308308,48.1359867 37.0023031,46.3956239 37.0023018,42.972 L37.0023018,38.4504305 L25.0463866,38.4504305 L25.0463866,36.9432403 L37.0023018,36.9432403 L42.9872366,36.9432403 C46.4660134,36.9432403 47.7623482,34.5381925 48.9721652,30.9283066 C50.2218661,27.2119854 50.168692,23.6381403 48.9721652,18.8707845 C48.112442,15.4382885 46.4704375,12.8558509 42.9872366,12.8558509 L38.4950473,12.8558509 L38.4950473,12.8558509 Z M31.770717,41.4648111 C33.0115554,41.4648124 34.0168107,42.4725177 34.0168107,43.7186814 C34.0168098,44.9692788 33.011554,45.9863805 31.770717,45.9863805 C30.5343107,45.9863805 29.5246232,44.9692788 29.5246232,43.7186814 C29.5246241,42.4725177 30.5343094,41.4648111 31.770717,41.4648111 L31.770717,41.4648111 Z" id="path1950" fill="url(#linearGradient-2)"></path>
                            </g>
                        </g>
                    </g>
                </g>
            </g>
        </g>
    </g>
</svg>