<?xml version="1.0" ?><!DOCTYPE svg  PUBLIC '-//W3C//DTD SVG 1.1//EN'  'http://www.w3.org/Graphics/SVG/1.1/DTD/svg11.dtd'><svg enable-background="new 0 0 48 48" height="48px" id="Layer_1" version="1.1" viewBox="0 0 48 48" width="48px" xml:space="preserve" xmlns="http://www.w3.org/2000/svg" xmlns:xlink="http://www.w3.org/1999/xlink"><g><path d="M24,0.017c-13.255,0-24,10.745-24,24s10.745,24.001,24,24.001s24-10.746,24-24.001S37.255,0.017,24,0.017z    M24,44.143c-11.046,0-20-8.955-20-20.001s8.954-20,20-20s20,8.954,20,20S35.046,44.143,24,44.143z" fill="#5d5700"/><g><path d="M22.782,31.945c-1.723,0-2.584,0.885-2.584,2.654c0,0.855,0.223,1.52,0.668,1.994s1.084,0.713,1.916,0.713    c0.833,0,1.473-0.244,1.924-0.73s0.678-1.145,0.678-1.977c0-0.844-0.223-1.498-0.668-1.961S23.626,31.945,22.782,31.945z" fill="#5d5700"/><path d="M29.339,12.415c-1.348-1.125-3.17-1.688-5.466-1.688c-2.283,0-4.443,0.473-6.486,1.406    c-1.146,0.516-0.632,1.686-0.63,1.692l0.458,0.959c0,0,0.541,0.917,1.707,0.466c0.012-0.004,0.016-0.002,0.027-0.007    c0.504-0.211,1.014-0.407,1.532-0.58c0.949-0.316,1.98-0.475,3.094-0.475c1.23,0,2.173,0.264,2.83,0.791s0.984,1.283,0.984,2.268    c0,0.844-0.203,1.57-0.607,2.18s-1.303,1.465-2.697,2.566c-1.171,0.914-1.992,1.799-2.461,2.654    c-0.469,0.856-0.703,1.929-0.703,3.218c-0.045,0.938,1.15,1.125,1.15,1.125h0.722c0,0,1.374,0.008,1.584-1.176    c0.003-0.016,0.008-0.021,0.011-0.037c0.048-0.75,0.22-1.371,0.531-1.846c0.369-0.563,1.1-1.272,2.189-2.128    c1.277-0.996,2.176-1.805,2.697-2.426s0.912-1.274,1.17-1.96s0.387-1.468,0.387-2.347C31.36,15.093,30.687,13.54,29.339,12.415z" fill="#5d5700"/></g></g></svg>
