<?xml version="1.0" encoding="UTF-8" standalone="no"?>
<svg width="24px" height="26px" viewBox="0 0 24 26" version="1.1" xmlns="http://www.w3.org/2000/svg" xmlns:xlink="http://www.w3.org/1999/xlink" xmlns:sketch="http://www.bohemiancoding.com/sketch/ns">
    <!-- Generator: Sketch 3.3.2 (12043) - http://www.bohemiancoding.com/sketch -->
    <title>Shape</title>
    <desc>Created with Sketch.</desc>
    <defs></defs>
    <g id="Page-1" stroke="none" stroke-width="1" fill="none" fill-rule="evenodd" sketch:type="MSPage">
        <g id="pic_logo_ft" sketch:type="MSLayerGroup" fill="#FFFFFF">
            <g id="Page-1" sketch:type="MSShapeGroup">
                <g id="Desktop">
                    <g id="logo-blue">
                        <path d="M18.5167362,21.0575122 L15.9154403,13.0237199 L22.7248147,8.05991312 L14.3077314,8.05991312 L11.7062811,0.0264306598 L11.7055092,0.024262044 L20.1238276,0.024262044 L22.7258954,8.05913863 L22.7260498,8.05898375 L22.7282111,8.0577445 C24.2392784,12.7190294 22.6829779,18.0206755 18.5167362,21.0575122 L18.5167362,21.0575122 L18.5167362,21.0575122 Z M4.89520843,21.0575122 L4.89304714,21.0590612 L11.7041198,26.0241071 L18.5167362,21.0576671 L11.7062811,16.0924662 L4.89520843,21.0575122 L4.89520843,21.0575122 Z M0.685431697,8.05789944 L0.685431697,8.05789944 C-0.905295481,12.9715182 0.941238658,18.178055 4.89381902,21.0584416 L4.89443655,21.0559632 L7.49604122,13.0226356 L0.688210528,8.05975823 L9.10328699,8.05975823 L11.7048917,0.0262757587 L11.7055092,0.0241071429 L3.2867276,0.0241071429 L0.685431697,8.05789944 L0.685431697,8.05789944 Z" id="Shape"></path>
                    </g>
                </g>
            </g>
        </g>
    </g>
</svg>