<?xml version="1.0" encoding="UTF-8" standalone="no"?>
<svg width="26px" height="26px" viewBox="0 0 26 26" version="1.1" xmlns="http://www.w3.org/2000/svg" xmlns:xlink="http://www.w3.org/1999/xlink" xmlns:sketch="http://www.bohemiancoding.com/sketch/ns">
    <!-- Generator: Sketch 3.3.2 (12043) - http://www.bohemiancoding.com/sketch -->
    <title>Imported-Layers-2</title>
    <desc>Created with Sketch.</desc>
    <defs></defs>
    <g id="Page-1" stroke="none" stroke-width="1" fill="none" fill-rule="evenodd" sketch:type="MSPage">
        <path d="M13,0 C5.81966665,0 0,5.82020833 0,13 C0,20.1797916 5.81966665,26 13,26 C20.1795208,26 26,20.1797916 26,13 C26,5.82020833 20.1795208,0 13,0 L13,0 L13,0 Z M20.0252618,9.5541191 C20.0324444,9.69988948 20.0353175,9.84637795 20.0353175,9.99358449 C20.0353175,14.4790757 16.6200228,19.651411 10.3751693,19.651411 C8.45815118,19.651411 6.67365079,19.0887947 5.17142395,18.1258485 C5.43645943,18.1578031 5.70652268,18.1736009 5.98089545,18.1736009 C7.57182657,18.1736009 9.03562685,17.6310909 10.1977607,16.7202055 C8.71205373,16.6932775 7.45798342,15.7116612 7.02595405,14.3631056 C7.23352925,14.4026 7.44613224,14.4241425 7.66484038,14.4241425 C7.97440756,14.4241425 8.27463745,14.3824938 8.55906577,14.3049411 C7.00620207,13.992935 5.83580828,12.6214009 5.83580828,10.9766369 C5.83580828,10.9622754 5.83580828,10.9482728 5.8361674,10.9342703 C6.29369477,11.1884708 6.81766058,11.3407039 7.37394778,11.3586559 C6.46284343,10.7497234 5.86382015,9.71101973 5.86382015,8.53300833 C5.86382015,7.91115043 6.03045494,7.32842793 6.32314317,6.82684856 C7.99739167,8.8805594 10.4994271,10.2319873 13.3210853,10.3734492 C13.2629068,10.1249933 13.2334585,9.86576613 13.2334585,9.59971722 C13.2334585,7.72516753 14.7536415,6.20570874 16.6282827,6.20570874 C17.6047482,6.20570874 18.4871224,6.61788707 19.1066159,7.2774442 C19.8801747,7.12521109 20.6066879,6.84300538 21.2628123,6.45380562 C21.0089098,7.24620769 20.4705789,7.91186851 19.7699228,8.33194573 C20.456573,8.24972549 21.1112609,8.06733299 21.7199806,7.79733464 C21.264608,8.47771611 20.6889279,9.07587734 20.0252618,9.5541191 L20.0252618,9.5541191 L20.0252618,9.5541191 Z" id="Imported-Layers-2" fill="#FFFFFF" sketch:type="MSShapeGroup"></path>
    </g>
</svg>