<?xml version="1.0" encoding="UTF-8" standalone="no"?>
<svg width="18px" height="18px" viewBox="0 0 18 18" version="1.1" xmlns="http://www.w3.org/2000/svg" xmlns:xlink="http://www.w3.org/1999/xlink" xmlns:sketch="http://www.bohemiancoding.com/sketch/ns">
    <!-- Generator: Sketch 3.3 (11970) - http://www.bohemiancoding.com/sketch -->
    <title>Shape</title>
    <desc>Created with Sketch.</desc>
    <defs></defs>
    <g id="Page-1" stroke="none" stroke-width="1" fill="none" fill-rule="evenodd" sketch:type="MSPage">
        <g id="Desktop" sketch:type="MSArtboardGroup" transform="translate(-170.000000, -2258.000000)" fill="#000000">
            <g id="Group" sketch:type="MSLayerGroup" transform="translate(128.000000, 1938.000000)">
                <path d="M53.6346923,321.234154 L52.8100769,322.058462 L52.3426923,322.525846 L52.4725385,323.175077 L52.9103846,325.365846 L53.0713077,326.172308 L53.8756154,326.332923 L56.0657692,326.770462 L56.7091538,326.898769 L57.1737692,326.434154 L58.007,325.600923 C58.0017692,326.716923 57.5691538,327.812923 56.7525385,328.629846 C55.943,329.439077 54.8617692,329.885231 53.7082308,329.885231 C53.2300769,329.885231 52.7571538,329.808308 52.3033077,329.657231 L51.5839231,329.417538 L51.0473077,329.954154 L45.363,335.639077 C45.1266923,335.874769 44.8125385,336.004615 44.4780769,336.004615 C44.1436154,336.004615 43.8294615,335.874769 43.5937692,335.639385 C43.3583846,335.404308 43.2291538,335.092308 43.2291538,334.760923 C43.2291538,334.428615 43.3583846,334.116615 43.5934615,333.881846 L49.2783846,328.196923 L49.8186923,327.657231 L49.5768462,326.931692 C49.0503846,325.352615 49.4436154,323.651385 50.603,322.492 C51.4116154,321.683692 52.4879231,321.236923 53.6346923,321.234154 L53.6346923,321.234154 Z M53.6479231,320 C52.2313077,320 50.8177692,320.536308 49.7353077,321.618154 C48.1906923,323.163077 47.7645385,325.382769 48.411,327.323077 L42.7257692,333.008 C41.7580769,333.976 41.7580769,335.545231 42.7257692,336.513231 C43.2097692,336.996615 43.8439231,337.238462 44.4780769,337.238462 C45.1122308,337.238462 45.7466923,336.996615 46.2303846,336.513231 L51.9153077,330.828 C52.4968462,331.021846 53.1023846,331.119077 53.7082308,331.119077 C55.1248462,331.119077 56.5386923,330.585846 57.6205385,329.504 C59.3343846,327.789231 59.6780769,325.244923 58.6931538,323.173846 L56.3060769,325.560923 L54.1156154,325.123077 L53.6774615,322.932 L56.0645385,320.545846 C55.3014615,320.183077 54.4740769,320 53.6479231,320 L53.6479231,320 L53.6479231,320 Z" id="Shape" sketch:type="MSShapeGroup"></path>
            </g>
        </g>
    </g>
</svg>