<?xml version="1.0" encoding="UTF-8" standalone="no"?>
<svg width="26px" height="26px" viewBox="0 0 26 26" version="1.1" xmlns="http://www.w3.org/2000/svg" xmlns:xlink="http://www.w3.org/1999/xlink" xmlns:sketch="http://www.bohemiancoding.com/sketch/ns">
    <!-- Generator: Sketch 3.3 (11970) - http://www.bohemiancoding.com/sketch -->
    <title>Imported Layers 2</title>
    <desc>Created with Sketch.</desc>
    <defs></defs>
    <g id="Page-1" stroke="none" stroke-width="1" fill="none" fill-rule="evenodd" sketch:type="MSPage">
        <g id="Desktop" sketch:type="MSArtboardGroup" transform="translate(-1283.000000, -37.000000)" fill="#FFFFFF">
            <g id="Github-Logotype-+-Star-+-Rectangle-6-+-Rectangle-6-+-15000-+-Imported-Layers-3-+-Imported-Layers-2" sketch:type="MSLayerGroup" transform="translate(1283.000000, 37.000000)">
                <g id="Imported-Layers-3-+-Imported-Layers-2" sketch:type="MSShapeGroup">
                    <path d="M12.569072,0 C5.62675455,0 0,5.62727827 0,12.569072 C0,19.5108657 5.62675455,25.138144 12.569072,25.138144 C19.5106038,25.138144 25.138144,19.5108657 25.138144,12.569072 C25.138144,5.62727827 19.5106038,0 12.569072,0 L12.569072,0 Z M19.3614583,9.23741622 C19.3684028,9.37835456 19.3711806,9.51998718 19.3711806,9.66231408 C19.3711806,13.9991188 16.0690972,19 10.03125,19 C8.17777778,19 6.45243056,18.4560335 5,17.5250073 C5.25625,17.5559027 5.51736111,17.5711768 5.78263889,17.5711768 C7.32083333,17.5711768 8.73611111,17.0466501 9.85972222,16.165959 C8.42326389,16.1399236 7.21076389,15.1908462 6.79305556,13.886993 C6.99375,13.9251782 7.19930556,13.9460066 7.41076389,13.9460066 C7.71006944,13.9460066 8.00034722,13.9057385 8.27534722,13.8307565 C6.77395833,13.5290929 5.64236111,12.2030228 5.64236111,10.61278 C5.64236111,10.5988945 5.64236111,10.5853561 5.64270833,10.5718177 C6.08506944,10.8175919 6.59166667,10.9647788 7.12951389,10.9821357 C6.24861111,10.3933883 5.66944444,9.38911586 5.66944444,8.25015354 C5.66944444,7.64890918 5.83055556,7.08550295 6.11354167,6.60055008 C7.73229167,8.58618388 10.1513889,9.89281423 12.8795139,10.0295869 C12.8232639,9.78936687 12.7947917,9.53873268 12.7947917,9.28150284 C12.7947917,7.4690913 14.2645833,6 16.0770833,6 C17.0211806,6 17.8743056,6.39851531 18.4732639,7.03620924 C19.2211806,6.8890224 19.9236111,6.61617133 20.5579861,6.23987289 C20.3125,7.00600817 19.7920139,7.64960346 19.1145833,8.05575583 C19.7784722,7.97626105 20.4114583,7.79991455 21,7.53886619 C20.5597222,8.19669417 20.003125,8.77502737 19.3614583,9.23741622 L19.3614583,9.23741622 Z" id="Imported-Layers-2"></path>
                </g>
            </g>
        </g>
    </g>
</svg>