<?xml version="1.0" encoding="UTF-8" standalone="no"?>
<svg width="83px" height="18px" viewBox="0 0 83 18" version="1.1" xmlns="http://www.w3.org/2000/svg" xmlns:xlink="http://www.w3.org/1999/xlink" xmlns:sketch="http://www.bohemiancoding.com/sketch/ns">
    <!-- Generator: Sketch 3.3 (11970) - http://www.bohemiancoding.com/sketch -->
    <title>JWT.IO</title>
    <desc>Created with Sketch.</desc>
    <defs></defs>
    <g id="Page-1" stroke="none" stroke-width="1" fill="none" fill-rule="evenodd" sketch:type="MSPage">
        <g id="Desktop" sketch:type="MSArtboardGroup" transform="translate(-131.000000, -43.000000)" fill="#FFFFFF">
            <g id="Logotype" sketch:type="MSLayerGroup" transform="translate(131.000000, 36.000000)">
                <g id="Group-+-JWT.IO" sketch:type="MSShapeGroup">
                    <path d="M4.464,24.288 C2.7039912,24.288 1.28000544,23.7200057 0.192,22.584 L1.512,20.448 C2.29600392,21.3440045 3.2079948,21.792 4.248,21.792 C5.09600424,21.792 5.77599744,21.5240027 6.288,20.988 C6.80000256,20.4519973 7.056,19.7520043 7.056,18.888 L7.056,7.992 L9.864,7.992 L9.864,18.912 C9.864,20.6720088 9.36800496,22.0079954 8.376,22.92 C7.38399504,23.8320046 6.08000808,24.288 4.464,24.288 L4.464,24.288 Z M30.2262857,24 L27.2262857,24 L24.1302857,12.168 L21.0102857,24 L18.0102857,24 L13.4502857,7.992 L16.5702857,7.992 L19.6902857,20.304 L23.0022857,7.992 L25.2342857,7.992 L28.5462857,20.304 L31.6662857,7.992 L34.8102857,7.992 L30.2262857,24 Z M44.9965715,24 L42.1885715,24 L42.1885715,10.464 L37.3405715,10.464 L37.3405715,7.992 L49.8445715,7.992 L49.8445715,10.464 L44.9965715,10.464 L44.9965715,24 Z M52.9028572,24.264 C52.454855,24.264 52.0628589,24.0960017 51.7268572,23.76 C51.3908555,23.4239983 51.2228572,23.0240023 51.2228572,22.56 C51.2228572,22.1119978 51.3908555,21.7240016 51.7268572,21.396 C52.0628589,21.0679984 52.454855,20.904 52.9028572,20.904 C53.3508594,20.904 53.7428555,21.0679984 54.0788572,21.396 C54.4148589,21.7240016 54.5828572,22.1119978 54.5828572,22.56 C54.5828572,23.0240023 54.4148589,23.4239983 54.0788572,23.76 C53.7428555,24.0960017 53.3508594,24.264 52.9028572,24.264 L52.9028572,24.264 Z M62.0811429,24 L59.2731429,24 L59.2731429,7.992 L62.0811429,7.992 L62.0811429,24 Z M74.6914287,24.288 C72.3074167,24.288 70.3474363,23.5080078 68.8114287,21.948 C67.275421,20.3879922 66.5074287,18.408012 66.5074287,16.008 C66.5074287,13.607988 67.275421,11.6280078 68.8114287,10.068 C70.3474363,8.5079922 72.3074167,7.728 74.6914287,7.728 C77.0754406,7.728 79.035421,8.5079922 80.5714287,10.068 C82.1074363,11.6280078 82.8754287,13.607988 82.8754287,16.008 C82.8754287,18.408012 82.1074363,20.3879922 80.5714287,21.948 C79.035421,23.5080078 77.0754406,24.288 74.6914287,24.288 L74.6914287,24.288 Z M74.6914287,21.792 C76.2754366,21.792 77.5554238,21.2440055 78.5314287,20.148 C79.5074335,19.0519945 79.9954287,17.6720083 79.9954287,16.008 C79.9954287,14.3279916 79.5074335,12.9440054 78.5314287,11.856 C77.5554238,10.7679946 76.2754366,10.224 74.6914287,10.224 C73.0914207,10.224 71.8074335,10.7679946 70.8394287,11.856 C69.8714238,12.9440054 69.3874287,14.3279916 69.3874287,16.008 C69.3874287,17.6880084 69.8714238,19.0719946 70.8394287,20.16 C71.8074335,21.2480054 73.0914207,21.792 74.6914287,21.792 L74.6914287,21.792 Z" id="JWT.IO"></path>
                </g>
            </g>
        </g>
    </g>
</svg>