<?xml version="1.0" encoding="UTF-8" standalone="no"?>
<svg width="148px" height="54px" viewBox="0 0 148 54" version="1.1" xmlns="http://www.w3.org/2000/svg" xmlns:xlink="http://www.w3.org/1999/xlink" xmlns:sketch="http://www.bohemiancoding.com/sketch/ns">
    <!-- Generator: Sketch 3.3 (11970) - http://www.bohemiancoding.com/sketch -->
    <title>logo-blue</title>
    <desc>Created with Sketch.</desc>
    <defs></defs>
    <g id="Page-1" stroke="none" stroke-width="1" fill="none" fill-rule="evenodd" sketch:type="MSPage">
        <g id="Desktop" sketch:type="MSArtboardGroup" transform="translate(-646.000000, -4821.000000)">
            <g id="logo-blue" sketch:type="MSLayerGroup" transform="translate(646.000000, 4821.000000)">
                <path d="M139.195922,14.1782143 C136.608165,14.1782143 134.419558,15.4015714 132.866519,17.7155357 C131.322771,20.0156786 130.506848,23.2264286 130.506848,27 C130.506848,30.7735714 131.322771,33.9843214 132.866519,36.2841429 C134.419558,38.5984286 136.608165,39.8214643 139.195922,39.8214643 C141.78368,39.8214643 143.972286,38.5984286 145.525325,36.2841429 C147.068753,33.9843214 147.884675,30.7735714 147.884675,27 C147.884675,23.2264286 147.068753,20.0156786 145.525325,17.7155357 C143.972286,15.4015714 141.78368,14.1782143 139.195922,14.1782143 L139.195922,14.1782143 L139.195922,14.1782143 Z M139.195922,36.6444643 C137.958745,36.6444643 136.981368,35.9421429 136.207091,34.497 C135.272,32.7513214 134.756883,30.0889286 134.756883,27 C134.756883,23.9110714 135.272,21.2483571 136.207091,19.503 C136.981368,18.0578571 137.958745,17.3552143 139.195922,17.3552143 C140.432779,17.3552143 141.410476,18.0578571 142.184753,19.503 C143.119844,21.2483571 143.634641,23.91075 143.634641,27 C143.634641,30.08925 143.119844,32.7519643 142.184753,34.497 C141.410476,35.9421429 140.432779,36.6444643 139.195922,36.6444643 L139.195922,36.6444643 L139.195922,36.6444643 Z M83.1138528,23.5195714 L83.1138528,34.5484286 C83.1138528,37.4560714 85.4716017,39.8214643 88.3694545,39.8214643 C90.896987,39.8214643 92.8065714,38.5633929 93.5097316,38.0221071 C93.5488139,37.9918929 93.6000693,37.9828929 93.6471602,37.998 C93.6942511,38.0131071 93.7307706,38.0503929 93.7451861,38.0979643 L94.1693247,39.4907143 L97.3010303,39.4907143 L97.3010303,23.5195714 L93.2768398,23.5195714 L93.2768398,35.4619286 C93.2768398,35.5181786 93.2451255,35.5699286 93.1954719,35.5959643 C92.4388139,35.9874643 90.946,36.6447857 89.4506234,36.6447857 C88.1759654,36.6447857 87.1380433,35.604 87.1380433,34.3243929 L87.1380433,23.5195714 L83.1138528,23.5195714 L83.1138528,23.5195714 Z M123.409255,39.4903929 L127.433766,39.4903929 L127.433766,28.4615357 C127.433766,25.5538929 125.076017,23.1881786 122.178165,23.1881786 C120.044978,23.1881786 118.333688,24.1084286 117.503671,24.6567857 C117.457221,24.6873214 117.398277,24.6898929 117.349905,24.6635357 C117.301532,24.6371786 117.270779,24.5863929 117.270779,24.5307857 L117.270779,14.5096071 L113.246589,14.5096071 L113.246589,39.4903929 L117.270779,39.4903929 L117.270779,27.5477143 C117.270779,27.4914643 117.302494,27.4397143 117.352468,27.414 C118.108805,27.0221786 119.601939,26.3651786 121.096996,26.3651786 C121.714623,26.3651786 122.295411,26.6065714 122.732043,27.0446786 C123.168675,27.4827857 123.408935,28.0658571 123.408935,28.68525 L123.408935,39.4903929 L123.409255,39.4903929 L123.409255,39.4903929 Z M100.201766,26.69625 L102.651134,26.69625 C102.734104,26.69625 102.801377,26.76375 102.801377,26.847 L102.801377,35.6329286 C102.801377,37.9423929 104.674121,39.8211429 106.97581,39.8211429 C107.810312,39.8211429 108.633602,39.7002857 109.425498,39.4617857 L109.425498,36.5772857 C108.963558,36.6181071 108.432424,36.6444643 108.056978,36.6444643 C107.377844,36.6444643 106.825567,36.09 106.825567,35.4088929 L106.825567,26.8466786 C106.825567,26.7634286 106.89284,26.6959286 106.97581,26.6959286 L109.425498,26.6959286 L109.425498,23.51925 L106.97581,23.51925 C106.89284,23.51925 106.825567,23.45175 106.825567,23.3685 L106.825567,18.0948214 L102.801377,18.0948214 L102.801377,23.3685 C102.801377,23.45175 102.734104,23.51925 102.651134,23.51925 L100.201766,23.51925 L100.201766,26.69625 L100.201766,26.69625 Z M76.6784156,39.4903929 L80.8647013,39.4903929 L74.4981385,17.2125 C73.9878268,15.426 72.3377229,14.1782143 70.4854805,14.1782143 C68.6332381,14.1782143 66.9831342,15.426 66.4725022,17.2125 L60.1059394,39.4903929 L64.2925455,39.4903929 L66.1351775,33.0422143 C66.1537576,32.9776071 66.2127013,32.93325 66.2796537,32.93325 L74.6913074,32.93325 C74.7582597,32.93325 74.8175238,32.9776071 74.8357835,33.0422143 L76.6784156,39.4903929 L76.6784156,39.4903929 Z M73.6975931,29.7565714 L67.2740087,29.7565714 C67.2269177,29.7565714 67.1823896,29.7343929 67.1538788,29.6961429 C67.1256883,29.6588571 67.1167186,29.6096786 67.1295325,29.5643571 L70.3413247,18.3252857 C70.3599048,18.2606786 70.4188485,18.2163214 70.4858009,18.2163214 C70.5527532,18.2163214 70.611697,18.2606786 70.6299567,18.3252857 L73.8420693,29.5643571 C73.8548831,29.61 73.8459134,29.6588571 73.8174026,29.6961429 C73.7892121,29.7343929 73.744684,29.7565714 73.6975931,29.7565714 L73.6975931,29.7565714 L73.6975931,29.7565714 Z" id="Shape" fill="#FFFFFF" sketch:type="MSShapeGroup"></path>
                <path d="M38.2990043,43.6696071 L32.9011688,26.9990357 L47.0310043,16.6988571 L29.5650823,16.6988571 L24.1669264,0.0289285714 L24.1653247,0.0244285714 L41.6338095,0.0244285714 L47.0332468,16.69725 L47.0335671,16.6969286 L47.0380519,16.6943571 C50.1736017,26.3667857 46.9441905,37.368 38.2990043,43.6696071 L38.2990043,43.6696071 L38.2990043,43.6696071 Z M10.0335671,43.6696071 L10.0290823,43.6728214 L24.1624416,53.9755714 L38.2990043,43.6699286 L24.1669264,33.3668571 L10.0335671,43.6696071 L10.0335671,43.6696071 Z M1.29804329,16.6946786 L1.29804329,16.6946786 C-2.00280519,26.8907143 1.82885714,37.6945714 10.030684,43.6715357 L10.0319654,43.6663929 L15.4304416,26.9967857 L1.30380952,16.6985357 L18.7655671,16.6985357 L24.1640433,0.0286071429 L24.1653247,0.0241071429 L6.69587879,0.0241071429 L1.29804329,16.6946786 L1.29804329,16.6946786 Z" id="Shape" fill="#EB5424" sketch:type="MSShapeGroup"></path>
            </g>
        </g>
    </g>
</svg>