<?xml version="1.0" encoding="UTF-8" standalone="no"?>
<svg width="90px" height="90px" viewBox="0 0 90 90" version="1.1" xmlns="http://www.w3.org/2000/svg" xmlns:xlink="http://www.w3.org/1999/xlink" xmlns:sketch="http://www.bohemiancoding.com/sketch/ns">
    <!-- Generator: Sketch 3.3 (11970) - http://www.bohemiancoding.com/sketch -->
    <title>Group Copy 2</title>
    <desc>Created with Sketch.</desc>
    <defs></defs>
    <g id="Page-1" stroke="none" stroke-width="1" fill="none" fill-rule="evenodd" sketch:type="MSPage">
        <g id="Desktop" sketch:type="MSArtboardGroup" transform="translate(-675.000000, -200.000000)">
            <g id="Group-Copy-2" sketch:type="MSLayerGroup" transform="translate(675.000000, 200.000000)">
                <path d="M51.84,24.3 L51.84,-7.10542736e-15 L38.34,-7.10542736e-15 L38.34,24.3 L45,33.48 L51.84,24.3 Z" id="Shape" fill="#FFFFFF" sketch:type="MSShapeGroup"></path>
                <path d="M38.34,65.7 L38.34,90 L51.84,90 L51.84,65.7 L45,56.52 L38.34,65.7 Z" id="Shape" fill="#FFFFFF" sketch:type="MSShapeGroup"></path>
                <path d="M51.84,65.7 L66.06,85.32 L76.86,77.4 L62.64,57.78 L51.84,54.36 L51.84,65.7 Z" id="Shape" fill="#00F2E6" sketch:type="MSShapeGroup"></path>
                <path d="M38.34,24.3 L23.94,4.68 L13.14,12.6 L27.36,32.22 L38.34,35.64 L38.34,24.3 Z" id="Shape" fill="#00F2E6" sketch:type="MSShapeGroup"></path>
                <path d="M27.36,32.22 L4.32,24.66 L0.18,37.44 L23.22,45 L34.02,41.4 L27.36,32.22 Z" id="Shape" fill="#00B9F1" sketch:type="MSShapeGroup"></path>
                <path d="M55.98,48.6 L62.64,57.78 L85.68,65.34 L89.82,52.56 L66.78,45 L55.98,48.6 Z" id="Shape" fill="#00B9F1" sketch:type="MSShapeGroup"></path>
                <path d="M66.78,45 L89.82,37.44 L85.68,24.66 L62.64,32.22 L55.98,41.4 L66.78,45 Z" id="Shape" fill="#D63AFF" sketch:type="MSShapeGroup"></path>
                <path d="M23.22,45 L0.18,52.56 L4.32,65.34 L27.36,57.78 L34.02,48.6 L23.22,45 Z" id="Shape" fill="#D63AFF" sketch:type="MSShapeGroup"></path>
                <path d="M27.36,57.78 L13.14,77.4 L23.94,85.32 L38.34,65.7 L38.34,54.36 L27.36,57.78 Z" id="Shape" fill="#FB015B" sketch:type="MSShapeGroup"></path>
                <path d="M62.64,32.22 L76.86,12.6 L66.06,4.68 L51.84,24.3 L51.84,35.64 L62.64,32.22 Z" id="Shape" fill="#FB015B" sketch:type="MSShapeGroup"></path>
            </g>
        </g>
    </g>
</svg>