<?xml version="1.0" encoding="UTF-8" standalone="no"?>
<svg width="19px" height="19px" viewBox="0 0 19 19" version="1.1" xmlns="http://www.w3.org/2000/svg" xmlns:xlink="http://www.w3.org/1999/xlink" xmlns:sketch="http://www.bohemiancoding.com/sketch/ns">
    <!-- Generator: Sketch 3.3 (11970) - http://www.bohemiancoding.com/sketch -->
    <title>Group Copy 5</title>
    <desc>Created with Sketch.</desc>
    <defs></defs>
    <g id="Page-1" stroke="none" stroke-width="1" fill="none" fill-rule="evenodd" sketch:type="MSPage">
        <g id="Desktop" sketch:type="MSArtboardGroup" transform="translate(-274.000000, -4473.000000)">
            <g id="Group" sketch:type="MSLayerGroup" transform="translate(180.000000, 4399.000000)">
                <g transform="translate(0.000000, 66.000000)" id="Rectangle-237-+-Group-+-Group-Copy-6" sketch:type="MSShapeGroup">
                    <g transform="translate(85.000000, 0.000000)">
                        <g id="Group-Copy-5" transform="translate(9.230769, 8.289474)">
                            <g id="Group-Copy-4">
                                <path d="M10.6338462,4.97368421 L10.6338462,-1.33226763e-15 L7.86461538,-1.33226763e-15 L7.86461538,4.97368421 L9.23076923,6.85263158 L10.6338462,4.97368421 Z" id="Shape" fill="#FFFFFF"></path>
                                <path d="M7.86461538,13.4473684 L7.86461538,18.4210526 L10.6338462,18.4210526 L10.6338462,13.4473684 L9.23076923,11.5684211 L7.86461538,13.4473684 Z" id="Shape" fill="#FFFFFF"></path>
                                <path d="M10.6338462,13.4473684 L13.5507692,17.4631579 L15.7661538,15.8421053 L12.8492308,11.8263158 L10.6338462,11.1263158 L10.6338462,13.4473684 Z" id="Shape" fill="#00F2E6"></path>
                                <path d="M7.86461538,4.97368421 L4.91076923,0.957894737 L2.69538462,2.57894737 L5.61230769,6.59473684 L7.86461538,7.29473684 L7.86461538,4.97368421 Z" id="Shape" fill="#00F2E6"></path>
                                <path d="M5.61230769,6.59473684 L0.886153846,5.04736842 L0.0369230769,7.66315789 L4.76307692,9.21052632 L6.97846154,8.47368421 L5.61230769,6.59473684 Z" id="Shape" fill="#00B9F1"></path>
                                <path d="M11.4830769,9.94736842 L12.8492308,11.8263158 L17.5753846,13.3736842 L18.4246154,10.7578947 L13.6984615,9.21052632 L11.4830769,9.94736842 Z" id="Shape" fill="#00B9F1"></path>
                                <path d="M13.6984615,9.21052632 L18.4246154,7.66315789 L17.5753846,5.04736842 L12.8492308,6.59473684 L11.4830769,8.47368421 L13.6984615,9.21052632 Z" id="Shape" fill="#D63AFF"></path>
                                <path d="M4.76307692,9.21052632 L0.0369230769,10.7578947 L0.886153846,13.3736842 L5.61230769,11.8263158 L6.97846154,9.94736842 L4.76307692,9.21052632 Z" id="Shape" fill="#D63AFF"></path>
                                <path d="M5.61230769,11.8263158 L2.69538462,15.8421053 L4.91076923,17.4631579 L7.86461538,13.4473684 L7.86461538,11.1263158 L5.61230769,11.8263158 Z" id="Shape" fill="#FB015B"></path>
                                <path d="M12.8492308,6.59473684 L15.7661538,2.57894737 L13.5507692,0.957894737 L10.6338462,4.97368421 L10.6338462,7.29473684 L12.8492308,6.59473684 Z" id="Shape" fill="#FB015B"></path>
                            </g>
                        </g>
                    </g>
                </g>
            </g>
        </g>
    </g>
</svg>