<?xml version="1.0" encoding="UTF-8" standalone="no"?>
<svg width="40px" height="40px" viewBox="0 0 40 40" version="1.1" xmlns="http://www.w3.org/2000/svg" xmlns:xlink="http://www.w3.org/1999/xlink" xmlns:sketch="http://www.bohemiancoding.com/sketch/ns">
    <!-- Generator: Sketch 3.3 (11970) - http://www.bohemiancoding.com/sketch -->
    <title>Group Copy 4</title>
    <desc>Created with Sketch.</desc>
    <defs></defs>
    <g id="Page-1" stroke="none" stroke-width="1" fill="none" fill-rule="evenodd" sketch:type="MSPage">
        <g id="Desktop" sketch:type="MSArtboardGroup" transform="translate(-700.000000, -4460.000000)">
            <g id="Group" sketch:type="MSLayerGroup" transform="translate(180.000000, 4399.000000)">
                <g id="Rectangle-216-Copy-+-https://jwt.io/asset-+-Oval-17-+-Rectangle-219-+-Group-Copy-4-+-Rectangle-216-Copy-+-https://jwt.io/asset-Copy-+-JWT.IO-Copy-+-Oval-17-+-Rectangle-219-+-Group-Copy-5-+-ic_content_copy_24px-copy-3-+-ic_content_copy_24px-copy-2" transform="translate(390.000000, 61.000000)" sketch:type="MSShapeGroup">
                    <g id="Rectangle-216-Copy-+-https://jwt.io/asset-+-Oval-17-+-Rectangle-219-+-Group-Copy-4-+-Rectangle-216-Copy-+-https://jwt.io/asset-Copy-+-JWT.IO-Copy-+-Oval-17-+-Rectangle-219-+-Group-Copy-5">
                        <g id="Oval-17-+-Rectangle-219-+-Group-Copy-4" transform="translate(130.000000, 0.000000)">
                            <g id="Rectangle-219-+-Group-Copy-4" transform="translate(0.423620, 0.423620)">
                                <g id="Group-Copy-4">
                                    <g id="Shape">
                                        <path d="M22.5519897,10.5712452 L22.5519897,-2.66453526e-15 L16.6790757,-2.66453526e-15 L16.6790757,10.5712452 L19.57638,14.5648267 L22.5519897,10.5712452 Z" fill="#FFFFFF"></path>
                                        <path d="M16.6790757,28.5815148 L16.6790757,39.1527599 L22.5519897,39.1527599 L22.5519897,28.5815148 L19.57638,24.5879332 L16.6790757,28.5815148 Z" fill="#FFFFFF"></path>
                                        <path d="M22.5519897,28.5815148 L28.7381258,37.1168164 L33.436457,33.6713736 L27.2503209,25.1360719 L22.5519897,23.648267 L22.5519897,28.5815148 Z" fill="#00F2E6"></path>
                                        <path d="M16.6790757,10.5712452 L10.4146341,2.03594352 L5.71630295,5.48138639 L11.902439,14.0166881 L16.6790757,15.5044929 L16.6790757,10.5712452 Z" fill="#00F2E6"></path>
                                        <path d="M11.902439,14.0166881 L1.87933248,10.7278562 L0.0783055199,16.2875481 L10.1014121,19.57638 L14.7997433,18.0102696 L11.902439,14.0166881 Z" fill="#00B9F1"></path>
                                        <path d="M24.3530167,21.1424904 L27.2503209,25.1360719 L37.2734275,28.4249037 L39.0744544,22.8652118 L29.0513479,19.57638 L24.3530167,21.1424904 Z" fill="#00B9F1"></path>
                                        <path d="M29.0513479,19.57638 L39.0744544,16.2875481 L37.2734275,10.7278562 L27.2503209,14.0166881 L24.3530167,18.0102696 L29.0513479,19.57638 Z" fill="#D63AFF"></path>
                                        <path d="M10.1014121,19.57638 L0.0783055199,22.8652118 L1.87933248,28.4249037 L11.902439,25.1360719 L14.7997433,21.1424904 L10.1014121,19.57638 Z" fill="#D63AFF"></path>
                                        <path d="M11.902439,25.1360719 L5.71630295,33.6713736 L10.4146341,37.1168164 L16.6790757,28.5815148 L16.6790757,23.648267 L11.902439,25.1360719 Z" fill="#FB015B"></path>
                                        <path d="M27.2503209,14.0166881 L33.436457,5.48138639 L28.7381258,2.03594352 L22.5519897,10.5712452 L22.5519897,15.5044929 L27.2503209,14.0166881 Z" fill="#FB015B"></path>
                                    </g>
                                </g>
                            </g>
                        </g>
                    </g>
                </g>
            </g>
        </g>
    </g>
</svg>